<svg width="129" height="176" viewBox="0 0 129 176" fill="none" xmlns="http://www.w3.org/2000/svg">
<mask id="mask0_1011_293" style="mask-type:luminance" maskUnits="userSpaceOnUse" x="0" y="0" width="129" height="176">
<path d="M111.801 39.4C111.401 37.2 109.401 35.8 107.201 36.1C106.401 36.2 105.601 36.6 105.001 37.2L84.2008 58L67.9008 26.9C66.9008 24.9 64.5008 24.2 62.5008 25.2C61.8008 25.6 61.2008 26.2 60.8008 26.9L51.9008 43.9L29.5008 2.09998C28.5008 0.199978 26.0008 -0.600021 24.1008 0.499979C23.0008 1.09998 22.2008 2.19998 22.0008 3.39998L0.300781 142L58.2008 174.5C61.8008 176.5 66.3008 176.5 69.9008 174.5L128.301 142L111.801 39.4Z" fill="white"/>
</mask>
<g mask="url(#mask0_1011_293)">
<path d="M0.300781 142L22.0008 3.40004C22.3008 1.20004 24.4008 -0.299967 26.6008 0.100033C27.8008 0.300033 28.9008 1.10003 29.5008 2.20003L51.9008 44L60.8008 27C61.8008 25 64.2008 24.3 66.2008 25.3C66.9008 25.7 67.5008 26.3 67.9008 27L128.301 142H0.300781Z" fill="#FFA000"/>
<path opacity="0.12" d="M74.3008 1L-31.6992 -8V184L0.300785 142L74.3008 1Z" fill="url(#paint0_linear_1011_293)"/>
<path d="M75.2008 88L51.9008 43.9L0.300781 142L75.2008 88Z" fill="#F57C00"/>
<path opacity="0.2" d="M-31.6992 -8H160.301V184H-31.6992V-8Z" fill="url(#paint1_linear_1011_293)"/>
<path d="M128.301 142L111.701 39.3C111.301 37.1 109.301 35.7 107.101 36C106.301 36.1 105.501 36.5 104.901 37.1L0.300781 142L58.2008 174.5C61.8008 176.5 66.3008 176.5 69.9008 174.5L128.301 142Z" fill="#FFCA28"/>
<path d="M111.801 39.4C111.401 37.2 109.401 35.8 107.201 36.1C106.401 36.2 105.601 36.6 105.001 37.2L84.2012 58L67.9012 26.9C66.9012 24.9 64.5012 24.2 62.5012 25.2C61.8012 25.6 61.2012 26.2 60.8012 26.9L51.9012 43.9L29.5012 2.09998C28.5012 0.199978 26.0012 -0.600021 24.1012 0.499979C23.0012 1.09998 22.2012 2.19998 22.0012 3.39998L0.301178 142H0.201172L0.301178 142.1L0.901176 142.4L84.2012 59L105.001 38.2C106.601 36.6 109.101 36.6 110.701 38.2C111.301 38.8 111.701 39.5 111.801 40.4L128.201 142.1L128.401 142L111.801 39.4ZM0.501175 141.8L22.0012 4.39998C22.3012 2.19998 24.4012 0.699978 26.6012 1.09998C27.8012 1.29998 28.9012 2.09998 29.5012 3.19998L51.9012 45L60.8012 28C61.8012 26 64.2012 25.3 66.2012 26.3C66.9012 26.7 67.5012 27.3 67.9012 28L83.9012 58.4L0.501175 141.8Z" fill="white" fill-opacity="0.2"/>
<path opacity="0.2" d="M69.9008 173.5C66.3008 175.5 61.8008 175.5 58.2008 173.5L0.40078 141.1L0.300781 142L58.2008 174.5C61.8008 176.5 66.3008 176.5 69.9008 174.5L128.301 142L128.201 141.1L69.9008 173.5Z" fill="#A52714"/>
<path d="M111.801 39.4C111.401 37.2 109.401 35.8 107.201 36.1C106.401 36.2 105.601 36.6 105.001 37.2L84.2008 58L67.9008 26.9C66.9008 24.9 64.5008 24.2 62.5008 25.2C61.8008 25.6 61.2008 26.2 60.8008 26.9L51.9008 43.9L29.5008 2.09998C28.5008 0.199978 26.0008 -0.600021 24.1008 0.499979C23.0008 1.09998 22.2008 2.19998 22.0008 3.39998L0.300781 142L58.2008 174.5C61.8008 176.5 66.3008 176.5 69.9008 174.5L128.301 142L111.801 39.4Z" fill="url(#paint2_linear_1011_293)"/>
</g>
<defs>
<linearGradient id="paint0_linear_1011_293" x1="25.2427" y1="94.5552" x2="17.2427" y2="90.3752" gradientUnits="userSpaceOnUse">
<stop stop-color="#A52714"/>
<stop offset="0.4" stop-color="#A52714" stop-opacity="0.5"/>
<stop offset="0.8" stop-color="#A52714" stop-opacity="0"/>
</linearGradient>
<linearGradient id="paint1_linear_1011_293" x1="59.2418" y1="82.9169" x2="55.6618" y2="79.3369" gradientUnits="userSpaceOnUse">
<stop stop-color="#A52714" stop-opacity="0.8"/>
<stop offset="0.5" stop-color="#A52714" stop-opacity="0.21"/>
<stop offset="1" stop-color="#A52714" stop-opacity="0"/>
</linearGradient>
<linearGradient id="paint2_linear_1011_293" x1="-3.14546" y1="30.9726" x2="130.541" y2="164.66" gradientUnits="userSpaceOnUse">
<stop stop-color="white" stop-opacity="0.1"/>
<stop offset="1" stop-color="white" stop-opacity="0"/>
</linearGradient>
</defs>
</svg>
