<svg xmlns="http://www.w3.org/2000/svg" width="20in" height="20in" viewBox="0 0 1440 1440"><defs><style>.a{fill:#fff;}</style></defs><title>github-logo</title><path class="a" d="M720,0C322.355,0,0,322.355,0,720s322.355,720,720,720,720-322.355,720-720S1117.645,0,720,0Zm374.5447,617.9612c-4.1868,33.9164-11.0676,68.6517-23.8729,100.1056-24.3029,59.6956-74.6656,91.0734-135.146,106.4953-31.6223,8.0633-64.0242,13.07-98.2127,19.8828,44.34,29.4775,46.2656,75.288,47.4184,120.7942.9809,38.7231,1.3251,77.5608-.5854,116.2224-1.2082,24.4507,8.0717,41.1,27.1226,54.3606,6.62,4.6078,12.4785,10.31,18.0993,15.0217-1.0407,3.0909-1.0939,4.832-1.8228,5.1876-43.0036,20.9721-98.7933-12.9163-99.6147-60.2025-.8076-46.48-1.75-92.9615-3.2565-139.4222-.373-11.5078-2.4574-23.3232-16.8632-30.9505-.4073,8.0073-.9373,13.66-.9446,19.3144-.0646,50.6751.5306,101.36-.288,152.0215-.3834,23.7348,5.3113,44.3483,20.0474,63.1843,4.3934,5.6158,4.4677,14.61,6.5211,22.0569-7.7658.3076-16.2961,2.8715-23.1686.5427-34.6384-11.7367-59.6494-32.8943-61.3684-72.4564-1.4731-33.9-1.8931-67.8543-2.3167-101.79-.3642-29.1734-.0754-58.3552-.0754-88.5086-14.9972-4.7474-16.1931,2.1471-16.2553,13.2343-.3175,56.6041-.3942,113.2419-2.5366,169.7928-1.6538,43.6517-26.2286,73.6388-64.2456,81.4568-6.5455,1.3459-14.1282-2.3528-21.2319-3.7212,2.7251-6.0419,5.2464-12.1865,8.224-18.1012,4.229-8.4008,12.283-16.4754,12.6645-24.9609,3.141-69.8553,4.8841-139.7736,4.4485-209.9954-14.7527,10.6569-18.16,25.0785-18.2578,40.6974-.2456,39.3466-.3241,78.6942-.4536,118.0415-.15,45.69-25.6551,72.4624-72.0421,74.7029-9.6994.4685-19.5164-1.4988-29.2792-2.3437l-2.3067-5.3522c6.4971-6.1107,12.3093-13.2459,19.6229-18.1353,20.063-13.4134,29.691-30.4477,27.96-55.5814-1.9506-28.331-.4491-56.8995-.4491-85.368-26.9783,0-51.9162,1.49-76.6114-.323-45.5854-3.3473-78.4361-27.4159-96.9482-68.6912-15.2814-34.0719-34.9685-63.415-67.4754-83.2335-4.18-2.5485-5.7852-9.32-8.5832-14.1356,4.6274-2.185,9.0682-5.6208,13.9134-6.3431,23.5954-3.5178,43.805,4.6032,59.8727,21.3972,14.3872,15.0375,27.3643,31.4392,40.7434,47.4233,29.5292,35.2782,91.81,46.9877,132.2354,24.4709a22.281,22.281,0,0,0,8.4667-8.4151c11.22-21.0417,22.0039-42.3158,32.3858-62.4528-25.3077-5.4491-55.7464-10.1716-85.1-18.651C437.1694,794.09,379.76,723.4593,369.7307,611.77q-1.9174-21.3519-2.81-42.7936c-2.3146-54.7087,12.81-103.6861,49.31-145.1082,7.5786-8.6008,8.7962-16.6515,6.1605-27.5983a214.1413,214.1413,0,0,1,1.6517-107.8491c8.2882-30.4572,13.6767-36.1873,43.1179-26.3271,35.7871,11.9857,70.4665,28.0513,104.1093,45.307,14.5082,7.4413,25.5251,10.6055,42.2961,6.8,78.264-17.7578,157.3236-16.6509,236.0779-2.58,12.294,2.1967,21.0441-.5515,31.7409-5.4749,36.5785-16.8365,73.2855-33.8275,111.216-47.1313,23.1687-8.1261,31.8186-3.1313,35.3485,21.137,4.8234,33.1619,3.491,67.19,5.5624,100.799.6167,10.0072.5279,22.7276,6.32,29.33C1092.7981,470.6577,1103.9087,542.1036,1094.5447,617.9612Z"/></svg>