<svg xmlns="http://www.w3.org/2000/svg" width="3000" height="950" viewBox="0 0 3000 950"><defs><style>.a,.b{fill:#fff;}.a{opacity:0.5;}</style></defs><title>hero-bg-swirls-bigger</title><path class="a" d="M2461.9292,477.3612c195.0327-79.749,355.7911-161.36,390.2894-323.3519C2891.5838-30.836,2700.46-133.1083,2700.46-133.1083S1758.5068,1.2726,1698.51,1.2726c6,105.8822,33.27,234.4877,157.4921,275.0987,155.9922,50.9974,198.6975-99.1691,380.1884-115.6683,85.9791-7.8163,164.4115,51.3669,158.95,130.4935-10.457,151.4924-263.1518,235.6622-566.1366,226.6627s-308.9846-263.9868-482.9759-338.9831-302.9848-34.4982-379.481-56.9971S867.5513,1.2726,867.5513,1.2726L1.8667,1.3333S98.9292,374.2726,306.9292,420.2726C519.6068,467.307,542.1341,267.6149,648.5623,274.8713c65.9967,4.5,77.58,80.9718,169.5911,97.2632,143.8932,25.4777,242.202-66.5519,386.8811-64.2648,147.79,2.3362,210.72,125.3649,388.4805,223.4888C1781.0057,634.8533,2266.8965,557.11,2461.9292,477.3612Z"/><path class="a" d="M1407.1576,789.5122c98.5091-78.1789,98.9049-287.573-53.273-316.573-119.8527-22.84-263.4413,111.1225-421.8221,86-145-23-149-133-250-140-100.1639-6.942-211.5894,66.4392-227.3573,160.8478C442.5039,652.8415,495,716,554.3333,788.6667,604.3055,849.8685,459.1912,1014.7275,204,779,86,670,1.8667,488-102,494c-165.2359,9.5451,8.0653,485.8025,65,509,74.3119,30.2777,636.35,61.0129,643.3333,53.6667,154-162,348.1918-179.2222,442-182.6667C1204.68,868.2592,1343.9666,839.6619,1407.1576,789.5122Z"/><path class="a" d="M2199.0625,868.9392c-8.5625-41.1892-39.0625-49.6892-73-53-46.947-4.58-256,1-235-129s199.5271-7.5277,354-28c83-11,74.9759-85.8946,170.9759-83.8946s151.0866,62.8338,163.0241,120.8946,29.8307,220.69,147.794,196.6168C2895.83,858.0733,2928.91,621.5862,2953,535c17-61.1026,67.9052-151.5671,90-131,37.0944,34.53,13.6275,204.5026-2.6667,266-31,117-85,243.3333-248.6666,274-343.5383,64.37-378.4222-46.5825-423.5445-128.7913s-185.06-139.6028-227.56-97.5195c-19.5,24.5834-.0833,48.8334,41.1667,55.9167C2239.4436,783.5165,2291.5,801,2314.0625,833.9392,2438,1039,2157.2272,1136.5572,2098.5605,1139.5572c-12.4769.638-447.3307,7.0093-622.978-34.4983C1235.9252,1048.425,1290.0187,883.9994,1665,872c220.56-7.0579,277.9122,90.353,391.57,95.0238C2166.064,971.5236,2205.312,899.0018,2199.0625,868.9392Z"/><path class="b" d="M1332.026,758.0138c73.71-45.2656,102.38-130.32,21.3845-170.9915-58.3969-29.3237-184.8764-4.5-265.8723,29.9985s-201.6863,51.2785-274.4863,29.9985C715.5568,618.5207,727.5562,533.025,640.5605,533.025,612,533.025,545.5978,550.4064,546,621c.2546,44.691,44,75,78.9723,137.6751,13.2726,23.7863,56.215,150.5076-101.333,178.3922C412.067,956.8147,239,927,144,852-38.1881,708.1673-94.6514,520.7458-113.8289,706.0789-140,959,308.8934,1273.0891,589.5,972,697.3809,856.2444,784,814.1549,882.1,812.4186,1042.11,809.5865,1249,809,1332.026,758.0138Z"/><path class="b" d="M1218.0625,274.9392s-68.0346-54.9517-145-48c-103.3333,9.3334-136,74.8478-221,62.9239s-127.5695-91.2861-199-92.9239C526.7016,194.042,465.7171,341.3759,317.7171,319.3759s-239-275-100-401,373.9792-63.8769,433.3454-25.4367c174,112.6667,136,286.6667,284.6667,298.6667,85.2226,6.879,87.3333-22,169.3333-3.6667C1156.6011,199.4621,1195.0625,225.9392,1218.0625,274.9392Z"/><path class="b" d="M1797.7292-103.7274c10.6666,58.6666-37.3334,214.6666,60.6666,256s143.487-51.1827,313.7235-81.2245c101.9949-17.9991,261.2334,12.4,292.4854,107.9946,25.4987,77.9961,25.4987,188.9906-158.992,307.4846,265.4867-94.4952,432.5838-196.6129,431.9784-359.982C2737.1248.72,2599.2693-116.3929,2554.6-114.9426,2451.9336-111.6092,1797.7292-103.7274,1797.7292-103.7274Z"/></svg>