<svg xmlns="http://www.w3.org/2000/svg" width="471.447" height="666.1678" viewBox="0 0 471.447 666.1678"><defs><style>.a{fill:#e5a328;}.b{fill:#f1be27;}.c{fill:#181818;}.d{fill:#fefefd;}.e{fill:#ececed;}</style></defs><title>javascript-logo</title><polygon class="a" points="43.249 612.141 235.041 666.168 428.334 612.141 471.447 130.805 0 130.805 43.249 612.141"/><polygon class="b" points="234.979 170.005 234.979 626.261 391.106 581.509 428.334 170.005 234.979 170.005"/><polygon class="c" points="237.099 90.536 321.294 90.536 321.294 68.407 280.705 24.907 321.294 24.907 321.294 0 237.099 0 237.099 20.64 275.792 64.314 237.099 64.314 237.099 90.536"/><polygon class="c" points="222.778 0.007 222.778 90.529 149.982 90.529 149.982 60.217 191.134 60.217 191.134 0.007 222.778 0.007"/><polygon class="d" points="234.979 256.284 306.99 256.285 312.932 320.038 372.388 320.038 361.265 192.842 234.979 193.073 234.979 256.284"/><polygon class="d" points="234.979 563.714 356.217 529.717 372.257 348.326 234.979 348.326 235.007 408.511 307.807 408.511 299.04 484.544 234.979 502.811 234.979 563.714"/><polygon class="e" points="234.979 502.811 168.881 483.556 165.142 437.24 105.123 437.24 113.624 530.097 234.979 563.714 234.979 502.811"/><polygon class="e" points="170.869 348.326 179.249 256.284 234.979 256.284 234.979 193.073 124.467 192.842 105.781 408.511 235.007 408.511 234.979 348.326 170.869 348.326"/></svg>