<svg xmlns="http://www.w3.org/2000/svg" width="80in" height="17.2682in" viewBox="0 0 5760 1243.3123"><defs><style>.a{fill:#fff;}</style></defs><title>long-waves</title><path class="a" d="M0,975c96.9863,0,219.2877-50.6667,329.0408-31.4207,121.4362,21.2946,221.9959,125.9815,393.5145,124.4937,124.1289-1.0767,223.3861-61.4969,306.2313-83.9958C1216.4819,933.1034,1308.8219,975,1440,975V879c-136.3989,0-226.0261-62.7354-352.0383-59.9145C967.4957,821.7823,811.6346,970.89,729.863,975c-150.8073,7.58-187.0737-93.7417-313.5389-125.916C266.63,811,131.7894,879,0,879Z" transform="translate(0 -128.7196)"/><ellipse class="a" cx="628.7852" cy="757.9806" rx="184.9795" ry="96.8258" transform="translate(-107.6269 -24.6524) rotate(-8.7183)"/><path class="a" d="M918.2466,445C1113.5342,457,1303.6011,629.9044,1440,629.9044v96c-131.1781,0-261.37-38.9044-397.4795-74.9044-82.9883-21.95-230.94-75.0767-355.0684-74C515.9334,578.4878,450.477,715.7783,329.0408,694.4837,219.2877,675.2377,96.9863,725.9044,0,725.9044v-96c131.7894,0,175.9351-69.4758,308.1223-73.6944C596.7123,547,722.9589,433,918.2466,445Z" transform="translate(0 -128.7196)"/><path class="a" d="M920.8865,340.7929c87.8846-5.4,109.3472-76.561,190.1135-77.7929,98.7039-1.5054,253.9842,67.5956,329,67.5956v-96c-131.1781,0-258.73-135.8027-394.84-99.8027-82.9883,21.95-230.94,75.0767-355.0685,74-171.5186-1.4878-239.6149-92.6626-361.0511-71.368C219.2877,156.6709,96.9863,234.5956,0,234.5956v96c131.7894,0,216.8128-71.8142,349-67.5956C637.59,272.21,725.5988,352.7929,920.8865,340.7929Z" transform="translate(0 -128.7196)"/><path class="a" d="M919,1371c87.8846-5.4,111.2337-92.4143,192-93.6461,98.7039-1.5055,253.9842,67.5956,329,67.5956v-96c-131.1781,0-258.73-135.8027-394.84-99.8027-82.9883,21.95-230.94,75.0767-355.0685,74C518.5733,1221.659,454.4362,1195.7053,333,1217,223.2469,1236.2459,96.9863,1248.95,0,1248.95v96c131.7894,0,216.8128-71.8142,349-67.5956C637.59,1286.5639,723.7123,1383,919,1371Z" transform="translate(0 -128.7196)"/><path class="a" d="M1440,975c96.9863,0,219.2877-50.6667,329.0408-31.4207,121.4362,21.2946,221.9959,125.9815,393.5145,124.4937,124.1289-1.0767,223.3861-61.4969,306.2313-83.9958C2656.4819,933.1034,2748.8219,975,2880,975V879c-136.3989,0-226.0261-62.7354-352.0383-59.9145C2407.4957,821.7823,2251.6346,970.89,2169.863,975c-150.8073,7.58-187.0737-93.7417-313.5389-125.916C1706.63,811,1571.7894,879,1440,879Z" transform="translate(0 -128.7196)"/><ellipse class="a" cx="2068.7852" cy="757.9806" rx="184.9795" ry="96.8258" transform="translate(-90.9884 193.618) rotate(-8.7183)"/><path class="a" d="M2358.2466,445C2553.5342,457,2743.6011,629.9044,2880,629.9044v96c-131.1781,0-261.37-38.9044-397.4795-74.9044-82.9883-21.95-230.94-75.0767-355.0684-74-171.5187,1.4878-236.9751,138.7783-358.4113,117.4837-109.7531-19.246-232.0545,31.4207-329.0408,31.4207v-96c131.7894,0,175.9351-69.4758,308.1223-73.6944C2036.7123,547,2162.9589,433,2358.2466,445Z" transform="translate(0 -128.7196)"/><path class="a" d="M2360.8865,340.7929c87.8846-5.4,109.3472-76.561,190.1135-77.7929,98.7039-1.5054,253.9842,67.5956,329,67.5956v-96c-131.1781,0-258.73-135.8027-394.84-99.8027-82.9883,21.95-230.94,75.0767-355.0685,74-171.5186-1.4878-239.6149-92.6626-361.0511-71.368-109.7531,19.246-232.0545,97.1707-329.0408,97.1707v96c131.7894,0,216.8128-71.8142,349-67.5956C2077.59,272.21,2165.5988,352.7929,2360.8865,340.7929Z" transform="translate(0 -128.7196)"/><path class="a" d="M2359,1371c87.8846-5.4,111.2337-92.4143,192-93.6461,98.7039-1.5055,253.9842,67.5956,329,67.5956v-96c-131.1781,0-258.73-135.8027-394.84-99.8027-82.9883,21.95-230.94,75.0767-355.0685,74C1958.5733,1221.659,1894.4362,1195.7053,1773,1217c-109.7531,19.2459-236.0137,31.9495-333,31.9495v96c131.7894,0,216.8128-71.8142,349-67.5956C2077.59,1286.5639,2163.7123,1383,2359,1371Z" transform="translate(0 -128.7196)"/><path class="a" d="M2880,975c96.9863,0,219.2877-50.6667,329.0408-31.4207,121.4362,21.2946,221.9959,125.9815,393.5145,124.4937,124.1289-1.0767,223.3861-61.4969,306.2313-83.9958C4096.4819,933.1034,4188.8219,975,4320,975V879c-136.3989,0-226.0261-62.7354-352.0383-59.9145C3847.4957,821.7823,3691.6346,970.89,3609.863,975c-150.8073,7.58-187.0737-93.7417-313.5389-125.916C3146.63,811,3011.7894,879,2880,879Z" transform="translate(0 -128.7196)"/><ellipse class="a" cx="3508.7852" cy="757.9806" rx="184.9795" ry="96.8258" transform="translate(-74.3499 411.8884) rotate(-8.7183)"/><path class="a" d="M3798.2466,445C3993.5342,457,4183.6011,629.9044,4320,629.9044v96c-131.1781,0-261.37-38.9044-397.4795-74.9044-82.9883-21.95-230.94-75.0767-355.0684-74-171.5187,1.4878-236.9751,138.7783-358.4113,117.4837-109.7531-19.246-232.0545,31.4207-329.0408,31.4207v-96c131.7894,0,175.9351-69.4758,308.1223-73.6944C3476.7123,547,3602.9589,433,3798.2466,445Z" transform="translate(0 -128.7196)"/><path class="a" d="M3800.8865,340.7929c87.8846-5.4,109.3472-76.561,190.1135-77.7929,98.7039-1.5054,253.9842,67.5956,329,67.5956v-96c-131.1781,0-258.73-135.8027-394.84-99.8027-82.9883,21.95-230.94,75.0767-355.0685,74-171.5186-1.4878-239.6149-92.6626-361.0511-71.368-109.7531,19.246-232.0545,97.1707-329.0408,97.1707v96c131.7894,0,216.8128-71.8142,349-67.5956C3517.59,272.21,3605.5988,352.7929,3800.8865,340.7929Z" transform="translate(0 -128.7196)"/><path class="a" d="M3799,1371c87.8846-5.4,111.2337-92.4143,192-93.6461,98.7039-1.5055,253.9842,67.5956,329,67.5956v-96c-131.1781,0-258.73-135.8027-394.84-99.8027-82.9883,21.95-230.94,75.0767-355.0685,74C3398.5733,1221.659,3334.4362,1195.7053,3213,1217c-109.7531,19.2459-236.0137,31.9495-333,31.9495v96c131.7894,0,216.8128-71.8142,349-67.5956C3517.59,1286.5639,3603.7123,1383,3799,1371Z" transform="translate(0 -128.7196)"/><path class="a" d="M4320,975c96.9863,0,219.2877-50.6667,329.0408-31.4207,121.4362,21.2946,221.9959,125.9815,393.5145,124.4937,124.1289-1.0767,223.3861-61.4969,306.2313-83.9958C5536.4819,933.1034,5628.8219,975,5760,975V879c-136.3989,0-226.0261-62.7354-352.0383-59.9145C5287.4957,821.7823,5131.6346,970.89,5049.863,975c-150.8073,7.58-187.0737-93.7417-313.5389-125.916C4586.63,811,4451.7894,879,4320,879Z" transform="translate(0 -128.7196)"/><ellipse class="a" cx="4948.7852" cy="757.9806" rx="184.9795" ry="96.8258" transform="translate(-57.7114 630.1588) rotate(-8.7183)"/><path class="a" d="M5238.2466,445C5433.5342,457,5623.6011,629.9044,5760,629.9044v96c-131.1781,0-261.37-38.9044-397.48-74.9044-82.9883-21.95-230.94-75.0767-355.0684-74-171.5187,1.4878-236.9751,138.7783-358.4113,117.4837-109.7531-19.246-232.0545,31.4207-329.0408,31.4207v-96c131.7894,0,175.9351-69.4758,308.1223-73.6944C4916.7123,547,5042.9589,433,5238.2466,445Z" transform="translate(0 -128.7196)"/><path class="a" d="M5240.8865,340.7929c87.8846-5.4,109.3472-76.561,190.1135-77.7929,98.7039-1.5054,253.9842,67.5956,329,67.5956v-96c-131.1781,0-258.73-135.8027-394.84-99.8027-82.9883,21.95-230.94,75.0767-355.0685,74-171.5186-1.4878-239.6149-92.6626-361.0511-71.368-109.7531,19.246-232.0545,97.1707-329.0408,97.1707v96c131.7894,0,216.8128-71.8142,349-67.5956C4957.59,272.21,5045.5988,352.7929,5240.8865,340.7929Z" transform="translate(0 -128.7196)"/><path class="a" d="M5239,1371c87.8846-5.4,111.2337-92.4143,192-93.6461,98.7039-1.5055,253.9842,67.5956,329,67.5956v-96c-131.1781,0-258.73-135.8027-394.84-99.8027-82.9883,21.95-230.94,75.0767-355.0685,74C4838.5733,1221.659,4774.4362,1195.7053,4653,1217c-109.7531,19.2459-236.0137,31.9495-333,31.9495v96c131.7894,0,216.8128-71.8142,349-67.5956C4957.59,1286.5639,5043.7123,1383,5239,1371Z" transform="translate(0 -128.7196)"/></svg>