<svg width="26" height="28" viewBox="0 0 26 28" fill="none" xmlns="http://www.w3.org/2000/svg">
<path d="M13.0009 28C12.6232 28.0001 12.2521 27.9008 11.9249 27.712L8.50094 25.685C7.98994 25.399 8.23894 25.298 8.40794 25.239C8.95142 25.0711 9.47178 24.8359 9.95694 24.539C9.99755 24.5202 10.0423 24.5121 10.0869 24.5154C10.1315 24.5187 10.1746 24.5334 10.2119 24.558L12.8429 26.121C12.8919 26.1469 12.9465 26.1604 13.0019 26.1604C13.0574 26.1604 13.112 26.1469 13.1609 26.121L23.4209 20.199C23.469 20.1702 23.5087 20.1295 23.5362 20.0807C23.5637 20.032 23.5781 19.9769 23.5779 19.921V8.07498C23.578 8.01812 23.5634 7.96222 23.5355 7.91265C23.5077 7.86308 23.4675 7.82152 23.4189 7.79198L13.1589 1.87498C13.1106 1.84773 13.056 1.83341 13.0004 1.83341C12.9449 1.83341 12.8903 1.84773 12.8419 1.87498L2.58794 7.79398C2.53903 7.8229 2.49842 7.86397 2.47004 7.9132C2.44166 7.96243 2.42647 8.01815 2.42594 8.07498V19.916C2.42608 19.9718 2.44107 20.0266 2.46936 20.0748C2.49765 20.1229 2.53823 20.1627 2.58694 20.19L5.40094 21.814C6.92594 22.576 7.85994 21.678 7.85994 20.776V9.08498C7.85994 9.00541 7.89155 8.92911 7.94781 8.87284C8.00407 8.81658 8.08038 8.78498 8.15995 8.78498H9.45994C9.53951 8.78498 9.61582 8.81658 9.67208 8.87284C9.72834 8.92911 9.75994 9.00541 9.75994 9.08498V20.777C9.75994 22.812 8.65194 23.977 6.72194 23.977C5.88932 23.9915 5.06976 23.7688 4.35894 23.335L1.66194 21.788C1.33453 21.5973 1.06286 21.3241 0.874052 20.9956C0.685243 20.6671 0.585901 20.2949 0.585945 19.916V8.07498C0.584971 7.69551 0.683893 7.32246 0.872768 6.99334C1.06164 6.66421 1.33382 6.39059 1.66194 6.19998L11.9229 0.275977C12.2535 0.0951449 12.6242 0.000366211 13.0009 0.000366211C13.3777 0.000366211 13.7484 0.0951449 14.0789 0.275977L24.3389 6.19998C24.6663 6.39027 24.9381 6.6631 25.127 6.99123C25.316 7.31936 25.4156 7.69132 25.4159 8.06998V19.916C25.4154 20.2949 25.3157 20.667 25.1267 20.9954C24.9378 21.3238 24.6662 21.5971 24.3389 21.788L14.0789 27.712C13.7512 27.9011 13.3793 28.0004 13.0009 28Z" fill="#83CD29"/>
<path d="M11.0547 15.953C11.0547 15.8734 11.0863 15.7971 11.1426 15.7409C11.1988 15.6846 11.2751 15.653 11.3547 15.653H12.6817C12.7526 15.6532 12.8211 15.6786 12.8751 15.7245C12.9291 15.7705 12.9651 15.834 12.9767 15.904C13.1767 17.255 13.7767 17.936 16.4897 17.936C18.6507 17.936 19.5717 17.447 19.5717 16.3C19.5717 15.639 19.3107 15.148 15.9517 14.819C13.1437 14.541 11.4077 13.919 11.4077 11.675C11.4077 9.605 13.1527 8.37 16.0777 8.37C19.3647 8.37 20.9917 9.51099 21.1977 11.959C21.2008 11.9999 21.1956 12.0409 21.1822 12.0797C21.1689 12.1185 21.1477 12.1541 21.1201 12.1843C21.0924 12.2146 21.0589 12.2389 21.0215 12.2557C20.9841 12.2725 20.9437 12.2814 20.9027 12.282H19.5667C19.4997 12.2811 19.4349 12.2577 19.3827 12.2157C19.3305 12.1736 19.2939 12.1153 19.2787 12.05C18.9597 10.629 18.1787 10.175 16.0787 10.175C13.7187 10.175 13.4447 10.997 13.4447 11.613C13.4447 12.359 13.7687 12.577 16.9547 12.998C20.1077 13.415 21.6057 14.005 21.6057 16.221C21.6057 18.457 19.7417 19.737 16.4907 19.737C11.9957 19.743 11.0547 17.682 11.0547 15.953Z" fill="#83CD29"/>
</svg>
