<svg xmlns="http://www.w3.org/2000/svg" width="8.5885in" height="2.0972in" viewBox="0 0 618.3733 150.998"><defs><style>.a{fill:#ed783f;}.b{fill:#f9b047;}.c{fill:#fcc828;}</style></defs><title>pong-logo</title><path d="M283.9834,125.7248c-.9245-37.7937,29.7053-74.9976,76.39-75.2229,41.9756-.2026,75.106,34.1822,74.9276,76.8183-.1688,40.351-34.4306,74.0138-75.345,74.1241C316.191,201.5622,282.8351,164.9668,283.9834,125.7248Zm75.58,42.9064a42.129,42.129,0,0,0,42.0244-41.6706c.2975-24.111-18.554-43.9025-41.808-43.8928-23.3815.01-42.3477,19.1057-42.465,42.7556A42.4993,42.4993,0,0,0,359.5629,168.6312Z" transform="translate(-50.8133 -50.501)"/><path d="M552.4525,198.6251H519.0984c0-2.2748.0011-4.3382,0-6.4016-.0194-28.6019.0506-57.2044-.1009-85.8057-.0646-12.2048-5.3072-19.3292-15.7065-22.2995-12.4892-3.5671-24.1273,3.6506-26.3211,16.5836a78.13,78.13,0,0,0-.9,12.7835c-.0791,26.0724-.0408,52.1452-.0415,78.2179,0,2.1119,0,4.2238,0,6.7335H443.3966a24.7215,24.7215,0,0,1-.52-3.69c.0472-30.5468-.1021-61.0965.2838-91.6393.3205-25.373,19.9865-47.6,44.0109-51.6357,32.3236-5.43,56.6122,15.3621,62.4362,36.649a82.6944,82.6944,0,0,1,2.921,20.662c.3262,28.7931.1552,57.5919.1552,86.3886C552.6839,196.1159,552.5611,197.06,552.4525,198.6251Z" transform="translate(-50.8133 -50.501)"/><path d="M635.83,169.7064V114.43H668.677c.1525,1.8893.4042,3.5676.4059,5.2462.0258,24.3245-.0659,48.65.1031,72.9731.0274,3.9415-.8334,5.891-5.0753,6.5974-31.81,5.2977-61.4375,2.6349-84.6324-23.1337-37.1545-41.2772-18.0344-110.8539,39.7851-123.48,15.3255-3.3466,30.4767-2.5579,45.5078,1.4421,1.639.4362,4.0774,2.32,4.12,3.5995.3383,10.2485.1891,20.5131.1891,30.8737-8.2758-1.62-15.9362-3.4788-23.7043-4.5732-22.2339-3.1324-42.6988,8.707-49.1714,28.3652A43.1434,43.1434,0,0,0,618.72,165.3085C623.586,167.5961,629.2958,168.0884,635.83,169.7064Z" transform="translate(-50.8133 -50.501)"/><path d="M177.752,51.7848c24.3813,0,46.68-.76,68.8813,2.9652,21.3288,3.5789,35.8431,26.7529,36.38,48.1553.5994,23.8718-13.3469,44.7542-35.178,52.4247-8.5312,2.9976-17.0728,2.37-26.2944,2.37-1.533,0-11.71.3643-13.7413.3643-.3374-9.4814-.0442-22.5083-.0442-32.0642,4.1208,0,17.341-.3084,20.9612-.3524,11.1293-.1352,19.13-6.5162,20.2962-16.1485,1.4444-11.9346-3.9091-20.5-15.5163-22.9639-7.13-1.5134-14.5926-1.4586-22.8956-2.1959V198.515H177.752Z" transform="translate(-50.8133 -50.501)"/><rect class="a" y="1.22" width="32.5" height="146.794"/><rect class="b" x="32.5" y="1.22" width="32.5" height="146.794"/><rect class="c" x="65" y="1.22" width="32.5" height="146.794"/></svg>