<svg xmlns="http://www.w3.org/2000/svg" width="13.0208in" height="3.0382in" viewBox="0 0 937.5005 218.75"><defs><style>.a{fill:#fff;}</style></defs><title>pong-logo</title><path class="a" d="M62.3608,284.2856V65.5356h156.25v31.25h-93.75v62.5h93.75v31.25h-93.75v93.75Zm156.25-125v-62.5h31.25v62.5Z" transform="translate(-62.3608 -65.5356)"/><path class="a" d="M343.6108,284.2856v-31.25h-31.25V96.7856h31.25v-31.25h125v31.25h31.25v156.25h-31.25v31.25Zm93.75-31.25V96.7856h-62.5v156.25Z" transform="translate(-62.3608 -65.5356)"/><path class="a" d="M562.3608,284.2856V65.5356h62.5v31.25h31.25v31.25h31.25v31.25h31.25v-93.75h31.25v218.75h-31.25v-31.25h-31.25v-31.25h-31.25v-31.25h-31.25v-31.25h-31.25v125Z" transform="translate(-62.3608 -65.5356)"/><path class="a" d="M843.6113,284.2856v-31.25h-31.25V96.7856h31.25v-31.25h125v31.25h-93.75v156.25h62.5v-62.5h-31.25v-31.25h93.75v93.75h-31.25v31.25Zm125-156.25v-31.25h31.25v31.25Z" transform="translate(-62.3608 -65.5356)"/></svg>