<svg xmlns="http://www.w3.org/2000/svg" xmlns:xlink="http://www.w3.org/1999/xlink" width="1.5439in" height="1.561in" viewBox="0 0 111.1614 112.389"><defs><style>.a{fill:url(#a);}.b{fill:url(#b);}</style><linearGradient id="a" x1="429.3221" y1="-408.0234" x2="538.3385" y2="-501.8173" gradientTransform="matrix(0.5625, 0, 0, -0.568, -239.0657, -223.8551)" gradientUnits="userSpaceOnUse"><stop offset="0" stop-color="#5a9fd4"/><stop offset="1" stop-color="#306998"/></linearGradient><linearGradient id="b" x1="580.4849" y1="-558.5853" x2="541.5552" y2="-503.5065" gradientTransform="matrix(0.5625, 0, 0, -0.568, -239.0657, -223.8551)" gradientUnits="userSpaceOnUse"><stop offset="0" stop-color="#ffd43b"/><stop offset="1" stop-color="#ffe873"/></linearGradient></defs><title>python-logo-generic</title><path class="a" d="M60.0914,4.6914A76.5532,76.5532,0,0,0,47.2789,5.7852c-11.3462,2.0045-13.4062,6.2-13.4062,13.9375V29.9414H60.6852v3.4063H23.81c-7.7925,0-14.6158,4.6837-16.75,13.5937-2.4618,10.213-2.571,16.586,0,27.25,1.9059,7.9379,6.4575,13.5938,14.25,13.5938h9.2187v-12.25a17.039,17.039,0,0,1,16.75-16.6563H74.06a13.5084,13.5084,0,0,0,13.4062-13.625V19.7227c0-7.2664-6.13-12.7248-13.4062-13.9375A83.6212,83.6212,0,0,0,60.0914,4.6914Zm-14.5,8.2188a5.11,5.11,0,1,1-5.0312,5.125A5.0873,5.0873,0,0,1,45.5914,12.91Z" transform="translate(-5.1727 -4.6905)"/><path class="b" d="M90.81,33.3477V45.2539c0,9.2308-7.8259,17-16.75,17H47.2789a13.6777,13.6777,0,0,0-13.4062,13.625V101.41c0,7.2663,6.3186,11.54,13.4062,13.625a44.86,44.86,0,0,0,26.7813,0c6.75-1.9544,13.4062-5.8876,13.4062-13.625V91.1914H60.6852V87.7852h40.1875c7.7925,0,10.6962-5.4354,13.4062-13.5938,2.7994-8.3989,2.68-16.4758,0-27.25-1.9257-7.7574-5.6038-13.5937-13.4062-13.5937ZM75.7477,98.0039a5.11,5.11,0,1,1-5.0313,5.0938A5.06,5.06,0,0,1,75.7477,98.0039Z" transform="translate(-5.1727 -4.6905)"/></svg>