<svg xmlns="http://www.w3.org/2000/svg" width="1415.1579" height="940.2534" viewBox="0 0 1415.1579 940.2534"><defs><style>.a{fill:#0d73b8;}.b{fill:#181818;}.c{fill:#30a8dc;}.d{fill:#eaedef;}.e{fill:#fdfefe;}.f{fill:#fdfdfd;}.g{fill:#e5a328;}.h{fill:#0d0f10;}.i{fill:#f1be27;}.j{fill:#eceded;}.k{fill:#fefefd;}.l{fill:#e55228;}.m{fill:#0a0c0e;}.n{fill:#f1672e;}.o{fill:#ececed;}</style></defs><title>tools-logos</title><path class="a" d="M520.584,379.1156q115.8192-.0022,231.6381-.0716c3.0266-.0035,3.9141.9064,3.6358,3.7624-1.0223,10.4859-1.9643,20.98-2.8987,31.4741-1.2431,13.9594-2.4088,27.9257-3.6849,41.8819-1.3429,14.6869-2.8253,29.3611-4.154,44.0493-.9687,10.7078-1.7312,21.4342-2.6847,32.1435-1.8129,20.3648-3.7443,40.7191-5.5342,61.0858-1.2365,14.0718-2.241,28.1639-3.49,42.2346-1.4708,16.578-3.1317,33.1391-4.637,49.7142-1.1729,12.9129-2.2047,25.8384-3.3511,38.7538q-2.544,28.67-5.1621,57.3326-2.4237,26.7647-4.8688,53.5274c-.6844,7.5513-1.4577,15.0975-1.953,22.6616-.18,2.7468-1.7856,3.5779-3.9342,4.1657-10.0621,2.7525-20.1346,5.4679-30.1863,8.2586-14.6072,4.0554-29.1868,8.21-43.8014,12.2383-18.2782,5.0383-36.5961,9.9326-54.8663,15-16.1181,4.47-32.1845,9.1259-48.2961,13.62-3.547.9894-7.1188,1.8213-10.5958,3.1054-3.3436,1.2345-6.314-1.096-9.4071-1.8629-9.1922-2.279-18.3014-4.8994-27.4224-7.46-10.1432-2.8472-20.2533-5.8122-30.3972-8.6569-10.2483-2.8741-20.5259-5.6434-30.78-8.4961-8.93-2.4844-17.834-5.0647-26.7716-7.5225-8.629-2.3728-17.3009-4.59-25.9275-6.9714-11.9719-3.3048-23.9044-6.7524-35.8814-10.0383-10.0233-2.75-7.765-1.5113-8.7578-11.572-1.5521-15.7281-3.2669-31.4492-4.35-47.2119-.9541-13.887-2.4838-27.7149-3.5791-41.5849-1.2279-15.5465-2.8781-31.0591-4.2807-46.5922-.9291-10.2916-1.7033-20.5972-2.6218-30.89-1.8367-20.5813-3.7632-41.1546-5.5806-61.7376-1.7894-20.2643-3.3845-40.5461-5.2565-60.8026-2.1919-23.7193-4.37-47.4382-6.3309-71.1786-1.96-23.7384-4.1983-47.454-6.3492-71.1765q-1.7268-19.0442-3.5778-38.077c-.2091-2.1859.7116-3.1546,2.8724-3.1133,2.0062.0383,4.0135.0088,6.02.0088Q406.9824,379.1172,520.584,379.1156Zm-65.9,271.7736c.0745,2.3963,1.8876,1.8255,3.2523,1.827q29.29.0323,58.58-.0094c2.1365-.0042,3.6138.13,3.6069,2.9664q-.1068,43.539.01,87.0783c.005,2.0286-.7517,2.6417-2.55,2.5344-6.2622-1.4475-12.4345-3.2241-18.6256-4.9458-13.9-3.8652-27.8454-7.5691-41.7973-11.2438a2.9345,2.9345,0,0,1-2.5136-3.0415c-1.2064-13.8679-2.5613-27.7238-3.6377-41.6016-.1953-2.5171-1.2046-2.9914-3.301-2.988q-27.0811.0448-54.162.0044c-1.8769-.0035-2.617.45-2.42,2.5582,1.6338,17.5167,3.1574,35.0439,4.71,52.5681q1.5764,17.7906,3.1318,35.5829a2.69,2.69,0,0,0,2.0713,2.782c3.6571,1.003,7.2772,2.14,10.9333,3.1474,12.6948,3.4962,25.4035,6.9425,38.0977,10.441q18.2816,5.0382,36.5445,10.1442,15.5136,4.3286,31.0137,8.706c.3353.7364,1.0891.56,1.6682.7649,2.2374,1.4347.7133,3.4871.7214,5.1937.0879,18.7993.0515,37.5991.05,56.3988a11.654,11.654,0,0,0,.0444,1.8968c.19,1.1417.785,1.5709,2.0226,1.21,4.0258-1.1748,8.0814-2.2469,12.12-3.3788,9.0781-2.5439,18.1432-5.1351,27.232-7.64,7.887-2.1737,15.8173-4.19,23.6956-6.3943,10.3-2.8812,20.5491-5.9434,30.8543-8.8052,8.2876-2.3015,16.6513-4.3289,24.9347-6.6453,9.5957-2.6835,19.0666-5.814,28.7856-8.0571,6.5883-1.5208,6.6053-1.5258,6.8859-8.4163.0213-.5267.0493-1.0543.1036-1.5785.8-7.7225,1.4778-15.4606,2.4574-23.16.5875-4.6179.1481-9.291.8481-13.8538,1.1168-7.2784,1.5018-14.6168,2.2357-21.9242.8186-8.15,1.0043-16.376,2.113-24.48,1.4538-10.6272,1.809-21.3334,2.8592-31.9861.875-8.8756,1.574-17.7967,2.2832-26.694,1.05-13.1718,2.5225-26.3219,3.5682-39.5058.5893-7.4322,1.2916-14.8559,1.997-22.2784.9929-10.4465,1.88-20.9071,3.1284-31.3237.5551-4.6326.0864-9.2956.75-13.8652,1.1485-7.9065,1.8066-15.8461,2.3782-23.8035q.6321-8.8023,1.4252-17.5929c.7354-8.0462,1.92-16.0713,2.2189-24.1311.23-6.2194,1.1368-12.3565,1.6689-18.5209.74-8.5692,1.3938-17.1564,2.2663-25.7188.5637-5.5324,1.1563-11.0625,1.6459-16.6016.7673-8.6818,1.4544-17.3707,2.1849-26.0559.1362-1.6193-.4929-2.2922-2.1889-2.19-4.0555.2452-8.1191.5326-12.178.5134-57.9627-.2746-115.9292.6757-173.8893-.5132-4.4533-.0913-4.4525-.0082-4.4517,4.2724.003,15.42-.0872,30.8409.0823,46.259.0346,3.1649-.7153,4.0853-3.9951,4.0772q-69.548-.1721-139.0965-.08c-1.0561,0-2.1151-.0572-3.1677.002-1.3233.0745-2.6193,1.0525-2.2282,2.0989,1.1634,3.1134.3683,6.2946.8291,9.394,2.2123,14.8789,2.5048,29.94,4.2814,44.8616.5214,4.38.2795,4.4071,4.7506,4.4067q67.4887-.006,134.9774-.0619c2.7795-.0046,3.6454.8456,3.627,3.6273-.1085,16.4754.0159,32.9527-.1571,49.427-.0182,1.7272,1.8376,4.3166-.5992,5.1974a11.9766,11.9766,0,0,1-6.2121.5292,11.2853,11.2853,0,0,0-2.1847-.2816q-29.419-.0075-58.8379.0208a2.5577,2.5577,0,0,0-1.9492.9053c-.498.2231-1.0661.5469-.9218,1.122.6495,2.5877.2095,5.2535.6036,7.84,1.6432,10.7843,1.6388,21.7178,3.0264,32.5256C453.5993,639.8854,454.0945,645.3933,454.6839,650.8892Z" transform="translate(-284.4591 -65.5813)"/><path class="b" d="M613.3858,339.0628c-12.7788-.0022-25.559-.0939-38.336.0633-3.1376.0386-4.0341-1.042-3.9473-4.0343q.2621-9.0216-.0176-18.0559c-.08-2.6828.8886-3.5273,3.4718-3.5052,10.8769.0932,21.7551.0547,32.6329.0556,1.0079,0,2.3237.5225,2.8467-.6645.5138-1.166-.694-1.8258-1.39-2.5826q-17.88-19.4371-35.7793-38.8567a6.0978,6.0978,0,0,1-1.7243-4.5506c.0639-4.8572.2138-9.726-.0463-14.57-.1637-3.0475.9595-3.7666,3.7995-3.7564,24.1846.0874,48.37.0378,72.5547.0616,7.8459.0078,6.6658-.8828,6.7217,6.6968.0357,4.8578-.0936,9.72.0631,14.5728.0857,2.6577-.6935,3.852-3.5523,3.8155-10.3477-.1321-20.6977-.0947-31.0467-.12-1.0138-.0025-2.2953-.4889-2.7884.7857-.4141,1.0707.7051,1.6277,1.3293,2.3031q17.61,19.0537,35.2371,38.0924a8.3993,8.3993,0,0,1,2.4255,6.5328c-.2121,4.6373-.2156,9.2977-.0133,13.9356.1274,2.9174-.8437,3.87-3.7876,3.84C639.1558,338.99,626.27,339.0649,613.3858,339.0628Z" transform="translate(-284.4591 -65.5813)"/><path class="b" d="M514.4384,339.07c-12.6694-.0023-25.34-.083-38.0074.057-2.997.0332-4.1335-.7792-4.0207-3.9158.216-6.01.2116-12.0392-.0091-18.049-.1058-2.8782.9423-3.6613,3.6329-3.6362,10.6625.1,21.3264.066,31.9894.017,1.0422-.0048,2.5762.843,3.0631-.6362.38-1.1554-.8093-2.0939-1.5746-2.9278q-7.4854-8.1569-15.0342-16.2557-10.3238-11.1252-20.6706-22.2294a4.6852,4.6852,0,0,1-1.3562-3.4113c.0287-5.5954.0933-11.1928-.0283-16.7858-.0549-2.5287,1.3991-2.6631,3.2577-2.6586q14.8864.036,29.7727.02c15.4144.0016,30.8293.0751,46.2424-.0626,3.1169-.0279,4.0313,1,3.9245,4.0243-.2045,5.7995-.1324,11.6128-.0232,17.4175.0508,2.6971-.9458,3.7533-3.7066,3.7229-10.3454-.1139-20.6925-.0668-31.0389-.0671-.8922,0-2.0339-.5358-2.5387.6111-.479,1.0888.5468,1.7058,1.1586,2.3735q12.9254,14.1051,25.8784,28.185c3.2846,3.5691,6.5648,7.1443,9.9341,10.6326a4.9405,4.9405,0,0,1,1.2833,3.7546c-.0013,5.5956-.076,11.1924.02,16.7862.04,2.3548-.86,3.0948-3.1909,3.0789C540.4107,339.0265,527.4243,339.0726,514.4384,339.07Z" transform="translate(-284.4591 -65.5813)"/><path class="b" d="M384.7249,293.7659c-.0039-13.8372.06-27.6749-.0587-41.5111-.0232-2.7043.645-3.6767,3.5212-3.6618q32.638.1691,65.2772.0182c2.8217-.0113,3.952.6864,3.84,3.737-.2289,6.2235-.2291,12.4675.008,18.6905.108,2.8374-.7641,3.7158-3.5344,3.6907-11.7238-.106-23.45.0344-35.1727-.1188-2.6958-.0353-3.4672.813-3.4416,3.4056.1034,10.4561.1379,20.9153-.0282,31.37-.0451,2.8324,1.0607,3.3127,3.5357,3.2918,11.6182-.0984,23.2388.0467,34.8559-.1023,2.9874-.0384,3.8369.99,3.7612,3.8521-.17,6.4388-.1326,12.8865-.0149,19.3276.045,2.4546-.795,3.3663-3.2883,3.359q-33.1139-.0957-66.2278.0088c-2.79.0115-3.0592-1.3381-3.052-3.5289C384.7514,321.6516,384.7287,307.7087,384.7249,293.7659Z" transform="translate(-284.4591 -65.5813)"/><path class="c" d="M450.1867,592.9154a2.5628,2.5628,0,0,1,1.95-.9042q29.4191-.02,58.8379-.0208a11.2853,11.2853,0,0,1,2.1847.2816,11.9766,11.9766,0,0,0,6.2121-.5292c2.4368-.8808.581-3.47.5992-5.1974.173-16.4743.0486-32.9516.1571-49.427.0184-2.7817-.8475-3.6319-3.627-3.6273q-67.4884.113-134.9774.0619c-4.4711,0-4.2292-.0267-4.7506-4.4067-1.7766-14.9221-2.0691-29.9827-4.2814-44.8616-.4608-3.0994.3343-6.2806-.8291-9.394-.3911-1.0464.9049-2.0244,2.2282-2.0989,1.0526-.0592,2.1116-.0021,3.1677-.002q69.5483.0019,139.0965.08c3.28.0081,4.03-.9123,3.9951-4.0772-.1695-15.4181-.0793-30.8391-.0823-46.259-.0008-4.2806-.0016-4.3637,4.4517-4.2724,57.96,1.1889,115.9266.2386,173.8893.5132,4.0589.0192,8.1225-.2682,12.178-.5134,1.696-.1026,2.3251.57,2.1889,2.19-.7305,8.6852-1.4176,17.3741-2.1849,26.0559-.49,5.5391-1.0822,11.0692-1.6459,16.6016-.8725,8.5624-1.5264,17.15-2.2663,25.7188-.5321,6.1644-1.4386,12.3015-1.6689,18.5209-.2984,8.06-1.4835,16.0849-2.2189,24.1311q-.8034,8.7884-1.4252,17.5929c-.5716,7.9574-1.23,15.897-2.3782,23.8035-.6637,4.57-.195,9.2326-.75,13.8652-1.2486,10.4166-2.1355,20.8772-3.1284,31.3237-.7054,7.4225-1.4077,14.8462-1.997,22.2784-1.0457,13.1839-2.5184,26.334-3.5682,39.5058-.7092,8.8973-1.4082,17.8184-2.2832,26.694-1.05,10.6527-1.4054,21.3589-2.8592,31.9861-1.1087,8.1044-1.2944,16.3307-2.113,24.48-.7339,7.3074-1.1189,14.6458-2.2357,21.9242-.7,4.5628-.2606,9.2359-.8481,13.8538-.98,7.7-1.6571,15.4379-2.4574,23.16-.0543.5242-.0823,1.0518-.1036,1.5785-.2806,6.89-.2976,6.8955-6.8859,8.4163-9.719,2.2431-19.19,5.3736-28.7856,8.0571-8.2834,2.3164-16.6471,4.3438-24.9347,6.6453-10.3052,2.8618-20.5545,5.924-30.8543,8.8052-7.8783,2.2039-15.8086,4.2206-23.6956,6.3943-9.0888,2.5051-18.1539,5.0963-27.232,7.64-4.0385,1.1319-8.0941,2.204-12.12,3.3788-1.2376.3611-1.8326-.0681-2.0226-1.21a11.654,11.654,0,0,1-.0444-1.8968c.0011-18.8.0375-37.6-.05-56.3988-.0081-1.7066,1.516-3.759-.7211-5.1945l.1754-.2173a7.4488,7.4488,0,0,0,5.0059-1.2558l.0251-.01a12.6724,12.6724,0,0,0,6.3813-1.8092c5.7861-1.512,11.5868-2.9707,17.3551-4.548,9.0286-2.4691,18.0352-5.0184,27.0512-7.5338q14.6013-4.0737,29.2017-8.1506c11.65-3.2718,23.2848-6.5979,34.9484-9.82a2.4785,2.4785,0,0,0,2.1232-2.63c.1329-2.7381.3379-5.4747.592-8.2045,1.6783-18.0365,3.4153-36.0676,5.06-54.1071,1.74-19.09,3.3772-38.19,5.1009-57.2816,1.619-17.9318,3.4118-35.8487,4.8946-53.7914.8412-10.1781,1.5872-20.3612,2.5949-30.5273,1.4443-14.5652,2.8913-29.1379,3.8634-43.7389.4961-7.4513,2.1348-14.8248,1.6055-22.3448a41.8142,41.8142,0,0,0,1.3836-12.8663l-.0919-.0551c1.1493-3.8578.6734-7.893,1.293-11.8172.5759-3.6472.387-3.7331-3.2991-3.5238-1.1553-.0489-2.3109-.14-3.4662-.14q-62.6078-.0134-125.2156-.0052c-4.212.0008-8.4242.0813-12.6363.125a6.6215,6.6215,0,0,0-3.168.0916c-.3141-.0308-.6284-.0885-.9425-.0885q-71.9986-.0115-143.9973-.011c-.8079,0-1.7232-.2961-2.2461.6761a2.3324,2.3324,0,0,0,.0361,1.91c.8282,8.884,1.7646,17.76,2.4465,26.6549.4565,5.9544.4973,11.942,1.8362,17.8025q.0581,1.2244.1148,2.4489c.1489,2.65-.3457,5.354.6642,7.932l-.1171.1807.114.1826c.219.709.7427.8417,1.3924.736l1.2559-.0253c.7341.0468,1.4682.1345,2.2022.1345q63.5683.0048,127.1367-.0109c.839,0,1.6778-.0992,2.5167-.1521l4.4017-.0374,3.6422.1349.0913-.0491c.8389.931,1.9622.6072,2.9712.607q36.3084-.0051,72.6167-.0656c1.1287-.0019,2.3336.2906,3.3434-.5332l2.6451-.002.8658.5629-.0332-.0332q.2931.4569.5864.9136-.0046.95-.01,1.9c-1.039,1.4793-.462,3.1635-.6033,4.7566-.7,6.9029-1.4474,13.8013-2.0871,20.71-.8826,9.5284-1.8211,19.0556-2.4359,28.6027-.1858,2.8877-1.4605,3.1617-3.7868,3.155q-32.1-.0921-64.2-.0425c-3.4744.0015-6.949.1053-10.4234.1618-7.99-.0328-15.9805-.1-23.9707-.0906q-21.9213.0263-43.8426.1247l-1.2643.0575-.6548-.1Z" transform="translate(-284.4591 -65.5813)"/><path class="d" d="M517.628,807.4q-15.5064-4.3549-31.0137-8.7061-18.2658-5.096-36.5445-10.1442c-12.6942-3.4985-25.4029-6.9448-38.0977-10.441-3.6561-1.007-7.2762-2.1444-10.9333-3.1474a2.69,2.69,0,0,1-2.0713-2.782q-1.542-17.7935-3.1318-35.5829c-1.5528-17.5242-3.0764-35.0514-4.71-52.5681-.1966-2.1082.5435-2.5617,2.42-2.5582q27.081.0513,54.162-.0044c2.0964-.0034,3.1057.4709,3.301,2.988,1.0764,13.8778,2.4313,27.7337,3.6377,41.6016a2.9345,2.9345,0,0,0,2.5136,3.0415c13.9519,3.6747,27.8972,7.3786,41.7973,11.2438,6.1911,1.7217,12.3634,3.4983,18.6245,4.9454.59.9027,1.6236.9011,2.4981,1.2251.07.8372-2.5.3359-.9889,1.82,1.2546,1.232.9889,2.7055.9643,4.1413-.3141,18.2917.7288,36.5988-.6171,54.8787Zm-.8393-2.03c-.3729-.21-.6-.44-.8344-.4477-.43-.0134-.778.25-.6.7159.0656.172.4959.3038.7415.2782C516.3052,805.8944,516.4882,805.6206,516.7887,805.37Z" transform="translate(-284.4591 -65.5813)"/><path class="c" d="M520.08,746.5106c-.8745-.324-1.9086-.3224-2.4981-1.2251,1.7993.1077,2.556-.5054,2.551-2.534q-.1068-43.539-.01-87.0783c.0069-2.8362-1.47-2.9706-3.6069-2.9664q-29.29.0573-58.58.0094c-1.3647-.0015-3.1778.5693-3.2523-1.827l.1335-.0994.2427.1224.2718-.0061.034-.0185c.8559,1.3338,2.1153.7478,3.2645.6858l1.2345.0137.6384.0024,55.7459.0029,3.2183.0039c1.4644.0864,2.9286.2467,4.3929.2478q29.0187.0231,58.0372-.0026c1.8823-.0016,3.7647-.1352,5.647-.2075a1.6442,1.6442,0,0,0,2.5642-.0211l1.7552.0522a1.41,1.41,0,0,0,.95,1.1488l-.0118.0417q.0516.8654.1035,1.7306c-1.1426,11.6373-2.3442,23.2691-3.4117,34.9133-1.0966,11.9609-2.0585,23.9342-3.0876,35.9013-.1671,1.9431-.8647,3.24-3.0926,3.7351-4.727,1.0514-9.39,2.3954-14.0639,3.6781q-22.6984,6.2306-45.3853,12.5038a3.6621,3.6621,0,0,0-3.2563,1.1364A.5617.5617,0,0,0,520.08,746.5106Z" transform="translate(-284.4591 -65.5813)"/><path class="c" d="M454.6839,650.8892c-.5894-5.4959-1.0846-11.0038-1.7883-16.485-1.3876-10.8078-1.3832-21.7413-3.0264-32.5256-.3941-2.5866.0459-5.2524-.6036-7.84-.1443-.5751.4238-.8989.9215-1.1225l.1524.191c-.2148,1.5622-.6044,3.1428.4822,4.5676l-.0632.1312c-.358,2.6551.4158,5.2258.6,7.8412.8334,11.8262,1.5035,23.67,3.4757,35.3852q.2019.275.404.55c-1.273,3.0175.0846,6.1552-.4207,9.2077Z" transform="translate(-284.4591 -65.5813)"/><path class="c" d="M517.628,807.4l1.81-.0489-.0038-.0022q.018.2988.0374.5977l-.1755.2174C518.7171,807.96,517.9633,808.1358,517.628,807.4Z" transform="translate(-284.4591 -65.5813)"/><path class="e" d="M455.2382,641.5821c-.1347-.1832-.2694-.3666-.3995-.547,2.7616.5269,1.7716,2.7268,1.8174,4.3261.0818,2.8525.8782,4.2861,4.24,4.257,18.6714-.1613,37.3455-.1285,56.0178-.0241,2.8636.016,3.8727-.7779,3.8478-3.757-.1284-15.4014-.0593-30.8046-.06-46.2071,0-4.4625-.12-4.5942-4.6385-4.5956q-28.1677-.0087-56.3354.0027c-3.2628.002-6.7956-.7954-8.9688,2.7687l.0646-.1318q.0867-2.2344.1711-4.4676l1.2644-.0576c.8307.9578,1.956.6077,2.9647.6086q30.9513.0272,61.9027-.0018c1.0062-.001,2.1373.3577,2.9459-.6408,3.4744-.0565,6.949-.16,10.4234-.1618q32.1-.0144,64.2.0425c2.3263.0067,3.601-.2673,3.7868-3.155.6148-9.5471,1.5533-19.0743,2.4359-28.6027.64-6.9085,1.3875-13.8069,2.0876-20.71,1.3885-1.4351.5595-3.1511.6028-4.7566q.005-.95.01-1.9019a.8452.8452,0,0,0-.5864-.912l.0332.0328a.7749.7749,0,0,0-.8658-.5625q-1.3225.001-2.6465.0016c-12.735-.0517-25.4685-.1433-38.2022-.1432-13.5759,0-27.1518.0866-40.7277.1354l-.09.0479q.0859-.4028.169-.8027c-.015-.6968.1207-1.4422-.6152-1.9063q.3108-1.9045.6214-3.8091.97-.6333,0-1.2667-.003-16.2657-.0177-32.5314a25.16,25.16,0,0,0-.2591-3.4421,29.7866,29.7866,0,0,1,.2707-11.553c1.2484-.7685,3.1392-1.0343,2.5411-3.2476,4.2121-.0435,8.4243-.124,12.6363-.1248q62.6077-.0118,125.2156.0052c1.1553,0,2.3109.0915,3.4662.1405a42.361,42.361,0,0,1,2.0061,15.3409l.0905.0542c-.6817-.07-1.3263.0386-1.3349.869-.041,3.9992-.036,7.9987-.0473,11.9982.5293,7.52-1.1094,14.8935-1.6055,22.3448-.9721,14.601-2.4191,29.1737-3.8634,43.7389-1.0077,10.1661-1.7537,20.3492-2.5949,30.5273-1.4828,17.9427-3.2756,35.86-4.8946,53.7914-1.7237,19.0917-3.36,38.1914-5.1009,57.2816-1.6448,18.0395-3.3818,36.0706-5.06,54.1071-.2541,2.73-.4591,5.4664-.592,8.2045a2.4785,2.4785,0,0,1-2.1232,2.63c-11.6636,3.2221-23.2984,6.5482-34.9484,9.82q-14.5942,4.0983-29.2017,8.1506c-9.016,2.5154-18.0226,5.0647-27.0512,7.5338-5.7683,1.5773-11.569,3.036-17.3548,4.5477a11.5276,11.5276,0,0,0-6.3816,1.81l-.0251.01c-1.7512-.3194-3.34.6121-5.0432.658l.0038.0021c1.3459-18.28.303-36.5869.6171-54.8786.0246-1.4358.29-2.9093-.9643-4.1413-1.5114-1.4841,1.0585-.9828.9889-1.82a.5619.5619,0,0,1,.5289-.0562c1.2506.0942,2.5321.2776,3.2558-1.1366q22.6917-6.2549,45.3853-12.5038c4.6734-1.2827,9.3369-2.6267,14.0639-3.6781,2.2279-.4954,2.9255-1.792,3.0926-3.7351,1.0291-11.9671,1.991-23.94,3.0876-35.9013,1.0675-11.6442,2.2691-23.276,3.4119-34.913.56-.2355,1.1441-.5266,1.0607-1.2289-.0813-.6849-.681-.5444-1.1644-.502l.0129-.0422c.1035-.7316-.0744-1.23-.9513-1.1483q-.8775-.0261-1.7565-.053-1.2828.01-2.5629.0219c-1.8823.0723-3.7647.2059-5.647.2075q-29.0186.0253-58.0372.0026c-1.4643-.0011-2.9285-.1614-4.3933-.2487-1.0722-1.195-2.1446-1.2-3.2179-.003q-27.873-.0014-55.7462-.0037c-.212-.5758-.4247-.5831-.6381-.0016q-.6172-.0069-1.235-.0144c-.8736-1.2525-2.1379-.6392-3.264-.6851l-.0334.018A55.9838,55.9838,0,0,0,455.2382,641.5821Z" transform="translate(-284.4591 -65.5813)"/><path class="d" d="M520.7077,525.9514q-.3107,1.9045-.6214,3.809a1.1656,1.1656,0,0,0-1.2861,1.2568l-136.2541.0037c-2.7082-2.1337-3.27-5.1014-3.17-8.2961.05-1.6061-.8306-1.9377-2.17-1.778-1.3382-5.8605-1.379-11.8481-1.8355-17.8025-.6819-8.8952-1.6183-17.7709-2.4457-26.6545.7584.2619,1.2283,1.866,2.2957.6275,1.3166-1.5277,3.0294-1.23,4.69-1.23q67.7351-.008,135.47-.0445a9.425,9.425,0,0,1,5.32,1.3158,29.7866,29.7866,0,0,0-.2707,11.553,25.16,25.16,0,0,1,.2591,3.4421q.0316,16.2657.0177,32.5314C520.0677,525.107,520.0659,525.5292,520.7077,525.9514Z" transform="translate(-284.4591 -65.5813)"/><path class="f" d="M520.7016,477.1582a9.425,9.425,0,0,0-5.32-1.3158q-67.7349.0771-135.47.0445c-1.6607,0-3.3735-.2973-4.69,1.23-1.0674,1.2385-1.5373-.3656-2.2957-.6275a2.3263,2.3263,0,0,1-.036-1.9106q72.2687.0255,144.5356.0413c.915,0,1.9271.27,2.6494-.6181a6.6215,6.6215,0,0,1,3.168-.0916C523.8408,476.1239,521.95,476.39,520.7016,477.1582Z" transform="translate(-284.4591 -65.5813)"/><path class="d" d="M520.0747,474.0024c-.7223.8881-1.7344.6182-2.6494.6181q-72.2673-.0095-144.5356-.0413c.522-.9724,1.4373-.6763,2.2452-.6763q71.9987-.0011,143.9973.011C519.4463,473.9139,519.7606,473.9716,520.0747,474.0024Z" transform="translate(-284.4591 -65.5813)"/><path class="e" d="M382.5461,531.0209,518.8,531.0173l.6378.63c-.8834.1046-1.9047-.302-2.5489.6883q-2.201.0188-4.4019.0371c-.879-1.1456-2.1385-.6958-3.2372-.6964q-62.7011-.034-125.4023-.0008c-1.0938.0006-2.3621-.4641-3.2159.726q-.6279.0126-1.256.0246-.3164-.4035-.6323-.8056C379.871,530.5336,381.2782,531.2187,382.5461,531.0209Z" transform="translate(-284.4591 -65.5813)"/><path class="d" d="M380.6318,532.4017c.8538-1.19,2.1221-.7254,3.2159-.726q62.7012-.0338,125.4023.0008c1.0987.0006,2.3582-.4492,3.2372.6964-.8387.0532-1.6775.1522-2.5165.1524q-63.5682.0165-127.1367.0109C382.1,532.5362,381.3659,532.4485,380.6318,532.4017Z" transform="translate(-284.4591 -65.5813)"/><path class="d" d="M520.6226,532.4216c13.5759-.0488,27.1518-.1354,40.7277-.1354,12.7337,0,25.4672.0915,38.2022.1432-1.0084.8242-2.2133.5317-3.342.5336q-36.3084.0579-72.6167.0656C522.5848,533.0288,521.4615,533.3526,520.6226,532.4216Z" transform="translate(-284.4591 -65.5813)"/><path class="d" d="M520.0719,593.1148c-.8086.9985-1.94.64-2.9459.6408q-30.9511.0288-61.9027.0018c-1.0087-.0009-2.134.3492-2.9647-.6086q21.9213-.066,43.8426-.1246C504.0914,593.0146,512.0817,593.082,520.0719,593.1148Z" transform="translate(-284.4591 -65.5813)"/><path class="f" d="M382.5461,531.0209c-1.2679.1978-2.6751-.4873-3.8026.6q-.38.0352-.76.07l-.114-.1826.1173-.1823c-.1464-2.6509.9826-5.407-.6644-7.93q-.057-1.2245-.1148-2.4489c1.3384-.16,2.2193.1719,2.169,1.778C379.2766,525.92,379.8379,528.8872,382.5461,531.0209Z" transform="translate(-284.4591 -65.5813)"/><path class="f" d="M666.5669,489.2724a42.361,42.361,0,0,0-2.0061-15.3409c3.6861-.2094,3.875-.1235,3.2991,3.5237C667.24,481.3794,667.7162,485.4146,666.5669,489.2724Z" transform="translate(-284.4591 -65.5813)"/><path class="f" d="M665.2752,502.1938c.0113-4,.0063-7.999.0473-11.9982.0086-.83.6532-.9386,1.3349-.869A41.7732,41.7732,0,0,1,665.2752,502.1938Z" transform="translate(-284.4591 -65.5813)"/><path class="d" d="M524.5029,806.6806a11.5276,11.5276,0,0,1,6.3816-1.81A12.6716,12.6716,0,0,1,524.5029,806.6806Z" transform="translate(-284.4591 -65.5813)"/><path class="d" d="M377.3224,523.3957c1.647,2.5234.518,5.2795.6644,7.93C376.9767,528.75,377.4713,526.0457,377.3224,523.3957Z" transform="translate(-284.4591 -65.5813)"/><path class="d" d="M519.4346,807.3484c1.7037-.0459,3.292-.9774,5.0432-.658a7.4488,7.4488,0,0,1-5.0059,1.2558Q519.4529,807.6473,519.4346,807.3484Z" transform="translate(-284.4591 -65.5813)"/><path class="d" d="M603.6085,535.7714c-.0433,1.6055.7857,3.3215-.6028,4.7566C603.1465,538.9349,602.57,537.2507,603.6085,535.7714Z" transform="translate(-284.4591 -65.5813)"/><path class="d" d="M450.9942,593.2064q-.0849,2.2335-.1711,4.4676c-1.088-1.4242-.6984-3.0048-.4836-4.567Z" transform="translate(-284.4591 -65.5813)"/><path class="d" d="M516.8891,532.3359c.6442-.99,1.6655-.5838,2.5489-.6883l1.2635.0192q-.0839.4007-.169.8027Q518.71,532.4038,516.8891,532.3359Z" transform="translate(-284.4591 -65.5813)"/><path class="d" d="M377.9835,531.691q.38-.0348.76-.07.3161.4017.6323.8051C378.7262,532.5327,378.2025,532.4,377.9835,531.691Z" transform="translate(-284.4591 -65.5813)"/><path class="d" d="M603.0316,532.9575a.8452.8452,0,0,1,.5864.912Q603.3249,533.4152,603.0316,532.9575Z" transform="translate(-284.4591 -65.5813)"/><path class="d" d="M602.199,532.4278a.7749.7749,0,0,1,.8658.5625Q602.6319,532.7095,602.199,532.4278Z" transform="translate(-284.4591 -65.5813)"/><path class="e" d="M516.7887,805.37c-.3.2507-.4835.5245-.693.5464-.2456.0256-.6759-.1062-.7415-.2782-.1779-.466.17-.7293.6-.7159C516.1884,804.93,516.4158,805.16,516.7887,805.37Z" transform="translate(-284.4591 -65.5813)"/><path class="d" d="M455.2382,641.5821a55.9838,55.9838,0,0,1,.0943,9.3235l-.2724.0066-.2427-.1224C455.3228,647.7373,453.9652,644.6,455.2382,641.5821Z" transform="translate(-284.4591 -65.5813)"/><path class="d" d="M523.8648,745.3178c-.7237,1.4142-2.0052,1.2308-3.2558,1.1366A3.66,3.66,0,0,1,523.8648,745.3178Z" transform="translate(-284.4591 -65.5813)"/><path class="d" d="M455.3659,650.8876c1.1261.0459,2.39-.5674,3.264.6851C457.4812,651.6354,456.2218,652.2214,455.3659,650.8876Z" transform="translate(-284.4591 -65.5813)"/><path class="d" d="M592.8024,652.8556c.4834-.0424,1.0831-.1829,1.1644.502.0834.7023-.5007.9934-1.0609,1.2289Q592.854,653.7207,592.8024,652.8556Z" transform="translate(-284.4591 -65.5813)"/><path class="d" d="M516.2492,651.5924c1.0733-1.1971,2.1457-1.192,3.2179.003Q517.8587,651.5948,516.2492,651.5924Z" transform="translate(-284.4591 -65.5813)"/><path class="d" d="M587.5446,651.634q1.2807-.0113,2.5629-.0219A1.6423,1.6423,0,0,1,587.5446,651.634Z" transform="translate(-284.4591 -65.5813)"/><path class="d" d="M591.864,651.6651c.8769-.0816,1.0548.4167.9513,1.1483A1.4076,1.4076,0,0,1,591.864,651.6651Z" transform="translate(-284.4591 -65.5813)"/><path class="d" d="M459.8649,651.5871c.2134-.5815.4261-.5742.6381.0016Q460.1841,651.5887,459.8649,651.5871Z" transform="translate(-284.4591 -65.5813)"/><path class="d" d="M450.7585,597.8058c2.1732-3.5641,5.706-2.7667,8.9688-2.7687q28.1676-.0171,56.3354-.0027c4.5181.0014,4.6383.1331,4.6385,4.5956.0007,15.4025-.0684,30.8057.06,46.2071.0249,2.9791-.9842,3.773-3.8478,3.757-18.6723-.1044-37.3464-.1372-56.0178.0241-3.3613.0291-4.1577-1.4045-4.24-4.257-.0458-1.5993.9442-3.7992-1.8174-4.3261-1.9767-11.7178-2.6468-23.5619-3.48-35.3881C451.1743,603.0316,450.4005,600.4609,450.7585,597.8058Z" transform="translate(-284.4591 -65.5813)"/><path class="g" d="M1463.85,378.9033q115.3453,0,230.6909,0c5.2513,0,5.3693.0836,4.8992,5.3519-1.6468,18.4568-3.2532,36.9178-5.03,55.3622-.96,9.9585-1.7794,19.925-2.6091,29.8939-1.3269,15.9451-3.2989,31.8385-4.5026,47.7912-.5231,6.9333-1.2384,13.8522-1.7348,20.7891-.88,12.29-2.1777,24.5489-3.3052,36.8206-.52,5.6606-1.059,11.3194-1.5751,16.98-1.252,13.7342-2.5291,27.4661-3.732,41.2046-.9462,10.8076-1.7356,21.629-2.706,32.4343-1.12,12.4756-2.416,24.9355-3.5371,37.4111-1.0089,11.2284-1.825,22.4742-2.8352,33.7025-1.1223,12.4735-2.3869,24.9342-3.5516,37.404-.51,5.4565-.8564,10.9286-1.3965,16.3818-1.38,13.9317-2.1314,27.9168-3.7415,41.8314-.9321,8.0547-1.5086,16.158-1.9772,24.255-.17,2.9393-1.452,4.3539-4.1045,5.0657-11.0905,2.9767-22.1847,5.9426-33.2447,9.03-8.43,2.3529-16.7407,5.1618-25.2285,7.2683-12.8254,3.1831-25.4685,7.0067-38.227,10.419-10.1978,2.7273-20.2277,6.1188-30.486,8.5723-8.5423,2.0432-16.893,4.7231-25.4071,6.8491-11.4711,2.8644-22.7852,6.356-34.172,9.5589a12.3017,12.3017,0,0,1-6.8489-.2684c-9.9839-2.8334-20.0039-5.54-29.9949-8.3489-6.54-1.8385-13.0343-3.8371-19.5808-5.6491-8.5526-2.3672-17.1481-4.58-25.7034-6.9371-6.5574-1.8069-13.0683-3.7828-19.6233-5.5984-8.679-2.4038-17.3892-4.6948-26.07-7.0911-6.5343-1.8036-13.0332-3.7347-19.5671-5.54-8.6931-2.4021-17.41-4.7171-26.1067-7.1082-6.3636-1.75-12.71-3.5616-19.0642-5.3454-2.3687-.665-3.1625-2.2345-3.3175-4.6727-.842-13.243-2.2794-26.44-3.3606-39.6657q-1.6335-19.9831-3.5909-39.957c-1.0325-10.5831-1.7553-21.1936-2.7224-31.7758q-2.5-27.35-4.9727-54.7032c-1.0634-11.64-1.9139-23.2994-3.0551-34.93-1.6761-17.0836-3.1636-34.18-4.5839-51.2868-1.3327-16.0518-3.1942-32.059-4.6415-48.1022-1.2679-14.0533-2.185-28.1381-3.4383-42.1929-1.3-14.5755-2.8818-29.1257-4.2157-43.6983-.8152-8.906-1.1917-17.855-2.1274-26.7465-1.5318-14.5554-2.4819-29.1622-4.1134-43.7117-.6544-5.8374-.6694-11.7683-1.5353-17.6111-.3643-2.4586.6829-3.5783,3.1566-3.4436.9478.0516,1.9009.0066,2.8515.0066Zm-.0035,369.9569c-1.9312.4825-3.7469-.05-5.576-.5911-3.5133-1.04-6.9925-2.2618-10.5694-3.0075-8.9256-1.861-17.5946-4.6889-26.42-6.9222-7.1685-1.814-14.3134-3.8575-21.4475-5.872-1.7889-.5051-2.4822-1.3378-2.5692-2.984-.7169-13.5624-2.9995-27.0007-3.25-40.5968-.0537-2.9086-1.1239-4.0656-4.1848-4.0478-17.4229.1019-34.8467.0268-52.27.0186-3.6262-.0017-3.7962.3392-3.4625,4.0478,1.0747,11.9432,2.0151,23.8985,3.0828,35.8424,1.0492,11.7347,2.2068,23.46,3.2849,35.1917.4815,5.24.6083,10.5133,1.53,15.7118.1733.9778-.2095,2.0527,1.3064,2.4669,7.3834,2.0173,14.7307,4.1665,22.1052,6.217,8.5655,2.3815,17.1493,4.6971,25.7191,7.0634,6.7514,1.8643,13.4916,3.769,20.24,5.6431,8.4738,2.3531,16.9406,4.7321,25.43,7.0284,9.0077,2.4366,17.904,5.29,27.0413,7.2429q-.001,27.2478.0239,54.4955c.0044,1.8646-.8348,4.15.468,5.5137,1.6134,1.6884,3.4435-.4433,5.2109-.732,7.1384-1.1658,13.97-3.5986,20.9208-5.4455,6.85-1.82,13.7069-3.8257,20.5323-5.8238,7.7471-2.268,15.5735-4.29,23.3171-6.6015,7.2363-2.16,14.5819-3.9253,21.8114-6.1375,7.0777-2.1656,14.4058-3.5216,21.461-5.7491,7.91-2.4975,15.9858-4.3985,23.94-6.7091,4.7822-1.3893,9.5906-3.0534,14.5662-3.9093,1.8693-.3216,3.5126-1.3524,3.6031-3.4334.21-4.83,1.0812-9.5861,1.4615-14.4018.4626-5.86.6465-11.7709,1.3636-17.5684,1.0184-8.2336,1.1722-16.522,2.2546-24.74.7254-5.5071.9561-11.0794,1.4058-16.6226.7375-9.0906,2.2605-18.1074,2.4746-27.25.0711-3.0379.4222-6.0738.7407-9.1005.7673-7.2914,2.109-14.5659,2.2629-21.8673.2-9.4817,1.4383-18.8679,2.2961-28.2536,1.1919-13.0411,1.854-26.1463,3.63-39.1268.5615-4.1048.1324-8.217.7445-12.2693,1.1129-7.3663,1.58-14.7945,2.3711-22.1909.4376-4.0887.29-8.2148.75-12.27,1.2517-11.0451,2.6376-22.0776,2.9859-33.1941.2437-7.7778,1.5112-15.4734,2.3265-23.1628.7827-7.3811,1.3193-14.8371,1.8914-22.2055.8284-10.6709,2.355-21.2711,2.9146-31.9739.6237-11.9293,1.7243-23.8528,3.1754-35.7105.5738-4.6889-.3673-9.51,1.3427-14.069.6308-1.6817-.4887-2.3623-1.7946-2.6734a12.4836,12.4836,0,0,0-2.8406-.0858q-85.39-.0024-170.78,0c-4.647,0-9.2967.0885-13.94-.0421-2.1576-.0607-2.9937.5621-2.9354,2.839.14,5.4885-.204,10.9991.15,16.4681.18,2.7847-.82,2.9584-3.0472,2.9549q-51.4873-.0808-102.9748-.024c-1.241.0007-2.5417-.3334-3.7184.3854-1.203.25-1.3313,1.1246-1.3175,2.15.087,6.5016-.89,12.9016-1.5942,19.3476-1.6562,15.1526-2.78,30.3631-4.1623,45.5462-2.0216,22.2023-4.2228,44.3893-6.0712,66.6059-1.1168,13.4229-2.6118,26.8143-3.6447,40.2308-.9938,12.9086-2.2311,25.7908-3.3271,38.6875-.1065,1.2534-.0691,2.2756,1.7161,2.2734,5.5793-.0068,11.1588.1669,16.7382.1683q51.9315.0132,103.8631-.0015c2.095.001,4.22-.3156,6.2873.2993,1.6179.9741,1.1342,2.5753,1.1351,3.9882Q1463.8532,704.391,1463.8469,748.86Z" transform="translate(-284.4591 -65.5813)"/><path class="b" d="M1507.3251,338.26c-12.7805-.0028-25.5618-.0717-38.3411.0528-2.6953.0262-3.76-.5972-3.66-3.5049.21-6.1188.1206-12.251.0284-18.3758-.0356-2.3756.6322-3.3268,3.2588-3.2862,10.8769.1683,21.7575.1043,32.6367.0909.8742-.001,2.0478.5224,2.5329-.6433.4524-1.0876-.562-1.7027-1.18-2.3751q-12.9474-14.0979-25.9155-28.1766c-3.3584-3.6449-6.7187-7.2888-10.1371-10.8771a4.1915,4.1915,0,0,1-1.1634-3.1437c.02-5.598.0362-11.1963-.0092-16.7941-.02-2.4586.79-3.4389,3.5365-3.4262q37.7071.1741,75.4151-.0106c3.031-.0159,3.5669,1.2647,3.546,3.7486-.0526,6.2312-.0976,12.4651.0385,18.694.0517,2.3656-.7367,3.1059-3.0932,3.0809-10.35-.11-20.702-.07-31.053-.0364-.9709.0031-2.3489-.5929-2.82.6667-.408,1.0921.6928,1.8863,1.3892,2.642q17.5822,19.077,35.2125,38.11a5.9416,5.9416,0,0,1,1.9067,4.4441c-.0977,5.3851-.13,10.7757.0161,16.1587.066,2.44-.8876,3.0232-3.1707,3.0076C1533.309,338.217,1520.3169,338.2628,1507.3251,338.26Z" transform="translate(-284.4591 -65.5813)"/><path class="h" d="M1450.9306,293.4615c-.0024,13.8334-.0543,27.6672.0461,41.5.0178,2.4532-.66,3.3485-3.2058,3.34q-33.2632-.11-66.527.01c-2.4045.0088-3.0938-.7957-3.06-3.117.1143-7.9182.1439-15.8408,0-23.758-.0511-2.8114.902-3.5414,3.6692-3.5,11.5079.17,23.02.0184,34.5292.1459,2.8323.0314,3.8566-.73,3.8316-3.76-.1436-17.4226-.0739-34.847-.0751-52.2708,0-3.808.38-4.1909,4.13-4.1908q11.2462,0,22.4926,0c3.86,0,4.17.3008,4.17,4.1Q1450.9357,272.7114,1450.9306,293.4615Z" transform="translate(-284.4591 -65.5813)"/><path class="i" d="M1354.2021,440.6251c1.1765-.7181,2.4772-.384,3.7182-.3847q51.4874-.0272,102.9748.024c2.227.0035,3.2276-.17,3.0472-2.9549-.3545-5.469-.01-10.98-.15-16.4681-.0583-2.2769.7778-2.9,2.9354-2.839,4.6434.1306,9.2931.0421,13.94.0421q85.39-.0009,170.78,0a12.4836,12.4836,0,0,1,2.8406.0858c1.3059.3111,2.4254.9917,1.7946,2.6734-1.71,4.5593-.7689,9.38-1.3427,14.069-1.4511,11.8577-2.5517,23.7812-3.1754,35.7105-.56,10.7028-2.0862,21.303-2.9146,31.9739-.5721,7.3684-1.1087,14.8244-1.8914,22.2055-.8153,7.6894-2.0828,15.385-2.3265,23.1628-.3483,11.1165-1.7342,22.149-2.9859,33.1941-.46,4.0551-.312,8.1812-.75,12.27-.7916,7.3964-1.2582,14.8246-2.3711,22.1909-.6121,4.0523-.183,8.1645-.7445,12.2693-1.7755,12.9805-2.4376,26.0857-3.63,39.1268-.8578,9.3857-2.0962,18.7719-2.2961,28.2536-.1539,7.3014-1.4956,14.5759-2.2629,21.8673-.3185,3.0267-.67,6.0626-.7407,9.1005-.2141,9.1429-1.7371,18.16-2.4746,27.25-.45,5.5432-.68,11.1155-1.4058,16.6226-1.0824,8.218-1.2362,16.5064-2.2546,24.74-.7171,5.7975-.901,11.7086-1.3636,17.5684-.38,4.8157-1.2513,9.5717-1.4615,14.4018-.0905,2.081-1.7338,3.1118-3.6031,3.4334-4.9756.8559-9.784,2.52-14.5662,3.9093-7.9545,2.3106-16.03,4.2116-23.94,6.7091-7.0552,2.2275-14.3833,3.5835-21.461,5.7491-7.2295,2.2122-14.5751,3.9777-21.8114,6.1375-7.7436,2.3113-15.57,4.3335-23.3171,6.6015-6.8254,1.9981-13.6827,4.0037-20.5323,5.8238-6.9506,1.8469-13.7824,4.28-20.9208,5.4455-1.7674.2887-3.5975,2.42-5.2109.732-1.3028-1.3635-.4636-3.6491-.468-5.5137q-.0633-27.2477-.0239-54.4955a.5616.5616,0,0,0-.0147-.3531l.6921-.0917a3.6591,3.6591,0,0,0,3.2185-1.0831c3.6324-.4311,7.07-1.651,10.569-2.6187q12.9878-3.5915,25.9745-7.1867,10.1228-2.7933,20.2516-5.5635c6.6558-1.8272,13.3233-3.613,19.9648-5.49,6.619-1.8709,13.1708-3.9936,19.8289-5.7076q9.1185-2.3473,18.1446-4.9935c1.426-.4172,1.6854-1.1676,1.884-2.4356,1.141-7.2884,1.4644-14.6641,2.1708-21.9884,1.3432-13.9259,2.4844-27.8735,3.785-41.8073.9091-9.7385,1.6741-19.4931,2.6176-29.2352,1.6013-16.5359,2.7833-33.1124,4.1415-49.6718.0947-1.1542.1615-2.3113.2849-3.4624.8973-8.3708,1.9069-16.7314,2.2022-25.1548.8-1.2451.4736-2.665.618-4.0109.4693-4.3722.4658-4.3728-3.8395-4.3721q-95.325.0171-190.65.0232c-1.2542,0-2.5083-.1636-3.7624-.2508,1.0838-.6433,2.274-.32,3.4091-.3214,18.1615-.0225,36.3237-.0832,54.4842.0517,3.0646.0228,4.1289-.5648,4.1117-3.9439-.1511-29.5645-.0858-59.13-.0847-88.6954l21.5222-.0475c2.7074.3962,5.4259,1.1944,8.12,1.12,12.3657-.3428,24.607,1.8629,36.9633,1.6113,4.4793-.0912,5.0931.4434,5.4976,4.84.9846,10.7,1.57,21.4417,2.7756,32.1146.8372,7.411.8052,14.8914,2.1063,22.27.4034,2.288,1.2344,2.66,3.2245,2.6509,13.8316-.06,27.6637-.03,41.4956-.0283,4.0123,0,8.0247-.0135,12.0369.0069,1.6419.0083,3.0271-.2492,2.8631-2.3638-.7411-9.5508-1.9-19.06-2.5651-28.6242-.7947-11.4324-2.2828-22.8155-3.39-34.2277-.7423-7.6505-1.3506-15.3141-2.0083-22.9728-1.0083-11.7437-2.1207-23.48-2.9284-35.2379-.1937-2.8207-1.1392-3.4388-3.7692-3.4335q-59.0758.1212-118.1521.08c-1.2632,0-2.5262.0973-3.7893.1492q-25.2768-.0612-50.5537-.1212Q1383.7447,440.6731,1354.2021,440.6251Z" transform="translate(-284.4591 -65.5813)"/><path class="j" d="M1485.36,502.9019l-21.5222.0475c-.5237-.0464-1.0469-.126-1.5713-.1344-17.5881-.2822-35.1326,1.258-52.713,1.2527-2.1663-.0006-2.73,1.0818-2.6684,2.9509.2477,7.5024-1.2553,14.873-1.7574,22.3243-.7913,11.7385-2.2367,23.432-3.3545,35.1495-.9179,9.6216-1.7263,19.2538-2.6649,28.8733-.2277,2.3327.48,3.2284,2.8092,2.4927,1.2541.0872,2.5082.2508,3.7624.2508q95.325.0017,190.65-.0232c4.3053-.0007,4.3088,0,3.8395,4.3721-.1444,1.3459.1822,2.7658-.6183,4.0111-.0312-1.6869-.1923-3.3843-.06-5.0585.1692-2.1411-.7434-2.6664-2.7549-2.6644q-66.0162.0638-132.0325-.0048c-2.0783-.0021-2.8629.4193-2.1841,2.648.6777,2.2253.0612,4.5564.0608,6.841-.0033,14.9339.0928,29.869-.0794,44.8009-.0374,3.2423,1.3966,4.0272,4.0977,4.0221,5.1715-.01,10.3439.0562,15.5145-.0111,17.08-.2222,34.1666.503,51.244-.3463,1.069-.0532,2.6549.0788,2.6487,1.5981-.0128,3.2013.8592,6.5471-1.1138,9.5292.0281-2.3127-.0972-4.64.1259-6.9342.2435-2.5039-.5939-3.26-3.1483-3.2487-22.3343.1029-44.669.07-67.0036.09-.7245.0007-1.4488.1354-2.1733.2077-2.0707-.6189-4.1957-.3023-6.2907-.3033q-51.9315-.0246-103.8631.0015c-5.5794-.0014-11.1589-.1751-16.7382-.1683-1.7852.0022-1.8226-1.02-1.7161-2.2734,1.096-12.8967,2.3333-25.7789,3.3271-38.6875,1.0329-13.4165,2.5279-26.8079,3.6447-40.2308,1.8484-22.2166,4.05-44.4036,6.0712-66.6059,1.3823-15.1831,2.5061-30.3936,4.1623-45.5462.7044-6.446,1.6812-12.846,1.5942-19.3476-.0138-1.0258.1145-1.9005,1.3177-2.1508q29.5425.0538,59.0849.1093,25.2768.0528,50.5537.1212c-.9669,1.844.0806,3.6843.066,5.532-.1164,14.6377-.0646,29.2767-.0625,43.9153q.0009,5.5881.0119,11.1764c3.777.0739,7.5581.0634,11.33.2468A50.7154,50.7154,0,0,1,1485.36,502.9019Z" transform="translate(-284.4591 -65.5813)"/><path class="j" d="M1463.8364,811.3128c-9.1373-1.9525-18.0336-4.8063-27.0413-7.2429-8.4891-2.2963-16.9559-4.6753-25.43-7.0284-6.7486-1.8741-13.4888-3.7788-20.24-5.6431-8.57-2.3663-17.1536-4.6819-25.7191-7.0634-7.3745-2.0505-14.7218-4.2-22.1052-6.217-1.5159-.4142-1.1331-1.4891-1.3064-2.4669-.9216-5.1985-1.0484-10.4717-1.53-15.7118-1.0781-11.7321-2.2357-23.457-3.2849-35.1917-1.0677-11.9439-2.0081-23.8992-3.0828-35.8424-.3337-3.7086-.1637-4.05,3.4625-4.0478,17.4236.0082,34.8474.0833,52.27-.0186,3.0609-.0178,4.1311,1.1392,4.1848,4.0478.2507,13.5961,2.5333,27.0344,3.25,40.5968.087,1.6462.78,2.4789,2.5692,2.984,7.1341,2.0145,14.279,4.058,21.4475,5.872,8.8255,2.2333,17.4945,5.0612,26.42,6.9222,3.5769.7457,7.0561,1.9674,10.5694,3.0075,1.8291.5415,3.6448,1.0736,5.5759.5911q.6309.0849,1.262.17c-3.138,1.5126-2.7952,4.0068-1.9673,6.7092a7.8086,7.8086,0,0,1,.058,2.2079q.0027,19.0091-.0013,38.018c0,1.3669-.3717,2.7571-.363,4.0536.0243,3.6545-1.571,7.512.9864,10.9413A.5609.5609,0,0,1,1463.8364,811.3128Z" transform="translate(-284.4591 -65.5813)"/><path class="i" d="M1465.1088,749.03q-.631-.0846-1.262-.17-.0051-44.4691-.0221-88.9383c-.0009-1.4129.4828-3.0141-1.1334-3.9862.7262-.07,1.4505-.205,2.175-.2057,22.3346-.02,44.6693.0134,67.0036-.09,2.5544-.0118,3.3918.7448,3.1483,3.2487-.2231,2.2938-.0978,4.6215-.1261,6.9344-1.9071,13.3308-2.2943,26.806-3.8365,40.1744-.9159,7.94-1.1322,15.9547-2.3969,23.8636-.1607,1.0048.022,2.08-1.42,2.4654-9.2841,2.481-18.5449,5.0488-27.825,7.5452Q1482.27,744.4839,1465.1088,749.03Z" transform="translate(-284.4591 -65.5813)"/><path class="k" d="M1465.1088,749.03q17.1534-4.5759,34.3053-9.1575c9.28-2.4964,18.5409-5.0642,27.825-7.5452,1.4416-.3852,1.2589-1.4606,1.42-2.4654,1.2647-7.9089,1.481-15.9239,2.3969-23.8636,1.5422-13.3684,1.9294-26.8436,3.8365-40.1744,1.9732-2.9823,1.1012-6.3281,1.114-9.5294.0062-1.5193-1.58-1.6513-2.6487-1.5981-17.0774.8493-34.1639.1241-51.244.3463-5.1706.0673-10.343.0015-15.5145.0111-2.7011.0051-4.1351-.78-4.0977-4.0221.1722-14.9319.0761-29.867.0794-44.8009,0-2.2846.6169-4.6157-.0608-6.841-.6788-2.2287.1058-2.65,2.1841-2.648q66.0162.0675,132.0325.0048c2.0115-.002,2.9241.5233,2.7549,2.6644-.1322,1.6742.0289,3.3716.06,5.0585-.295,8.4232-1.3046,16.7838-2.2019,25.1546-.1234,1.1511-.19,2.3082-.2849,3.4624-1.3582,16.5594-2.54,33.1359-4.1415,49.6718-.9435,9.7421-1.7085,19.4967-2.6176,29.2352-1.3006,13.9338-2.4418,27.8814-3.785,41.8073-.7064,7.3243-1.03,14.7-2.1708,21.9884-.1986,1.268-.458,2.0184-1.884,2.4356q-9.034,2.6433-18.1446,4.9935c-6.6581,1.714-13.21,3.8367-19.8289,5.7076-6.6415,1.8774-13.309,3.6632-19.9648,5.49q-10.1264,2.78-20.2516,5.5635-12.99,3.5845-25.9745,7.1867c-3.4994.9677-6.9366,2.1876-10.5688,2.6184-1.23-.105-2.5-.3295-3.2187,1.0834l-.6921.0917c-2.5575-3.4293-.9622-7.2868-.9865-10.9413-.0087-1.2965.3627-2.6867.363-4.0536q.0065-19.0089.0013-38.018a7.8086,7.8086,0,0,0-.058-2.2079C1462.3136,753.0365,1461.9708,750.5423,1465.1088,749.03Z" transform="translate(-284.4591 -65.5813)"/><path class="k" d="M1485.36,502.9019a50.7154,50.7154,0,0,0-10.1744-1.1755c-3.7716-.1834-7.5527-.1729-11.33-.2468q-.0061-5.5883-.0119-11.1764c-.0021-14.6386-.0539-29.2776.0625-43.9153.0146-1.8477-1.0329-3.688-.066-5.532,1.2631-.0519,2.5261-.1487,3.7893-.1492q59.076-.0233,118.1521-.08c2.63-.0053,3.5755.6128,3.7692,3.4335.8077,11.7576,1.92,23.4942,2.9284,35.2379.6577,7.6587,1.266,15.3223,2.0083,22.9728,1.1073,11.4122,2.5954,22.7953,3.39,34.2277.6649,9.5646,1.824,19.0734,2.5651,28.6242.164,2.1146-1.2212,2.3721-2.8631,2.3638-4.0122-.02-8.0246-.0066-12.0369-.0069-13.8319-.0014-27.664-.0321-41.4956.0283-1.99.0087-2.8211-.3629-3.2245-2.6509-1.3011-7.3789-1.2691-14.8593-2.1063-22.27-1.2058-10.6729-1.791-21.4146-2.7756-32.1146-.4045-4.3962-1.0183-4.9308-5.4976-4.84-12.3563.2516-24.5976-1.9541-36.9633-1.6113C1490.7861,504.0963,1488.0676,503.2981,1485.36,502.9019Z" transform="translate(-284.4591 -65.5813)"/><path class="g" d="M1401.9177,595.8584c-2.3287.7357-3.0369-.16-2.8092-2.4927.9386-9.6195,1.747-19.2517,2.6649-28.8733,1.1178-11.7175,2.5632-23.411,3.3545-35.1495.5021-7.4513,2.0051-14.8219,1.7574-22.3243-.0617-1.8691.5021-2.9515,2.6684-2.9509,17.58.0053,35.1249-1.5349,52.713-1.2527.5244.0084,1.0476.088,1.5713.1344-.0011,29.5653-.0664,59.1309.0847,88.6954.0172,3.3791-1.0471,3.9667-4.1117,3.9439-18.16-.1349-36.3227-.0742-54.4842-.0517C1404.1917,595.5383,1403.0015,595.2151,1401.9177,595.8584Z" transform="translate(-284.4591 -65.5813)"/><path class="l" d="M991.489,250.0635q163.9169-.01,327.8337-.0069c5.3637,0,5.7518.6849,5.2476,5.9827-1.27,13.3475-2.2754,26.72-3.458,40.0762-1.9442,21.9573-4.1148,43.896-5.874,65.8678-1.7957,22.427-3.9456,44.8233-5.8308,67.2417-2.1211,25.2257-4.5717,50.4295-6.7822,75.6526-3.29,37.5425-6.8536,75.0609-10.2255,112.5963-2.6129,29.0853-5.0985,58.182-7.6626,87.2717q-4.4736,50.7528-8.99,101.5017c-2.01,22.5488-4.0838,45.092-6.0978,67.64-1.5636,17.5071-3.7364,34.9645-4.522,52.5338-.1635,3.6564-2.4077,4.9759-5.2162,5.722-19.1249,5.08-38.1427,10.5411-57.206,15.8386-19.3244,5.37-38.6777,10.6348-57.979,16.0967-22.6006,6.3953-45.341,12.2949-67.9866,18.5335-11.7435,3.2352-23.3829,6.848-35.1249,10.0888-12.1734,3.36-24.4177,6.4631-36.6211,9.7153a26.4071,26.4071,0,0,0-4.6193,1.62c-6.367,3.0534-12.4907,1.6851-18.9326-.1792-21.2686-6.1553-42.6658-11.865-63.9917-17.8242-19.9-5.5606-39.7543-11.2883-59.6633-16.8178-17.0188-4.7265-34.11-9.1908-51.1266-13.9269-18.0491-5.0237-36.0345-10.2756-54.0725-15.34-9.1648-2.573-18.3474-5.1031-27.5952-7.3513-4.1438-1.0075-6.0932-2.6055-6.4528-7.3881-1.5288-20.3352-3.68-40.623-5.5281-60.935-1.1341-12.4641-2.0859-24.9446-3.2-37.4107-1.8561-20.7719-3.7983-41.5361-5.6616-62.3075-1.0916-12.1684-2.0729-24.3468-3.1525-36.5164-2.0007-22.5517-4.0618-45.098-6.0513-67.6507-1.6744-18.9813-3.2277-37.9735-4.9369-56.9516-1.5506-17.2168-3.3057-34.4152-4.8476-51.6328-1.4471-16.159-2.6506-32.34-4.11-48.4978-2.0777-23.0034-4.3036-45.9934-6.44-68.9914-.7987-8.5968-1.528-17.2-2.282-25.8009q-2.5359-28.9258-5.0626-57.8525c-1.51-17.35-2.9372-34.7082-4.5187-52.052-1.0532-11.55-2.1086-23.1055-3.5329-34.6127-1.7312-13.9859-1.8995-13.9332,12.0553-13.932Q831.38,250.0789,991.489,250.0635Zm.3119,523.57-2.505.18c-7.7634-1.34-15.1546-4.0774-22.7458-6.0655q-31.722-8.3078-63.4149-16.7257c-2.7655-.7389-4.8807-2.0482-5.1446-5.7231-1.3864-19.3083-3.1175-38.5914-4.6139-57.8922-.2538-3.2732-1.7068-4.2415-4.8579-4.23q-38.0523.1338-76.1051-.0179c-3.4-.0159-4.2121,1.4026-3.8126,4.3279.5035,3.686,1.1355,7.3618,1.4576,11.0641,1.3429,15.4354,2.5272,30.8847,3.8877,46.3184,1.9483,22.1,4.0552,44.1858,5.9322,66.2916.2182,2.57,1.2619,3.8137,3.498,4.4379,17.31,4.8315,34.6087,9.7077,51.939,14.4669,14.05,3.8587,28.16,7.4988,42.2062,11.3729,16.1885,4.4653,32.3423,9.0571,48.4978,13.6412,8.4178,2.3887,16.8067,4.8791,25.2087,7.3235-1.0626,1.5752.1582,3.1906.1359,4.7791-.3267,23.2777-.2877,46.5611-.1879,69.8425.0087,2.0152.96,4.0308.7481,6.1569-.4171,4.1785.7164,5.2337,4.7946,4.1461,6.1279-1.6344,12.2029-3.4662,18.3117-5.1736,8.8241-2.4662,17.6667-4.8664,26.4862-7.349,10.236-2.8816,20.4372-5.888,30.69-8.7074,4.98-1.37,9.8774-3.2294,14.86-4.2907,9.8567-2.0994,19.3564-5.391,29.1164-7.7737,8.16-1.9925,16.1931-4.5043,24.2875-6.7681,10.9842-3.072,21.9565-6.1887,32.9653-9.17,9.9795-2.703,19.9551-5.4483,30.0213-7.7932,5.9647-1.3894,8.9346-3.6325,9.596-9.4217a109.8635,109.8635,0,0,0,1.1375-13.7575,107.1267,107.1267,0,0,1,1.0521-15.5363c1.5337-11.3123,2.8685-22.63,3.3534-34.0446q.302-7.1121,1.0608-14.2035c1.0559-10.01,3.2695-20.0179,3.1521-30.0047-.1865-15.8538,3.0844-31.2953,4.1037-46.9909.9279-14.2891,1.5617-28.6582,4.0667-42.8651,1.9546-11.085,1.1837-22.4655,2.6653-33.6852,2.0739-15.7049,3.0033-31.5549,4.45-47.3371,1.6222-17.7032,2.7954-35.4512,4.6222-53.1442,1.6911-16.379,2.8122-32.8142,4.2736-49.2138,1.2094-13.572,3.8915-27.0917,2.9624-40.836a12.595,12.595,0,0,1,.3145-3.0929c2.3582-12.7028,2.848-25.6058,4.1063-38.4252.5072-5.1679.6315-10.3724,1.0808-15.5473,1.1789-13.5812,3.57-27.0587,3.4444-40.7525a23.6366,23.6366,0,0,1,.271-5.34c3.3642-14.9733,2.5218-30.4093,5.08-45.4651.7462-4.3922-1.1856-5.3954-5.4162-5.39q-130.975.1807-261.95.0929c-5.8057,0-5.8228.0145-5.8247,5.66-.0075,23.1353.1366,46.272-.1221,69.4044-.052,4.6474,1.2954,5.6537,5.7511,5.644q99.1825-.2157,198.3657-.0985c1.194,0,2.3895-.0267,3.5818.021,2.4413.0976,1.5872,1.49,1.05,2.7464-.5948.0263-1.19.0754-1.7845.0755q-99.3078.0247-198.6155.038c-3.8677,0-7.7355-.0661-11.6032-.1014-.5943-.0424-1.1885-.1217-1.7828-.1219q-99.9224-.0141-199.8447-.003c-1.2893,0-2.7294-.39-3.714.9254l.0266,4.48c.2484,2.0815-.8966,4.3583.8726,6.2266a63.3322,63.3322,0,0,1,.9571,14.2447c.31,3.5988-1.1629,7.3547.9506,10.7947a37.147,37.147,0,0,1,1.4054,9.1849c1.4264,17.4975,2.5691,35.0226,4.2941,52.49q3.8156,38.6355,6.9652,77.3259c1.66,20.3088,3.8789,40.5685,5.4816,60.8877.4463,5.6591.1673,11.5811,2.3809,17.0582,1.5152,1.468,3.41.7893,5.1209.7909q68.7313.06,137.4629.0327c13.2836,0,26.5677.0632,39.85-.0473,3.1982-.0266,4.6163.9782,3.4832,4.1754-.7286,2.0561-.5226,4.1289-.5236,6.2-.0184,36.1194.0576,72.2392-.1025,108.3579-.02,4.5464.2625,8.4866,4.4806,11.0971C994.21,773.0048,992.8547,772.6338,991.8009,773.6336Z" transform="translate(-284.4591 -65.5813)"/><path class="m" d="M1141.5053,129.32q.0065,28.66.0058,57.3192c.0013,5.9455-.1844,6.16-5.9145,6.1608-10.8967.0022-21.795-.1213-32.689.0446-3.6191.055-5.0406-1.0186-4.999-4.8282.1792-16.4176.1222-32.838.1107-49.2574-.0009-1.3895.8445-3.37-.9586-3.9644-1.9467-.6422-2.19,1.65-2.9049,2.7426-7.5824,11.5931-15.1471,23.2-22.5182,34.9274-2.0872,3.321-3.3835,2.4476-5.04-.1362q-11.0906-17.2986-22.2237-34.57c-.8793-1.3682-1.6735-3.5406-3.3328-3.2016-2.1206.4333-1.089,2.7811-1.095,4.2593-.0653,16.1208-.0293,32.2419-.0261,48.3629.0011,5.6178-.0307,5.6292-5.8145,5.6229-10.4489-.0113-20.9-.1214-31.3455.0548-3.7385.0631-4.9429-1.3164-4.9351-4.9815q.1245-58.8861-.0237-117.7725c-.0092-3.3823,1.1615-4.4846,4.3933-4.4591q18.5829.1473,37.1675.0171a5.5314,5.5314,0,0,1,5.3834,3.0727c7.2507,12.1482,14.6926,24.1819,22.0118,36.29,2.4388,4.0344,3.0894,4.13,5.5054.1636,7.0514-11.5756,14.1706-23.1122,21.0281-34.8021,2.0459-3.4875,4.4151-4.9051,8.5536-4.7976,11.3367.2943,22.6886.23,34.0294.028,4.1109-.0733,5.7958.9075,5.7355,5.4918C1141.3538,90.5084,1141.5009,109.9153,1141.5053,129.32Z" transform="translate(-284.4591 -65.5813)"/><path class="m" d="M844.6482,129.3194c0,19.405-.0775,38.81.0649,58.2144.0287,3.9152-.8491,5.5136-5.2325,5.3781-11.0351-.3414-22.0912-.2483-33.1322-.0156-3.8468.0811-4.9212-1.3528-4.8675-4.9525.16-10.7451-.0864-21.4978.1726-32.2391.0976-4.0473-1.0612-5.6572-5.26-5.5628-9.3991.2116-18.8087.184-28.209-.0018-3.563-.07-4.73,1.2748-4.6823,4.7139.1507,10.8946-.0224,21.7944.1846,32.6873.071,3.74-.8792,5.4088-4.9816,5.3293-11.1909-.2166-22.39-.17-33.5832-.0125-3.6744.0516-4.9939-1.2381-4.9858-4.951q.1289-58.8861-.0123-117.7726c-.0078-3.2994,1.0435-4.53,4.36-4.4952q17.4626.1846,34.9279.0124c3.3957-.036,4.3269,1.3172,4.2715,4.5556-.1835,10.7443.031,21.4961-.2017,32.2386-.0848,3.9134,1.1759,5.2693,5.133,5.1677q13.649-.3507,27.3123.0071c4.2177.1129,5.838-1.1883,5.73-5.5835-.26-10.5919.0335-21.1967-.1725-31.7909-.0693-3.5627,1.0917-4.672,4.62-4.6166q17.0124.2668,34.031-.0166c3.5533-.0624,4.6,1.04,4.5718,4.5964-.1576,19.7023-.0756,39.4064-.0756,59.11Z" transform="translate(-284.4591 -65.5813)"/><path class="m" d="M942.7716,150.5838c0,12.3852-.1311,24.7727.0761,37.1545.0663,3.9556-1.267,5.2-5.164,5.1281-11.0386-.2032-22.0865-.2194-33.124.0122-4.2735.09-5.3025-1.6253-5.28-5.5782.1394-24.6206-.0023-49.2429.174-73.8631.0283-3.9528-1.1573-5.2521-5.0748-5.1586-9.2465.2205-18.5043-.04-27.7518.1579-3.1587.0675-4.2365-.9878-4.211-4.0771q.1444-17.4574-.0218-34.9166c-.0315-2.9925,1.1279-3.8177,3.9778-3.8126q54.6144.0973,109.2291-.0054c3.3533-.006,4.8122.9593,4.7414,4.63-.21,10.889-.26,21.7891.0062,32.6756.1093,4.473-1.5625,5.6375-5.7739,5.5128-9.0946-.2693-18.2049.0283-27.3036-.1575-3.55-.0724-4.6373,1.2-4.59,4.6956.17,12.5322.0669,25.0681.0669,37.6027Z" transform="translate(-284.4591 -65.5813)"/><path class="m" d="M1162.0441,128.9089c-.0039-19.3894.0917-38.78-.084-58.1675-.0354-3.905,1.085-5.2223,5.06-5.1371,10.8829.2332,21.7783.2534,32.66-.0062,4.2678-.1018,5.2061,1.4382,5.176,5.4631-.183,24.4593-.1019,48.92-.1018,73.381,0,5.5614.0909,5.62,5.8472,5.615,16.2573-.0149,32.5155.0693,48.7714-.0846,3.8083-.0361,5.364,1.094,5.2923,5.1-.1977,11.0335-.1678,22.0743-.0114,33.1091.05,3.5182-1.2218,4.6956-4.6991,4.6857q-46.7579-.1334-93.516.0118c-3.8027.0143-4.446-1.6842-4.4324-4.9076C1162.09,168.2846,1162.048,148.5966,1162.0441,128.9089Z" transform="translate(-284.4591 -65.5813)"/><path class="n" d="M1199.683,388.7187c.5391-1.256,1.3932-2.6489-1.0481-2.7465-1.1923-.0477-2.3878-.021-3.5818-.021q-99.183-.001-198.3657.0985c-4.4557.01-5.8031-.9966-5.7511-5.644.2587-23.1324.1146-46.2691.1221-69.4044.0019-5.6453.019-5.66,5.8247-5.66q130.9754-.0048,261.95-.0929c4.2306-.0058,6.1624.9974,5.4162,5.39-2.558,15.0558-1.7156,30.4918-5.08,45.4651a23.6366,23.6366,0,0,0-.271,5.34c.1258,13.6938-2.2655,27.1713-3.4444,40.7525-.4493,5.1749-.5736,10.3794-1.0808,15.5473-1.2583,12.8194-1.7481,25.7224-4.1063,38.4252a12.595,12.595,0,0,0-.3145,3.0929c.9291,13.7443-1.753,27.264-2.9624,40.836-1.4614,16.4-2.5825,32.8348-4.2736,49.2138-1.8268,17.693-3,35.441-4.6222,53.1442-1.4463,15.7822-2.3757,31.6322-4.45,47.3371-1.4816,11.22-.7107,22.6-2.6653,33.6852-2.505,14.2069-3.1388,28.576-4.0667,42.8651-1.0193,15.6956-4.29,31.1371-4.1037,46.9909.1174,9.9868-2.0962,19.9946-3.1521,30.0047q-.7469,7.08-1.0608,14.2035c-.4849,11.4144-1.82,22.7323-3.3534,34.0446a107.1267,107.1267,0,0,0-1.0521,15.5363,109.8635,109.8635,0,0,1-1.1375,13.7575c-.6614,5.7892-3.6313,8.0323-9.596,9.4217-10.0662,2.3449-20.0418,5.09-30.0213,7.7932-11.0088,2.9817-21.9811,6.0984-32.9653,9.17-8.0944,2.2638-16.1273,4.7756-24.2875,6.7681-9.76,2.3827-19.26,5.6743-29.1164,7.7737-4.9826,1.0613-9.88,2.9212-14.86,4.2907-10.2529,2.8194-20.4541,5.8258-30.69,8.7074-8.82,2.4826-17.6621,4.8828-26.4862,7.349-6.1088,1.7074-12.1838,3.5392-18.3117,5.1736-4.0782,1.0876-5.2117.0324-4.7946-4.1461.2122-2.1261-.7394-4.1417-.7481-6.1569-.1-23.2814-.1388-46.5648.1879-69.8425.0223-1.5885-1.1985-3.2039-.1364-4.7787q1.781-.805,3.563-1.6109c3.1375-1.3884,6.63-1.281,9.83-2.2028q19.9084-5.736,39.9268-11.06c20.8281-5.58,41.5383-11.6,62.3118-17.3857,17.3405-4.83,34.7063-9.5686,52.0426-14.4133,1.9913-.5564,4.1315-1.3178,4.1282-4.0077-.0058-4.6447,1.28-9.1656,1.4627-13.7535.8986-22.5045,4.0814-44.8084,5.6848-67.2527,1.4746-20.6408,3.6086-41.2347,5.4787-61.847,1.4-15.4272,2.9979-30.8382,4.2188-46.2794,1.1028-13.9486,3.37-27.8167,3.05-41.869a33.5824,33.5824,0,0,0,1.5074-12.901,29.978,29.978,0,0,0,.2678-8.1592c-2.2638-3.4648-5.5084-1.06-8.1395-1.068q-90.43-.2618-180.8612-.1574-54.1675.0131-108.3348.2053c-4.0987.0177-6.1152-.7928-6.4615-5.5336-1.4419-19.7468-3.3605-39.4583-5.0376-59.1884-.5486-6.4545-1.8718-12.8588-1.3542-19.3882.2163.6334.1542,1.5,1.1844,1.4524a.4261.4261,0,0,0,.2929-.2943c.0267-1.0324-.8346-.9563-1.4772-1.1516.8348-2.2059,2.7384-1.3549,4.2189-1.3515,39.5038.0907,79.0074.3,118.5112.3387q94.824.0922,189.6482.0162c6.8751,0,6.8751.0175,6.5548-6.9511.5709-5.9938,1.9289-11.907,1.8406-17.9683a3.1288,3.1288,0,0,0,.7054-2.4812c.54-14.6892,2.63-29.245,3.7721-43.8825C1200.1147,397.74,1201.6292,393.2212,1199.683,388.7187Zm-198.79,86.8241c-2.1149-1.3561-3.9176-.8775-5.5831-.8794q-55.3008-.0623-110.6016-.0527c-7.1453-.0019-8.2306,1.2583-8.3546,8.7335-.1091,6.5763,1.346,13.0285,1.6094,19.4936.6233,15.2978,3.6075,30.3594,3.9671,45.67.0659,2.8056-.1983,6.2522,1.8854,8.5292,2.0552,2.2458,4.7461-.705,7.21-.0273a10.4382,10.4382,0,0,0,2.6767.0358l91.795.0022c6.2833,0,6.2652.0019,5.6-6.3842a34.7257,34.7257,0,0,1-.0421-3.58q-.0019-30.673,0-61.3459c0-8.5465-.0006-8.5435,8.4312-9.4428C999.7545,476.2666,1000,476.03,1000.893,475.5428Zm170.8058-.1355.1774-.4449H1003.8868l.001.4449Zm9.8871.0665c3.7261,1.9062,7.194-.0072,10.7757-.4994C1188.757,474.81,1185.1466,474.2376,1181.5859,475.4738Z" transform="translate(-284.4591 -65.5813)"/><path class="o" d="M874.51,474.5311c-.517,6.53.8062,12.934,1.3548,19.3885,1.6771,19.73,3.5957,39.4416,5.0376,59.1884.3463,4.7408,2.3628,5.5513,6.4615,5.5336q54.167-.2334,108.3348-.2053,90.4308-.0219,180.8612.1574c2.6311.0076,5.8757-2.3968,8.139,1.0686q-98.3347.0007-196.6685,0l-1.2065,1.41c5.0149.3168,4.2157,3.3519,4.2176,5.9578.0158,21.941-.0112,43.8821.0345,65.8229.0053,2.5517.05,5.002-2.5111,6.5344,4.5374,3.2194,8.9877.9352,13.3014.9413q43.4341.0621,86.8684.0234a15.5158,15.5158,0,0,1,3.1237.1089c1.7658.3675,3.43,1.6691,2.9259,3.3352-.9064,2.9946.1429,6.2662-1.5582,9.0617-.04-.4446-.1115-.8891-.1141-1.3339-.0543-9.3284-.0527-9.32-9.6221-9.3236q-123.2541-.0495-246.5081-.0984c-10.4361-.003-20.8722.0794-31.3083.1222-2.2136-5.4771-1.9346-11.3991-2.3809-17.0582-1.6027-20.3192-3.8212-40.5789-5.4816-60.8877q-3.1635-38.6937-6.9652-77.3259c-1.725-17.4677-2.8677-34.9928-4.2941-52.49a37.135,37.135,0,0,0-1.4054-9.1841c-.0916-3.6179.2277-7.2726-.9506-10.7955a63.33,63.33,0,0,0-.957-14.2441c-.1649-2.0929.5225-4.306-.8727-6.2272l-.0266-4.48c2.234-.0842,4.4679-.2413,6.7019-.2417q96.916-.019,193.832-.0284c1.6061,0,3.292.4132,4.8076-.53,3.8677.0353,7.7355.1018,11.6032.1014q99.3078-.01,198.6155-.038c.5948,0,1.19-.0492,1.7838-.0754,1.9455,4.5025.431,9.0216.0785,13.5395-1.1418,14.6375-3.2323,29.1933-3.7721,43.8825a3.13,3.13,0,0,1-.7054,2.4814c-.0147-.2978-.0353-.5957-.0431-.8939-.4226-16.3787,1.9809-32.5581,3.61-48.7808.8773-8.7362,1.23-8.7-7.0923-8.5223-.5964.0128-1.1933,0-1.79,0q-20.1384-.0017-40.2766-.0029-76.7491,0-153.4983-.0869c-4.09-.0107-5.3984,1.0388-5.2422,5.2131.3235,8.64.0994,17.3.1,25.9524,0,14.47.0563,28.94-.0235,43.4091-.0388,7.031-.154,7.0308,7.047,7.0309q92.4123.0014,184.8246.07c4.688.0079,9.0445.3331,10.5439-5.4207.32,6.9686.32,6.9515-6.5548,6.9511q-94.824-.0051-189.6482-.0162c-39.5038-.0384-79.0074-.248-118.5112-.3387-1.4805-.0034-3.3841-.8544-4.2189,1.3515Z" transform="translate(-284.4591 -65.5813)"/><path class="j" d="M994.7908,860.7935q-1.7819.8052-3.563,1.6105c-8.4015-2.4448-16.79-4.9352-25.2082-7.3239-16.1555-4.5841-32.3093-9.1759-48.4978-13.6412-14.0458-3.8741-28.1561-7.5142-42.2062-11.3729-17.33-4.7592-34.6286-9.6354-51.939-14.4669-2.2361-.6242-3.28-1.8676-3.498-4.4379-1.877-22.1058-3.9839-44.1917-5.9322-66.2916-1.3605-15.4337-2.5448-30.883-3.8877-46.3184-.3221-3.7023-.9541-7.3781-1.4576-11.0641-.3995-2.9253.413-4.3438,3.8126-4.3279q38.052.1786,76.1051.0179c3.1511-.0111,4.6041.9572,4.8579,4.23,1.4964,19.3008,3.2275,38.5839,4.6139,57.8922.2639,3.6749,2.3791,4.9842,5.1446,5.7231q31.6809,8.4621,63.4149,16.7257c7.5912,1.9881,14.9824,4.7255,22.7454,6.0654q1.2828.3921,2.5667.7844c-2.4121,1.7561-.7676,4.0908-.7731,6.1244q-.0979,36.2488-.0381,72.4982c0,.7448.2421,1.6714-.1035,2.2065C987.623,860.5737,991.3835,860.538,994.7908,860.7935Zm-6.5967-85.279c-.5222-.2925-.8435-.6158-1.1755-.6272-.6047-.0208-1.0977.346-.8433,1.0049.094.2434.6974.43,1.0421.394C987.5131,776.2549,987.7711,775.8681,988.1941,775.5145ZM986.92,859.4153c-.2625-.0809-.4261-.1315-.59-.182.0312.1082.0566.3055.0946.3079A1.83,1.83,0,0,0,986.92,859.4153Z" transform="translate(-284.4591 -65.5813)"/><path class="n" d="M805.6738,642.2246c10.4361-.0428,20.8722-.1252,31.3083-.1222q123.2541.036,246.5081.0984c9.5694.0038,9.5678-.0048,9.6221,9.3236.0026.4448.0745.8893.1141,1.3341-1.2279,12.1337-2.5351,24.26-3.664,36.4023-1.5036,16.1736-3.0162,32.3492-4.2278,48.546-.5692,7.609-1.1219,14.7081-11.4385,14.3929-.8056-.0248-1.6081.6973-2.4514.9281q-29.9021,8.1825-59.8138,16.3289a6.6284,6.6284,0,0,0-5.49,1.5824l-1.6828.3242a7.7773,7.7773,0,0,0-5.3719,1.5172l0-.0018-3.3665.3013-.2748-.35c-4.2167-2.6088-4.4993-6.549-4.4792-11.0954.16-36.1187.0841-72.2385.1025-108.3579.001-2.071-.205-4.1438.5236-6.2,1.1331-3.1972-.285-4.202-3.4832-4.1754-13.2827.1105-26.5668.0474-39.85.0473q-68.7315,0-137.4629-.0327C809.0836,643.0139,807.189,643.6926,805.6738,642.2246Z" transform="translate(-284.4591 -65.5813)"/><path class="n" d="M987.6812,388.7307c-1.5156.9436-3.2015.53-4.8076.53q-96.9161.033-193.832.0284c-2.234,0-4.4679.1575-6.7019.2417.9846-1.3153,2.4247-.9252,3.714-.9254q99.9223-.0177,199.8447.003C986.4927,388.609,987.0869,388.6883,987.6812,388.7307Z" transform="translate(-284.4591 -65.5813)"/><path class="n" d="M784.196,414.4829c1.1783,3.5229.859,7.1776.9506,10.7955C783.0331,421.8376,784.5061,418.0817,784.196,414.4829Z" transform="translate(-284.4591 -65.5813)"/><path class="n" d="M782.3663,394.0116c1.3952,1.9212.7078,4.1343.8727,6.2272C781.47,398.37,782.6147,396.0931,782.3663,394.0116Z" transform="translate(-284.4591 -65.5813)"/><path class="n" d="M991.8,773.6315c1.0549-.9977,2.41-.6267,3.6452-.8011l.2739.3493a4.78,4.78,0,0,1-3.7576.6489Z" transform="translate(-284.4591 -65.5813)"/><path class="n" d="M991.862,774.598q-1.2835-.3921-2.5665-.7841,1.2531-.09,2.5048-.1813l.1609.1959a5.1037,5.1037,0,0,1-.1344.782Z" transform="translate(-284.4591 -65.5813)"/><path class="f" d="M1004.4579,771.3633q.8415-.162,1.683-.3238a8.1022,8.1022,0,0,0,5.49-1.5828q29.9085-8.1582,59.8138-16.3289c.8433-.2308,1.6458-.9529,2.4514-.9281,10.3166.3152,10.8693-6.7839,11.4385-14.3929,1.2116-16.1968,2.7242-32.3724,4.2278-48.546,1.1289-12.1426,2.4361-24.2686,3.6639-36.4023,1.7012-2.7957.6519-6.0673,1.5583-9.0619.5044-1.6661-1.16-2.9677-2.9259-3.3352a15.5158,15.5158,0,0,0-3.1237-.1089q-43.4341-.0054-86.8684-.0234c-4.3137-.0061-8.764,2.2781-13.3014-.9413,2.561-1.5324,2.5164-3.9827,2.5111-6.5344-.0457-21.9408-.0187-43.8819-.0345-65.8229-.0019-2.6059.7973-5.641-4.2176-5.9578l1.2065-1.41q98.334,0,196.6685,0a29.9566,29.9566,0,0,1-.2672,8.1584,25.0075,25.0075,0,0,0-1.5075,12.9012c.32,14.0523-1.9468,27.92-3.05,41.869-1.2209,15.4412-2.8191,30.8522-4.2188,46.2794-1.87,20.6123-4.0041,41.2062-5.4787,61.847-1.6034,22.4443-4.7862,44.7482-5.6848,67.2527-.1831,4.5879-1.4685,9.1088-1.4627,13.7535.0033,2.69-2.1369,3.4513-4.1282,4.0077-17.3363,4.8447-34.7021,9.5837-52.0426,14.4133-20.7735,5.7859-41.4837,11.8053-62.3118,17.3857q-20.014,5.3627-39.9268,11.06c-3.2.9218-6.6922.8144-9.83,2.2028-3.4073-.2551-7.1678-.2194-3.8433-5.3657.3456-.5351.1034-1.4617.1035-2.2065q.0006-36.2492.0381-72.4982c.0055-2.0336-1.639-4.3683.7731-6.1244l-.0349.0128c2.4985-.2475,5.4472,1.3924,7.2583-1.7324l0,.002C1001.0084,772.8416,1003.1424,773.5511,1004.4579,771.3633Z" transform="translate(-284.4591 -65.5813)"/><path class="f" d="M1193.4441,466.59c-1.4994,5.7538-5.8559,5.4286-10.5439,5.4207q-92.4122-.1545-184.8246-.07c-7.201,0-7.0858,0-7.047-7.0309.08-14.4693.0239-28.9394.0235-43.4091,0-8.652.2238-17.3124-.1-25.9524-.1562-4.1743,1.1526-5.2238,5.2422-5.2131q76.7488.2,153.4983.0869,20.1382,0,40.2766.0029c.5967,0,1.1936.0131,1.79,0,8.3222-.1777,7.97-.2139,7.0923,8.5223-1.6293,16.2227-4.0328,32.4021-3.61,48.7808.0078.2982.0284.5961.0431.8939C1195.373,454.6832,1194.015,460.5964,1193.4441,466.59Z" transform="translate(-284.4591 -65.5813)"/><path class="l" d="M1000.893,475.5428c-.8928.4871-1.1385.7238-1.4065.7523-8.4318.8993-8.4313.8963-8.4312,9.4428q0,30.6729,0,61.3459a34.7257,34.7257,0,0,0,.0421,3.58c.6651,6.3861.6832,6.3843-5.6,6.3842l-91.795-.0022a10.4382,10.4382,0,0,1-2.6767-.0358c-2.4641-.6777-5.155,2.2731-7.21.0273-2.0837-2.277-1.82-5.7236-1.8854-8.5292-.36-15.311-3.3438-30.3726-3.9671-45.67-.2634-6.4651-1.7185-12.9173-1.6094-19.4936.124-7.4752,1.2093-8.7354,8.3546-8.7335q55.3008.0144,110.6016.0527C996.9754,474.6653,998.7781,474.1867,1000.893,475.5428Z" transform="translate(-284.4591 -65.5813)"/><path class="l" d="M1171.6988,475.4073h-167.811l-.001-.4449h167.9894Z" transform="translate(-284.4591 -65.5813)"/><path class="l" d="M1181.5859,475.4738c3.5607-1.2362,7.1711-.6635,10.7757-.4994C1188.78,475.4666,1185.312,477.38,1181.5859,475.4738Z" transform="translate(-284.4591 -65.5813)"/><path class="o" d="M1182.9245,580.7219a25.0075,25.0075,0,0,1,1.5075-12.9012A33.585,33.585,0,0,1,1182.9245,580.7219Z" transform="translate(-284.4591 -65.5813)"/><path class="l" d="M874.511,474.5379c.6426.1953,1.5039.1192,1.4772,1.1516a.4261.4261,0,0,1-.2929.2943c-1.03.0479-.9681-.819-1.1844-1.4524Z" transform="translate(-284.4591 -65.5813)"/><path class="f" d="M988.1941,775.5145c-.423.3536-.681.74-.9767.7717-.3447.0364-.9481-.1506-1.0421-.394-.2544-.6589.2386-1.0257.8433-1.0049C987.3506,774.8987,987.6719,775.222,988.1941,775.5145Z" transform="translate(-284.4591 -65.5813)"/><path class="f" d="M986.92,859.4153a1.83,1.83,0,0,1-.4951.1259c-.038-.0024-.0634-.2-.0946-.3079C986.4937,859.2838,986.6573,859.3344,986.92,859.4153Z" transform="translate(-284.4591 -65.5813)"/><path class="j" d="M999.0856,772.8787c-1.8111,3.1248-4.76,1.4849-7.2583,1.7324a5.1848,5.1848,0,0,0,.1339-.7826,4.78,4.78,0,0,0,3.7577-.6488Q997.4025,773.03,999.0856,772.8787Z" transform="translate(-284.4591 -65.5813)"/><path class="j" d="M1004.4579,771.3633c-1.3155,2.1878-3.4495,1.4783-5.3719,1.5174A7.7765,7.7765,0,0,1,1004.4579,771.3633Z" transform="translate(-284.4591 -65.5813)"/><path class="j" d="M1011.6309,769.4567a8.1022,8.1022,0,0,1-5.49,1.5828A6.6267,6.6267,0,0,1,1011.6309,769.4567Z" transform="translate(-284.4591 -65.5813)"/></svg>