<svg width="3137" height="512" viewBox="0 0 3137 512" fill="none" xmlns="http://www.w3.org/2000/svg">
<g clip-path="url(#clip0_1012_335)">
<mask id="mask0_1012_335" style="mask-type:luminance" maskUnits="userSpaceOnUse" x="0" y="0" width="3137" height="512">
<path d="M3137 0H0V512H3137V0Z" fill="white"/>
</mask>
<g mask="url(#mask0_1012_335)">
<path d="M569.037 462.421V14.1654C569.037 7.68011 564.372 2.38944 553.938 6.65611C532.985 15.1894 471.313 44.2881 461.813 49.3228C452.312 54.3574 455.874 67.4134 464.697 66.3894C469.786 65.7921 469.532 70.8268 469.532 73.9841V436.053C469.532 444.768 471.24 453.397 474.557 461.447C477.875 469.497 482.738 476.81 488.867 482.968C494.997 489.126 502.273 494.008 510.28 497.335C518.286 500.662 526.867 502.369 535.529 502.357H575.399C576.743 502.482 578.089 502.143 579.215 501.396C580.342 500.649 581.182 499.537 581.597 498.246C582.011 496.954 581.976 495.559 581.498 494.29C581.019 493.021 580.125 491.954 578.962 491.264C571.837 485.717 569.037 479.061 569.037 462.421Z" fill="#031E03"/>
<path d="M3127.16 431.787C3120.86 441.71 3112.21 449.897 3101.97 455.604C3091.73 461.311 3080.24 464.358 3068.54 464.469C2991.18 464.469 2942.32 368.896 2942.32 368.896C3030.54 368.896 3133.52 331.861 3133.52 248.917C3133.52 190.208 3081.18 134.827 2990.33 134.827C2762.39 134.827 2760.87 509.099 2988.55 509.099C3063.62 509.099 3118.08 474.965 3136.24 439.467C3139.8 432.469 3130.21 426.667 3127.16 431.787ZM2978.11 160.085C3073.63 160.085 3039.19 351.659 2935.7 351.659C2904.48 322.304 2886.33 160.085 2978.11 160.085Z" fill="#031E03"/>
<path d="M277.902 457.131C55.3089 457.131 65.8278 68.608 209.105 38.9973C261.784 27.8187 313.87 73.728 330.072 161.365C342.288 126.123 367.906 97.1947 397.003 88.6613C377.404 61.2863 351.631 38.977 321.8 23.5647C291.968 8.15236 258.928 0.0764975 225.392 0C81.9454 0 0 112.213 0 259.072C0 335.019 50.1343 500.48 220.557 512C330.242 519.083 393.694 442.709 422.706 394.155C424.01 391.97 424.627 389.441 424.476 386.897C424.324 384.354 423.412 381.916 421.858 379.904C420.684 378.38 419.18 377.147 417.46 376.299C415.739 375.45 413.849 375.009 411.933 375.009C410.017 375.009 408.126 375.45 406.406 376.299C404.685 377.147 403.181 378.38 402.008 379.904C385.381 401.067 344.748 457.131 277.902 457.131Z" fill="#031E03"/>
<path d="M1165.3 157.184C1239.53 157.184 1258.62 262.997 1258.62 263.083C1267.62 235.928 1284.82 212.274 1307.82 195.413C1287.7 175.435 1263.85 159.654 1237.64 148.978C1211.44 138.302 1183.4 132.942 1155.13 133.205C1018.89 133.205 991.15 263.424 1074.28 321.877C1101.85 341.333 1151.39 377.515 1188.97 404.139C1236.82 438.272 1215.35 476.843 1164.12 476.843C1076.83 476.843 1076.23 370.091 1076.23 370.091L1015.07 435.883C1015.07 435.883 1082.94 509.184 1177.18 509.184C1331.49 509.184 1351.85 389.717 1264.56 329.984C1239.11 312.149 1166.66 268.117 1135.78 246.869C1084.38 211.627 1110.17 157.184 1165.3 157.184Z" fill="#031E03"/>
<path d="M1495.72 157.184C1569.94 157.184 1589.03 262.997 1589.03 263.083C1598.03 235.928 1615.23 212.274 1638.23 195.413C1618.12 175.423 1594.27 159.635 1568.06 148.958C1541.86 138.282 1513.81 132.928 1485.54 133.205C1349.22 133.205 1321.56 263.424 1404.61 321.877C1432.26 341.333 1481.8 377.515 1519.3 404.139C1567.14 438.272 1545.68 476.843 1494.53 476.843C1407.24 476.843 1406.56 370.091 1406.56 370.091L1345.4 435.883C1345.4 435.883 1413.26 509.184 1507.59 509.184C1661.81 509.184 1682.17 389.717 1594.97 329.984C1569.09 312.149 1496.99 268.117 1466.2 246.869C1414.7 211.627 1440.58 157.184 1495.72 157.184Z" fill="#031E03"/>
<path d="M951.79 462.421V411.221V151.125C951.79 144.64 947.039 139.349 936.605 143.616C931.091 145.835 922.778 149.504 913.362 153.771C904.621 157.522 895.112 159.107 885.636 158.394C876.159 157.682 866.991 154.691 858.901 149.675C764.401 94.72 623.838 165.12 623.838 320.341C623.838 487.595 766.352 553.045 852.2 475.563C857.623 483.86 864.997 490.685 873.667 495.433C882.338 500.181 892.038 502.706 901.91 502.784H958.067C959.411 502.909 960.757 502.57 961.883 501.822C963.009 501.075 963.849 499.964 964.264 498.672C964.679 497.381 964.644 495.985 964.165 494.716C963.686 493.447 962.792 492.38 961.63 491.691C954.504 485.717 951.79 479.061 951.79 462.421ZM852.2 444.416C839.235 456.891 822.121 464.069 804.186 464.555C764.571 464.555 723.598 430.421 723.598 314.197C723.598 225.195 749.047 165.717 808.427 165.717C824.089 165.988 839.319 170.917 852.2 179.883V444.416Z" fill="#031E03"/>
<path d="M2570.34 462.421V411.221V151.125C2570.34 144.64 2565.59 139.349 2555.15 143.616C2549.64 145.835 2541.33 149.504 2531.91 153.771C2523.17 157.522 2513.66 159.107 2504.18 158.394C2494.71 157.682 2485.54 154.691 2477.45 149.675C2382.95 94.72 2242.47 165.12 2242.47 320.341C2242.47 487.595 2384.9 553.045 2470.75 475.563C2476.17 483.86 2483.55 490.685 2492.22 495.433C2500.89 500.181 2510.59 502.706 2520.46 502.784H2576.62C2577.96 502.909 2579.31 502.57 2580.43 501.822C2581.56 501.075 2582.4 499.964 2582.81 498.672C2583.23 497.381 2583.19 495.985 2582.71 494.716C2582.24 493.447 2581.34 492.38 2580.18 491.691C2573.14 485.717 2570.34 479.061 2570.34 462.421ZM2470.75 444.416C2454.88 457.003 2435.38 464.07 2415.18 464.555C2375.65 464.555 2342.15 430.421 2342.15 314.197C2342.15 225.195 2368.02 165.717 2426.98 165.717C2442.64 165.988 2457.87 170.917 2470.75 179.883V444.416Z" fill="#031E03"/>
<path d="M2790.9 468.224C2762.31 481.536 2752.64 435.285 2752.64 404.565V197.888V158.464H2782.41C2784.66 158.464 2786.82 157.565 2788.41 155.965C2790 154.364 2790.9 152.194 2790.9 149.931C2790.9 147.668 2790 145.497 2788.41 143.897C2786.82 142.297 2784.66 141.397 2782.41 141.397H2752.3V109.397V38.4001C2752.34 38.2038 2752.34 37.9991 2752.3 37.8028V14.1654C2752.3 7.68011 2747.63 2.38944 2737.2 6.65611C2716.25 15.1894 2654.57 44.2881 2645.07 49.3228C2635.57 54.3574 2639.14 67.4134 2647.96 66.3894C2653.05 65.7921 2652.79 70.8268 2652.79 73.9841V141.653H2635.83C2633.58 141.653 2631.42 142.552 2629.83 144.153C2628.24 145.753 2627.34 147.924 2627.34 150.187C2627.34 152.45 2628.24 154.62 2629.83 156.221C2631.42 157.821 2633.58 158.72 2635.83 158.72H2652.79V436.053C2652.79 449.61 2656.93 462.84 2664.67 473.941C2676.63 496.043 2698.01 509.099 2731.94 509.099C2757.39 509.099 2782.16 493.227 2796.75 481.28C2805.91 473.856 2798.11 464.811 2790.9 468.224Z" fill="#031E03"/>
<path d="M2194.29 462.421V220.587C2193.95 197.984 2184.72 176.439 2168.61 160.68C2152.49 144.921 2130.83 136.237 2108.36 136.533C2041.85 136.533 2006.05 173.141 1992.82 191.403C1985.71 174.538 1973.66 160.252 1958.28 150.449C1942.9 140.646 1924.91 135.792 1906.72 136.533C1868.05 136.458 1830.93 151.8 1803.48 179.2V151.125C1803.48 144.64 1798.73 139.349 1788.29 143.616C1767.34 152.149 1705.75 181.248 1696.25 186.283C1686.75 191.317 1690.23 204.373 1699.14 203.349C1703.89 202.752 1703.97 207.104 1703.97 210.261V463.531C1703.97 479.317 1701.09 485.803 1694.13 491.264C1692.97 491.954 1692.08 493.021 1691.6 494.29C1691.12 495.559 1691.08 496.954 1691.5 498.246C1691.91 499.537 1692.75 500.648 1693.88 501.396C1695.01 502.143 1696.35 502.482 1697.7 502.357H1809.76C1811.1 502.482 1812.45 502.143 1813.57 501.396C1814.7 500.648 1815.54 499.537 1815.95 498.246C1816.37 496.954 1816.33 495.559 1815.85 494.29C1815.38 493.021 1814.48 491.954 1813.32 491.264C1806.28 485.717 1803.48 479.061 1803.48 462.421V207.104C1815.35 196.267 1831.56 179.2 1850.13 179.2C1883.47 179.2 1892.97 206.933 1892.97 237.653V462.592C1892.97 479.659 1890.26 485.888 1883.13 491.435C1881.97 492.124 1881.08 493.191 1880.6 494.46C1880.12 495.729 1880.08 497.125 1880.5 498.416C1880.91 499.708 1881.75 500.819 1882.88 501.566C1884.01 502.314 1885.35 502.653 1886.7 502.528H1998.84C2000.18 502.63 2001.51 502.274 2002.62 501.519C2003.73 500.764 2004.55 499.653 2004.95 498.368C2005.35 497.083 2005.31 495.699 2004.84 494.44C2004.36 493.182 2003.47 492.122 2002.32 491.435C1995.28 485.888 1992.48 479.232 1992.48 462.592V220.757V219.392C2004.1 205.653 2025.05 179.115 2051.86 179.115C2085.2 179.115 2094.7 206.848 2094.7 237.568V436.053C2094.7 453.638 2101.64 470.503 2114 482.937C2126.36 495.372 2143.13 502.357 2160.61 502.357H2200.57C2201.91 502.482 2203.26 502.143 2204.38 501.396C2205.51 500.648 2206.35 499.537 2206.76 498.246C2207.18 496.954 2207.14 495.559 2206.66 494.29C2206.19 493.021 2205.29 491.954 2204.13 491.264C2197.09 485.717 2194.29 479.061 2194.29 462.421Z" fill="#031E03"/>
</g>
</g>
<defs>
<clipPath id="clip0_1012_335">
<rect width="3137" height="512" fill="white"/>
</clipPath>
</defs>
</svg>
