<svg width="1788" height="1344" viewBox="0 0 1788 1344" fill="none" xmlns="http://www.w3.org/2000/svg">
<path d="M1520.01 1115.12V3.82858M1520.01 1115.12V1248.83V1307.27M1520.01 1115.12L1599.11 1212.58L1678.2 1310.04" stroke="#470878" stroke-width="6" stroke-linecap="round"/>
<rect x="1507.16" y="40.8138" width="25.6931" height="53.3361" rx="5" fill="#470878"/>
<rect x="1510.76" y="20.1779" width="17.8139" height="86.6712" rx="5" fill="#470878"/>
<path d="M404.831 28.2482C404.831 14.4411 416.023 3.24823 429.831 3.24823H1492.36C1506.17 3.24823 1517.36 14.4411 1517.36 28.2482V1305.38H404.831V28.2482Z" fill="#D7C0F4"/>
<path d="M637.267 1287.79L672.119 968.541H637.267L616.909 1285.08C616.677 1291.36 614.678 1306.36 625.06 1307.84C634.047 1309.13 636.493 1296.52 637.267 1287.79Z" fill="#550F8C"/>
<path d="M707.273 1285.23L742.125 965.985H707.273L686.915 1282.53C686.682 1288.8 684.683 1303.8 695.066 1305.29C704.053 1306.57 706.499 1293.96 707.273 1285.23Z" fill="#550F8C"/>
<path d="M1252.46 1285.23L1217.61 965.985H1252.46L1272.82 1282.53C1273.05 1288.8 1275.05 1303.8 1264.67 1305.29C1255.68 1306.57 1253.23 1293.96 1252.46 1285.23Z" fill="#550F8C"/>
<path d="M1328.65 1285.23L1293.8 965.985H1328.65L1349.01 1282.53C1349.25 1288.8 1351.24 1303.8 1340.86 1305.29C1331.87 1306.57 1329.43 1293.96 1328.65 1285.23Z" fill="#550F8C"/>
<path d="M1060.85 879.607C1062.46 904.838 1085.07 914.527 1110.3 914.325C1135.53 914.123 1160.76 902.618 1160.76 865.276C1160.76 832.981 1121 834.192 1101.83 834.595C1076.58 835.127 1058.56 843.75 1060.85 879.607Z" fill="#FFA800"/>
<path d="M1131.29 844.082C1132.16 844.888 1133.15 845.94 1134.2 847.197C1140.31 854.114 1148.73 865.756 1148.45 874.158C1148.13 884.008 1132.23 903.787 1122.41 909.481C1130.21 903.297 1143.23 887.264 1144.01 872.946C1144.57 862.728 1138.89 852.872 1134.2 847.197C1133.14 846.005 1132.16 844.953 1131.29 844.082Z" fill="#FBC765"/>
<path d="M1066.83 876.638C1066.83 862.849 1071.36 851.328 1077.6 844.486C1073.07 853.773 1070.01 865.05 1070.01 876.638C1070.01 886.383 1078.62 899.955 1087.99 906.962C1079.92 902.56 1066.83 890.428 1066.83 876.638Z" fill="#FBC765"/>
<path d="M1091.24 875.503C1090.5 867.039 1090.01 850.566 1093.35 841.055C1091.85 855.16 1092.99 869.545 1093.46 875.503C1094.11 883.743 1098.59 900.69 1101.96 908.653C1097.26 902.221 1091.92 883.327 1091.24 875.503Z" fill="#FBC765"/>
<path d="M1121.8 879.002C1121.8 863.278 1116.43 850.803 1112.12 843.073C1118.18 850.054 1124.23 865.398 1124.23 879.002C1124.23 888.602 1117.93 903.697 1112.12 909.279C1116.37 903.707 1121.8 891.721 1121.8 879.002Z" fill="#FBC765"/>
<path d="M1099.09 836.863C1099.94 837.885 1101.92 838.23 1104.04 838.472C1106.17 838.714 1109.78 837.873 1110.74 836.575C1111.93 834.953 1108.3 832.688 1107.61 830.835C1106.92 828.983 1109.32 826.197 1108.75 824.73C1108.18 823.262 1106.15 822.824 1104.12 823.481C1102.09 824.138 1098.03 835.586 1099.09 836.863Z" fill="#CE8210"/>
<path d="M1226.38 834.211C1247.37 854.204 1239.04 888.857 1224.05 901.852C1201.47 921.422 1171.4 912.182 1157.07 899.187C1142.75 886.192 1138.97 848.49 1130.31 839.16C1120.48 828.577 1087.46 811.077 1122.09 781.565C1154.53 753.916 1166.4 798.558 1176.73 808.887C1187.06 819.217 1207.42 816.149 1226.38 834.211Z" fill="#FBC765"/>
<path d="M1116.94 817.997C1111.49 811.642 1111.64 802.443 1113.18 797.528C1111.56 801.879 1110.47 808.68 1113.18 815.411C1115.88 822.143 1132.49 831.665 1138.05 840.369C1143.61 849.072 1150.74 883.912 1157.81 892.656C1161.77 897.563 1172.38 905.403 1189.3 910.722C1175.94 905.478 1165.5 898.057 1159.96 892.656C1152.28 885.167 1145.46 847.134 1139.29 839.237C1132.36 830.372 1123.04 825.108 1116.94 817.997Z" fill="#FFA800"/>
<path d="M1139.46 797.753C1135.83 792.646 1128.17 787.403 1125.42 785.412C1129.13 787.334 1137.73 791.436 1140.66 794.473C1144.32 798.264 1148.9 808.271 1154.05 813.625C1159.19 818.979 1193.61 842.499 1204.5 855.43C1209.77 861.69 1221.18 880.966 1214.59 899.088C1218.3 883.437 1209.58 867.965 1201.21 858.107C1188.44 843.074 1158.55 822.896 1152.19 816.302C1145.84 809.709 1143.99 804.137 1139.46 797.753Z" fill="#FFA800"/>
<path d="M1130.14 811.396C1124.7 804.73 1121.98 794.299 1121.53 789.358C1122.71 795.209 1128.77 806.036 1132.42 809.685C1136.98 814.246 1151.04 825.46 1157.51 832.493C1163.97 839.525 1191.72 887.611 1200.65 900.535C1191.72 895.214 1159.98 842.186 1155.61 835.724C1151.23 829.262 1137.74 820.709 1130.14 811.396Z" fill="#FFA800"/>
<path d="M1126.46 780.646C1126.35 781.97 1124.94 783.393 1123.34 784.82C1121.74 786.248 1118.31 787.646 1116.78 787.137C1114.87 786.501 1116.53 782.555 1116.02 780.646C1115.51 778.737 1111.95 777.846 1111.56 776.319C1111.18 774.791 1112.58 773.264 1114.62 772.628C1116.66 771.991 1126.58 778.991 1126.46 780.646Z" fill="#CE8210"/>
<path d="M1148.97 786.356C1143.2 782.825 1137.07 782.031 1132.63 781.975C1136.9 781.357 1144.44 780.524 1151 784.165C1159.67 788.985 1165.15 808.373 1171.05 813.26C1176.95 818.147 1207.7 827.959 1222.28 836.575C1234.17 843.601 1233.01 856.292 1233.74 863.033C1230.2 850.625 1229.39 846.901 1219.58 840.283C1207.39 832.052 1181.83 823.316 1171.05 816.238C1160.26 809.16 1156.98 791.256 1148.97 786.356Z" fill="#FFA800"/>
<path d="M911.275 778.651C1010.03 778.651 1044.79 864.692 1045.63 909.196H776.493C779.036 866.67 812.52 778.652 911.275 778.651Z" fill="#FBC765"/>
<path d="M1008.34 893.937C979.562 916.076 944.759 900.295 930.348 882.494C915.938 864.692 913.818 826.546 937.554 807.897C956.542 792.978 978.295 793.419 992.424 795.605C1004.13 787.565 1028.14 775.86 1043.94 795.605C1064.53 821.346 1041.96 842.087 1029.53 851.129C1029.53 858.313 1032.96 874.994 1008.34 893.937Z" fill="#FFA800"/>
<path d="M838.988 836.88C838.296 843.453 844.466 860.952 847.637 868.88C820.651 858.381 810.922 868.88 808.562 879.379C806.203 889.878 822.044 899.096 847.637 898.085C873.23 897.074 886.25 889.996 890.632 879.379C895.013 868.762 872.769 853.427 864.68 848.371C889.351 844.597 894.62 827.25 894.171 819.049C889.565 820.959 877.892 825.722 868.05 829.497C855.748 834.216 839.853 828.664 838.988 836.88Z" fill="#FFA800"/>
<path fill-rule="evenodd" clip-rule="evenodd" d="M1011.24 903.026C1008.39 904.236 1005.45 906.993 1006.15 909.593C1007.04 912.843 1020.34 915.502 1029.49 914.911C1038.65 914.32 1048.11 911.661 1048.7 909.593C1049.17 907.939 1045.74 903.98 1043.97 902.207C1044.44 901.813 1045.07 901.37 1045.89 900.783C1046.53 900.329 1047.29 899.788 1048.2 899.117C1049.29 898.308 1050.42 897.002 1051.04 896.281C1051.21 896.082 1051.34 895.928 1051.43 895.841C1060.18 896.433 1078.18 894.725 1080.13 883.154C1082.56 868.691 1068.55 864.366 1059.99 863.69C1055.99 863.374 1049.47 864.646 1042.35 866.035C1034.23 867.618 1025.34 869.353 1018.5 869.065C1014.03 868.877 1008.33 868.266 1002.52 867.642C991.668 866.477 980.41 865.269 975.955 866.697C969.458 868.78 967.64 872.796 970.706 875.626C971.416 876.281 973.845 876.264 976.79 876.242C981.128 876.21 986.587 876.17 989.324 878.263C990.87 879.445 992.398 882.054 994.236 885.19C997.862 891.38 1002.69 899.626 1011.24 903.026ZM1064.43 868.286C1064.43 871.272 1063.88 874.812 1062.33 879.458C1061.29 882.564 1059.6 884.929 1058.27 886.783C1057.61 887.702 1057.04 888.495 1056.69 889.191C1062.55 889.044 1074.34 886.89 1074.6 879.458C1074.87 872.025 1067.93 868.913 1064.43 868.286Z" fill="#9161CE"/>
<path d="M1034.74 882.101C1052.44 881.446 1067.06 871.423 1061.16 866.62C1055.26 861.817 1033.24 870.723 1021.04 871.423C1010.86 872.007 991.976 867.521 984.214 867.521C976.452 867.521 971.421 870.824 972.007 872.435C972.762 874.514 981.312 871.703 991.418 872.435C1000.48 873.092 1002.13 883.309 1034.74 882.101Z" fill="#B898E0"/>
<path d="M896.544 884.95L893.19 906.445H912.246L909.078 884.95C909.688 884.95 910.874 884.219 910.874 881.292C910.874 878.365 908.043 877.551 902.86 877.551C897.676 877.551 894.715 878.395 894.867 881.292C894.989 883.609 896.036 884.696 896.544 884.95Z" fill="#9161CE"/>
<path d="M921.941 884.95L918.587 906.445H937.643L934.475 884.95C935.085 884.95 936.271 884.219 936.271 881.292C936.271 878.365 933.439 877.551 928.256 877.551C923.073 877.551 920.112 878.395 920.264 881.292C920.386 883.609 921.433 884.696 921.941 884.95Z" fill="#9161CE"/>
<path d="M939.076 907.547H915.866M892.657 907.547H915.866M915.866 907.547V864.996" stroke="#470878" stroke-width="4" stroke-linecap="round"/>
<path fill-rule="evenodd" clip-rule="evenodd" d="M717.165 911.699V898.474C715.467 897.059 713.293 893.859 711.112 890.65C710.133 889.21 709.154 887.768 708.215 886.485C705.558 882.851 702.814 875.41 701.789 872.027C688.897 864.68 666.833 843.079 671.959 808.369C677.243 772.583 702.404 774.234 712.86 778.232C712.86 776.687 712.523 774.557 712.173 772.348C711.549 768.4 710.885 764.204 712.038 762.667C713.476 760.749 715.531 760.15 718.749 760.15H785.863C786.582 760.15 788.188 760.294 788.859 760.869C789.53 761.444 794.332 767.101 796.649 769.857C797.368 770.656 798.59 772.446 797.728 773.213C797.48 773.433 796.842 773.702 795.978 774.066C793.074 775.289 787.618 777.588 785.863 782.717C780.146 799.428 785.175 812.385 790.344 825.705C793.789 834.581 797.296 843.618 797.728 854.034C798.71 877.767 787.83 897.563 781.711 908.697C781.115 909.781 780.564 910.783 780.074 911.699H717.165ZM707.602 827.169C705.325 832.905 703.113 838.481 701.905 843.512C700.797 848.13 701.34 852.497 701.696 855.358C701.79 856.116 701.872 856.769 701.905 857.292C689.817 851.49 675.553 822.72 685.224 800.478C695.424 777.017 716.82 786.405 714.961 803.137C714.114 810.759 710.795 819.122 707.602 827.169Z" fill="#B898E0"/>
<path d="M719.809 801.121C720.574 794.125 719.112 774.909 717.053 765.025L786.283 765.299C787.346 766.511 790.171 769.753 791.61 771.374C782.387 775.444 778.215 786.217 778.215 796.327C778.215 817.128 795.623 843.477 793.454 861.814C792.003 874.086 779.245 903.619 749.178 904.031C719.112 904.442 706.811 878.396 705.314 861.814C703.517 841.896 717.782 819.68 719.809 801.121Z" fill="#FBC765"/>
<path d="M719.809 801.121C720.574 794.125 719.112 774.909 717.052 765.025L786.283 765.299C787.346 766.511 790.171 769.753 791.61 771.374C782.387 775.444 778.215 786.217 778.215 796.327C774.769 796.327 766.884 796.559 762.92 797.487C757.965 798.648 756.809 804.26 747.559 805.746C740.159 806.935 725.976 803.158 719.809 801.121Z" fill="#9161CE"/>
<path d="M808.825 872.991C808.063 874.514 807.692 877.524 807.601 878.838H804.746C804.882 876.889 805.262 872.611 805.697 871.088C806.241 869.184 807.601 865.377 810.184 866.465C812.768 867.553 809.776 871.088 808.825 872.991Z" fill="#525252"/>
<path d="M811.312 911.867C806.876 913.091 803.091 910.593 801.752 909.191C800.287 910.083 796.17 911.638 791.428 910.72C785.501 909.573 780.913 893.514 780.339 887.396C779.766 881.278 783.398 873.63 791.428 872.865C799.458 872.101 803.282 877.263 805.767 877.645C808.253 878.027 811.694 872.892 819.15 874.777C826.607 876.663 827.754 887.396 826.607 893.514C825.46 899.632 816.856 910.338 811.312 911.867Z" fill="#550F8C"/>
<path d="M777.093 881.556C777.688 882.746 777.979 885.098 778.049 886.125H780.281C780.175 884.602 779.877 881.258 779.537 880.068C779.112 878.581 778.049 875.605 776.03 876.455C774.011 877.305 776.349 880.068 777.093 881.556Z" fill="#525252"/>
<path d="M775.149 911.939C778.616 912.895 781.575 910.943 782.62 909.847C783.766 910.544 786.983 911.76 790.689 911.042C795.321 910.146 798.907 897.595 799.355 892.813C799.804 888.032 796.965 882.055 790.689 881.457C784.413 880.86 781.425 884.894 779.483 885.193C777.54 885.492 774.851 881.478 769.023 882.952C763.196 884.425 762.299 892.813 763.196 897.595C764.092 902.376 770.816 910.744 775.149 911.939Z" fill="#9261CE"/>
<path d="M1245.86 706.51C1248.39 717.391 1244.99 726.717 1236.86 732.988C1228.73 739.259 1215.23 736.116 1208.21 732.29C1198.12 726.787 1194.63 715.005 1196.16 708.6C1197.08 704.698 1200.71 704.06 1204.75 704.652C1204.75 702.15 1204.33 698.517 1207.99 695.696C1211.3 693.151 1215.84 694.509 1218.92 695.129C1218.92 692.014 1218.48 689.157 1223.12 686.712C1231.95 682.067 1242.9 693.825 1245.86 706.51Z" fill="#550F8C"/>
<path d="M1246.49 749.883C1243.77 755.96 1235.78 774.932 1240.51 779.303C1245.25 783.675 1258.33 766.992 1261.73 759.919C1265.14 752.846 1264.07 739.773 1259.71 738.218C1254.2 736.247 1249.9 742.286 1246.49 749.883Z" fill="#B898E0"/>
<rect x="1227.64" y="791.758" width="29.2578" height="121.364" rx="10" fill="#9161CE"/>
<path d="M1242.49 896.04C1243.39 869.183 1243.5 819.984 1242.49 802.415C1241.48 784.846 1236.79 747.95 1235.29 734.897" stroke="#B898E0" stroke-width="5" stroke-linecap="round"/>
<rect x="616.605" y="908.491" width="738.117" height="47.9924" rx="15" fill="#B898E0"/>
<rect x="627.397" y="949.03" width="714.375" height="31.3111" rx="10" fill="#B898E0"/>
<path d="M626.226 956.214H1341.6" stroke="#470878" stroke-width="5" stroke-linecap="round"/>
<path d="M603.479 1307.93L526.737 1186.17M449.994 1064.41V390.319M449.994 1064.41L526.737 1186.17M449.994 1064.41V1231.47M449.994 1064.41L370.898 1186.17M291.802 1307.93L370.898 1186.17M449.994 1307.93V1231.47M526.737 1186.17L449.994 1231.47M526.737 1186.17H370.898M449.994 1231.47L370.898 1186.17" stroke="#470878" stroke-width="6" stroke-linecap="round"/>
<path d="M449.836 819.257C417.201 802.056 353.014 770.868 354.217 738.166C355.42 705.463 379.191 692.98 380.752 661.221C383.04 614.685 324.021 564.464 331.799 492.587C336.136 452.506 396.003 408.117 421.928 390.301" stroke="#470878" stroke-width="5"/>
<rect width="25.6931" height="35.952" rx="5" transform="matrix(-1 0 0 1 461.857 589.478)" fill="#470878"/>
<rect width="17.8139" height="58.422" rx="5" transform="matrix(-1 0 0 1 458.26 575.568)" fill="#470878"/>
<rect width="25.6931" height="66.6363" rx="5" transform="matrix(-1 0 0 1 461.857 440.13)" fill="#470878"/>
<rect width="17.8139" height="108.284" rx="5" transform="matrix(-1 0 0 1 458.26 414.349)" fill="#470878"/>
<rect width="133.157" height="55.8445" rx="15" transform="matrix(-1 0 0 1 552.188 352.266)" fill="#470878"/>
<path d="M490.77 365.38L409.563 540.652L609.653 417.068L658.357 264.283L490.77 365.38Z" fill="#B898E0"/>
<rect x="658.385" y="264.294" width="260.941" height="371.861" transform="rotate(42 658.385 264.294)" fill="#B898E0"/>
<rect x="660.776" y="282.761" width="236.24" height="347.762" transform="rotate(42 660.776 282.761)" fill="#E9DCFA"/>
<path d="M652.375 274.805L422.704 529.88" stroke="#470878" stroke-width="8" stroke-linecap="round"/>
<path d="M806.852 435.45L591.058 675.114" stroke="white" stroke-width="8" stroke-linecap="round"/>
<path d="M1472.36 1307.21L1549.1 1209.75M1625.85 1112.29V572.74M1625.85 1112.29L1549.1 1209.75M1625.85 1112.29V1246M1625.85 1112.29L1704.94 1209.75M1784.04 1307.21L1704.94 1209.75M1625.85 1307.21V1246M1549.1 1209.75L1625.85 1246M1549.1 1209.75H1704.94M1625.85 1246L1704.94 1209.75" stroke="#470878" stroke-width="6" stroke-linecap="round"/>
<path d="M1626 998.667C1658.64 981.587 1722.83 950.618 1721.62 918.146C1720.42 885.673 1696.65 873.278 1695.09 841.741C1692.8 795.533 1751.82 745.664 1744.04 674.293C1739.71 634.493 1679.84 590.416 1653.91 572.726" stroke="#470878" stroke-width="5"/>
<rect x="1614.07" y="767.434" width="25.6931" height="28.7762" rx="5" fill="#470878"/>
<rect x="1617.67" y="756.3" width="17.8139" height="46.7614" rx="5" fill="#470878"/>
<rect x="1613.98" y="616.783" width="25.6931" height="53.3361" rx="5" fill="#470878"/>
<rect x="1617.58" y="596.147" width="17.8139" height="86.6712" rx="5" fill="#470878"/>
<rect x="1523.65" y="542.282" width="133.157" height="44.6983" rx="15" fill="#470878"/>
<rect x="1294.91" y="498.012" width="403.093" height="63.9095" rx="10" transform="rotate(56 1294.91 498.012)" fill="#B898E0"/>
<path d="M1295.55 502.476L1462.22 560.147L1524.63 654.754L1516.42 830.075L1295.92 533.259L1295.55 502.476Z" fill="#B898E0"/>
<rect x="1539.47" y="505.6" width="117.243" height="117.243" rx="10" transform="rotate(56 1539.47 505.6)" fill="#B898E0"/>
<path d="M1303.68 526.114L1501.2 821.647" stroke="#470878" stroke-width="8" stroke-linecap="round"/>
<path d="M396.793 1299.29L398.381 1265.41C415.37 1253.95 452.95 1235.09 467.36 1251.33C485.372 1271.64 517.454 1279.77 526.366 1285.73C533.496 1290.51 533.834 1296.02 534.726 1299.96L534.526 1305.99L397.567 1303.96L396.793 1299.29Z" fill="white"/>
<path d="M399.587 1310.35C396.008 1306.14 396.232 1301.22 396.793 1299.29C439.201 1299.7 525.613 1300.03 534.726 1299.96C535.383 1305.37 535.923 1311.52 531.989 1312.42C528.055 1313.31 403.166 1314.56 399.587 1310.35Z" fill="#C4C4C4"/>
<path d="M130.905 1230.1L148.12 1259.32C140.175 1278.21 119.047 1314.57 98.0964 1308.86C71.9077 1301.73 40.61 1312.48 29.8855 1312.37C21.3059 1312.28 18.0047 1307.85 15.1047 1305.04L11.9682 1299.88L127.698 1226.61L130.905 1230.1Z" fill="white"/>
<path d="M122.511 1222.37C127.81 1223.94 130.315 1228.18 130.905 1230.1C95.1876 1252.97 22.6926 1300 15.1046 1305.04C11.5914 1300.87 7.77206 1296.02 10.5754 1293.12C13.3793 1290.22 117.212 1220.81 122.511 1222.37Z" fill="#C4C4C4"/>
<path d="M344.774 1219.71C326.441 1209.03 243.859 1153.29 243.859 1153.29L115.359 1217.57L202.056 1233.55H135.915C135.915 1233.55 97.0006 1300.54 102.219 1310.67C131.377 1314.83 286.091 1318.93 309.401 1317.41C332.712 1315.89 353.419 1310.19 362.862 1284.08C371.276 1260.82 363.107 1230.4 344.774 1219.71Z" fill="#470878"/>
<path d="M317.823 1008.32C297.61 1000.91 140.399 1100.12 64.3199 1150.65C62.074 1156.83 61.4564 1174.91 76.9529 1197.82C92.4495 1220.72 128.889 1219.71 145.171 1216.34L293.055 1127.46L392.78 1267.72C392.78 1267.72 472.076 1258.78 486.106 1243.07C486.106 1236.9 338.036 1015.73 317.823 1008.32Z" fill="#550F8C"/>
<path d="M55.783 1157.43C58.5956 1160.81 65.8615 1158.84 69.1429 1157.43L233.933 1045.15L282.587 953.301L285.696 947.249L249.149 881.795L200.648 870.735C181.526 870.735 163.989 881.978 150.488 893.229C136.988 904.479 127.05 930.261 123.769 941.746C105.018 1010.65 52.9704 1154.06 55.783 1157.43Z" fill="#FFA800"/>
<path d="M392.581 996.153C378.632 1010.1 246.696 933.91 204.292 908.941L248.506 880.148C248.506 880.148 297.812 901.67 321.18 911.273C344.548 920.877 372.731 937.381 372.731 937.381L427.353 874.107L461.578 883.793C442.682 931.724 406.529 982.205 392.581 996.153Z" fill="#F09E00"/>
<rect x="354.256" y="796.513" width="57.1818" height="91.2339" rx="5" fill="#550F8C"/>
<rect x="349.116" y="810.506" width="57.1818" height="91.2339" rx="5" fill="#550F8C"/>
<rect x="483.076" y="821.107" width="57.1818" height="91.2339" rx="5" transform="rotate(90 483.076 821.107)" fill="#550F8C"/>
<rect x="418.184" y="816.394" width="57.1818" height="67.1406" rx="5" fill="#550F8C"/>
<path d="M412.285 833.345C407.257 830.195 386.427 843.05 380.854 844.118C375.28 845.186 357.647 845.466 354.71 844.118C351.772 842.77 349.323 840.041 349.323 840.041C349.323 840.041 345.534 837.701 343.166 840.041C340.798 842.381 343.166 849.89 343.166 849.89C343.166 849.89 357.336 864.442 357.647 867.205C357.958 869.967 356.702 871.975 356.702 871.975L389.793 885.442C389.793 885.442 391.197 881.887 393.816 880.672C396.435 879.457 408.808 877.8 413.627 873.366C418.446 868.932 418.693 860.132 418.446 853.872C418.199 847.612 417.313 836.494 412.285 833.345Z" fill="#F9B583"/>
<path d="M428.244 858.923C426.757 866.01 425.982 880.034 426.835 883.98C427.688 887.926 438.207 892.094 448.623 892.094C459.04 892.094 465.873 887.545 466.398 883.98C466.923 880.415 467.867 867.058 465.878 858.923C463.888 850.789 458.292 850.041 447.267 849.597C436.243 849.153 429.73 851.836 428.244 858.923Z" fill="#F9B583"/>
<path d="M336.489 1064.9C309.626 1073.16 165.42 931.203 144.325 907.956L192.731 880.693C192.731 880.693 235.601 913.361 253.65 927.727C271.699 942.092 322.283 986.117 322.283 986.117L357.153 871.172L390.087 884.733C383.414 941.344 363.353 1056.63 336.489 1064.9Z" fill="#FFA800"/>
<path d="M215.646 846.13L199.818 871.321C199.193 875.878 201.27 887.555 214.583 897.77C227.891 907.979 242.52 899.173 248.173 893.495L251.372 874.948C260.56 876.333 280.2 877.742 285.278 872.256C291.624 865.398 297.635 846.116 300.665 815.941C303.695 785.762 274.72 751.322 252.108 748.133C229.503 744.945 205.573 769.786 201.607 791.117C198.436 808.182 209.646 834.902 215.646 846.13Z" fill="#F9B583"/>
<path d="M207.175 756.365C194.282 772.895 200.143 805.543 204.372 817.794C204.326 813.694 206.486 802.604 214.246 802.972C222.011 803.342 225.154 820.205 225.462 825.892L233.942 824.705L233.456 813.895C234.535 808.587 246.062 796.42 249.09 793.511C252.118 790.603 248.975 783.02 250.621 779.734C251.932 777.103 257.078 777.015 259.483 777.299L284.801 775.169C285.842 775.454 288.606 776.806 291.323 779.94C296.751 779.181 319.549 755.232 309.153 744.173C298.762 733.116 286.17 738.268 279.075 739.691C271.98 741.115 256.97 737.387 246.945 737.263C236.915 737.138 217.499 743.122 207.175 756.365Z" fill="#550F8C"/>
</svg>
