<svg xmlns="http://www.w3.org/2000/svg" xmlns:xlink="http://www.w3.org/1999/xlink" width="14.9625in" height="13.867in" viewBox="0 0 1077.2997 998.4228"><defs><style>.a{fill:url(#a);}.b{fill:url(#b);}.c{fill:url(#c);}.d{fill:url(#d);}.e{fill:url(#e);}.f{fill:url(#f);}.g{fill:url(#g);}.h{opacity:0.05;}.i{fill:#fff;}</style><linearGradient id="a" x1="397.6549" y1="169.3153" x2="291.8924" y2="-13.8707" gradientUnits="userSpaceOnUse"><stop offset="0" stop-color="#1b1464"/><stop offset="0.0911" stop-color="#28186c"/><stop offset="0.3108" stop-color="#43217c"/><stop offset="0.5343" stop-color="#572888"/><stop offset="0.762" stop-color="#622c8f"/><stop offset="1" stop-color="#662d91"/></linearGradient><linearGradient id="b" x1="476.4122" y1="946.9536" x2="556.5545" y2="946.9536" gradientUnits="userSpaceOnUse"><stop offset="0" stop-color="#1b1464"/><stop offset="1" stop-color="#662d91"/></linearGradient><linearGradient id="c" x1="776.1165" y1="890.6496" x2="1029.1815" y2="890.6496" xlink:href="#b"/><linearGradient id="d" x1="107.723" y1="296.8934" x2="187.8653" y2="296.8934" xlink:href="#b"/><linearGradient id="e" x1="812.2831" y1="176.0479" x2="1108.6121" y2="176.0479" gradientTransform="translate(3.3613 346.8796) rotate(-20.4123)" xlink:href="#b"/><linearGradient id="f" x1="-397.0851" y1="1587.4296" x2="-95.7494" y2="1587.4296" gradientTransform="translate(-83.3837 2407.4628) rotate(180)" xlink:href="#b"/><linearGradient id="g" x1="967.4466" y1="595.1592" x2="1066.2523" y2="595.1592" xlink:href="#b"/></defs><title>contact-blobs</title><path class="a" d="M332.0913,160.6049C434.1905,170.9128,526.43,103.5486,494.938,64.3155s-82.3394-20.35-134.23-23.9707C313.5,37.0512,233.9271-13.101,207.579,46.1824,183.68,99.9553,199.6225,147.231,332.0913,160.6049Z" transform="translate(-12.332 -17.4049)"/><circle class="b" cx="516.4834" cy="946.9536" r="40.0712"/><path class="c" d="M1018.7628,801.1007c31.8374,60.3812-10.9784,96.61-105.3927,133.9365-45.4866,17.9831-81.24,96.61-120.2135,77.9467s-6.5088-144.73,51.05-197.6113C901.5629,762.6763,987.8022,742.3823,1018.7628,801.1007Z" transform="translate(-12.332 -17.4049)"/><circle class="d" cx="147.7942" cy="296.8934" r="40.0712"/><path class="e" d="M879.65,306.56c47.4432,17.74,91.1866-13.0936,100.7735-46.0925,8.4194-28.98-7.97-52.45.3153-71.1813,16.5418-37.3946,84.933-45.1479,101.6021-69.049,13.24-18.9847,9.5487-52.1079-20.2154-69.012-24.9517-14.171-52.1023,6.8938-64.4812,23.996s-21.9225,37.1531-38.5806,47.8858c-23.9035,15.4009-85.2223-39.5033-114.6555-19.3133-47.2835,32.4345,26.3971,60.8017,21.022,86.2311s-28.6691,34.0438-27.0347,62.8139C839.8127,277.7806,852.4339,296.3829,879.65,306.56Z" transform="translate(-12.332 -17.4049)"/><path class="f" d="M292.7341,716.2389c-38.2767-33.1732-90.0274-19.5319-110.5214,8.0512-17.9981,24.2238-17.9067,70.9709-32.2049,85.6358-28.5453,29.2772-95.3463,12.6907-119.3047,29.2772C11.6729,852.3779,3.58,884.7087,25.58,910.9323c18.4425,21.9836,51.2351,11.7109,68.8015,0s30.9172-24.97,50.5031-21.9579c29.0578,4.4691,39.2983,62.0876,73.925,53.4309,55.6267-13.9067,25.6176-70.9972,39.5242-92.9551s43.1839-29.39,51.6863-56.9232C317.3908,768.6569,314.6921,735.2691,292.7341,716.2389Z" transform="translate(-12.332 -17.4049)"/><circle class="g" cx="1016.8494" cy="595.1592" r="49.4028"/><g class="h"><path class="i" d="M163.0335,899.6093s36.9545-7.113,35.4545-46.113-24-67.5,6.5-96.5,57.5,9.4557,81-3,17.2346-25.523,17.2346-25.523,11.3864,15.68,10.3259,44.1016-40.56-2.0786-68.06,22.4214c-19.0142,16.94-10.15,79.7063-29.5,100-20.5,21.5-40.4425,19.95-40.4425,19.95Z" transform="translate(-12.332 -17.4049)"/><path class="i" d="M15.2152,859.9256c15.1008-16.5451,56.6422,11.6291,87.7728-2.9293,23.1694-10.8352,24.3438-31.0312,24.25-33.807,2.5622-1.2555,22.2141-6.0691,28.722-22.6862-15.139,26.3266-5.861,66.9932-35.9723,82.7432-41.233,21.5673-85.2715-27.8084-107.5606-4.4334A46.71,46.71,0,0,1,15.2152,859.9256Z" transform="translate(-12.332 -17.4049)"/><path class="i" d="M492.5855,981.4963s26.3073,3.2245,36.23-17.1377-10.7522-38.6123-10.7522-38.6123,3.6131-2.1049,10.7522-1.4589,31.14,32.3241,20.4226,51.7089c-12.301,22.25-51.4083,13.7712-51.4083,13.7712S494.85,987.4752,492.5855,981.4963Z" transform="translate(-12.332 -17.4049)"/><path class="i" d="M922.505,931.3615c-.695-4.3838-11.2177-57.8653,16.966-87.0319s81.5722-38.6666,81.5722-38.6666a79.8839,79.8839,0,0,1,4.9291,12.402c-20.9658,4.4332-45.5353,24.4313-60.651,47.098-15.4907,23.2291-11.5208,44.1458-9.7963,51.5A331.98,331.98,0,0,1,922.505,931.3615Z" transform="translate(-12.332 -17.4049)"/><path class="i" d="M976.2057,767.8011S890.505,791.83,892.6392,858.4963c2.8126,87.86-39.3179,122.5-75.3179,125.6667s-39.624-33.4266-39.624-33.4266a138.9619,138.9619,0,0,1,3.44-18.24c3.7256,14.625,42.5173,36.5,60-1.5s9.0035-61.0043,18.2663-93.57c13.9173-48.93,56.584-59.98,94.584-71.9548C967.4255,764.9963,976.2057,767.8011,976.2057,767.8011Z" transform="translate(-12.332 -17.4049)"/><path class="i" d="M1038.4284,563.8109c.1723,2.5042-6.1416,25.4377-15.5255,30.7119s-28.534,3.7839-35.5381-8.2765a45.3228,45.3228,0,0,0-6.0112,13.8958s25.7363,34.7891,53.6365,24.8217,13.8319-55.4737,12.9576-58.4265A39.13,39.13,0,0,0,1038.4284,563.8109Z" transform="translate(-12.332 -17.4049)"/><path class="i" d="M972.1843,111.5094s20.0488,18.05-12.5921,39.4469S890.6849,170.553,884.75,212.2186s41.0512,41.3576,44.5336,67.7256-9.9608,30.9134-9.9608,30.9134,20.9157-1.7779,40.9157-19.4863c21.2939-18.8539-32.9261-46.93-28.9167-83.5416,2.7723-25.3144,63.357-39.9672,68.6667-67.5,5.6253-29.1694-19.15-40.0337-19.15-40.0337Z" transform="translate(-12.332 -17.4049)"/><path class="i" d="M1022.0438,154.1225s16.4442-13.7929,10.4442-29.46-25.75-22.9167-20.25-48.4167,18.918-27.2582,18.918-27.2582l12.332-2.4262s-13,22.8511-11.5,33.1011,23.1482,13.201,27.551,30.1666c2.898,11.1667-4.7347,25.5658-12.5179,32.9913S1022.0438,154.1225,1022.0438,154.1225Z" transform="translate(-12.332 -17.4049)"/><path class="i" d="M865.7084,187.64c-2.5537-39.8107,37.6546-23.5191,46.53-48.2691,5.9035-16.4632-15.3125-30.625-15.3125-30.625s-12.6524-5.2031-16.9825-6.1015c2.045,3.9765,12.6962,20.8515,7.3783,31.3515-7.9739,15.7445-33.4166,22.5-40.85,23.7445C847.9047,159.7463,865.988,176.163,865.7084,187.64Z" transform="translate(-12.332 -17.4049)"/><path class="i" d="M355.3048,39.7879c-2.2587,3.8209-30.1136,53.3336-70.4208,57.8434s-86.0922-21.635-86.0922-21.635a75.3086,75.3086,0,0,1,2.6987-13.2625c18.9807,9.9475,50.6591,10.1987,76.7539,2.3677,26.7423-8.0252,37.2219-27.3162,40.5806-34.0821C328.6365,33.5374,341.8005,37.9963,355.3048,39.7879Z" transform="translate(-12.332 -17.4049)"/><path class="i" d="M222.3,128.6979S303.651,161.06,344.5,108.33C398.3338,38.838,452.8761,39,482.6339,59.5065s9.2259,51.0126,9.2259,51.0126A138.9713,138.9713,0,0,1,477.583,122.381c6.4512-13.6437-9.4963-55.2248-47.1886-37.0879s-40.6786,30.8475-68.5731,50.0366c-41.9115,28.8315-80.7361,20.66-117.6494,5.6666C226.988,133.663,222.3,128.6979,222.3,128.6979Z" transform="translate(-12.332 -17.4049)"/><path class="i" d="M177.5441,278.2012c.1722,2.5042-6.1055,26.62-15.4894,31.8943s-32.6082,2.6113-39.6124-9.449a36.8826,36.8826,0,0,0-2.3784,14.4349s26.1778,35.4225,54.0781,25.4551,13.3453-53.4,12.471-56.3527C183.7144,281.9036,179.873,278.5746,177.5441,278.2012Z" transform="translate(-12.332 -17.4049)"/></g></svg>