<?xml version="1.0" encoding="utf-8"?>
<!-- Generator: Adobe Illustrator 22.0.1, SVG Export Plug-In . SVG Version: 6.00 Build 0)  -->
<svg version="1.1" id="Layer_2" xmlns="http://www.w3.org/2000/svg" xmlns:xlink="http://www.w3.org/1999/xlink" x="0px" y="0px"
	 viewBox="0 0 469.5 537.4" style="enable-background:new 0 0 469.5 537.4;" xml:space="preserve">
<style type="text/css">
	.st0{fill:#0D73B8;}
	.st1{fill:#30A8DC;}
	.st2{fill:#FDFEFE;}
	.st3{fill:#EAEDEF;}
	.st4{display:none;}
	.st5{display:inline;fill:#181818;}
	.st6{display:inline;}
	.st7{fill:#E5A328;}
	.st8{fill:#F1BE27;}
	.st9{fill:#181818;}
	.st10{fill:#FEFEFD;}
	.st11{fill:#ECECED;}
	.st12{display:inline;fill:#E55228;}
	.st13{display:inline;fill:#F1672E;}
	.st14{fill:#0A0C0E;}
	.st15{fill:#FDFDFD;}
</style>
<g>
	<g>
		<polygon class="st0" points="43.3,483.4 235.1,537.4 428.4,483.4 471.5,2.1 0.1,2.1 		"/>
		<polygon class="st1" points="235,41.3 235,497.5 391.2,452.8 428.4,41.3 		"/>
	</g>
	<g>
		<polygon class="st2" points="383.7,96.8 357,397.3 235.8,431.2 114.8,397.3 106.7,304.7 166.4,304.7 170.6,351.4 235.8,369.3 
			301.7,351 308.4,275.3 170.7,275.3 164.7,215.3 313.2,215.3 319.4,155.7 93.4,155.7 87.5,96.8 		"/>
		<polygon class="st3" points="87.5,96.8 235.6,96.8 235.6,155.7 93.4,155.7 		"/>
		<polygon class="st3" points="235.8,215.3 164.9,215.3 170.9,275.3 235.8,275.3 		"/>
		<polygon class="st3" points="235.2,369.3 170.1,351.4 165.8,304.7 106.1,304.7 114.2,397.3 235.2,431.2 		"/>
	</g>
	<g class="st4">
		<polygon class="st5" points="100.3,-128.4 100.3,-37.9 172.9,-37.9 172.9,-64.2 130.8,-64.2 130.8,-102.4 172.9,-102.4 
			172.9,-128.4 		"/>
		<polygon class="st5" points="188,-37.9 272.2,-37.9 272.2,-60 231.6,-103.5 272.2,-103.5 272.2,-128.4 188,-128.4 188,-107.8 
			226.7,-64.1 188,-64.1 		"/>
		<polygon class="st5" points="287,-37.9 371.2,-37.9 371.2,-60 330.6,-103.5 371.2,-103.5 371.2,-128.4 287,-128.4 287,-107.8 
			325.7,-64.1 287,-64.1 		"/>
	</g>
</g>
<g class="st4">
	<g class="st6">
		<polygon class="st7" points="987,482.9 1178.8,537 1372.1,482.9 1415.2,1.6 943.8,1.6 		"/>
		<polygon class="st8" points="1178.8,40.8 1178.8,497.1 1334.9,452.3 1372.1,40.8 		"/>
	</g>
	<g class="st6">
		<polygon class="st9" points="1180.9,-38.7 1265.1,-38.7 1265.1,-60.8 1224.5,-104.3 1265.1,-104.3 1265.1,-129.2 1180.9,-129.2 
			1180.9,-108.6 1219.6,-64.9 1180.9,-64.9 		"/>
		<polygon class="st9" points="1166.6,-129.2 1166.6,-38.7 1093.8,-38.7 1093.8,-69 1134.9,-69 1134.9,-129.2 		"/>
	</g>
	<g class="st6">
		<polygon class="st10" points="1178.8,127.1 1250.8,127.1 1256.7,190.8 1316.2,190.8 1305.1,63.6 1178.8,63.9 		"/>
		<polygon class="st10" points="1178.8,434.5 1300,400.5 1316.1,219.1 1178.8,219.1 1178.8,279.3 1251.6,279.3 1242.8,355.3 
			1178.8,373.6 		"/>
		<polygon class="st11" points="1178.8,373.6 1112.7,354.4 1108.9,308 1048.9,308 1057.4,400.9 1178.8,434.5 		"/>
		<polygon class="st11" points="1114.7,219.1 1123,127.1 1178.8,127.1 1178.8,63.9 1068.3,63.6 1049.6,279.3 1178.8,279.3 
			1178.8,219.1 		"/>
	</g>
</g>
<g class="st4">
	<polygon class="st12" points="435.2,553.3 706.6,629.8 980.1,553.3 1041.1,-127.8 374,-127.8 	"/>
	<polygon class="st13" points="706.5,-72.4 706.5,573.3 927.4,510 980.1,-72.4 	"/>
	<g class="st6">
		<polygon class="st14" points="435.7,-311.4 435.7,-184.1 479.3,-184.1 479.3,-226.7 516.1,-226.7 516.1,-184.1 560.3,-184.1 
			560.3,-311.4 516.6,-311.4 516.6,-270.3 478.6,-270.3 478.6,-311.4 		"/>
		<polygon class="st14" points="578,-311.4 578,-268.5 615.6,-268.5 615.6,-184.1 658.6,-184.1 658.6,-268.7 695.9,-268.7 
			695.9,-311.4 		"/>
		<polygon class="st14" points="713.4,-311.4 713.4,-184.1 755.8,-184.1 755.8,-244 784.1,-201.2 813.6,-244.7 813.6,-184.1 
			857.2,-184.1 857.2,-311.4 812.6,-311.4 785.3,-268.9 758.6,-311.4 		"/>
		<polygon class="st14" points="877.6,-311.4 877.6,-184.1 980.3,-184.1 980.3,-226 920.9,-226 920.9,-311.4 		"/>
	</g>
	<g class="st6">
		<polygon class="st15" points="916.3,11.7 497.8,11.7 521.3,266.3 808.8,266.3 798.2,372 706.5,397.5 615,372 607.6,306.2 
			524.1,306.2 535.5,434.5 706.5,485.2 878.3,437.7 902.6,180.9 598.7,180.9 590.8,95 908,95 		"/>
		<polygon class="st11" points="706.5,397.5 615.3,372 607.9,306.1 524.4,306.1 535.8,434.4 706.5,485.2 		"/>
		<polygon class="st11" points="706.5,11.7 497.3,11.7 520.8,266.4 705.7,266.4 705.7,180.9 598.2,180.9 590.3,95 706.5,95 		"/>
	</g>
</g>
</svg>
