<svg width="485" height="376" viewBox="0 0 485 376" fill="none" xmlns="http://www.w3.org/2000/svg">
<path d="M375 273C387 289 445.5 245 470 286C494.5 327 320.333 380.167 232.5 375C151.5 375 21.1537 351.536 24.5 277.5C25.3595 258.484 31.1799 246.694 39.8349 239.281C37.3067 248.464 39.1572 278.161 60.3326 283.099C40.3465 277.103 41.6805 237.174 47.5 234.139C81.4569 216.43 141.197 239.911 144.5 194.5C149.7 123 55.0097 176 47.5 116.5C44.0593 89.2394 67.0561 30.4975 153.45 9.02069C164.039 34.7822 180.24 99.9597 160.327 154.577C188.935 92.4716 172.084 35.1803 162.991 6.85707C182.925 2.75687 205.965 0.563562 232.5 0.999995C324.499 2.51315 367.776 62.4575 386.498 117.418L362.371 135.981L389.828 127.999C399.021 159.755 400.278 188.376 398.5 201C393.5 236.5 360.375 253.5 375 273Z" fill="#D7C0F4"/>
<path d="M435.59 281.867C418.788 279.352 407.075 262.849 407.825 231.845C408.14 218.848 410.763 210.823 413.278 203.132L413.394 202.779L423.366 205.583L414.463 199.461C416.502 192.967 418.189 186.185 418.077 176.333C417.849 156.202 406.338 102.967 421.548 96.027C437.796 88.6127 444.771 113.359 448.177 139.693L437.697 147.016L448.781 144.69C451.008 164.448 451.44 184.015 452.464 190.594C453.708 198.59 457.362 206.86 460.338 215.483L447.8 227.656L462.077 220.902C464.085 227.782 465.282 234.889 464.179 242.263C460.953 263.821 452.393 284.381 435.59 281.867Z" fill="#C7A8ED"/>
<path d="M432.834 238.981C432.561 251.206 425.223 304.28 421.588 329.289L435.097 323.489C436.388 300.423 439.037 252.112 439.305 243.391C439.573 234.67 434.613 185.221 432.1 161.586C432.459 182.291 433.108 226.757 432.834 238.981Z" fill="#B898E0"/>
<path d="M348.365 325.937C347.943 320.311 353.924 319.783 360.116 321.146C354.206 316.157 346.124 309.306 348.754 305.736C351.346 302.217 365.645 308.975 368.76 312.944C362.761 304.932 353.476 289.401 357.346 285.126C361.879 280.119 378.673 300.517 380.994 308.404C380.235 300.122 381.98 293.867 385.147 294.564C389.08 295.43 397.789 324.272 386.945 333.321C376.102 342.369 348.787 331.562 348.365 325.937Z" fill="#C7A8ED"/>
<path d="M418.07 309.504C414.897 304.84 409.888 308.151 405.892 313.073C407.41 305.489 409.468 295.096 405.187 293.939C400.968 292.8 393.988 306.992 394.021 312.038C393.727 302.033 391.321 284.099 385.63 283.164C378.965 282.069 378.526 308.486 381.622 316.104C377.059 309.15 371.798 305.343 369.754 307.86C367.216 310.986 378.361 338.978 392.48 339.305C406.599 339.633 421.243 314.169 418.07 309.504Z" fill="#C7A8ED"/>
<path d="M446.725 318.354C462.802 314.7 481.714 324.789 479.1 346.104C476.486 367.419 404.499 362.754 392.145 361.725C375.886 360.37 347.673 359.296 350.534 346.104C354.154 329.414 373.245 335.72 389.131 334.111C401.536 332.855 424.605 323.381 446.725 318.354Z" fill="#B898E0"/>
<path d="M108.063 318.073C119.402 316.376 127.307 305.238 126.801 284.314C126.588 275.543 124.818 270.128 123.12 264.937L123.043 264.699L116.312 266.591L122.321 262.459C120.945 258.077 119.806 253.5 119.882 246.851C120.036 233.265 127.804 197.338 117.54 192.655C106.574 187.651 101.867 204.352 99.5682 222.124L106.641 227.066L99.1609 225.496C97.6575 238.83 97.3662 252.035 96.6754 256.475C95.8358 261.872 93.3698 267.453 91.3614 273.272L99.8224 281.487L90.1878 276.929C88.8324 281.572 88.0244 286.369 88.7691 291.345C90.9464 305.894 96.7233 319.77 108.063 318.073Z" fill="#C7A8ED"/>
<path d="M109.831 289.032C110.016 297.308 114.984 333.24 117.444 350.171L108.299 346.244C107.424 330.628 105.631 297.922 105.45 292.018C105.268 286.114 108.626 252.636 110.328 236.635C110.085 250.652 109.645 280.756 109.831 289.032Z" fill="#B898E0"/>
<path d="M84.2281 325.46C84.6502 319.834 78.669 319.306 72.4772 320.669C78.3871 315.68 86.4698 308.829 83.8396 305.259C81.2479 301.74 66.9487 308.498 63.8331 312.467C69.8327 304.455 79.1175 288.924 75.2473 284.649C70.714 279.642 53.9208 300.039 51.5997 307.927C52.359 299.645 50.6135 293.39 47.4468 294.087C43.5139 294.953 34.805 323.795 45.648 332.844C56.4917 341.892 83.8065 331.085 84.2281 325.46Z" fill="#B898E0"/>
<path d="M7.47221 304.064C10.6452 299.399 15.6539 302.71 19.6503 307.632C18.1325 300.048 16.0739 289.655 20.3553 288.499C24.5743 287.359 31.5546 301.552 31.5214 306.597C31.8153 296.592 34.2213 278.659 39.9118 277.723C46.5769 276.628 47.0157 303.045 43.9204 310.663C48.4833 303.71 53.7441 299.902 55.7877 302.419C58.3264 305.546 47.1808 333.537 33.0619 333.865C18.943 334.192 4.29924 308.728 7.47221 304.064Z" fill="#C7A8ED"/>
<path d="M35.1846 317.397C19.1071 313.743 0.195241 323.832 2.80939 345.147C5.42354 366.462 67.4724 363.068 79.826 362.038C96.085 360.683 149.046 355.724 146.185 342.533C142.565 325.842 106.571 340.924 90.6848 339.315C78.2792 338.059 57.3042 322.424 35.1846 317.397Z" fill="#B898E0"/>
<rect x="160.296" y="74.9766" width="210.187" height="11.8232" transform="rotate(26.3496 160.296 74.9766)" fill="#550F8C"/>
<path d="M144.457 74.9765L160.296 74.9765L155.048 85.5713L142.335 79.2741L144.457 74.9765Z" fill="#F5D698"/>
<path d="M140.202 83.5693L149.801 96.1687L155.048 85.5739L142.335 79.2766L140.202 83.5693Z" fill="#EAC388"/>
<path d="M142.335 79.2742L144.463 74.9767L133.658 74.9767L142.335 79.2742Z" fill="black"/>
<path d="M142.335 79.2743L140.206 83.5718L133.658 74.9767L142.335 79.2743Z" fill="#1E1E1E"/>
<path d="M348.645 168.269L362.59 175.176C368.441 178.074 370.835 185.167 367.937 191.018L343.397 178.863L348.645 168.269Z" fill="#E9E9E9"/>
<path d="M343.397 178.862L367.937 191.017C365.039 196.868 357.946 199.262 352.094 196.364L338.15 189.457L343.397 178.862Z" fill="#BDBDBD"/>
<rect x="155.052" y="85.5714" width="210.187" height="11.8232" transform="rotate(26.3496 155.052 85.5714)" fill="#470878"/>
<path d="M202.612 354.624L202.152 346.294C197.949 343.51 188.666 338.948 185.154 342.973C180.765 348.006 172.89 350.071 170.71 351.557C168.966 352.746 168.894 354.103 168.683 355.073L168.744 356.557L202.431 355.776L202.612 354.624Z" fill="white"/>
<path d="M201.948 357.351C202.819 356.309 202.754 355.099 202.612 354.624C192.181 354.813 170.925 355.071 168.683 355.073C168.532 356.406 168.412 357.92 169.382 358.132C170.351 358.343 201.076 358.394 201.948 357.351Z" fill="#C4C4C4"/>
<path d="M326.511 340.062L318.614 332.138C313.756 333.878 303.845 338.817 303.07 344.661C302.101 351.964 297.78 351.295 295.618 352.912C293.889 354.206 294.605 355.383 295.074 356.691C297.939 355.665 306.307 355.94 310.194 354.548C314.081 353.157 322.433 343.982 326.511 340.062Z" fill="white"/>
<path d="M328.008 342.478C328.093 341.773 327.005 340.658 326.511 340.062C322.957 343.091 317.063 348.416 313.435 350.647C310.152 352.666 300.176 354.671 295.175 356.602C295.443 357.349 295.868 358.42 296.979 358.697C298.368 359.043 312.09 355.134 315.186 353.182C318.282 351.231 327.902 343.359 328.008 342.478Z" fill="#C4C4C4"/>
<path d="M287.516 272.351C284.308 255.843 272.413 206.558 273.219 182.297L233.087 178.447C239.198 210.243 254.568 267.968 257.854 278.013C263.118 288.341 291.768 335.577 297.226 343.762C306.503 343.762 313.051 338.669 319.77 333.084C308.322 311.565 296.316 287.008 287.516 272.351Z" fill="#470878"/>
<path d="M177.149 339.547L194.865 265.094L230.408 179.616L268.985 193.227C256.841 217.094 231.09 258.324 225.423 273.497C219.108 290.404 206.358 336.386 203.684 346.699C188.708 345.468 183.163 343.262 177.149 339.547Z" fill="#550F8C"/>
<path d="M174.339 112.925C175.198 114.332 180.233 117.029 182.643 118.201L186.845 114.586L183.62 112.925C181.391 109.131 180.583 105.697 178.004 103.899C175.424 102.101 172.573 105.556 172.573 107.545C172.573 109.432 173.479 111.518 174.339 112.925Z" fill="#F9B583"/>
<path d="M276.844 192.731C264.223 196.907 237.501 187.76 229.246 182.235C232.668 173.733 236.666 153.082 239.667 143.855C243.418 132.322 243.627 97.6423 246.638 93.3983C252.708 94.0273 259.736 91.015 267.679 86.8138C270.933 91.753 276.569 102.19 277.448 109.879C281.006 141.034 279.242 184.168 276.844 192.731Z" fill="#FFA800"/>
<path d="M222.532 144.634C226.192 144.982 232.99 140.757 235.822 138.651L214.811 128.329L186.763 114.475L182.66 118.27C194.426 126.913 218.872 144.285 222.532 144.634Z" fill="#FFA800"/>
<path d="M294.015 137.102C297.414 148.811 302.671 166.847 304.874 174.402L295.431 177.707C292.362 168.264 285.563 148.15 282.919 143.24C280.275 138.33 266.079 113.495 259.312 101.691L267.454 86.8137C270.246 86.8137 277.049 89.8171 280.804 96.8475C286.211 106.971 292.009 130.192 294.015 137.102Z" fill="#FFA800"/>
<path d="M242.086 94.6185C244.648 92.5684 250.106 91.6807 252.242 91.4672L255.119 93.2017L246.61 117.747L233.641 111.308C235.563 105.542 239.523 96.6687 242.086 94.6185Z" fill="#FFA800"/>
<path d="M293.992 187.449C292.952 185.894 294.377 180.292 295.413 177.612L304.867 174.375C305.398 178.156 306.767 186.251 306.112 187.449C304.869 189.724 295.546 189.774 293.992 187.449Z" fill="#F9B583"/>
<path d="M264.34 78.822L267.721 86.8007C267.773 88.3752 268.682 88.721 263.786 91.7311C258.891 94.7387 253.561 94.4778 251.836 92.3439L253.455 88.1025L253.107 81.757C249.928 81.9043 242.44 83.1868 240.904 81.1382C238.984 78.578 237.618 71.7971 237.651 61.4103C237.685 51.0225 248.772 40.3134 256.587 40.0255C264.401 39.7379 271.676 49.0457 272.273 56.4524C272.751 62.3777 266.781 75.2089 264.34 78.822Z" fill="#F9B583"/>
<path d="M271.604 44.4168C275.412 50.5036 272.263 61.4184 270.389 65.4427C270.55 64.0474 270.206 60.1931 267.549 60.0445C264.891 59.8963 263.225 65.5299 262.919 67.4565L260.072 66.7527L260.619 63.0872C260.439 61.2408 256.942 56.6888 256.013 55.591C255.084 54.4932 256.423 52.0211 255.978 50.8435C255.625 49.901 253.874 49.6891 253.045 49.7008L244.495 48.0812C244.131 48.1414 243.142 48.5046 242.105 49.4761C240.283 49.026 233.362 40.0622 237.295 36.6622C241.225 33.2621 245.332 35.4619 247.699 36.1975C250.066 36.9329 255.311 36.1933 258.73 36.5051C262.152 36.8166 268.555 39.5409 271.604 44.4168Z" fill="#550F8C"/>
</svg>
