<?xml version="1.0" encoding="utf-8"?>
<!-- Generator: Adobe Illustrator 22.0.1, SVG Export Plug-In . SVG Version: 6.00 Build 0)  -->
<svg version="1.1" xmlns="http://www.w3.org/2000/svg" xmlns:xlink="http://www.w3.org/1999/xlink" x="0px" y="0px"
	 viewBox="0 0 3000 800" style="enable-background:new 0 0 3000 800;" xml:space="preserve">
<style type="text/css">
	.st0{fill:#FFFFFF;}
</style>
<g id="Layer_3">
	<path class="st0" d="M1004.1,565.6c0-0.3,0-0.5,0-0.8c0-0.5,0-0.9-0.1-1.4c0-0.5-0.1-0.9-0.1-1.4c0-0.4-0.1-0.9-0.2-1.3
		c-0.2-1.3-0.4-2.5-0.8-3.7c-0.3-1-0.7-1.9-1.2-2.8c-1-1.6-2.3-2.9-4-3.9c-0.9-0.5-1.7-0.8-2.7-1.1c-0.8-0.2-1.5-0.4-2.3-0.6
		c-0.5-0.1-1-0.2-1.4-0.2c-0.4-0.1-0.8-0.1-1.1-0.1c-0.4,0-0.9-0.1-1.3-0.1c-0.4,0-0.7,0-1.1-0.1c-0.4,0-0.7,0-1.1,0
		c0,0,0.1,0,0.1,0c0.1,0,0.1,0,0.2,0c0.5,0,1,0,1.5-0.1c0.4,0,0.8-0.1,1.2-0.1c0.3,0,0.6,0,0.9-0.1c0.4,0,0.7-0.1,1.1-0.1
		c0.4-0.1,0.9-0.1,1.3-0.2c1.2-0.2,2.4-0.6,3.5-1.1c0.9-0.4,1.8-0.9,2.5-1.4c1.1-0.8,2-1.9,2.7-3c0.5-0.8,0.9-1.7,1.2-2.6
		c0.2-0.7,0.4-1.5,0.6-2.3c0.1-0.6,0.2-1.1,0.3-1.7c0.1-0.5,0.1-1,0.2-1.4c0.1-0.6,0.1-1.3,0.1-1.9c0-0.4,0-0.9,0-1.3
		c0,0,0-0.1,0-0.1c0,0.1,0,0.3,0,0.4c0,0.5,0,1.1,0.1,1.6c0,0.5,0.1,1,0.1,1.5c0,0.4,0.1,0.9,0.1,1.3c0.1,0.7,0.2,1.4,0.3,2.1
		c0.2,1.1,0.5,2.2,1,3.3c0.4,0.8,0.8,1.6,1.3,2.3c0.8,1,1.8,1.9,2.9,2.6c0.8,0.5,1.6,0.8,2.5,1.1c0.8,0.3,1.5,0.5,2.3,0.6
		c0.5,0.1,1,0.2,1.5,0.3c0.4,0.1,0.7,0.1,1.1,0.1c0.4,0,0.8,0.1,1.2,0.1c0.3,0,0.6,0,0.9,0.1c0.4,0,0.8,0,1.3,0.1c0.3,0,0.5,0,0.8,0
		c0.1,0,0.1,0,0.2,0c0,0-0.1,0-0.1,0c-0.4,0-0.8,0-1.2,0c-0.4,0-0.7,0-1.1,0.1c-0.3,0-0.5,0-0.8,0.1c-0.3,0-0.6,0.1-0.9,0.1
		c-0.2,0-0.4,0-0.7,0.1c-0.3,0-0.6,0.1-0.9,0.1c-0.5,0.1-0.9,0.2-1.4,0.3c-1.1,0.3-2.2,0.6-3.3,1.1c-0.8,0.4-1.6,0.8-2.4,1.4
		c-1,0.8-1.8,1.7-2.4,2.8c-0.5,0.8-0.8,1.7-1.1,2.6c-0.2,0.7-0.4,1.5-0.6,2.2c-0.1,0.5-0.2,1.1-0.3,1.6c-0.1,0.4-0.1,0.8-0.1,1.2
		c-0.1,0.6-0.1,1.1-0.1,1.7c0,0.7-0.1,1.3-0.1,2C1004.2,565.4,1004.1,565.5,1004.1,565.6C1004.1,565.6,1004.1,565.6,1004.1,565.6z"
		/>
	<path class="st0" d="M109.2,778.6c0-0.3,0-0.5,0-0.8c0-0.5,0-0.9-0.1-1.4c0-0.5-0.1-0.9-0.1-1.4c0-0.4-0.1-0.9-0.2-1.3
		c-0.2-1.3-0.4-2.5-0.8-3.7c-0.3-1-0.7-1.9-1.2-2.8c-1-1.6-2.3-2.9-4-3.9c-0.9-0.5-1.7-0.8-2.7-1.1c-0.8-0.2-1.5-0.4-2.3-0.6
		c-0.5-0.1-1-0.2-1.4-0.2c-0.4-0.1-0.8-0.1-1.1-0.1c-0.4,0-0.9-0.1-1.3-0.1c-0.4,0-0.7,0-1.1-0.1c-0.4,0-0.7,0-1.1,0
		c0,0,0.1,0,0.1,0c0.1,0,0.1,0,0.2,0c0.5,0,1,0,1.5-0.1c0.4,0,0.8-0.1,1.2-0.1c0.3,0,0.6,0,0.9-0.1c0.4,0,0.7-0.1,1.1-0.1
		c0.4-0.1,0.9-0.1,1.3-0.2c1.2-0.2,2.4-0.6,3.5-1.1c0.9-0.4,1.8-0.9,2.5-1.4c1.1-0.8,2-1.9,2.7-3c0.5-0.8,0.9-1.7,1.2-2.6
		c0.2-0.7,0.4-1.5,0.6-2.3c0.1-0.6,0.2-1.1,0.3-1.7c0.1-0.5,0.1-1,0.2-1.4c0.1-0.6,0.1-1.3,0.1-1.9c0-0.4,0-0.9,0-1.3
		c0,0,0-0.1,0-0.1c0,0.1,0,0.3,0,0.4c0,0.5,0,1.1,0.1,1.6c0,0.5,0.1,1,0.1,1.5c0,0.4,0.1,0.9,0.1,1.3c0.1,0.7,0.2,1.4,0.3,2.1
		c0.2,1.1,0.5,2.2,1,3.3c0.4,0.8,0.8,1.6,1.3,2.3c0.8,1,1.8,1.9,2.9,2.6c0.8,0.5,1.6,0.8,2.5,1.1c0.8,0.3,1.5,0.5,2.3,0.6
		c0.5,0.1,1,0.2,1.5,0.3c0.4,0.1,0.7,0.1,1.1,0.1c0.4,0,0.8,0.1,1.2,0.1c0.3,0,0.6,0,0.9,0.1c0.4,0,0.8,0,1.3,0.1c0.3,0,0.5,0,0.8,0
		c0.1,0,0.1,0,0.2,0c0,0-0.1,0-0.1,0c-0.4,0-0.8,0-1.2,0c-0.4,0-0.7,0-1.1,0.1c-0.3,0-0.5,0-0.8,0.1c-0.3,0-0.6,0.1-0.9,0.1
		c-0.2,0-0.4,0-0.7,0.1c-0.3,0-0.6,0.1-0.9,0.1c-0.5,0.1-0.9,0.2-1.4,0.3c-1.1,0.3-2.2,0.6-3.3,1.1c-0.8,0.4-1.6,0.8-2.4,1.4
		c-1,0.8-1.8,1.7-2.4,2.8c-0.5,0.8-0.8,1.7-1.1,2.6c-0.2,0.7-0.4,1.5-0.6,2.2c-0.1,0.5-0.2,1.1-0.3,1.6c-0.1,0.4-0.1,0.8-0.1,1.2
		c-0.1,0.6-0.1,1.1-0.1,1.7c0,0.7-0.1,1.3-0.1,2C109.2,778.5,109.2,778.6,109.2,778.6C109.2,778.6,109.2,778.6,109.2,778.6z"/>
	<path class="st0" d="M2635.2,435c0-0.3,0-0.5,0-0.8c0-0.5,0-0.9-0.1-1.4c0-0.5-0.1-0.9-0.1-1.4c0-0.4-0.1-0.9-0.2-1.3
		c-0.2-1.3-0.4-2.5-0.8-3.7c-0.3-1-0.7-1.9-1.2-2.8c-1-1.6-2.3-2.9-4-3.9c-0.9-0.5-1.7-0.8-2.7-1.1c-0.8-0.2-1.5-0.4-2.3-0.6
		c-0.5-0.1-1-0.2-1.4-0.2c-0.4-0.1-0.8-0.1-1.1-0.1c-0.4,0-0.9-0.1-1.3-0.1c-0.4,0-0.7,0-1.1-0.1c-0.4,0-0.7,0-1.1,0
		c0,0,0.1,0,0.1,0c0.1,0,0.1,0,0.2,0c0.5,0,1,0,1.5-0.1c0.4,0,0.8-0.1,1.2-0.1c0.3,0,0.6,0,0.9-0.1c0.4,0,0.7-0.1,1.1-0.1
		c0.4-0.1,0.9-0.1,1.3-0.2c1.2-0.2,2.4-0.6,3.5-1.1c0.9-0.4,1.8-0.9,2.5-1.4c1.1-0.8,2-1.9,2.7-3c0.5-0.8,0.9-1.7,1.2-2.6
		c0.2-0.7,0.4-1.5,0.6-2.3c0.1-0.6,0.2-1.1,0.3-1.7c0.1-0.5,0.1-1,0.2-1.4c0.1-0.6,0.1-1.3,0.1-1.9c0-0.4,0-0.9,0-1.3
		c0,0,0-0.1,0-0.1c0,0.1,0,0.3,0,0.4c0,0.5,0,1.1,0.1,1.6c0,0.5,0.1,1,0.1,1.5c0,0.4,0.1,0.9,0.1,1.3c0.1,0.7,0.2,1.4,0.3,2.1
		c0.2,1.1,0.5,2.2,1,3.3c0.4,0.8,0.8,1.6,1.3,2.3c0.8,1,1.8,1.9,2.9,2.6c0.8,0.5,1.6,0.8,2.5,1.1c0.8,0.3,1.5,0.5,2.3,0.6
		c0.5,0.1,1,0.2,1.5,0.3c0.4,0.1,0.7,0.1,1.1,0.1c0.4,0,0.8,0.1,1.2,0.1c0.3,0,0.6,0,0.9,0.1c0.4,0,0.8,0,1.3,0.1c0.3,0,0.5,0,0.8,0
		c0.1,0,0.1,0,0.2,0c0,0-0.1,0-0.1,0c-0.4,0-0.8,0-1.2,0c-0.4,0-0.7,0-1.1,0.1c-0.3,0-0.5,0-0.8,0.1c-0.3,0-0.6,0.1-0.9,0.1
		c-0.2,0-0.4,0-0.7,0.1c-0.3,0-0.6,0.1-0.9,0.1c-0.5,0.1-0.9,0.2-1.4,0.3c-1.1,0.3-2.2,0.6-3.3,1.1c-0.8,0.4-1.6,0.8-2.4,1.4
		c-1,0.8-1.8,1.7-2.4,2.8c-0.5,0.8-0.8,1.7-1.1,2.6c-0.2,0.7-0.4,1.5-0.6,2.2c-0.1,0.5-0.2,1.1-0.3,1.6c-0.1,0.4-0.1,0.8-0.1,1.2
		c-0.1,0.6-0.1,1.1-0.1,1.7c0,0.7-0.1,1.3-0.1,2C2635.2,434.8,2635.2,434.9,2635.2,435C2635.2,435,2635.2,435,2635.2,435z"/>
	<path class="st0" d="M1753.2,743.6c0-0.3,0-0.5,0-0.8c0-0.5,0-0.9-0.1-1.4c0-0.5-0.1-0.9-0.1-1.4c0-0.4-0.1-0.9-0.2-1.3
		c-0.2-1.3-0.4-2.5-0.8-3.7c-0.3-1-0.7-1.9-1.2-2.8c-1-1.6-2.3-2.9-4-3.9c-0.9-0.5-1.7-0.8-2.7-1.1c-0.8-0.2-1.5-0.4-2.3-0.6
		c-0.5-0.1-1-0.2-1.4-0.2c-0.4-0.1-0.8-0.1-1.1-0.1c-0.4,0-0.9-0.1-1.3-0.1c-0.4,0-0.7,0-1.1-0.1c-0.4,0-0.7,0-1.1,0
		c0,0,0.1,0,0.1,0c0.1,0,0.1,0,0.2,0c0.5,0,1,0,1.5-0.1c0.4,0,0.8-0.1,1.2-0.1c0.3,0,0.6,0,0.9-0.1c0.4,0,0.7-0.1,1.1-0.1
		c0.4-0.1,0.9-0.1,1.3-0.2c1.2-0.2,2.4-0.6,3.5-1.1c0.9-0.4,1.8-0.9,2.5-1.4c1.1-0.8,2-1.9,2.7-3c0.5-0.8,0.9-1.7,1.2-2.6
		c0.2-0.7,0.4-1.5,0.6-2.3c0.1-0.6,0.2-1.1,0.3-1.7c0.1-0.5,0.1-1,0.2-1.4c0.1-0.6,0.1-1.3,0.1-1.9c0-0.4,0-0.9,0-1.3
		c0,0,0-0.1,0-0.1c0,0.1,0,0.3,0,0.4c0,0.5,0,1.1,0.1,1.6c0,0.5,0.1,1,0.1,1.5c0,0.4,0.1,0.9,0.1,1.3c0.1,0.7,0.2,1.4,0.3,2.1
		c0.2,1.1,0.5,2.2,1,3.3c0.4,0.8,0.8,1.6,1.3,2.3c0.8,1,1.8,1.9,2.9,2.6c0.8,0.5,1.6,0.8,2.5,1.1c0.8,0.3,1.5,0.5,2.3,0.6
		c0.5,0.1,1,0.2,1.5,0.3c0.4,0.1,0.7,0.1,1.1,0.1c0.4,0,0.8,0.1,1.2,0.1c0.3,0,0.6,0,0.9,0.1c0.4,0,0.8,0,1.3,0.1c0.3,0,0.5,0,0.8,0
		c0.1,0,0.1,0,0.2,0c0,0-0.1,0-0.1,0c-0.4,0-0.8,0-1.2,0c-0.4,0-0.7,0-1.1,0.1c-0.3,0-0.5,0-0.8,0.1c-0.3,0-0.6,0.1-0.9,0.1
		c-0.2,0-0.4,0-0.7,0.1c-0.3,0-0.6,0.1-0.9,0.1c-0.5,0.1-0.9,0.2-1.4,0.3c-1.1,0.3-2.2,0.6-3.3,1.1c-0.8,0.4-1.6,0.8-2.4,1.4
		c-1,0.8-1.8,1.7-2.4,2.8c-0.5,0.8-0.8,1.7-1.1,2.6c-0.2,0.7-0.4,1.5-0.6,2.2c-0.1,0.5-0.2,1.1-0.3,1.6c-0.1,0.4-0.1,0.8-0.1,1.2
		c-0.1,0.6-0.1,1.1-0.1,1.7c0,0.7-0.1,1.3-0.1,2C1753.2,743.5,1753.2,743.6,1753.2,743.6C1753.2,743.6,1753.2,743.6,1753.2,743.6z"
		/>
	<path class="st0" d="M1341.2,371.6c0-0.3,0-0.5,0-0.8c0-0.5,0-0.9-0.1-1.4c0-0.5-0.1-0.9-0.1-1.4c0-0.4-0.1-0.9-0.2-1.3
		c-0.2-1.3-0.4-2.5-0.8-3.7c-0.3-1-0.7-1.9-1.2-2.8c-1-1.6-2.3-2.9-4-3.9c-0.9-0.5-1.7-0.8-2.7-1.1c-0.8-0.2-1.5-0.4-2.3-0.6
		c-0.5-0.1-1-0.2-1.4-0.2c-0.4-0.1-0.8-0.1-1.1-0.1c-0.4,0-0.9-0.1-1.3-0.1c-0.4,0-0.7,0-1.1-0.1c-0.4,0-0.7,0-1.1,0
		c0,0,0.1,0,0.1,0c0.1,0,0.1,0,0.2,0c0.5,0,1,0,1.5-0.1c0.4,0,0.8-0.1,1.2-0.1c0.3,0,0.6,0,0.9-0.1c0.4,0,0.7-0.1,1.1-0.1
		c0.4-0.1,0.9-0.1,1.3-0.2c1.2-0.2,2.4-0.6,3.5-1.1c0.9-0.4,1.8-0.9,2.5-1.4c1.1-0.8,2-1.9,2.7-3c0.5-0.8,0.9-1.7,1.2-2.6
		c0.2-0.7,0.4-1.5,0.6-2.3c0.1-0.6,0.2-1.1,0.3-1.7c0.1-0.5,0.1-1,0.2-1.4c0.1-0.6,0.1-1.3,0.1-1.9c0-0.4,0-0.9,0-1.3
		c0,0,0-0.1,0-0.1c0,0.1,0,0.3,0,0.4c0,0.5,0,1.1,0.1,1.6c0,0.5,0.1,1,0.1,1.5c0,0.4,0.1,0.9,0.1,1.3c0.1,0.7,0.2,1.4,0.3,2.1
		c0.2,1.1,0.5,2.2,1,3.3c0.4,0.8,0.8,1.6,1.3,2.3c0.8,1,1.8,1.9,2.9,2.6c0.8,0.5,1.6,0.8,2.5,1.1c0.8,0.3,1.5,0.5,2.3,0.6
		c0.5,0.1,1,0.2,1.5,0.3c0.4,0.1,0.7,0.1,1.1,0.1c0.4,0,0.8,0.1,1.2,0.1c0.3,0,0.6,0,0.9,0.1c0.4,0,0.8,0,1.3,0.1c0.3,0,0.5,0,0.8,0
		c0.1,0,0.1,0,0.2,0c0,0-0.1,0-0.1,0c-0.4,0-0.8,0-1.2,0c-0.4,0-0.7,0-1.1,0.1c-0.3,0-0.5,0-0.8,0.1c-0.3,0-0.6,0.1-0.9,0.1
		c-0.2,0-0.4,0-0.7,0.1c-0.3,0-0.6,0.1-0.9,0.1c-0.5,0.1-0.9,0.2-1.4,0.3c-1.1,0.3-2.2,0.6-3.3,1.1c-0.8,0.4-1.6,0.8-2.4,1.4
		c-1,0.8-1.8,1.7-2.4,2.8c-0.5,0.8-0.8,1.7-1.1,2.6c-0.2,0.7-0.4,1.5-0.6,2.2c-0.1,0.5-0.2,1.1-0.3,1.6c-0.1,0.4-0.1,0.8-0.1,1.2
		c-0.1,0.6-0.1,1.1-0.1,1.7c0,0.7-0.1,1.3-0.1,2C1341.2,371.5,1341.2,371.6,1341.2,371.6C1341.2,371.6,1341.2,371.6,1341.2,371.6z"
		/>
	<path class="st0" d="M2137,537.3c0-0.3,0-0.5,0-0.8c0-0.5,0-0.9-0.1-1.4c0-0.5-0.1-0.9-0.1-1.4c0-0.4-0.1-0.9-0.2-1.3
		c-0.2-1.3-0.4-2.5-0.8-3.7c-0.3-1-0.7-1.9-1.2-2.8c-1-1.6-2.3-2.9-4-3.9c-0.9-0.5-1.7-0.8-2.7-1.1c-0.8-0.2-1.5-0.4-2.3-0.6
		c-0.5-0.1-1-0.2-1.4-0.2c-0.4-0.1-0.8-0.1-1.1-0.1c-0.4,0-0.9-0.1-1.3-0.1c-0.4,0-0.7,0-1.1-0.1c-0.4,0-0.7,0-1.1,0
		c0,0,0.1,0,0.1,0c0.1,0,0.1,0,0.2,0c0.5,0,1,0,1.5-0.1c0.4,0,0.8-0.1,1.2-0.1c0.3,0,0.6,0,0.9-0.1c0.4,0,0.7-0.1,1.1-0.1
		c0.4-0.1,0.9-0.1,1.3-0.2c1.2-0.2,2.4-0.6,3.5-1.1c0.9-0.4,1.8-0.9,2.5-1.4c1.1-0.8,2-1.9,2.7-3c0.5-0.8,0.9-1.7,1.2-2.6
		c0.2-0.7,0.4-1.5,0.6-2.3c0.1-0.6,0.2-1.1,0.3-1.7c0.1-0.5,0.1-1,0.2-1.4c0.1-0.6,0.1-1.3,0.1-1.9c0-0.4,0-0.9,0-1.3
		c0,0,0-0.1,0-0.1c0,0.1,0,0.3,0,0.4c0,0.5,0,1.1,0.1,1.6c0,0.5,0.1,1,0.1,1.5c0,0.4,0.1,0.9,0.1,1.3c0.1,0.7,0.2,1.4,0.3,2.1
		c0.2,1.1,0.5,2.2,1,3.3c0.4,0.8,0.8,1.6,1.3,2.3c0.8,1,1.8,1.9,2.9,2.6c0.8,0.5,1.6,0.8,2.5,1.1c0.8,0.3,1.5,0.5,2.3,0.6
		c0.5,0.1,1,0.2,1.5,0.3c0.4,0.1,0.7,0.1,1.1,0.1c0.4,0,0.8,0.1,1.2,0.1c0.3,0,0.6,0,0.9,0.1c0.4,0,0.8,0,1.3,0.1c0.3,0,0.5,0,0.8,0
		c0.1,0,0.1,0,0.2,0c0,0-0.1,0-0.1,0c-0.4,0-0.8,0-1.2,0c-0.4,0-0.7,0-1.1,0.1c-0.3,0-0.5,0-0.8,0.1c-0.3,0-0.6,0.1-0.9,0.1
		c-0.2,0-0.4,0-0.7,0.1c-0.3,0-0.6,0.1-0.9,0.1c-0.5,0.1-0.9,0.2-1.4,0.3c-1.1,0.3-2.2,0.6-3.3,1.1c-0.8,0.4-1.6,0.8-2.4,1.4
		c-1,0.8-1.8,1.7-2.4,2.8c-0.5,0.8-0.8,1.7-1.1,2.6c-0.2,0.7-0.4,1.5-0.6,2.2c-0.1,0.5-0.2,1.1-0.3,1.6c-0.1,0.4-0.1,0.8-0.1,1.2
		c-0.1,0.6-0.1,1.1-0.1,1.7c0,0.7-0.1,1.3-0.1,2C2137,537.1,2137,537.2,2137,537.3C2137,537.3,2137,537.3,2137,537.3z"/>
	<path class="st0" d="M514.2,603.7c0-0.3,0-0.5,0-0.8c0-0.5,0-0.9-0.1-1.4c0-0.5-0.1-0.9-0.1-1.4c0-0.4-0.1-0.9-0.2-1.3
		c-0.2-1.3-0.4-2.5-0.8-3.7c-0.3-1-0.7-1.9-1.2-2.8c-1-1.6-2.3-2.9-4-3.9c-0.9-0.5-1.7-0.8-2.7-1.1c-0.8-0.2-1.5-0.4-2.3-0.6
		c-0.5-0.1-1-0.2-1.4-0.2c-0.4-0.1-0.8-0.1-1.1-0.1c-0.4,0-0.9-0.1-1.3-0.1c-0.4,0-0.7,0-1.1-0.1c-0.4,0-0.7,0-1.1,0
		c0,0,0.1,0,0.1,0c0.1,0,0.1,0,0.2,0c0.5,0,1,0,1.5-0.1c0.4,0,0.8-0.1,1.2-0.1c0.3,0,0.6,0,0.9-0.1c0.4,0,0.7-0.1,1.1-0.1
		c0.4-0.1,0.9-0.1,1.3-0.2c1.2-0.2,2.4-0.6,3.5-1.1c0.9-0.4,1.8-0.9,2.5-1.4c1.1-0.8,2-1.9,2.7-3c0.5-0.8,0.9-1.7,1.2-2.6
		c0.2-0.7,0.4-1.5,0.6-2.3c0.1-0.6,0.2-1.1,0.3-1.7c0.1-0.5,0.1-1,0.2-1.4c0.1-0.6,0.1-1.3,0.1-1.9c0-0.4,0-0.9,0-1.3
		c0,0,0-0.1,0-0.1c0,0.1,0,0.3,0,0.4c0,0.5,0,1.1,0.1,1.6c0,0.5,0.1,1,0.1,1.5c0,0.4,0.1,0.9,0.1,1.3c0.1,0.7,0.2,1.4,0.3,2.1
		c0.2,1.1,0.5,2.2,1,3.3c0.4,0.8,0.8,1.6,1.3,2.3c0.8,1,1.8,1.9,2.9,2.6c0.8,0.5,1.6,0.8,2.5,1.1c0.8,0.3,1.5,0.5,2.3,0.6
		c0.5,0.1,1,0.2,1.5,0.3c0.4,0.1,0.7,0.1,1.1,0.1c0.4,0,0.8,0.1,1.2,0.1c0.3,0,0.6,0,0.9,0.1c0.4,0,0.8,0,1.3,0.1c0.3,0,0.5,0,0.8,0
		c0.1,0,0.1,0,0.2,0c0,0-0.1,0-0.1,0c-0.4,0-0.8,0-1.2,0c-0.4,0-0.7,0-1.1,0.1c-0.3,0-0.5,0-0.8,0.1c-0.3,0-0.6,0.1-0.9,0.1
		c-0.2,0-0.4,0-0.7,0.1c-0.3,0-0.6,0.1-0.9,0.1c-0.5,0.1-0.9,0.2-1.4,0.3c-1.1,0.3-2.2,0.6-3.3,1.1c-0.8,0.4-1.6,0.8-2.4,1.4
		c-1,0.8-1.8,1.7-2.4,2.8c-0.5,0.8-0.8,1.7-1.1,2.6c-0.2,0.7-0.4,1.5-0.6,2.2c-0.1,0.5-0.2,1.1-0.3,1.6c-0.1,0.4-0.1,0.8-0.1,1.2
		c-0.1,0.6-0.1,1.1-0.1,1.7c0,0.7-0.1,1.3-0.1,2C514.2,603.5,514.2,603.6,514.2,603.7C514.2,603.7,514.2,603.7,514.2,603.7z"/>
	<path class="st0" d="M986.4,578.7c0-0.1,0-0.3,0-0.4c0-0.3,0-0.5,0-0.8c0-0.3,0-0.5-0.1-0.8c0-0.3-0.1-0.5-0.1-0.8
		c-0.1-0.7-0.3-1.4-0.5-2.1c-0.2-0.6-0.4-1.1-0.7-1.6c-0.6-0.9-1.3-1.7-2.3-2.2c-0.5-0.3-1-0.5-1.5-0.6c-0.4-0.1-0.9-0.2-1.3-0.3
		c-0.3-0.1-0.5-0.1-0.8-0.1c-0.2,0-0.4-0.1-0.7-0.1c-0.3,0-0.5,0-0.8-0.1c-0.2,0-0.4,0-0.6,0c-0.2,0-0.4,0-0.6,0c0,0,0,0,0.1,0
		c0,0,0.1,0,0.1,0c0.3,0,0.6,0,0.9,0c0.2,0,0.5,0,0.7-0.1c0.2,0,0.3,0,0.5,0c0.2,0,0.4-0.1,0.6-0.1c0.3,0,0.5-0.1,0.8-0.1
		c0.7-0.1,1.4-0.3,2-0.6c0.5-0.2,1-0.5,1.5-0.8c0.6-0.5,1.2-1.1,1.6-1.7c0.3-0.5,0.5-1,0.7-1.5c0.1-0.4,0.3-0.9,0.3-1.3
		c0.1-0.3,0.1-0.7,0.2-1c0-0.3,0.1-0.5,0.1-0.8c0-0.4,0.1-0.7,0.1-1.1c0-0.2,0-0.5,0-0.7c0,0,0,0,0-0.1c0,0.1,0,0.2,0,0.2
		c0,0.3,0,0.6,0,0.9c0,0.3,0,0.6,0.1,0.8c0,0.3,0.1,0.5,0.1,0.8c0,0.4,0.1,0.8,0.2,1.2c0.1,0.6,0.3,1.3,0.6,1.9
		c0.2,0.5,0.4,0.9,0.8,1.3c0.5,0.6,1,1.1,1.6,1.5c0.5,0.3,0.9,0.5,1.4,0.6c0.4,0.1,0.9,0.3,1.3,0.4c0.3,0.1,0.6,0.1,0.9,0.1
		c0.2,0,0.4,0.1,0.6,0.1c0.2,0,0.4,0,0.7,0.1c0.2,0,0.3,0,0.5,0c0.2,0,0.5,0,0.7,0c0.1,0,0.3,0,0.4,0c0,0,0.1,0,0.1,0
		c0,0-0.1,0-0.1,0c-0.2,0-0.4,0-0.7,0c-0.2,0-0.4,0-0.6,0c-0.2,0-0.3,0-0.5,0c-0.2,0-0.3,0-0.5,0.1c-0.1,0-0.3,0-0.4,0
		c-0.2,0-0.4,0-0.5,0.1c-0.3,0-0.5,0.1-0.8,0.2c-0.6,0.1-1.3,0.3-1.9,0.6c-0.5,0.2-0.9,0.5-1.4,0.8c-0.6,0.4-1,1-1.4,1.6
		c-0.3,0.5-0.5,1-0.7,1.5c-0.1,0.4-0.2,0.8-0.3,1.3c-0.1,0.3-0.1,0.6-0.2,0.9c0,0.2-0.1,0.5-0.1,0.7c0,0.3-0.1,0.6-0.1,1
		c0,0.4,0,0.8,0,1.2C986.4,578.6,986.4,578.6,986.4,578.7C986.4,578.7,986.4,578.7,986.4,578.7z"/>
	<path class="st0" d="M2537.7,719.6c0-0.3,0-0.5,0-0.8c0-0.5,0-0.9-0.1-1.4c0-0.5-0.1-0.9-0.1-1.4c0-0.4-0.1-0.9-0.2-1.3
		c-0.2-1.3-0.4-2.5-0.8-3.7c-0.3-1-0.7-1.9-1.2-2.8c-1-1.6-2.3-2.9-4-3.9c-0.9-0.5-1.7-0.8-2.7-1.1c-0.8-0.2-1.5-0.4-2.3-0.6
		c-0.5-0.1-1-0.2-1.4-0.2c-0.4-0.1-0.8-0.1-1.1-0.1c-0.4,0-0.9-0.1-1.3-0.1c-0.4,0-0.7,0-1.1-0.1c-0.4,0-0.7,0-1.1,0
		c0,0,0.1,0,0.1,0c0.1,0,0.1,0,0.2,0c0.5,0,1,0,1.5-0.1c0.4,0,0.8-0.1,1.2-0.1c0.3,0,0.6,0,0.9-0.1c0.4,0,0.7-0.1,1.1-0.1
		c0.4-0.1,0.9-0.1,1.3-0.2c1.2-0.2,2.4-0.6,3.5-1.1c0.9-0.4,1.8-0.9,2.5-1.4c1.1-0.8,2-1.9,2.7-3c0.5-0.8,0.9-1.7,1.2-2.6
		c0.2-0.7,0.4-1.5,0.6-2.3c0.1-0.6,0.2-1.1,0.3-1.7c0.1-0.5,0.1-1,0.2-1.4c0.1-0.6,0.1-1.3,0.1-1.9c0-0.4,0-0.9,0-1.3
		c0,0,0-0.1,0-0.1c0,0.1,0,0.3,0,0.4c0,0.5,0,1.1,0.1,1.6c0,0.5,0.1,1,0.1,1.5c0,0.4,0.1,0.9,0.1,1.3c0.1,0.7,0.2,1.4,0.3,2.1
		c0.2,1.1,0.5,2.2,1,3.3c0.4,0.8,0.8,1.6,1.3,2.3c0.8,1,1.8,1.9,2.9,2.6c0.8,0.5,1.6,0.8,2.5,1.1c0.8,0.3,1.5,0.5,2.3,0.6
		c0.5,0.1,1,0.2,1.5,0.3c0.4,0.1,0.7,0.1,1.1,0.1c0.4,0,0.8,0.1,1.2,0.1c0.3,0,0.6,0,0.9,0.1c0.4,0,0.8,0,1.3,0.1c0.3,0,0.5,0,0.8,0
		c0.1,0,0.1,0,0.2,0c0,0-0.1,0-0.1,0c-0.4,0-0.8,0-1.2,0c-0.4,0-0.7,0-1.1,0.1c-0.3,0-0.5,0-0.8,0.1c-0.3,0-0.6,0.1-0.9,0.1
		c-0.2,0-0.4,0-0.7,0.1c-0.3,0-0.6,0.1-0.9,0.1c-0.5,0.1-0.9,0.2-1.4,0.3c-1.1,0.3-2.2,0.6-3.3,1.1c-0.8,0.4-1.6,0.8-2.4,1.4
		c-1,0.8-1.8,1.7-2.4,2.8c-0.5,0.8-0.8,1.7-1.1,2.6c-0.2,0.7-0.4,1.5-0.6,2.2c-0.1,0.5-0.2,1.1-0.3,1.6c-0.1,0.4-0.1,0.8-0.1,1.2
		c-0.1,0.6-0.1,1.1-0.1,1.7c0,0.7-0.1,1.3-0.1,2C2537.7,719.4,2537.7,719.5,2537.7,719.6C2537.7,719.6,2537.7,719.6,2537.7,719.6z"
		/>
	<path class="st0" d="M2519.9,732.7c0-0.1,0-0.3,0-0.4c0-0.3,0-0.5,0-0.8c0-0.3,0-0.5-0.1-0.8c0-0.3-0.1-0.5-0.1-0.8
		c-0.1-0.7-0.3-1.4-0.5-2.1c-0.2-0.6-0.4-1.1-0.7-1.6c-0.6-0.9-1.3-1.7-2.3-2.2c-0.5-0.3-1-0.5-1.5-0.6c-0.4-0.1-0.9-0.2-1.3-0.3
		c-0.3-0.1-0.5-0.1-0.8-0.1c-0.2,0-0.4-0.1-0.7-0.1c-0.3,0-0.5,0-0.8-0.1c-0.2,0-0.4,0-0.6,0c-0.2,0-0.4,0-0.6,0c0,0,0,0,0.1,0
		c0,0,0.1,0,0.1,0c0.3,0,0.6,0,0.9,0c0.2,0,0.5,0,0.7-0.1c0.2,0,0.3,0,0.5,0c0.2,0,0.4-0.1,0.6-0.1c0.3,0,0.5-0.1,0.8-0.1
		c0.7-0.1,1.4-0.3,2-0.6c0.5-0.2,1-0.5,1.5-0.8c0.6-0.5,1.2-1.1,1.6-1.7c0.3-0.5,0.5-1,0.7-1.5c0.1-0.4,0.3-0.9,0.3-1.3
		c0.1-0.3,0.1-0.7,0.2-1c0-0.3,0.1-0.5,0.1-0.8c0-0.4,0.1-0.7,0.1-1.1c0-0.2,0-0.5,0-0.7c0,0,0,0,0-0.1c0,0.1,0,0.2,0,0.2
		c0,0.3,0,0.6,0,0.9c0,0.3,0,0.6,0.1,0.8c0,0.3,0.1,0.5,0.1,0.8c0,0.4,0.1,0.8,0.2,1.2c0.1,0.6,0.3,1.3,0.6,1.9
		c0.2,0.5,0.4,0.9,0.8,1.3c0.5,0.6,1,1.1,1.6,1.5c0.5,0.3,0.9,0.5,1.4,0.6c0.4,0.1,0.9,0.3,1.3,0.4c0.3,0.1,0.6,0.1,0.9,0.1
		c0.2,0,0.4,0.1,0.6,0.1c0.2,0,0.4,0,0.7,0.1c0.2,0,0.3,0,0.5,0c0.2,0,0.5,0,0.7,0c0.1,0,0.3,0,0.4,0c0,0,0.1,0,0.1,0
		c0,0-0.1,0-0.1,0c-0.2,0-0.4,0-0.7,0c-0.2,0-0.4,0-0.6,0c-0.2,0-0.3,0-0.5,0c-0.2,0-0.3,0-0.5,0.1c-0.1,0-0.3,0-0.4,0
		c-0.2,0-0.4,0-0.5,0.1c-0.3,0-0.5,0.1-0.8,0.2c-0.6,0.1-1.3,0.3-1.9,0.6c-0.5,0.2-0.9,0.5-1.4,0.8c-0.6,0.4-1,1-1.4,1.6
		c-0.3,0.5-0.5,1-0.7,1.5c-0.1,0.4-0.2,0.8-0.3,1.3c-0.1,0.3-0.1,0.6-0.2,0.9c0,0.2-0.1,0.5-0.1,0.7c0,0.3-0.1,0.6-0.1,1
		c0,0.4,0,0.8,0,1.2C2519.9,732.6,2519.9,732.6,2519.9,732.7C2519.9,732.7,2519.9,732.7,2519.9,732.7z"/>
	<path class="st0" d="M728.8,174.2c0-0.3,0-0.5,0-0.8c0-0.5,0-0.9-0.1-1.4c0-0.5-0.1-0.9-0.1-1.4c0-0.4-0.1-0.9-0.2-1.3
		c-0.2-1.3-0.4-2.5-0.8-3.7c-0.3-1-0.7-1.9-1.2-2.8c-1-1.6-2.3-2.9-4-3.9c-0.9-0.5-1.7-0.8-2.7-1.1c-0.8-0.2-1.5-0.4-2.3-0.6
		c-0.5-0.1-1-0.2-1.4-0.2c-0.4-0.1-0.8-0.1-1.1-0.1c-0.4,0-0.9-0.1-1.3-0.1c-0.4,0-0.7,0-1.1-0.1c-0.4,0-0.7,0-1.1,0
		c0,0,0.1,0,0.1,0c0.1,0,0.1,0,0.2,0c0.5,0,1,0,1.5-0.1c0.4,0,0.8-0.1,1.2-0.1c0.3,0,0.6,0,0.9-0.1c0.4,0,0.7-0.1,1.1-0.1
		c0.4-0.1,0.9-0.1,1.3-0.2c1.2-0.2,2.4-0.6,3.5-1.1c0.9-0.4,1.8-0.9,2.5-1.4c1.1-0.8,2-1.9,2.7-3c0.5-0.8,0.9-1.7,1.2-2.6
		c0.2-0.7,0.4-1.5,0.6-2.3c0.1-0.6,0.2-1.1,0.3-1.7c0.1-0.5,0.1-1,0.2-1.4c0.1-0.6,0.1-1.3,0.1-1.9c0-0.4,0-0.9,0-1.3
		c0,0,0-0.1,0-0.1c0,0.1,0,0.3,0,0.4c0,0.5,0,1.1,0.1,1.6c0,0.5,0.1,1,0.1,1.5c0,0.4,0.1,0.9,0.1,1.3c0.1,0.7,0.2,1.4,0.3,2.1
		c0.2,1.1,0.5,2.2,1,3.3c0.4,0.8,0.8,1.6,1.3,2.3c0.8,1,1.8,1.9,2.9,2.6c0.8,0.5,1.6,0.8,2.5,1.1c0.8,0.3,1.5,0.5,2.3,0.6
		c0.5,0.1,1,0.2,1.5,0.3c0.4,0.1,0.7,0.1,1.1,0.1c0.4,0,0.8,0.1,1.2,0.1c0.3,0,0.6,0,0.9,0.1c0.4,0,0.8,0,1.3,0.1c0.3,0,0.5,0,0.8,0
		c0.1,0,0.1,0,0.2,0c0,0-0.1,0-0.1,0c-0.4,0-0.8,0-1.2,0c-0.4,0-0.7,0-1.1,0.1c-0.3,0-0.5,0-0.8,0.1c-0.3,0-0.6,0.1-0.9,0.1
		c-0.2,0-0.4,0-0.7,0.1c-0.3,0-0.6,0.1-0.9,0.1c-0.5,0.1-0.9,0.2-1.4,0.3c-1.1,0.3-2.2,0.6-3.3,1.1c-0.8,0.4-1.6,0.8-2.4,1.4
		c-1,0.8-1.8,1.7-2.4,2.8c-0.5,0.8-0.8,1.7-1.1,2.6c-0.2,0.7-0.4,1.5-0.6,2.2c-0.1,0.5-0.2,1.1-0.3,1.6c-0.1,0.4-0.1,0.8-0.1,1.2
		c-0.1,0.6-0.1,1.1-0.1,1.7c0,0.7-0.1,1.3-0.1,2C728.8,174.1,728.8,174.2,728.8,174.2C728.8,174.2,728.8,174.2,728.8,174.2z"/>
	<path class="st0" d="M711.1,187.3c0-0.1,0-0.3,0-0.4c0-0.3,0-0.5,0-0.8c0-0.3,0-0.5-0.1-0.8c0-0.3-0.1-0.5-0.1-0.8
		c-0.1-0.7-0.3-1.4-0.5-2.1c-0.2-0.6-0.4-1.1-0.7-1.6c-0.6-0.9-1.3-1.7-2.3-2.2c-0.5-0.3-1-0.5-1.5-0.6c-0.4-0.1-0.9-0.2-1.3-0.3
		c-0.3-0.1-0.5-0.1-0.8-0.1c-0.2,0-0.4-0.1-0.7-0.1c-0.3,0-0.5,0-0.8-0.1c-0.2,0-0.4,0-0.6,0c-0.2,0-0.4,0-0.6,0c0,0,0,0,0.1,0
		c0,0,0.1,0,0.1,0c0.3,0,0.6,0,0.9,0c0.2,0,0.5,0,0.7-0.1c0.2,0,0.3,0,0.5,0c0.2,0,0.4-0.1,0.6-0.1c0.3,0,0.5-0.1,0.8-0.1
		c0.7-0.1,1.4-0.3,2-0.6c0.5-0.2,1-0.5,1.5-0.8c0.6-0.5,1.2-1.1,1.6-1.7c0.3-0.5,0.5-1,0.7-1.5c0.1-0.4,0.3-0.9,0.3-1.3
		c0.1-0.3,0.1-0.7,0.2-1c0-0.3,0.1-0.5,0.1-0.8c0-0.4,0.1-0.7,0.1-1.1c0-0.2,0-0.5,0-0.7c0,0,0,0,0-0.1c0,0.1,0,0.2,0,0.2
		c0,0.3,0,0.6,0,0.9c0,0.3,0,0.6,0.1,0.8c0,0.3,0.1,0.5,0.1,0.8c0,0.4,0.1,0.8,0.2,1.2c0.1,0.6,0.3,1.3,0.6,1.9
		c0.2,0.5,0.4,0.9,0.8,1.3c0.5,0.6,1,1.1,1.6,1.5c0.5,0.3,0.9,0.5,1.4,0.6c0.4,0.1,0.9,0.3,1.3,0.4c0.3,0.1,0.6,0.1,0.9,0.1
		c0.2,0,0.4,0.1,0.6,0.1c0.2,0,0.4,0,0.7,0.1c0.2,0,0.3,0,0.5,0c0.2,0,0.5,0,0.7,0c0.1,0,0.3,0,0.4,0c0,0,0.1,0,0.1,0
		c0,0-0.1,0-0.1,0c-0.2,0-0.4,0-0.7,0c-0.2,0-0.4,0-0.6,0c-0.2,0-0.3,0-0.5,0c-0.2,0-0.3,0-0.5,0.1c-0.1,0-0.3,0-0.4,0
		c-0.2,0-0.4,0-0.5,0.1c-0.3,0-0.5,0.1-0.8,0.2c-0.6,0.1-1.3,0.3-1.9,0.6c-0.5,0.2-0.9,0.5-1.4,0.8c-0.6,0.4-1,1-1.4,1.6
		c-0.3,0.5-0.5,1-0.7,1.5c-0.1,0.4-0.2,0.8-0.3,1.3c-0.1,0.3-0.1,0.6-0.2,0.9c0,0.2-0.1,0.5-0.1,0.7c0,0.3-0.1,0.6-0.1,1
		c0,0.4,0,0.8,0,1.2C711.1,187.2,711.1,187.3,711.1,187.3C711.1,187.3,711.1,187.3,711.1,187.3z"/>
	<path class="st0" d="M712.1,146.5c0-0.1,0-0.2,0-0.3c0-0.2,0-0.4,0-0.6c0-0.2,0-0.4,0-0.6c0-0.2,0-0.4-0.1-0.6
		c-0.1-0.5-0.2-1.1-0.4-1.6c-0.1-0.4-0.3-0.8-0.5-1.2c-0.4-0.7-1-1.3-1.7-1.7c-0.4-0.2-0.7-0.4-1.1-0.5c-0.3-0.1-0.7-0.2-1-0.2
		c-0.2,0-0.4-0.1-0.6-0.1c-0.2,0-0.3,0-0.5-0.1c-0.2,0-0.4,0-0.6,0c-0.2,0-0.3,0-0.5,0c-0.2,0-0.3,0-0.5,0c0,0,0,0,0,0
		c0,0,0.1,0,0.1,0c0.2,0,0.4,0,0.6,0c0.2,0,0.3,0,0.5,0c0.1,0,0.2,0,0.4,0c0.2,0,0.3,0,0.5-0.1c0.2,0,0.4-0.1,0.6-0.1
		c0.5-0.1,1-0.2,1.5-0.5c0.4-0.2,0.8-0.4,1.1-0.6c0.5-0.4,0.9-0.8,1.2-1.3c0.2-0.4,0.4-0.7,0.5-1.1c0.1-0.3,0.2-0.6,0.3-1
		c0.1-0.2,0.1-0.5,0.1-0.7c0-0.2,0.1-0.4,0.1-0.6c0-0.3,0-0.5,0.1-0.8c0-0.2,0-0.4,0-0.5c0,0,0,0,0,0c0,0.1,0,0.1,0,0.2
		c0,0.2,0,0.5,0,0.7c0,0.2,0,0.4,0,0.6c0,0.2,0,0.4,0.1,0.6c0,0.3,0.1,0.6,0.1,0.9c0.1,0.5,0.2,1,0.4,1.4c0.2,0.4,0.3,0.7,0.6,1
		c0.3,0.4,0.8,0.8,1.2,1.1c0.3,0.2,0.7,0.4,1.1,0.5c0.3,0.1,0.7,0.2,1,0.3c0.2,0,0.4,0.1,0.6,0.1c0.2,0,0.3,0,0.5,0.1
		c0.2,0,0.3,0,0.5,0c0.1,0,0.2,0,0.4,0c0.2,0,0.4,0,0.5,0c0.1,0,0.2,0,0.3,0c0,0,0.1,0,0.1,0c0,0,0,0-0.1,0c-0.2,0-0.3,0-0.5,0
		c-0.2,0-0.3,0-0.5,0c-0.1,0-0.2,0-0.3,0c-0.1,0-0.3,0-0.4,0c-0.1,0-0.2,0-0.3,0c-0.1,0-0.3,0-0.4,0.1c-0.2,0-0.4,0.1-0.6,0.1
		c-0.5,0.1-1,0.3-1.4,0.5c-0.4,0.2-0.7,0.4-1,0.6c-0.4,0.3-0.8,0.7-1,1.2c-0.2,0.3-0.4,0.7-0.5,1.1c-0.1,0.3-0.2,0.6-0.2,1
		c0,0.2-0.1,0.5-0.1,0.7c0,0.2,0,0.3-0.1,0.5c0,0.2,0,0.5-0.1,0.7c0,0.3,0,0.6,0,0.9C712.1,146.5,712.1,146.5,712.1,146.5
		C712.1,146.5,712.1,146.5,712.1,146.5z"/>
	<path class="st0" d="M1904.9,316.1c0-0.3,0-0.5,0-0.8c0-0.5,0-0.9,0.1-1.4c0-0.5,0.1-0.9,0.1-1.4c0-0.4,0.1-0.9,0.2-1.3
		c0.2-1.3,0.4-2.5,0.8-3.7c0.3-1,0.7-1.9,1.2-2.8c1-1.6,2.3-2.9,4-3.9c0.9-0.5,1.7-0.8,2.7-1.1c0.8-0.2,1.5-0.4,2.3-0.6
		c0.5-0.1,1-0.2,1.4-0.2c0.4-0.1,0.8-0.1,1.1-0.1c0.4,0,0.9-0.1,1.3-0.1c0.4,0,0.7,0,1.1-0.1c0.4,0,0.7,0,1.1,0c0,0-0.1,0-0.1,0
		c-0.1,0-0.1,0-0.2,0c-0.5,0-1,0-1.5-0.1c-0.4,0-0.8-0.1-1.2-0.1c-0.3,0-0.6,0-0.9-0.1c-0.4,0-0.7-0.1-1.1-0.1
		c-0.4-0.1-0.9-0.1-1.3-0.2c-1.2-0.2-2.4-0.6-3.5-1.1c-0.9-0.4-1.8-0.9-2.5-1.4c-1.1-0.8-2-1.9-2.7-3c-0.5-0.8-0.9-1.7-1.2-2.6
		c-0.2-0.7-0.4-1.5-0.6-2.3c-0.1-0.6-0.2-1.1-0.3-1.7c-0.1-0.5-0.1-1-0.2-1.4c-0.1-0.6-0.1-1.3-0.1-1.9c0-0.4,0-0.9,0-1.3
		c0,0,0-0.1,0-0.1c0,0.1,0,0.3,0,0.4c0,0.5,0,1.1-0.1,1.6c0,0.5-0.1,1-0.1,1.5c0,0.4-0.1,0.9-0.1,1.3c-0.1,0.7-0.2,1.4-0.3,2.1
		c-0.2,1.1-0.5,2.2-1,3.3c-0.4,0.8-0.8,1.6-1.3,2.3c-0.8,1-1.8,1.9-2.9,2.6c-0.8,0.5-1.6,0.8-2.5,1.1c-0.8,0.3-1.5,0.5-2.3,0.6
		c-0.5,0.1-1,0.2-1.5,0.3c-0.4,0.1-0.7,0.1-1.1,0.1c-0.4,0-0.8,0.1-1.2,0.1c-0.3,0-0.6,0-0.9,0.1c-0.4,0-0.8,0-1.3,0.1
		c-0.3,0-0.5,0-0.8,0c-0.1,0-0.1,0-0.2,0c0,0,0.1,0,0.1,0c0.4,0,0.8,0,1.2,0c0.4,0,0.7,0,1.1,0.1c0.3,0,0.5,0,0.8,0.1
		c0.3,0,0.6,0.1,0.9,0.1c0.2,0,0.4,0,0.7,0.1c0.3,0,0.6,0.1,0.9,0.1c0.5,0.1,0.9,0.2,1.4,0.3c1.1,0.3,2.2,0.6,3.3,1.1
		c0.8,0.4,1.6,0.8,2.4,1.4c1,0.8,1.8,1.7,2.4,2.8c0.5,0.8,0.8,1.7,1.1,2.6c0.2,0.7,0.4,1.5,0.6,2.2c0.1,0.5,0.2,1.1,0.3,1.6
		c0.1,0.4,0.1,0.8,0.1,1.2c0.1,0.6,0.1,1.1,0.1,1.7c0,0.7,0.1,1.3,0.1,2C1904.9,316,1904.9,316.1,1904.9,316.1
		C1904.9,316.1,1904.9,316.1,1904.9,316.1z"/>
	<path class="st0" d="M2380.7,290.9c0-0.3,0-0.5,0-0.8c0-0.5,0-0.9,0.1-1.4c0-0.5,0.1-0.9,0.1-1.4c0-0.4,0.1-0.9,0.2-1.3
		c0.2-1.3,0.4-2.5,0.8-3.7c0.3-1,0.7-1.9,1.2-2.8c1-1.6,2.3-2.9,4-3.9c0.9-0.5,1.7-0.8,2.7-1.1c0.8-0.2,1.5-0.4,2.3-0.6
		c0.5-0.1,1-0.2,1.4-0.2c0.4-0.1,0.8-0.1,1.1-0.1c0.4,0,0.9-0.1,1.3-0.1c0.4,0,0.7,0,1.1-0.1c0.4,0,0.7,0,1.1,0c0,0-0.1,0-0.1,0
		c-0.1,0-0.1,0-0.2,0c-0.5,0-1,0-1.5-0.1c-0.4,0-0.8-0.1-1.2-0.1c-0.3,0-0.6,0-0.9-0.1c-0.4,0-0.7-0.1-1.1-0.1
		c-0.4-0.1-0.9-0.1-1.3-0.2c-1.2-0.2-2.4-0.6-3.5-1.1c-0.9-0.4-1.8-0.9-2.5-1.4c-1.1-0.8-2-1.9-2.7-3c-0.5-0.8-0.9-1.7-1.2-2.6
		c-0.2-0.7-0.4-1.5-0.6-2.3c-0.1-0.6-0.2-1.1-0.3-1.7c-0.1-0.5-0.1-1-0.2-1.4c-0.1-0.6-0.1-1.3-0.1-1.9c0-0.4,0-0.9,0-1.3
		c0,0,0-0.1,0-0.1c0,0.1,0,0.3,0,0.4c0,0.5,0,1.1-0.1,1.6c0,0.5-0.1,1-0.1,1.5c0,0.4-0.1,0.9-0.1,1.3c-0.1,0.7-0.2,1.4-0.3,2.1
		c-0.2,1.1-0.5,2.2-1,3.3c-0.4,0.8-0.8,1.6-1.3,2.3c-0.8,1-1.8,1.9-2.9,2.6c-0.8,0.5-1.6,0.8-2.5,1.1c-0.8,0.3-1.5,0.5-2.3,0.6
		c-0.5,0.1-1,0.2-1.5,0.3c-0.4,0.1-0.7,0.1-1.1,0.1c-0.4,0-0.8,0.1-1.2,0.1c-0.3,0-0.6,0-0.9,0.1c-0.4,0-0.8,0-1.3,0.1
		c-0.3,0-0.5,0-0.8,0c-0.1,0-0.1,0-0.2,0c0,0,0.1,0,0.1,0c0.4,0,0.8,0,1.2,0c0.4,0,0.7,0,1.1,0.1c0.3,0,0.5,0,0.8,0.1
		c0.3,0,0.6,0.1,0.9,0.1c0.2,0,0.4,0,0.7,0.1c0.3,0,0.6,0.1,0.9,0.1c0.5,0.1,0.9,0.2,1.4,0.3c1.1,0.3,2.2,0.6,3.3,1.1
		c0.8,0.4,1.6,0.8,2.4,1.4c1,0.8,1.8,1.7,2.4,2.8c0.5,0.8,0.8,1.7,1.1,2.6c0.2,0.7,0.4,1.5,0.6,2.2c0.1,0.5,0.2,1.1,0.3,1.6
		c0.1,0.4,0.1,0.8,0.1,1.2c0.1,0.6,0.1,1.1,0.1,1.7c0,0.7,0.1,1.3,0.1,2C2380.7,290.8,2380.7,290.9,2380.7,290.9
		C2380.7,290.9,2380.7,290.9,2380.7,290.9z"/>
	<path class="st0" d="M1922.6,329.2c0-0.1,0-0.3,0-0.4c0-0.3,0-0.5,0-0.8c0-0.3,0-0.5,0.1-0.8c0-0.3,0.1-0.5,0.1-0.8
		c0.1-0.7,0.3-1.4,0.5-2.1c0.2-0.6,0.4-1.1,0.7-1.6c0.6-0.9,1.3-1.7,2.3-2.2c0.5-0.3,1-0.5,1.5-0.6c0.4-0.1,0.9-0.2,1.3-0.3
		c0.3-0.1,0.5-0.1,0.8-0.1c0.2,0,0.4-0.1,0.7-0.1c0.3,0,0.5,0,0.8-0.1c0.2,0,0.4,0,0.6,0c0.2,0,0.4,0,0.6,0c0,0,0,0-0.1,0
		c0,0-0.1,0-0.1,0c-0.3,0-0.6,0-0.9,0c-0.2,0-0.5,0-0.7-0.1c-0.2,0-0.3,0-0.5,0c-0.2,0-0.4-0.1-0.6-0.1c-0.3,0-0.5-0.1-0.8-0.1
		c-0.7-0.1-1.4-0.3-2-0.6c-0.5-0.2-1-0.5-1.5-0.8c-0.6-0.5-1.2-1.1-1.6-1.7c-0.3-0.5-0.5-1-0.7-1.5c-0.1-0.4-0.3-0.9-0.3-1.3
		c-0.1-0.3-0.1-0.7-0.2-1c0-0.3-0.1-0.5-0.1-0.8c0-0.4-0.1-0.7-0.1-1.1c0-0.2,0-0.5,0-0.7c0,0,0,0,0-0.1c0,0.1,0,0.2,0,0.2
		c0,0.3,0,0.6,0,0.9c0,0.3,0,0.6-0.1,0.8c0,0.3-0.1,0.5-0.1,0.8c0,0.4-0.1,0.8-0.2,1.2c-0.1,0.6-0.3,1.3-0.6,1.9
		c-0.2,0.5-0.4,0.9-0.8,1.3c-0.5,0.6-1,1.1-1.6,1.5c-0.5,0.3-0.9,0.5-1.4,0.6c-0.4,0.1-0.9,0.3-1.3,0.4c-0.3,0.1-0.6,0.1-0.9,0.1
		c-0.2,0-0.4,0.1-0.6,0.1c-0.2,0-0.4,0-0.7,0.1c-0.2,0-0.3,0-0.5,0c-0.2,0-0.5,0-0.7,0c-0.1,0-0.3,0-0.4,0c0,0-0.1,0-0.1,0
		c0,0,0.1,0,0.1,0c0.2,0,0.4,0,0.7,0c0.2,0,0.4,0,0.6,0c0.2,0,0.3,0,0.5,0c0.2,0,0.3,0,0.5,0.1c0.1,0,0.3,0,0.4,0
		c0.2,0,0.4,0,0.5,0.1c0.3,0,0.5,0.1,0.8,0.2c0.6,0.1,1.3,0.3,1.9,0.6c0.5,0.2,0.9,0.5,1.4,0.8c0.6,0.4,1,1,1.4,1.6
		c0.3,0.5,0.5,1,0.7,1.5c0.1,0.4,0.2,0.8,0.3,1.3c0.1,0.3,0.1,0.6,0.2,0.9c0,0.2,0.1,0.5,0.1,0.7c0,0.3,0.1,0.6,0.1,1
		c0,0.4,0,0.8,0,1.2C1922.6,329.1,1922.6,329.2,1922.6,329.2C1922.6,329.2,1922.6,329.2,1922.6,329.2z"/>
	<path class="st0" d="M1921.6,288.4c0-0.1,0-0.2,0-0.3c0-0.2,0-0.4,0-0.6c0-0.2,0-0.4,0-0.6c0-0.2,0-0.4,0.1-0.6
		c0.1-0.5,0.2-1.1,0.4-1.6c0.1-0.4,0.3-0.8,0.5-1.2c0.4-0.7,1-1.3,1.7-1.7c0.4-0.2,0.7-0.4,1.1-0.5c0.3-0.1,0.7-0.2,1-0.2
		c0.2,0,0.4-0.1,0.6-0.1c0.2,0,0.3,0,0.5-0.1c0.2,0,0.4,0,0.6,0c0.2,0,0.3,0,0.5,0c0.2,0,0.3,0,0.5,0c0,0,0,0,0,0c0,0-0.1,0-0.1,0
		c-0.2,0-0.4,0-0.6,0c-0.2,0-0.3,0-0.5,0c-0.1,0-0.2,0-0.4,0c-0.2,0-0.3,0-0.5-0.1c-0.2,0-0.4-0.1-0.6-0.1c-0.5-0.1-1-0.2-1.5-0.5
		c-0.4-0.2-0.8-0.4-1.1-0.6c-0.5-0.4-0.9-0.8-1.2-1.3c-0.2-0.4-0.4-0.7-0.5-1.1c-0.1-0.3-0.2-0.6-0.3-1c-0.1-0.2-0.1-0.5-0.1-0.7
		c0-0.2-0.1-0.4-0.1-0.6c0-0.3,0-0.5-0.1-0.8c0-0.2,0-0.4,0-0.5c0,0,0,0,0,0c0,0.1,0,0.1,0,0.2c0,0.2,0,0.5,0,0.7c0,0.2,0,0.4,0,0.6
		c0,0.2,0,0.4-0.1,0.6c0,0.3-0.1,0.6-0.1,0.9c-0.1,0.5-0.2,1-0.4,1.4c-0.2,0.4-0.3,0.7-0.6,1c-0.3,0.4-0.8,0.8-1.2,1.1
		c-0.3,0.2-0.7,0.4-1.1,0.5c-0.3,0.1-0.7,0.2-1,0.3c-0.2,0-0.4,0.1-0.6,0.1c-0.2,0-0.3,0-0.5,0.1c-0.2,0-0.3,0-0.5,0
		c-0.1,0-0.2,0-0.4,0c-0.2,0-0.4,0-0.5,0c-0.1,0-0.2,0-0.3,0c0,0-0.1,0-0.1,0c0,0,0,0,0.1,0c0.2,0,0.3,0,0.5,0c0.2,0,0.3,0,0.5,0
		c0.1,0,0.2,0,0.3,0c0.1,0,0.3,0,0.4,0c0.1,0,0.2,0,0.3,0c0.1,0,0.3,0,0.4,0.1c0.2,0,0.4,0.1,0.6,0.1c0.5,0.1,1,0.3,1.4,0.5
		c0.4,0.2,0.7,0.4,1,0.6c0.4,0.3,0.8,0.7,1,1.2c0.2,0.3,0.4,0.7,0.5,1.1c0.1,0.3,0.2,0.6,0.2,1c0,0.2,0.1,0.5,0.1,0.7
		c0,0.2,0,0.3,0.1,0.5c0,0.2,0,0.5,0.1,0.7c0,0.3,0,0.6,0,0.9C1921.6,288.4,1921.6,288.4,1921.6,288.4
		C1921.6,288.4,1921.6,288.4,1921.6,288.4z"/>
</g>
<g id="Layer_2">
	<path class="st0" d="M874.7,551.5c-3.2,0-3.2,5,0,5C877.9,556.5,877.9,551.5,874.7,551.5z"/>
	<path class="st0" d="M755.7,508.2c-3.2,0-3.2,5,0,5C758.9,513.2,758.9,508.2,755.7,508.2z"/>
	<path class="st0" d="M678,613.2c-3.2,0-3.2,5,0,5C681.2,618.2,681.2,613.2,678,613.2z"/>
	<path class="st0" d="M777,473c-3.2,0-3.2,5,0,5C780.2,478,780.2,473,777,473z"/>
	<path class="st0" d="M641.7,751.2c-3.2,0-3.2,5,0,5C644.9,756.2,644.9,751.2,641.7,751.2z"/>
	<path class="st0" d="M567.7,714.7c-3.2,0-3.2,5,0,5C570.9,719.7,570.9,714.7,567.7,714.7z"/>
	<path class="st0" d="M632.7,625.2c-3.2,0-3.2,5,0,5C635.9,630.2,635.9,625.2,632.7,625.2z"/>
	<path class="st0" d="M576,487.2c-3.2,0-3.2,5,0,5C579.2,492.2,579.2,487.2,576,487.2z"/>
	<path class="st0" d="M823.3,126.8c-3.2,0-3.2,5,0,5C826.6,131.8,826.6,126.8,823.3,126.8z"/>
	<path class="st0" d="M605.3,205.2c-3.2,0-3.2,5,0,5C608.6,210.2,608.6,205.2,605.3,205.2z"/>
	<path class="st0" d="M679.3,331.8c-3.2,0-3.2,5,0,5C682.6,336.8,682.6,331.8,679.3,331.8z"/>
	<path class="st0" d="M1051,226.5c-3.2,0-3.2,5,0,5C1054.2,231.5,1054.2,226.5,1051,226.5z"/>
	<path class="st0" d="M1191,133.2c-3.2,0-3.2,5,0,5C1194.2,138.2,1194.2,133.2,1191,133.2z"/>
	<path class="st0" d="M822.5,50c-3.2,0-3.2,5,0,5C825.7,55,825.7,50,822.5,50z"/>
	<path class="st0" d="M697,62.6c-3.2,0-3.2,5,0,5C700.2,67.6,700.2,62.6,697,62.6z"/>
	<path class="st0" d="M1069.3,626.8c-3.2,0-3.2,5,0,5C1072.5,631.8,1072.5,626.8,1069.3,626.8z"/>
	<path class="st0" d="M1149,442.5c-3.2,0-3.2,5,0,5C1152.2,447.5,1152.2,442.5,1149,442.5z"/>
	<path class="st0" d="M1284,778.3c-3.2,0-3.2,5,0,5C1287.2,783.3,1287.2,778.3,1284,778.3z"/>
	<path class="st0" d="M1312.5,766.3c-3.2,0-3.2,5,0,5C1315.7,771.3,1315.7,766.3,1312.5,766.3z"/>
	<path class="st0" d="M1219,707.8c-3.2,0-3.2,5,0,5C1222.2,712.8,1222.2,707.8,1219,707.8z"/>
	<path class="st0" d="M1083,440c-3.2,0-3.2,5,0,5C1086.2,445,1086.2,440,1083,440z"/>
	<path class="st0" d="M1496.8,318c-3.2,0-3.2,5,0,5C1500,323,1500,318,1496.8,318z"/>
	<path class="st0" d="M1524.3,301.8c-3.2,0-3.2,5,0,5C1527.5,306.8,1527.5,301.8,1524.3,301.8z"/>
	<path class="st0" d="M1554,526c-3.2,0-3.2,5,0,5C1557.2,531,1557.2,526,1554,526z"/>
	<path class="st0" d="M1542,629.3c-3.2,0-3.2,5,0,5C1545.2,634.3,1545.2,629.3,1542,629.3z"/>
	<path class="st0" d="M1638,731.3c-3.2,0-3.2,5,0,5C1641.2,736.3,1641.2,731.3,1638,731.3z"/>
	<path class="st0" d="M1845,733.5c-3.2,0-3.2,5,0,5C1848.2,738.5,1848.2,733.5,1845,733.5z"/>
	<path class="st0" d="M1770,696.8c-3.2,0-3.2,5,0,5C1773.2,701.8,1773.2,696.8,1770,696.8z"/>
	<path class="st0" d="M1893,427.5c-3.2,0-3.2,5,0,5C1896.2,432.5,1896.2,427.5,1893,427.5z"/>
	<path class="st0" d="M1885.5,161.8c-3.2,0-3.2,5,0,5C1888.7,166.8,1888.7,161.8,1885.5,161.8z"/>
	<path class="st0" d="M2232,761.8c-3.2,0-3.2,5,0,5C2235.2,766.8,2235.2,761.8,2232,761.8z"/>
	<path class="st0" d="M2163,701.5c-3.2,0-3.2,5,0,5C2166.2,706.5,2166.2,701.5,2163,701.5z"/>
	<path class="st0" d="M1993.5,595c-3.2,0-3.2,5,0,5C1996.7,600,1996.7,595,1993.5,595z"/>
	<path class="st0" d="M1990.8,427.3c-3.2,0-3.2,5,0,5C1994,432.3,1994,427.3,1990.8,427.3z"/>
	<path class="st0" d="M2380.8,205.3c-3.2,0-3.2,5,0,5C2384,210.3,2384,205.3,2380.8,205.3z"/>
	<path class="st0" d="M2280.8,318c-3.2,0-3.2,5,0,5C2284,323,2284,318,2280.8,318z"/>
	<path class="st0" d="M2452.5,397.3c-3.2,0-3.2,5,0,5C2455.7,402.3,2455.7,397.3,2452.5,397.3z"/>
	<path class="st0" d="M2309.3,649.3c-3.2,0-3.2,5,0,5C2312.5,654.3,2312.5,649.3,2309.3,649.3z"/>
	<path class="st0" d="M2287.5,728.8c-3.2,0-3.2,5,0,5C2290.7,733.8,2290.7,728.8,2287.5,728.8z"/>
	<path class="st0" d="M388,628.5c-3.2,0-3.2,5,0,5C391.2,633.5,391.2,628.5,388,628.5z"/>
	<path class="st0" d="M436,301.5c-3.2,0-3.2,5,0,5C439.2,306.5,439.2,301.5,436,301.5z"/>
	<path class="st0" d="M254,479.5c-3.2,0-3.2,5,0,5C257.2,484.5,257.2,479.5,254,479.5z"/>
	<path class="st0" d="M276,499.5c-3.2,0-3.2,5,0,5C279.2,504.5,279.2,499.5,276,499.5z"/>
	<path class="st0" d="M222,765.5c-3.2,0-3.2,5,0,5C225.2,770.5,225.2,765.5,222,765.5z"/>
	<path class="st0" d="M348,767.5c-3.2,0-3.2,5,0,5C351.2,772.5,351.2,767.5,348,767.5z"/>
	<path class="st0" d="M376,747.5c-3.2,0-3.2,5,0,5C379.2,752.5,379.2,747.5,376,747.5z"/>
	<path class="st0" d="M2834,721.5c-3.2,0-3.2,5,0,5C2837.2,726.5,2837.2,721.5,2834,721.5z"/>
	<path class="st0" d="M2802,651.5c-3.2,0-3.2,5,0,5C2805.2,656.5,2805.2,651.5,2802,651.5z"/>
	<path class="st0" d="M2756,689.5c-3.2,0-3.2,5,0,5C2759.2,694.5,2759.2,689.5,2756,689.5z"/>
	<path class="st0" d="M2628,553.5c-3.2,0-3.2,5,0,5C2631.2,558.5,2631.2,553.5,2628,553.5z"/>
	<path class="st0" d="M2710,789.5c-3.2,0-3.2,5,0,5C2713.2,794.5,2713.2,789.5,2710,789.5z"/>
	<path class="st0" d="M2772,473.5c-3.2,0-3.2,5,0,5C2775.2,478.5,2775.2,473.5,2772,473.5z"/>
	<path class="st0" d="M918,785.5c-3.2,0-3.2,5,0,5C921.2,790.5,921.2,785.5,918,785.5z"/>
	<path class="st0" d="M698.1,706.6c-1.9,0-1.9,3,0,3C700.1,709.6,700.1,706.6,698.1,706.6z"/>
	<path class="st0" d="M917.1,637.6c-1.9,0-1.9,3,0,3C919,640.6,919.1,637.6,917.1,637.6z"/>
	<path class="st0" d="M953.1,651.1c-1.9,0-1.9,3,0,3C955,654.1,955.1,651.1,953.1,651.1z"/>
	<path class="st0" d="M986.1,628.6c-1.9,0-1.9,3,0,3C988,631.6,988,628.6,986.1,628.6z"/>
	<path class="st0" d="M1128.6,717.1c-1.9,0-1.9,3,0,3C1130.5,720.1,1130.5,717.1,1128.6,717.1z"/>
	<path class="st0" d="M1214.1,619.6c-1.9,0-1.9,3,0,3C1216,622.6,1216,619.6,1214.1,619.6z"/>
	<path class="st0" d="M927.6,378.1c-1.9,0-1.9,3,0,3C929.5,381.1,929.6,378.1,927.6,378.1z"/>
	<path class="st0" d="M806.1,318.1c-1.9,0-1.9,3,0,3C808.1,321.1,808.1,318.1,806.1,318.1z"/>
	<path class="st0" d="M645.6,313.6c-1.9,0-1.9,3,0,3C647.6,316.6,647.6,313.6,645.6,313.6z"/>
	<path class="st0" d="M822.6,159.1c-1.9,0-1.9,3,0,3C824.6,162.1,824.6,159.1,822.6,159.1z"/>
	<path class="st0" d="M849.6,109.6c-1.9,0-1.9,3,0,3C851.6,112.6,851.6,109.6,849.6,109.6z"/>
	<path class="st0" d="M810.6,67.6c-1.9,0-1.9,3,0,3C812.6,70.6,812.6,67.6,810.6,67.6z"/>
	<path class="st0" d="M930.5,61.1c-1.9,0-1.9,3,0,3C932.4,64.1,932.5,61.1,930.5,61.1z"/>
	<path class="st0" d="M951.6,130.6c-1.9,0-1.9,3,0,3C953.5,133.6,953.6,130.6,951.6,130.6z"/>
	<path class="st0" d="M1091.1,46.6c-1.9,0-1.9,3,0,3C1093,49.6,1093,46.6,1091.1,46.6z"/>
	<path class="st0" d="M1251.6,265.6c-1.9,0-1.9,3,0,3C1253.5,268.6,1253.5,265.6,1251.6,265.6z"/>
	<path class="st0" d="M1140.6,399.1c-1.9,0-1.9,3,0,3C1142.5,402.1,1142.5,399.1,1140.6,399.1z"/>
	<path class="st0" d="M1403,592c-1.9,0-1.9,3,0,3C1404.9,595,1404.9,592,1403,592z"/>
	<path class="st0" d="M1443.6,757.6c-1.9,0-1.9,3,0,3C1445.5,760.6,1445.5,757.6,1443.6,757.6z"/>
	<path class="st0" d="M1710.6,573.1c-1.9,0-1.9,3,0,3C1712.5,576.1,1712.5,573.1,1710.6,573.1z"/>
	<path class="st0" d="M1787.1,511.6c-1.9,0-1.9,3,0,3C1789,514.6,1789,511.6,1787.1,511.6z"/>
	<path class="st0" d="M1997.1,742.6c-1.9,0-1.9,3,0,3C1999,745.6,1999,742.6,1997.1,742.6z"/>
	<path class="st0" d="M2057.1,693.1c-1.9,0-1.9,3,0,3C2059,696.1,2059,693.1,2057.1,693.1z"/>
	<path class="st0" d="M1680.6,421.6c-1.9,0-1.9,3,0,3C1682.5,424.6,1682.5,421.6,1680.6,421.6z"/>
	<path class="st0" d="M1781.1,244.6c-1.9,0-1.9,3,0,3C1783,247.6,1783,244.6,1781.1,244.6z"/>
	<path class="st0" d="M2115.6,322.6c-1.9,0-1.9,3,0,3C2117.5,325.6,2117.5,322.6,2115.6,322.6z"/>
	<path class="st0" d="M359.1,462.1c-1.9,0-1.9,3,0,3C361.1,465.1,361.1,462.1,359.1,462.1z"/>
	<path class="st0" d="M198.7,640.6c-1.9,0-1.9,3,0,3C200.6,643.6,200.6,640.6,198.7,640.6z"/>
	<path class="st0" d="M2445.5,585.1c-1.9,0-1.9,3,0,3C2447.5,588.1,2447.5,585.1,2445.5,585.1z"/>
	<path class="st0" d="M2441,781.6c-1.9,0-1.9,3,0,3C2443,784.6,2443,781.6,2441,781.6z"/>
	<path class="st0" d="M2249.1,522.1c-1.9,0-1.9,3,0,3C2251,525.1,2251,522.1,2249.1,522.1z"/>
	<path class="st0" d="M2232.6,201.1c-1.9,0-1.9,3,0,3C2234.5,204.1,2234.5,201.1,2232.6,201.1z"/>
	<path class="st0" d="M2319.5,253.6c-1.9,0-1.9,3,0,3C2321.5,256.6,2321.5,253.6,2319.5,253.6z"/>
	<path class="st0" d="M2832.5,676.6c-1.9,0-1.9,3,0,3C2834.5,679.6,2834.5,676.6,2832.5,676.6z"/>
	<path class="st0" d="M2526.5,340.6c-1.9,0-1.9,3,0,3C2528.5,343.6,2528.5,340.6,2526.5,340.6z"/>
	<path class="st0" d="M2969,787.6c-1.9,0-1.9,3,0,3C2970.9,790.6,2971,787.6,2969,787.6z"/>
	<g>
		<g>
			<path class="st0" d="M1412,204.2c1.9,0,1.9-3,0-3C1410.1,201.2,1410.1,204.2,1412,204.2L1412,204.2z"/>
		</g>
	</g>
	<g>
		<g>
			<path class="st0" d="M1436.7,222.2c1.9,0,1.9-3,0-3C1434.8,219.2,1434.7,222.2,1436.7,222.2L1436.7,222.2z"/>
		</g>
	</g>
</g>
</svg>
