<svg xmlns="http://www.w3.org/2000/svg" width="3000" height="800" viewBox="0 0 3000 800"><defs><style>.a,.b{fill:#fff;}.a{opacity:0.5;}</style></defs><title>footer-bg-swirls</title><path class="a" d="M510.631,414.7409C315.5983,494.49,154.84,576.1009,120.3416,738.0928,80.9764,922.9381,272.1005,1025.21,272.1005,1025.21S1214.0534,890.83,1274.05,890.83c-6-105.8822-33.27-234.4877-157.4921-275.0987C960.5661,564.7334,917.8608,714.9,736.37,731.3991c-85.9792,7.8163-164.4115-51.3669-158.95-130.4935,10.457-151.4924,263.1518-235.6622,566.1366-226.6627S1452.5415,638.23,1626.5328,713.226s302.9848,34.4982,379.481,56.9971S2105.0089,890.83,2105.0089,890.83H2970.631s-97-373-305-419c-212.6776-47.0344-235.2049,152.6577-341.6331,145.4013-65.9967-4.5-77.58-80.9718-169.5911-97.2632-143.8932-25.4777-242.202,66.5519-386.8811,64.2648-147.79-2.3362-210.72-125.365-388.48-223.4888C1191.5545,257.2488,705.6637,334.9919,510.631,414.7409Z"/><path class="a" d="M1563.5359,101.2566C1485.54,146.2543,1464.631,388.83,1616.809,417.83c119.8526,22.84,263.4412-111.1225,421.822-86,145,23,149,133,250,140,100.1639,6.9421,211.59-66.4391,227.3573-160.8478C2536.9873,185.2524,2360.631,68.83,2181.631,52.83S1641.532,56.2588,1563.5359,101.2566Z"/><path class="a" d="M771.631,21.83s26,49,73,53,256-1,235,129-199.5271,7.5277-354,28c-83,11-74.9759,85.8947-170.9759,83.8947S391.631,194.83,391.631,194.83,559.5713,98.56,602.5713,75.56c67,31,185.06,139.6029,227.56,97.52,19.5-24.5833.0834-48.8333-41.1666-55.9166C731.25,107.2523,674.1383,95.2325,656.631,56.83,639.43,15.0844,771.631,21.83,771.631,21.83Z"/><path class="b" d="M1638.6676,132.755c-81.1314,29.9985-102.38,130.32-21.3846,170.9914,58.3969,29.3237,184.8764,4.5,265.8723-29.9985s201.6863-51.2785,274.4863-29.9985c97.4951,28.4986,85.4957,113.9943,172.4914,113.9943,61.4969,0,100.8971-41.9007,100.495-112.4943-.4367-76.6541-104.9948-136.4932-202.49-160.492S1719.7989,102.7565,1638.6676,132.755Z"/><path class="b" d="M1752.631,615.83s68.0346,54.9517,145,48c103.3334-9.3333,136-74.8478,221-62.9239s127.57,91.2861,199,92.9239c126.3609,2.8973,187.3455-144.4366,335.3455-122.4366s239,275,100,401S2378.9973,1036.27,2319.631,997.83c-174-112.6666-136-286.6666-284.6666-298.6666-85.2227-6.879-87.3334,22-169.3334,3.6666C1814.0925,691.3067,1775.631,664.83,1752.631,615.83Z"/><path class="b" d="M1172.9644,994.4962c-10.6667-58.6667,37.3333-214.6667-60.6667-256s-143.487,51.1827-313.7235,81.2244c-101.9949,17.9991-261.2334-12.4-292.4854-107.9946C480.59,633.73,480.59,522.7355,665.0809,404.2414c-265.4868,94.4953-432.5838,196.6129-431.9784,359.982.4662,125.825,138.3217,242.9382,182.9908,241.4879C518.76,1002.378,1172.9644,994.4962,1172.9644,994.4962Z"/></svg>