<svg xmlns="http://www.w3.org/2000/svg" width="3000" height="880" viewBox="0 0 3000 880"><defs><style>.a{fill:#fff;}</style></defs><title>hero-stars</title><path class="a" d="M2002.65,240.9789c.01.2548.02.51.0309.7645.0194.452.0327.9045.0613,1.356q.0441.6955.1138,1.3895c.0443.4459.0951.8915.1575,1.3353a21.3173,21.3173,0,0,0,.8442,3.7379,13.6745,13.6745,0,0,0,1.2481,2.7646,10.6114,10.6114,0,0,0,4.02,3.8686,14.4407,14.4407,0,0,0,2.6755,1.1341,20.54,20.54,0,0,0,2.2935.5736c.4773.0921.9565.1721,1.4381.2369q.5682.0765,1.1389.1327.6576.0652,1.3167.1131c.3648.0262.73.0419,1.0959.0575.3613.0155.7229.0252,1.0964.0378a.21.21,0,0,1-.1012.0237c-.0747.0035-.15.005-.2243.0079-.5027.0192-1.0056.033-1.5079.06-.4025.0213-.8044.0559-1.2062.0888-.29.0237-.58.05-.8686.0833-.3507.0408-.7.09-1.05.1371-.4488.0609-.8945.14-1.3384.2286a18.1642,18.1642,0,0,0-3.5358,1.0568,12.0573,12.0573,0,0,0-2.5452,1.445,10.4421,10.4421,0,0,0-2.727,3.048,13.55,13.55,0,0,0-1.1938,2.6407,19.3683,19.3683,0,0,0-.6016,2.2645c-.1168.5683-.2123,1.14-.2905,1.7147q-.0974.7152-.1607,1.4344c-.0563.627-.1,1.2546-.1251,1.8836q-.0254.6413-.05,1.2825a.3851.3851,0,0,1-.01.0986c-.0031-.1386-.005-.2773-.01-.416-.018-.5468-.0307-1.0938-.0575-1.64q-.0359-.7332-.0984-1.4651c-.0375-.4424-.0881-.8839-.1385-1.3251-.079-.6908-.19-1.3767-.33-2.0581a16.79,16.79,0,0,0-.998-3.2894,11.1071,11.1071,0,0,0-1.3253-2.3124,9.8494,9.8494,0,0,0-2.8863-2.5634,13.2089,13.2089,0,0,0-2.5-1.1307,19.38,19.38,0,0,0-2.332-.6221q-.7446-.1529-1.497-.261c-.3536-.0507-.7083-.0942-1.0634-.1336q-.5762-.0639-1.1538-.1134c-.2856-.0248-.572-.0423-.8584-.0581q-.6351-.0349-1.27-.0622c-.2534-.0107-.5071-.013-.7606-.0206a.69.69,0,0,1-.1849-.0288c.046-.0016.0919-.0033.1379-.0047.3907-.0113.7815-.0184,1.1719-.035.3737-.0159.7472-.04,1.12-.0635.27-.0169.5393-.0353.8084-.0589.2938-.0258.5873-.0568.8806-.0885.2189-.0236.4377-.0493.6558-.0788.3087-.0418.6175-.0835.925-.133q.6949-.1119,1.3823-.2643a16.9936,16.9936,0,0,0,3.2873-1.059,11.28,11.28,0,0,0,2.3631-1.4122,9.8672,9.8672,0,0,0,2.4056-2.7591,12.89,12.89,0,0,0,1.1411-2.556,18.9261,18.9261,0,0,0,.58-2.2445q.1583-.7992.2642-1.6066c.052-.3995.0934-.8.1354-1.2013.0583-.5565.0954-1.1146.1265-1.6732q.0561-1.0105.073-2.0225c.0014-.0795.0046-.1591.0069-.2387Z"/><path class="a" d="M2897.64,27.9267c.01.2548.02.51.0308.7645.0194.452.0327.9045.0614,1.356q.0441.6956.1138,1.3895c.0443.4459.0951.8916.1575,1.3353a21.3173,21.3173,0,0,0,.8442,3.7379,13.6745,13.6745,0,0,0,1.2481,2.7646,10.6114,10.6114,0,0,0,4.02,3.8686,14.4426,14.4426,0,0,0,2.6754,1.1341,20.5248,20.5248,0,0,0,2.2936.5736c.4773.0921.9565.1721,1.4381.2369q.5682.0765,1.1389.1327.6574.0653,1.3167.1131c.3648.0262.73.0419,1.0959.0575.3613.0155.7228.0252,1.0964.0378a.2089.2089,0,0,1-.1012.0237c-.0747.0035-.15.005-.2243.0079-.5027.0192-1.0056.0331-1.5079.06-.4025.0213-.8044.0559-1.2062.0888-.29.0238-.58.05-.8686.0833-.3507.0408-.7.09-1.05.1371-.4488.0609-.8946.14-1.3384.2286a18.1642,18.1642,0,0,0-3.5358,1.0568,12.0573,12.0573,0,0,0-2.5452,1.445,10.442,10.442,0,0,0-2.727,3.048,13.55,13.55,0,0,0-1.1938,2.6407,19.3683,19.3683,0,0,0-.6016,2.2645c-.1169.5683-.2123,1.14-.2905,1.7147q-.0973.7152-.1607,1.4344c-.0563.627-.1,1.2546-.1251,1.8836q-.0254.6413-.05,1.2825a.3909.3909,0,0,1-.01.0987c-.0031-.1387-.005-.2774-.01-.4161-.0181-.5468-.0307-1.0938-.0575-1.64q-.0359-.7332-.0985-1.465c-.0374-.4425-.088-.8839-.1384-1.3252-.079-.6908-.19-1.3767-.33-2.0581a16.7985,16.7985,0,0,0-.998-3.2894,11.1116,11.1116,0,0,0-1.3253-2.3124,9.8494,9.8494,0,0,0-2.8863-2.5634,13.2085,13.2085,0,0,0-2.5-1.1306,19.3621,19.3621,0,0,0-2.332-.6222q-.7446-.1529-1.497-.261c-.3536-.0507-.7084-.0942-1.0634-.1336q-.5762-.0639-1.1538-.1134c-.2856-.0248-.572-.0423-.8584-.0581q-.6351-.0349-1.2705-.0622c-.2534-.0107-.5071-.013-.7606-.0206a.686.686,0,0,1-.1849-.0288c.046-.0016.0919-.0033.1379-.0046.3906-.0114.7815-.0185,1.1719-.0351.3737-.0159.7471-.04,1.12-.0635.27-.0169.5393-.0353.8083-.0589.2939-.0258.5874-.0568.8807-.0885.2189-.0236.4376-.0493.6558-.0788.3087-.0417.6175-.0835.925-.133q.6949-.1119,1.3823-.2643a16.9936,16.9936,0,0,0,3.2873-1.059,11.2836,11.2836,0,0,0,2.3631-1.4121,9.8656,9.8656,0,0,0,2.4055-2.7592,12.8846,12.8846,0,0,0,1.1412-2.556,18.9454,18.9454,0,0,0,.58-2.2445q.1582-.7992.2642-1.6065c.052-.4.0934-.8006.1354-1.2014.0583-.5565.0954-1.1146.1265-1.6732q.0561-1.0105.073-2.0224c.0014-.08.0045-.1592.0069-.2387Z"/><path class="a" d="M371.64,371.56c.01.2549.02.51.0308.7645.0194.452.0327.9045.0614,1.356q.0441.6956.1138,1.3895c.0443.4459.0951.8916.1575,1.3353a21.3173,21.3173,0,0,0,.8442,3.7379,13.6745,13.6745,0,0,0,1.2481,2.7646,10.6114,10.6114,0,0,0,4.02,3.8686,14.4426,14.4426,0,0,0,2.6754,1.1341,20.5248,20.5248,0,0,0,2.2936.5736c.4773.0921.9565.1721,1.4381.237q.5682.0763,1.1389.1326.6575.0652,1.3167.1132c.3648.0261.73.0418,1.0959.0574.3613.0155.7228.0252,1.0964.0379a.21.21,0,0,1-.1012.0236c-.0747.0035-.15.005-.2243.0079-.5027.0192-1.0056.0331-1.5079.06-.4025.0213-.8044.0559-1.2062.0888-.29.0238-.58.05-.8686.0833-.3507.0408-.7.09-1.05.1371-.4488.061-.8946.14-1.3384.2286a18.1711,18.1711,0,0,0-3.5358,1.0568,12.066,12.066,0,0,0-2.5452,1.445,10.442,10.442,0,0,0-2.727,3.048,13.55,13.55,0,0,0-1.1938,2.6407,19.3683,19.3683,0,0,0-.6016,2.2645c-.1169.5683-.2123,1.14-.2905,1.7147q-.0973.7152-.1607,1.4344c-.0563.627-.1,1.2547-.1251,1.8836q-.0253.6413-.0495,1.2825a.39.39,0,0,1-.01.0987c-.0031-.1387-.005-.2774-.01-.4161-.0181-.5468-.0307-1.0938-.0575-1.64q-.0358-.7332-.0985-1.465c-.0374-.4425-.088-.8839-.1384-1.3252-.079-.6908-.19-1.3767-.33-2.058a16.7974,16.7974,0,0,0-.998-3.29,11.1116,11.1116,0,0,0-1.3253-2.3124,9.8494,9.8494,0,0,0-2.8863-2.5634,13.2085,13.2085,0,0,0-2.5-1.1306,19.3621,19.3621,0,0,0-2.332-.6222q-.7446-.1529-1.497-.261c-.3536-.0507-.7084-.0942-1.0634-.1336q-.5762-.0639-1.1538-.1134c-.2856-.0247-.572-.0423-.8584-.0581q-.6351-.035-1.2705-.0621c-.2534-.0108-.5071-.0131-.7606-.0207a.686.686,0,0,1-.1849-.0288c.046-.0015.0919-.0033.1379-.0046.3906-.0114.7815-.0185,1.1719-.0351.3737-.0158.7471-.04,1.12-.0635.27-.0169.5393-.0353.8083-.0589.2939-.0258.5874-.0568.8807-.0885.2189-.0236.4376-.0493.6558-.0788.3087-.0417.6175-.0835.925-.133q.695-.1119,1.3823-.2643a16.9867,16.9867,0,0,0,3.2873-1.059,11.2836,11.2836,0,0,0,2.3631-1.4121,9.8656,9.8656,0,0,0,2.4055-2.7592,12.8821,12.8821,0,0,0,1.1412-2.556,18.94,18.94,0,0,0,.58-2.2445q.1583-.7992.2642-1.6065c.052-.4.0934-.8006.1354-1.2014.0583-.5565.0954-1.1146.1265-1.6732q.0561-1.0105.073-2.0224c.0014-.08.0045-.1592.0069-.2387Z"/><path class="a" d="M1253.64,62.9267c.01.2548.02.51.0308.7645.0194.452.0327.9045.0614,1.356q.0441.6955.1138,1.3895c.0443.4459.0951.8916.1575,1.3353a21.3173,21.3173,0,0,0,.8442,3.7379,13.6745,13.6745,0,0,0,1.2481,2.7646,10.6114,10.6114,0,0,0,4.02,3.8686,14.4426,14.4426,0,0,0,2.6754,1.1341,20.5248,20.5248,0,0,0,2.2936.5736c.4773.0921.9565.1721,1.4381.2369q.5682.0765,1.1389.1327.6574.0653,1.3167.1131c.3648.0262.73.0419,1.0959.0575.3613.0155.7228.0252,1.0964.0378a.2089.2089,0,0,1-.1012.0237c-.0747.0035-.15.005-.2243.0079-.5027.0192-1.0056.0331-1.5079.06-.4025.0213-.8044.0559-1.2062.0888-.29.0238-.58.05-.8686.0833-.3507.0408-.7005.09-1.05.1371-.4488.0609-.8946.14-1.3384.2286a18.1642,18.1642,0,0,0-3.5358,1.0568,12.0573,12.0573,0,0,0-2.5452,1.445,10.442,10.442,0,0,0-2.727,3.048,13.55,13.55,0,0,0-1.1938,2.6407,19.3683,19.3683,0,0,0-.6016,2.2645c-.1169.5683-.2123,1.14-.2905,1.7147q-.0974.7152-.1607,1.4344c-.0563.627-.1,1.2546-.1251,1.8836q-.0253.6412-.0495,1.2825a.3909.3909,0,0,1-.01.0987c-.0031-.1387-.005-.2774-.01-.4161-.0181-.5468-.0307-1.0938-.0575-1.64q-.0359-.7332-.0985-1.465c-.0374-.4425-.088-.8839-.1384-1.3252-.079-.6908-.19-1.3767-.33-2.0581a16.7985,16.7985,0,0,0-.998-3.2894,11.1116,11.1116,0,0,0-1.3253-2.3124,9.8494,9.8494,0,0,0-2.8863-2.5634,13.2085,13.2085,0,0,0-2.5-1.1306,19.3621,19.3621,0,0,0-2.332-.6222q-.7446-.1529-1.497-.261c-.3536-.0507-.7084-.0942-1.0634-.1336q-.5762-.0639-1.1538-.1134c-.2856-.0248-.572-.0423-.8584-.0581q-.6351-.0349-1.2705-.0622c-.2534-.0107-.5071-.013-.7606-.0206a.686.686,0,0,1-.1849-.0288c.046-.0016.0919-.0033.1379-.0046.3906-.0114.7815-.0185,1.1719-.0351.3737-.0159.7471-.04,1.1205-.0635.27-.0169.5393-.0353.8083-.0589.2939-.0258.5874-.0568.8807-.0885.2189-.0236.4376-.0493.6558-.0788.3087-.0417.6175-.0835.925-.133q.695-.1119,1.3823-.2643a16.9936,16.9936,0,0,0,3.2873-1.059,11.2836,11.2836,0,0,0,2.3631-1.4121,9.8656,9.8656,0,0,0,2.4055-2.7592,12.8846,12.8846,0,0,0,1.1412-2.556,18.9454,18.9454,0,0,0,.58-2.2445q.1582-.7992.2642-1.6065c.052-.4.0934-.8006.1354-1.2014.0583-.5565.0954-1.1146.1265-1.6732q.0561-1.0105.073-2.0224c.0014-.08.0045-.1592.0069-.2387Z"/><path class="a" d="M1665.64,482.31c.01.2549.02.51.0308.7645.0194.452.0327.9045.0614,1.356q.0441.6956.1138,1.3895c.0443.4459.0951.8916.1575,1.3353a21.3173,21.3173,0,0,0,.8442,3.7379,13.6745,13.6745,0,0,0,1.2481,2.7646,10.6114,10.6114,0,0,0,4.02,3.8686,14.4426,14.4426,0,0,0,2.6754,1.1341,20.5248,20.5248,0,0,0,2.2936.5736c.4773.0921.9565.1721,1.4381.237q.5682.0763,1.1389.1326.6574.0652,1.3167.1132c.3648.0261.73.0418,1.0959.0574.3613.0155.7228.0252,1.0964.0379a.21.21,0,0,1-.1012.0236c-.0747.0035-.15.005-.2243.0079-.5027.0192-1.0056.0331-1.5079.06-.4025.0213-.8044.0559-1.2062.0888-.29.0238-.58.05-.8686.0833-.3507.0408-.7005.09-1.05.1371-.4488.061-.8946.14-1.3384.2286a18.1711,18.1711,0,0,0-3.5358,1.0568,12.066,12.066,0,0,0-2.5452,1.445,10.442,10.442,0,0,0-2.727,3.048,13.55,13.55,0,0,0-1.1938,2.6407,19.3683,19.3683,0,0,0-.6016,2.2645c-.1169.5683-.2123,1.14-.2905,1.7147q-.0974.7152-.1607,1.4344c-.0563.627-.1,1.2547-.1251,1.8836q-.0253.6413-.0495,1.2825a.39.39,0,0,1-.01.0987c-.0031-.1387-.005-.2774-.01-.4161-.0181-.5468-.0307-1.0938-.0575-1.64q-.0359-.7332-.0985-1.465c-.0374-.4425-.088-.8839-.1384-1.3252-.079-.6908-.19-1.3767-.33-2.058a16.7974,16.7974,0,0,0-.998-3.29,11.1116,11.1116,0,0,0-1.3253-2.3124,9.8494,9.8494,0,0,0-2.8863-2.5634,13.2085,13.2085,0,0,0-2.5-1.1306,19.3621,19.3621,0,0,0-2.332-.6222q-.7446-.1529-1.497-.261c-.3536-.0507-.7084-.0942-1.0634-.1336q-.5762-.0639-1.1538-.1134c-.2856-.0247-.572-.0423-.8584-.0581q-.6351-.035-1.2705-.0621c-.2534-.0108-.5071-.0131-.7606-.0207a.686.686,0,0,1-.1849-.0288c.046-.0015.0919-.0033.1379-.0046.3906-.0114.7815-.0185,1.1719-.0351.3737-.0158.7471-.04,1.1205-.0635.27-.0169.5393-.0353.8083-.0589.2939-.0258.5874-.0568.8807-.0885.2189-.0236.4376-.0493.6558-.0788.3087-.0417.6175-.0835.925-.133q.695-.1119,1.3823-.2643a16.9867,16.9867,0,0,0,3.2873-1.059,11.2836,11.2836,0,0,0,2.3631-1.4121,9.8656,9.8656,0,0,0,2.4055-2.7592,12.8821,12.8821,0,0,0,1.1412-2.556,18.94,18.94,0,0,0,.58-2.2445q.1582-.7992.2642-1.6065c.052-.4.0934-.8006.1354-1.2014.0583-.5565.0954-1.1146.1265-1.6732q.0561-1.0105.073-2.0224c.0014-.08.0045-.1592.0069-.2387Z"/><path class="a" d="M869.7578,269.2589c.01.2548.02.51.0308.7645.0194.452.0327.9045.0613,1.356q.0441.6956.1138,1.3895c.0444.4459.0951.8916.1575,1.3353a21.3086,21.3086,0,0,0,.8443,3.7379,13.6687,13.6687,0,0,0,1.248,2.7646,10.6114,10.6114,0,0,0,4.02,3.8686,14.4407,14.4407,0,0,0,2.6755,1.1341,20.5138,20.5138,0,0,0,2.2936.5736c.4772.0921.9565.1721,1.4381.2369q.568.0765,1.1389.1327.6575.0652,1.3166.1131c.3648.0262.7305.0419,1.0959.0575.3613.0155.7229.0252,1.0964.0378a.2088.2088,0,0,1-.1011.0237c-.0748.0035-.15.005-.2244.0079-.5027.0192-1.0056.0331-1.5079.06-.4025.0213-.8043.0559-1.2061.0888-.29.0238-.58.05-.8687.0833-.3507.0408-.7.09-1.05.1371-.4487.0609-.8945.14-1.3384.2286a18.1633,18.1633,0,0,0-3.5357,1.0568,12.058,12.058,0,0,0-2.5453,1.445,10.4416,10.4416,0,0,0-2.7269,3.048,13.5565,13.5565,0,0,0-1.1939,2.6407,19.3683,19.3683,0,0,0-.6016,2.2645c-.1168.5683-.2123,1.14-.29,1.7147q-.0974.7152-.1606,1.4344c-.0563.627-.1,1.2546-.1251,1.8836q-.0254.6413-.05,1.2825a.3819.3819,0,0,1-.01.0987c-.0031-.1387-.005-.2774-.01-.4161-.0181-.5468-.0308-1.0938-.0575-1.64q-.036-.7332-.0985-1.465c-.0375-.4425-.0881-.8839-.1385-1.3252-.0789-.6908-.19-1.3767-.33-2.0581a16.7988,16.7988,0,0,0-.9981-3.2894,11.1067,11.1067,0,0,0-1.3252-2.3124,9.8519,9.8519,0,0,0-2.8863-2.5634,13.2161,13.2161,0,0,0-2.5-1.1307,19.38,19.38,0,0,0-2.332-.6221q-.7446-.1529-1.497-.261c-.3536-.0507-.7083-.0942-1.0634-.1336q-.576-.0639-1.1537-.1134c-.2857-.0248-.5721-.0423-.8585-.0581q-.635-.035-1.27-.0622c-.2533-.0107-.507-.013-.7605-.0206a.6873.6873,0,0,1-.185-.0288c.046-.0016.092-.0033.1379-.0046.3907-.0114.7815-.0185,1.1719-.0351.3738-.0159.7472-.04,1.1206-.0635.27-.0169.5392-.0353.8083-.0589.2939-.0258.5873-.0568.8806-.0885.2189-.0236.4377-.0493.6558-.0788.3088-.0417.6176-.0835.925-.133q.6951-.1119,1.3824-.2643a16.998,16.998,0,0,0,3.2873-1.059,11.2855,11.2855,0,0,0,2.363-1.4121,9.866,9.866,0,0,0,2.4056-2.7592,12.89,12.89,0,0,0,1.1411-2.556,18.9261,18.9261,0,0,0,.58-2.2445q.1583-.7992.2642-1.6065c.052-.4.0935-.8006.1354-1.2014.0583-.5565.0955-1.1146.1265-1.6732q.0561-1.0105.0731-2.0224c.0014-.08.0045-.1592.0068-.2387Z"/><path class="a" d="M2492.64,202.9031c.01.2548.02.51.0308.7644.0194.4521.0327.9046.0614,1.3561q.0441.6956.1138,1.3895c.0443.4459.0951.8915.1575,1.3353a21.3173,21.3173,0,0,0,.8442,3.7379,13.6745,13.6745,0,0,0,1.2481,2.7646,10.61,10.61,0,0,0,4.02,3.8685,14.4362,14.4362,0,0,0,2.6754,1.1342,20.5467,20.5467,0,0,0,2.2936.5736c.4773.0921.9565.1721,1.4381.2369q.5682.0765,1.1389.1327.6574.0652,1.3167.1131c.3648.0262.73.0418,1.0959.0575.3613.0155.7228.0252,1.0964.0378a.21.21,0,0,1-.1012.0237c-.0747.0034-.15.005-.2243.0079-.5027.0192-1.0056.033-1.5079.06-.4025.0213-.8044.0559-1.2062.0888-.29.0237-.58.05-.8686.0833-.3507.0408-.7.09-1.05.1371-.4488.0609-.8946.14-1.3384.2286a18.1709,18.1709,0,0,0-3.5358,1.0567,12.066,12.066,0,0,0-2.5452,1.445,10.4423,10.4423,0,0,0-2.727,3.0481,13.55,13.55,0,0,0-1.1938,2.6407,19.3683,19.3683,0,0,0-.6016,2.2645c-.1169.5683-.2123,1.14-.2905,1.7147q-.0973.7152-.1607,1.4344c-.0563.627-.1,1.2546-.1251,1.8836q-.0254.6413-.05,1.2825a.39.39,0,0,1-.01.0986c-.0031-.1386-.005-.2774-.01-.416-.0181-.5468-.0307-1.0939-.0575-1.64q-.0359-.7332-.0985-1.4651c-.0374-.4424-.088-.8839-.1384-1.3251-.079-.6908-.19-1.3767-.33-2.0581a16.7944,16.7944,0,0,0-.998-3.2894,11.109,11.109,0,0,0-1.3253-2.3124,9.8494,9.8494,0,0,0-2.8863-2.5634,13.2026,13.2026,0,0,0-2.5-1.1307,19.3617,19.3617,0,0,0-2.332-.6221q-.7446-.1529-1.497-.261c-.3536-.0507-.7084-.0942-1.0634-.1336q-.5762-.0639-1.1538-.1134c-.2856-.0248-.572-.0423-.8584-.0581q-.6351-.035-1.2705-.0622c-.2534-.0107-.5071-.013-.7606-.0206a.69.69,0,0,1-.1849-.0288c.046-.0016.0919-.0033.1379-.0047.3906-.0113.7815-.0184,1.1719-.035.3737-.0159.7471-.04,1.12-.0635.27-.0169.5393-.0353.8083-.0589.2939-.0258.5874-.0568.8807-.0885.2189-.0236.4376-.0493.6558-.0788.3087-.0418.6175-.0836.925-.133q.6949-.1119,1.3823-.2643a17,17,0,0,0,3.2873-1.059,11.284,11.284,0,0,0,2.3631-1.4122,9.8652,9.8652,0,0,0,2.4055-2.7591,12.8846,12.8846,0,0,0,1.1412-2.556,18.9454,18.9454,0,0,0,.58-2.2445q.1582-.7992.2642-1.6066c.052-.4.0934-.8006.1354-1.2014.0583-.5564.0954-1.1145.1265-1.6731q.0561-1.0107.073-2.0225c.0014-.08.0045-.1591.0069-.2387Z"/><path class="a" d="M2020.3791,227.9031c.0058.1456.0114.2912.0176.4368.0111.2583.0187.5169.035.7749q.0252.3974.0651.794c.0253.2548.0543.5094.09.763a12.1747,12.1747,0,0,0,.4824,2.136,7.8145,7.8145,0,0,0,.7132,1.58,6.0641,6.0641,0,0,0,2.2973,2.2106,8.2529,8.2529,0,0,0,1.5289.6481,11.72,11.72,0,0,0,1.3106.3278c.2727.0526.5466.0983.8218.1354q.3246.0436.6508.0758.3757.0372.7524.0646c.2084.015.4174.0239.6262.0329.2065.0088.4131.0144.6265.0216a.12.12,0,0,1-.0578.0135c-.0427.002-.0855.0029-.1282.0045-.2872.011-.5746.0189-.8616.0341-.23.0122-.46.0319-.6893.0507-.1656.0136-.3313.0284-.4963.0476-.2.0233-.4.0512-.6.0784-.2565.0348-.5112.08-.7648.1306a10.3852,10.3852,0,0,0-2.0205.6039,6.891,6.891,0,0,0-1.4544.8257,5.9652,5.9652,0,0,0-1.5582,1.7417,7.7421,7.7421,0,0,0-.6822,1.509,11.0626,11.0626,0,0,0-.3438,1.294c-.0668.3247-.1213.6515-.166.98q-.0557.4087-.0918.82c-.0322.3582-.0573.7169-.0715,1.0763q-.0146.3665-.0283.7328a.2206.2206,0,0,1-.0057.0564c-.0018-.0792-.0029-.1585-.0055-.2377-.01-.3124-.0176-.6251-.0328-.9373q-.0205-.4189-.0563-.8371c-.0214-.2529-.05-.5051-.0792-.7573-.0451-.3947-.1088-.7866-.1883-1.176a9.5922,9.5922,0,0,0-.57-1.88,6.3446,6.3446,0,0,0-.7573-1.3214,5.6276,5.6276,0,0,0-1.6493-1.4647,7.545,7.545,0,0,0-1.4286-.6461,11.0674,11.0674,0,0,0-1.3326-.3556q-.4255-.0873-.8554-.1491c-.2021-.029-.4048-.0538-.6077-.0763q-.3291-.0366-.6593-.0648c-.1632-.0142-.3269-.0242-.4905-.0332q-.3628-.02-.726-.0356c-.1448-.0061-.29-.0074-.4346-.0118a.3916.3916,0,0,1-.1057-.0164l.0788-.0027c.2232-.0064.4466-.0105.67-.02.2135-.0091.4269-.0229.64-.0363.154-.01.3081-.02.4619-.0336.1679-.0148.3356-.0325.5032-.0506.1251-.0135.25-.0282.3747-.045.1764-.0239.3529-.0478.5286-.0761q.3972-.0639.79-.151a9.7128,9.7128,0,0,0,1.8785-.6051,6.4439,6.4439,0,0,0,1.35-.807,5.6365,5.6365,0,0,0,1.3746-1.5766,7.3668,7.3668,0,0,0,.6521-1.4606,10.8281,10.8281,0,0,0,.3312-1.2825q.09-.4567.151-.9181c.03-.2283.0534-.4575.0774-.6865.0333-.318.0545-.6369.0723-.9561q.0319-.5775.0417-1.1557c.0008-.0454.0026-.0909.0039-.1364Z"/><path class="a" d="M469.1233,86.9646c.01.2548.02.51.0308.7645.0194.452.0327.9045.0613,1.356q.0441.6956.1138,1.3895c.0444.4459.0951.8916.1575,1.3353a21.3086,21.3086,0,0,0,.8443,3.7379,13.6687,13.6687,0,0,0,1.248,2.7646,10.6114,10.6114,0,0,0,4.02,3.8686,14.4407,14.4407,0,0,0,2.6755,1.1341,20.5176,20.5176,0,0,0,2.2935.5736c.4773.0921.9566.1721,1.4382.2369q.568.0765,1.1389.1327.6574.0652,1.3166.1131c.3648.0262.7305.0419,1.0959.0575.3613.0155.7229.0252,1.0964.0378a.2089.2089,0,0,1-.1012.0237c-.0747.0035-.1495.005-.2243.0079-.5027.0192-1.0056.0331-1.5079.06-.4025.0213-.8044.0559-1.2062.0888-.29.0238-.58.05-.8686.0833-.3507.0408-.7.09-1.05.1371-.4488.0609-.8945.14-1.3384.2286a18.1732,18.1732,0,0,0-3.5358,1.0568,12.06,12.06,0,0,0-2.5452,1.445,10.4434,10.4434,0,0,0-2.727,3.048,13.5621,13.5621,0,0,0-1.1938,2.6407,19.3683,19.3683,0,0,0-.6016,2.2645c-.1168.5683-.2123,1.14-.2905,1.7147q-.0973.7152-.1607,1.4344c-.0563.627-.1,1.2546-.125,1.8836q-.0254.6413-.05,1.2825a.3859.3859,0,0,1-.01.0987c-.0031-.1387-.005-.2774-.01-.4161-.018-.5468-.0307-1.0938-.0574-1.64q-.036-.7332-.0985-1.465c-.0375-.4425-.0881-.8839-.1385-1.3252-.079-.6908-.19-1.3767-.3295-2.0581a16.7988,16.7988,0,0,0-.9981-3.2894,11.1027,11.1027,0,0,0-1.3253-2.3124,9.85,9.85,0,0,0-2.8862-2.5634,13.2123,13.2123,0,0,0-2.5-1.1306,19.3621,19.3621,0,0,0-2.332-.6222q-.7446-.1529-1.497-.261c-.3536-.0507-.7083-.0942-1.0634-.1336q-.5762-.0639-1.1538-.1134c-.2856-.0247-.572-.0423-.8584-.0581q-.635-.035-1.2705-.0622c-.2534-.0107-.5071-.013-.7606-.0206a.686.686,0,0,1-.1849-.0288c.046-.0016.092-.0033.1379-.0046.3907-.0114.7815-.0185,1.1719-.0351.3738-.0159.7472-.04,1.12-.0635.27-.0169.5393-.0353.8084-.0589.2938-.0258.5873-.0568.8806-.0885.2189-.0236.4377-.0493.6558-.0788.3087-.0417.6175-.0835.925-.133q.695-.1119,1.3823-.2643a16.9867,16.9867,0,0,0,3.2873-1.059,11.2836,11.2836,0,0,0,2.3631-1.4121,9.8676,9.8676,0,0,0,2.4056-2.7592,12.89,12.89,0,0,0,1.1411-2.556,18.9261,18.9261,0,0,0,.58-2.2445q.1583-.7992.2642-1.6065c.052-.4.0934-.8006.1354-1.2014.0583-.5565.0955-1.1146.1265-1.6732q.0561-1.0105.0731-2.0224c.0013-.08.0045-.1592.0068-.2387Z"/><path class="a" d="M486.8526,73.8888c.0059.1456.0114.2912.0176.4368.0111.2583.0187.5169.0351.7749q.0252.3975.065.794c.0253.2548.0543.51.09.763a12.1727,12.1727,0,0,0,.4824,2.136,7.812,7.812,0,0,0,.7132,1.58,6.0629,6.0629,0,0,0,2.2974,2.2106,8.2481,8.2481,0,0,0,1.5288.6481,11.72,11.72,0,0,0,1.3106.3278c.2727.0526.5466.0983.8218.1354q.3246.0436.6508.0758.3757.0374.7524.0646c.2084.015.4174.0239.6262.0329.2065.0089.4131.0144.6265.0216a.12.12,0,0,1-.0578.0135c-.0427.002-.0855.0029-.1282.0045-.2872.011-.5746.0189-.8616.0341-.23.0122-.46.0319-.6893.0507-.1656.0136-.3313.0284-.4963.0476-.2.0234-.4.0512-.6.0784-.2565.0348-.5112.08-.7648.1306a10.3822,10.3822,0,0,0-2.02.6039,6.8892,6.8892,0,0,0-1.4545.8257,5.9664,5.9664,0,0,0-1.5582,1.7417,7.7421,7.7421,0,0,0-.6822,1.509,11.0626,11.0626,0,0,0-.3438,1.294c-.0668.3247-.1213.6515-.166.98q-.0557.4087-.0918.82c-.0322.3582-.0573.7169-.0715,1.0763q-.0144.3664-.0283.7329a.22.22,0,0,1-.0057.0563c-.0018-.0792-.0029-.1585-.0055-.2377-.01-.3124-.0175-.625-.0328-.9373q-.0206-.419-.0563-.8371c-.0214-.2528-.05-.5051-.0791-.7573-.0452-.3947-.1088-.7866-.1883-1.176a9.6058,9.6058,0,0,0-.57-1.88,6.35,6.35,0,0,0-.7574-1.3214,5.6276,5.6276,0,0,0-1.6493-1.4647,7.545,7.545,0,0,0-1.4286-.6461,11.0484,11.0484,0,0,0-1.3326-.3555q-.4254-.0874-.8554-.1492c-.2021-.0289-.4048-.0538-.6077-.0763q-.3291-.0365-.6593-.0648c-.1632-.0142-.3269-.0242-.49-.0332q-.3629-.02-.726-.0355c-.1448-.0062-.29-.0075-.4346-.0119a.3878.3878,0,0,1-.1057-.0164l.0788-.0026c.2232-.0065.4466-.0106.67-.02.2135-.009.4269-.0229.64-.0363.154-.01.3081-.02.4619-.0336.1679-.0148.3356-.0325.5032-.0506.1251-.0135.25-.0282.3748-.045.1764-.0239.3528-.0478.5285-.076q.3972-.064.79-.1511a9.706,9.706,0,0,0,1.8785-.6051,6.4478,6.4478,0,0,0,1.35-.8069,5.6383,5.6383,0,0,0,1.3746-1.5767,7.3686,7.3686,0,0,0,.6521-1.46,10.83,10.83,0,0,0,.3312-1.2826q.09-.4567.151-.9181c.03-.2283.0534-.4574.0774-.6865.0333-.318.0545-.6369.0723-.9561q.0319-.5775.0417-1.1557c.0008-.0454.0026-.0909.0039-.1364Z"/><path class="a" d="M2277.9831,632.3122c.01.2549.02.51.0308.7645.0194.452.0327.9045.0613,1.356q.0441.6956.1138,1.3895c.0444.4459.0951.8916.1575,1.3353a21.3117,21.3117,0,0,0,.8443,3.738,13.67,13.67,0,0,0,1.248,2.7645,10.6114,10.6114,0,0,0,4.02,3.8686,14.4407,14.4407,0,0,0,2.6755,1.1341,20.5193,20.5193,0,0,0,2.2936.5736c.4772.0921.9565.1721,1.4381.237q.5681.0763,1.1389.1326.6575.0652,1.3166.1132c.3648.0261.7305.0418,1.0959.0575.3613.0155.7229.0251,1.0964.0378a.21.21,0,0,1-.1011.0236c-.0748.0035-.15.005-.2244.0079-.5027.0192-1.0056.0331-1.5079.06-.4025.0213-.8043.0558-1.2061.0887-.29.0238-.58.05-.8686.0833-.3507.0408-.7.09-1.05.1371-.4487.061-.8945.14-1.3383.2286a18.1691,18.1691,0,0,0-3.5358,1.0568,12.0667,12.0667,0,0,0-2.5453,1.445,10.443,10.443,0,0,0-2.7269,3.048,13.5565,13.5565,0,0,0-1.1939,2.6407,19.3683,19.3683,0,0,0-.6016,2.2645c-.1168.5683-.2123,1.14-.29,1.7147q-.0974.7152-.1606,1.4344c-.0563.627-.1,1.2547-.1251,1.8836q-.0253.6413-.05,1.2825a.3815.3815,0,0,1-.01.0987c-.0031-.1387-.0049-.2774-.0095-.416-.0181-.5468-.0308-1.0939-.0575-1.64q-.036-.7332-.0985-1.465c-.0375-.4425-.0881-.8839-.1385-1.3252-.0789-.6907-.19-1.3767-.33-2.058a16.7977,16.7977,0,0,0-.9981-3.2895,11.1067,11.1067,0,0,0-1.3252-2.3124,9.85,9.85,0,0,0-2.8863-2.5633,13.2035,13.2035,0,0,0-2.5-1.1307,19.3655,19.3655,0,0,0-2.3319-.6222q-.7448-.1529-1.4971-.261c-.3536-.0507-.7083-.0942-1.0634-.1335q-.576-.0639-1.1537-.1135c-.2857-.0247-.5721-.0423-.8584-.0581q-.6351-.0349-1.2706-.0621c-.2533-.0108-.507-.0131-.76-.0207a.6873.6873,0,0,1-.185-.0288c.046-.0015.092-.0033.1379-.0046.3907-.0113.7815-.0185,1.1719-.0351.3738-.0158.7472-.04,1.1206-.0635.27-.0169.5392-.0352.8083-.0589.2939-.0258.5873-.0568.8806-.0885.2189-.0236.4377-.0493.6559-.0788.3087-.0417.6175-.0835.925-.133q.695-.1119,1.3823-.2643a16.9912,16.9912,0,0,0,3.2873-1.059,11.2812,11.2812,0,0,0,2.363-1.4121,9.866,9.866,0,0,0,2.4056-2.7592,12.8866,12.8866,0,0,0,1.1411-2.5559,18.9276,18.9276,0,0,0,.58-2.2446q.1582-.7992.2642-1.6065c.052-.4.0935-.8006.1354-1.2014.0583-.5565.0955-1.1146.1265-1.6732q.0561-1.0106.0731-2.0224c.0014-.08.0045-.1592.0068-.2387Z"/><path class="a" d="M2295.7124,619.2364c.0059.1456.0114.2912.0176.4368.0111.2584.0187.5169.0351.7749q.0252.3975.065.794c.0254.2548.0544.51.09.7631a12.1916,12.1916,0,0,0,.4824,2.1359,7.812,7.812,0,0,0,.7132,1.58,6.0632,6.0632,0,0,0,2.2974,2.2107,8.2545,8.2545,0,0,0,1.5288.648,11.7257,11.7257,0,0,0,1.3106.3278c.2728.0526.5466.0984.8218.1354q.3246.0437.6508.0758.3758.0374.7524.0647c.2085.0149.4174.0239.6262.0328.2065.0089.4131.0144.6265.0216a.119.119,0,0,1-.0578.0135c-.0427.002-.0855.0029-.1282.0045-.2872.011-.5746.0189-.8616.0341-.23.0122-.46.0319-.6893.0508-.1656.0135-.3312.0283-.4963.0475-.2.0234-.4.0513-.6.0784-.2564.0348-.5112.08-.7648.1306a10.3843,10.3843,0,0,0-2.02.6039,6.8936,6.8936,0,0,0-1.4545.8257,5.9679,5.9679,0,0,0-1.5582,1.7417,7.7448,7.7448,0,0,0-.6822,1.509,11.0626,11.0626,0,0,0-.3438,1.294c-.0667.3248-.1213.6515-.166.98q-.0557.4088-.0918.82c-.0322.3583-.0573.7169-.0715,1.0763q-.0144.3665-.0283.7329a.22.22,0,0,1-.0057.0563c-.0018-.0792-.0028-.1584-.0055-.2377-.01-.3124-.0175-.625-.0328-.9373q-.0206-.4189-.0563-.8371c-.0214-.2528-.05-.5051-.0791-.7572-.0451-.3948-.1088-.7867-.1883-1.1761a9.6058,9.6058,0,0,0-.57-1.88,6.3484,6.3484,0,0,0-.7573-1.3213,5.6278,5.6278,0,0,0-1.6493-1.4648,7.5458,7.5458,0,0,0-1.4287-.6461,11.07,11.07,0,0,0-1.3325-.3555q-.4255-.0873-.8555-.1492c-.202-.0289-.4048-.0538-.6076-.0763q-.3293-.0365-.6593-.0648c-.1633-.0142-.3269-.0242-.4906-.0332q-.3628-.02-.726-.0355c-.1448-.0061-.29-.0075-.4346-.0118a.3924.3924,0,0,1-.1057-.0165l.0788-.0026c.2233-.0065.4466-.0106.67-.02.2136-.009.4269-.0229.64-.0362.1541-.01.3081-.02.4619-.0337.1679-.0147.3356-.0325.5032-.0506.1251-.0135.25-.0282.3748-.045.1764-.0239.3528-.0477.5286-.076q.397-.0639.79-.151a9.7109,9.7109,0,0,0,1.8785-.6052,6.4478,6.4478,0,0,0,1.35-.8069,5.6369,5.6369,0,0,0,1.3746-1.5767,7.3628,7.3628,0,0,0,.6521-1.46,10.8058,10.8058,0,0,0,.3313-1.2826q.09-.4568.1509-.918c.03-.2284.0534-.4575.0774-.6866.0333-.3179.0546-.6369.0723-.9561q.0321-.5774.0417-1.1556c.0008-.0455.0026-.091.0039-.1365Z"/><path class="a" d="M2294.7289,660.0175c.0044.1092.0085.2184.0132.3276.0083.1937.014.3876.0263.5811q.0189.2982.0488.5955c.019.1912.0407.3821.0675.5723a9.1257,9.1257,0,0,0,.3618,1.602,5.8617,5.8617,0,0,0,.5349,1.1848,4.5477,4.5477,0,0,0,1.723,1.658,6.1877,6.1877,0,0,0,1.1466.486,8.7772,8.7772,0,0,0,.983.2458c.2045.04.41.0738.6163.1016q.2434.0327.4881.0568.2818.0281.5643.0485c.1564.0112.3131.018.47.0247.1548.0066.31.0108.47.0162a.09.09,0,0,1-.0434.01c-.032.0015-.0641.0022-.0961.0034-.2155.0082-.431.0142-.6463.0256-.1725.0091-.3447.0239-.5169.038-.1242.01-.2485.0213-.3723.0357-.15.0175-.3.0384-.45.0588-.1923.0261-.3834.06-.5736.0979a7.7928,7.7928,0,0,0-1.5153.4529,5.1739,5.1739,0,0,0-1.0909.6193,4.4748,4.4748,0,0,0-1.1686,1.3063,5.8034,5.8034,0,0,0-.5117,1.1318,8.2988,8.2988,0,0,0-.2578.97c-.05.2436-.091.4887-.1245.7349q-.0417.3066-.0689.6148c-.0241.2687-.0429.5377-.0536.8072q-.0108.2748-.0212.55a.1644.1644,0,0,1-.0043.0423c-.0013-.0594-.0021-.1188-.0041-.1783-.0077-.2343-.0132-.4688-.0246-.7029q-.0154-.3143-.0422-.6279c-.0161-.19-.0378-.3788-.0594-.5679-.0338-.2961-.0816-.59-.1412-.882a7.1987,7.1987,0,0,0-.4278-1.41,4.7576,4.7576,0,0,0-.5679-.991,4.2213,4.2213,0,0,0-1.237-1.0986,5.6605,5.6605,0,0,0-1.0715-.4846,8.2947,8.2947,0,0,0-.9994-.2666q-.3192-.0656-.6416-.1119c-.1515-.0217-.3036-.04-.4557-.0572q-.2469-.0274-.4945-.0486c-.1224-.0106-.2452-.0182-.3679-.0249q-.2722-.015-.5445-.0267c-.1086-.0046-.2173-.0056-.326-.0088a.2943.2943,0,0,1-.0792-.0124l.0591-.002c.1674-.0048.3349-.0079.5022-.015.16-.0068.32-.0171.48-.0272.1156-.0072.2311-.0151.3465-.0252.1259-.0111.2517-.0244.3774-.038.0938-.01.1876-.0211.2811-.0337.1323-.0179.2646-.0358.3964-.057q.2977-.048.5924-.1133a7.283,7.283,0,0,0,1.4088-.4539,4.8316,4.8316,0,0,0,1.0128-.6052,4.2259,4.2259,0,0,0,1.0309-1.1825,5.5184,5.5184,0,0,0,.4891-1.0954,8.1009,8.1009,0,0,0,.2484-.9619q.068-.3426.1133-.6885c.0223-.1713.04-.3432.058-.5149.025-.2385.0409-.4777.0542-.7171q.024-.433.0313-.8668c.0006-.0341.002-.0682.0029-.1023Z"/><path class="a" d="M989.2067,598.1854c-.01.2548-.02.51-.0308.7645-.0194.452-.0327.9045-.0613,1.356q-.0441.6956-.1139,1.3895c-.0443.4459-.0951.8916-.1575,1.3353a21.3083,21.3083,0,0,1-.8442,3.7379,13.6742,13.6742,0,0,1-1.248,2.7646,10.6128,10.6128,0,0,1-4.02,3.8686,14.4464,14.4464,0,0,1-2.6755,1.1341,20.5193,20.5193,0,0,1-2.2936.5736c-.4772.0921-.9565.1721-1.4381.2369q-.568.0765-1.1389.1327-.6574.0652-1.3167.1131c-.3648.0262-.73.0419-1.0959.0575-.3613.0155-.7228.0252-1.0964.0378a.2089.2089,0,0,0,.1012.0237c.0748.0035.15.005.2244.0079.5026.0192,1.0056.0331,1.5078.06.4025.0213.8044.0559,1.2062.0888.29.0238.58.05.8686.0833.3507.0408.7005.09,1.05.1371.4487.0609.8945.14,1.3383.2286a18.1642,18.1642,0,0,1,3.5358,1.0568,12.06,12.06,0,0,1,2.5453,1.445,10.443,10.443,0,0,1,2.7269,3.048,13.55,13.55,0,0,1,1.1938,2.6407,19.3683,19.3683,0,0,1,.6016,2.2645c.1169.5683.2123,1.14.2905,1.7147q.0973.7152.1607,1.4344c.0563.627.1,1.2546.1251,1.8836q.0253.6413.0495,1.2825a.3909.3909,0,0,0,.01.0987c.0031-.1387.005-.2774.01-.4161.0181-.5468.0307-1.0938.0575-1.64q.0359-.7332.0985-1.465c.0374-.4425.088-.8839.1385-1.3252.0789-.6908.19-1.3767.3295-2.0581a16.8053,16.8053,0,0,1,.998-3.2894,11.1116,11.1116,0,0,1,1.3253-2.3124,9.8494,9.8494,0,0,1,2.8863-2.5634,13.2152,13.2152,0,0,1,2.5-1.1307,19.38,19.38,0,0,1,2.332-.6221q.7446-.1529,1.497-.261c.3536-.0507.7084-.0942,1.0634-.1336q.5761-.0639,1.1538-.1134c.2857-.0248.5721-.0423.8584-.0581q.6351-.0349,1.2706-.0622c.2533-.0107.507-.013.76-.0206a.686.686,0,0,0,.1849-.0288c-.0459-.0016-.0919-.0033-.1379-.0046-.3906-.0114-.7815-.0185-1.1719-.0351-.3737-.0159-.7471-.04-1.12-.0635-.27-.0169-.5392-.0353-.8083-.0589-.2939-.0258-.5874-.0568-.8807-.0885-.2189-.0236-.4376-.0493-.6558-.0788-.3087-.0417-.6175-.0835-.925-.133q-.695-.1119-1.3823-.2643a16.9936,16.9936,0,0,1-3.2873-1.059,11.2855,11.2855,0,0,1-2.363-1.4121,9.8644,9.8644,0,0,1-2.4056-2.7592,12.89,12.89,0,0,1-1.1412-2.556,18.9454,18.9454,0,0,1-.58-2.2445q-.1582-.7992-.2641-1.6065c-.0521-.4-.0935-.8006-.1355-1.2014-.0583-.5565-.0954-1.1146-.1264-1.6732q-.0562-1.0106-.0731-2.0224c-.0014-.08-.0045-.1592-.0068-.2387Z"/><path class="a" d="M597.1162,558.9616c-.01.2548-.02.51-.0308.7644-.0194.4521-.0327.9045-.0613,1.356q-.0441.6956-.1139,1.3895c-.0443.4459-.095.8916-.1575,1.3354a21.3124,21.3124,0,0,1-.8442,3.7379,13.6758,13.6758,0,0,1-1.248,2.7645,10.6121,10.6121,0,0,1-4.02,3.8686,14.4464,14.4464,0,0,1-2.6755,1.1341,20.5193,20.5193,0,0,1-2.2936.5736c-.4772.0921-.9565.1721-1.4381.237q-.568.0765-1.1389.1326-.6575.0654-1.3167.1132c-.3648.0261-.73.0418-1.0959.0575-.3613.0155-.7228.0251-1.0964.0378a.21.21,0,0,0,.1012.0236c.0748.0035.15.005.2244.0079.5026.0192,1.0056.0331,1.5078.06.4025.0213.8044.0558,1.2062.0887.29.0238.58.05.8686.0833.3507.0409.7005.09,1.05.1371.4487.061.8945.14,1.3383.2287a18.1709,18.1709,0,0,1,3.5358,1.0567,12.0667,12.0667,0,0,1,2.5453,1.445,10.443,10.443,0,0,1,2.7269,3.048,13.5529,13.5529,0,0,1,1.1938,2.6407,19.3683,19.3683,0,0,1,.6016,2.2645c.1169.5683.2123,1.14.29,1.7147q.0973.7152.1607,1.4344c.0563.627.1,1.2547.1251,1.8836q.0253.6413.0495,1.2825a.39.39,0,0,0,.01.0987c.0031-.1387.005-.2774.01-.416.0181-.5468.0307-1.0939.0575-1.64q.0358-.7332.0985-1.465c.0374-.4425.088-.8839.1385-1.3252.0789-.6907.19-1.3767.3295-2.058a16.8042,16.8042,0,0,1,.998-3.2895,11.1116,11.1116,0,0,1,1.3253-2.3124,9.8476,9.8476,0,0,1,2.8863-2.5633,13.2026,13.2026,0,0,1,2.5-1.1307,19.3671,19.3671,0,0,1,2.332-.6222q.7446-.1529,1.497-.261c.3536-.0507.7084-.0942,1.0634-.1335q.5761-.0639,1.1538-.1134c.2857-.0248.5721-.0424.8584-.0582q.6351-.035,1.2706-.0621c.2533-.0107.507-.0131.76-.0207a.6821.6821,0,0,0,.1849-.0288c-.0459-.0015-.0919-.0033-.1379-.0046-.3906-.0113-.7814-.0185-1.1719-.035-.3737-.0159-.7471-.04-1.12-.0635-.27-.017-.5392-.0353-.8083-.059-.2939-.0257-.5873-.0568-.8807-.0884-.2189-.0237-.4376-.0494-.6558-.0789-.3087-.0417-.6175-.0835-.925-.133q-.695-.1119-1.3823-.2643a16.9867,16.9867,0,0,1-3.2873-1.059,11.2812,11.2812,0,0,1-2.363-1.4121,9.8644,9.8644,0,0,1-2.4056-2.7592,12.8927,12.8927,0,0,1-1.1412-2.5559,18.9272,18.9272,0,0,1-.58-2.2446q-.1584-.7992-.2642-1.6065c-.0521-.4-.0935-.8006-.1355-1.2014-.0583-.5565-.0954-1.1146-.1264-1.6732q-.0562-1.0106-.0731-2.0224c-.0014-.08-.0045-.1592-.0068-.2387Z"/><path class="a" d="M972.4608,625.8906c-.0043.1093-.0085.2185-.0132.3277-.0083.1937-.014.3876-.0262.5811q-.0189.2982-.0488.5955c-.019.1911-.0408.3821-.0675.5723a9.1478,9.1478,0,0,1-.3618,1.602,5.8617,5.8617,0,0,1-.5349,1.1848,4.5475,4.5475,0,0,1-1.723,1.6579,6.1851,6.1851,0,0,1-1.1467.4861,8.7973,8.7973,0,0,1-.9829.2458c-.2046.0395-.41.0738-.6164.1016q-.2434.0327-.4881.0568-.2817.0281-.5643.0485c-.1563.0112-.313.0179-.47.0247-.1549.0066-.31.0107-.47.0162a.0906.0906,0,0,0,.0434.01c.032.0015.0641.0021.0961.0034.2154.0082.431.0141.6462.0255.1725.0092.3448.024.517.0381.1242.01.2484.0213.3722.0357.15.0175.3.0384.45.0587.1923.0262.3833.06.5736.098a7.7949,7.7949,0,0,1,1.5153.4529,5.1688,5.1688,0,0,1,1.0908.6193,4.4752,4.4752,0,0,1,1.1687,1.3063,5.8144,5.8144,0,0,1,.5117,1.1317,8.3056,8.3056,0,0,1,.2578.9705c.05.2436.091.4887.1245.7349q.0417.3065.0688.6147c.0242.2687.043.5377.0536.8073q.0109.2748.0213.55a.16.16,0,0,0,.0043.0423c.0013-.0594.0021-.1189.0041-.1783.0077-.2343.0131-.4688.0246-.7029q.0154-.3143.0422-.6279c.0161-.19.0377-.3788.0594-.5679.0338-.2961.0816-.59.1412-.8821a7.2,7.2,0,0,1,.4277-1.41,4.7632,4.7632,0,0,1,.568-.9911,4.2211,4.2211,0,0,1,1.237-1.0985,5.6548,5.6548,0,0,1,1.0715-.4846,8.2712,8.2712,0,0,1,.9994-.2666q.3191-.0656.6416-.1119c.1515-.0217.3035-.04.4557-.0572q.2469-.0274.4945-.0486c.1224-.0107.2451-.0182.3679-.025q.2721-.0149.5445-.0266c.1086-.0046.2173-.0056.3259-.0089a.2949.2949,0,0,0,.0793-.0123l-.0591-.002c-.1674-.0048-.3349-.0079-.5022-.015-.16-.0068-.32-.0172-.48-.0272-.1155-.0073-.2311-.0151-.3464-.0253-.126-.011-.2517-.0243-.3774-.0379-.0938-.01-.1876-.0211-.2811-.0338-.1323-.0178-.2646-.0358-.3964-.057q-.2979-.0479-.5924-.1132a7.2817,7.2817,0,0,1-1.4089-.4539,4.8334,4.8334,0,0,1-1.0127-.6052,4.2293,4.2293,0,0,1-1.031-1.1825,5.5238,5.5238,0,0,1-.489-1.0954,8.1207,8.1207,0,0,1-.2485-.9619q-.0678-.3426-.1132-.6886c-.0223-.1712-.04-.3431-.058-.5148-.025-.2385-.0409-.4777-.0542-.7171q-.0242-.4332-.0314-.8668c-.0006-.0341-.0019-.0682-.0029-.1023Z"/><path class="a" d="M2132.1261,255.06c3.2173,0,3.2226-5,0-5C2128.9089,250.06,2128.9035,255.06,2132.1261,255.06Z"/><path class="a" d="M2251.1261,298.3929c3.2173,0,3.2226-5,0-5C2247.9089,293.3929,2247.9035,298.3929,2251.1261,298.3929Z"/><path class="a" d="M2328.7928,193.3929c3.2173,0,3.2226-5,0-5C2325.5755,188.3929,2325.57,193.3929,2328.7928,193.3929Z"/><path class="a" d="M2229.7928,333.56c3.2173,0,3.2226-5,0-5C2226.5755,328.56,2226.57,333.56,2229.7928,333.56Z"/><path class="a" d="M2365.1261,55.3929c3.2173,0,3.2226-5,0-5C2361.9089,50.3929,2361.9035,55.3929,2365.1261,55.3929Z"/><path class="a" d="M2439.1264,91.8929c3.2172,0,3.2226-5,0-5C2435.9091,86.8929,2435.9038,91.8929,2439.1264,91.8929Z"/><path class="a" d="M2374.1261,181.3929c3.2173,0,3.2226-5,0-5C2370.9089,176.3929,2370.9035,181.3929,2374.1261,181.3929Z"/><path class="a" d="M2430.7928,319.3929c3.2173,0,3.2226-5,0-5C2427.5755,314.3929,2427.57,319.3929,2430.7928,319.3929Z"/><path class="a" d="M2183.46,679.7263c3.2172,0,3.2225-5,0-5C2180.2422,674.7263,2180.2369,679.7263,2183.46,679.7263Z"/><path class="a" d="M2401.46,601.3929c3.2172,0,3.2225-5,0-5C2398.2422,596.3929,2398.2369,601.3929,2401.46,601.3929Z"/><path class="a" d="M2561.96,611.3929c3.2172,0,3.2225-5,0-5C2558.7422,606.3929,2558.7369,611.3929,2561.96,611.3929Z"/><path class="a" d="M2327.46,474.7263c3.2172,0,3.2225-5,0-5C2324.2422,469.7263,2324.2369,474.7263,2327.46,474.7263Z"/><path class="a" d="M1955.7928,580.06c3.2173,0,3.2226-5,0-5C1952.5755,575.06,1952.57,580.06,1955.7928,580.06Z"/><path class="a" d="M1779.3333,735.9526c3.2173,0,3.2227-5,0-5C1776.116,730.9526,1776.1107,735.9526,1779.3333,735.9526Z"/><path class="a" d="M2178.63,807.6667c3.2173,0,3.2226-5,0-5C2175.4123,802.6667,2175.4069,807.6667,2178.63,807.6667Z"/><path class="a" d="M2309.7928,743.9526c3.2173,0,3.2226-5,0-5C2306.5755,738.9526,2306.57,743.9526,2309.7928,743.9526Z"/><path class="a" d="M1937.5428,179.81c3.2173,0,3.2226-5,0-5C1934.3255,174.81,1934.32,179.81,1937.5428,179.81Z"/><path class="a" d="M1857.7928,364.06c3.2173,0,3.2226-5,0-5C1854.5755,359.06,1854.57,364.06,1857.7928,364.06Z"/><path class="a" d="M1680.88,90.31c3.2173,0,3.2227-5,0-5C1677.6631,85.31,1677.6577,90.31,1680.88,90.31Z"/><path class="a" d="M1652.38,102.31c3.2173,0,3.2227-5,0-5C1649.1631,97.31,1649.1577,102.31,1652.38,102.31Z"/><path class="a" d="M1787.7928,98.81c3.2173,0,3.2226-5,0-5C1784.5755,93.81,1784.57,98.81,1787.7928,98.81Z"/><path class="a" d="M1923.7928,366.56c3.2173,0,3.2226-5,0-5C1920.5755,361.56,1920.57,366.56,1923.7928,366.56Z"/><path class="a" d="M1510.0428,488.56c3.2173,0,3.2226-5,0-5C1506.8255,483.56,1506.82,488.56,1510.0428,488.56Z"/><path class="a" d="M1482.5428,504.81c3.2173,0,3.2226-5,0-5C1479.3255,499.81,1479.32,504.81,1482.5428,504.81Z"/><path class="a" d="M1452.7928,280.56c3.2173,0,3.2226-5,0-5C1449.5755,275.56,1449.57,280.56,1452.7928,280.56Z"/><path class="a" d="M1464.7928,177.31c3.2173,0,3.2226-5,0-5C1461.5755,172.31,1461.57,177.31,1464.7928,177.31Z"/><path class="a" d="M1368.7928,75.31c3.2173,0,3.2226-5,0-5C1365.5755,70.31,1365.57,75.31,1368.7928,75.31Z"/><path class="a" d="M1161.7928,73.06c3.2173,0,3.2226-5,0-5C1158.5755,68.06,1158.57,73.06,1161.7928,73.06Z"/><path class="a" d="M916.3333,701c3.2173,0,3.2227-5,0-5C913.116,696,913.1107,701,916.3333,701Z"/><path class="a" d="M830.8333,773.5c3.2173,0,3.2227-5,0-5C827.616,768.5,827.6107,773.5,830.8333,773.5Z"/><path class="a" d="M1113.7928,379.06c3.2173,0,3.2226-5,0-5C1110.5755,374.06,1110.57,379.06,1113.7928,379.06Z"/><path class="a" d="M1123.7078,710.32c3.2173,0,3.2226-3.0208,0-3.0208C1120.4905,707.2993,1120.4851,710.32,1123.7078,710.32Z"/><path class="a" d="M774.7928,44.81c3.2173,0,3.2226-5,0-5C771.5755,39.81,771.57,44.81,774.7928,44.81Z"/><path class="a" d="M843.7928,105.06c3.2173,0,3.2226-5,0-5C840.5755,100.06,840.57,105.06,843.7928,105.06Z"/><path class="a" d="M1013.2928,211.56c3.2173,0,3.2226-5,0-5C1010.0755,206.56,1010.07,211.56,1013.2928,211.56Z"/><path class="a" d="M1016.0428,379.31c3.2173,0,3.2226-5,0-5C1012.8255,374.31,1012.82,379.31,1016.0428,379.31Z"/><path class="a" d="M617,668c3.2173,0,3.2227-5,0-5C613.7827,663,613.7773,668,617,668Z"/><path class="a" d="M726.0428,488.56c3.2173,0,3.2226-5,0-5C722.8255,483.56,722.82,488.56,726.0428,488.56Z"/><path class="a" d="M554.2928,409.31c3.2173,0,3.2226-5,0-5C551.0755,404.31,551.07,409.31,554.2928,409.31Z"/><path class="a" d="M697.5428,157.31c3.2173,0,3.2226-5,0-5C694.3255,152.31,694.32,157.31,697.5428,157.31Z"/><path class="a" d="M719.2928,77.81c3.2173,0,3.2226-5,0-5C716.0755,72.81,716.07,77.81,719.2928,77.81Z"/><path class="a" d="M2618.7928,178.06c3.2173,0,3.2226-5,0-5C2615.5755,173.06,2615.57,178.06,2618.7928,178.06Z"/><path class="a" d="M2570.7928,505.06c3.2173,0,3.2226-5,0-5C2567.5755,500.06,2567.57,505.06,2570.7928,505.06Z"/><path class="a" d="M2752.7928,327.06c3.2173,0,3.2226-5,0-5C2749.5755,322.06,2749.57,327.06,2752.7928,327.06Z"/><path class="a" d="M2730.7928,307.06c3.2173,0,3.2226-5,0-5C2727.5755,302.06,2727.57,307.06,2730.7928,307.06Z"/><path class="a" d="M2784.7928,41.06c3.2173,0,3.2226-5,0-5C2781.5755,36.06,2781.57,41.06,2784.7928,41.06Z"/><path class="a" d="M2658.7928,39.06c3.2173,0,3.2226-5,0-5C2655.5755,34.06,2655.57,39.06,2658.7928,39.06Z"/><path class="a" d="M2630.7928,59.06c3.2173,0,3.2226-5,0-5C2627.5755,54.06,2627.57,59.06,2630.7928,59.06Z"/><path class="a" d="M172.7928,85.06c3.2173,0,3.2226-5,0-5C169.5755,80.06,169.57,85.06,172.7928,85.06Z"/><path class="a" d="M371.4594,543.06c3.2173,0,3.2227-5,0-5C368.2421,538.06,368.2368,543.06,371.4594,543.06Z"/><path class="a" d="M250.7928,117.06c3.2173,0,3.2226-5,0-5C247.5755,112.06,247.57,117.06,250.7928,117.06Z"/><path class="a" d="M378.7928,253.06c3.2173,0,3.2226-5,0-5C375.5755,248.06,375.57,253.06,378.7928,253.06Z"/><path class="a" d="M296.7928,17.06c3.2173,0,3.2226-5,0-5C293.5755,12.06,293.57,17.06,296.7928,17.06Z"/><path class="a" d="M234.7928,333.06c3.2173,0,3.2226-5,0-5C231.5755,328.06,231.57,333.06,234.7928,333.06Z"/><path class="a" d="M2088.7928,21.06c3.2173,0,3.2226-5,0-5C2085.5755,16.06,2085.57,21.06,2088.7928,21.06Z"/><path class="a" d="M2308.6623,99.9846a1.5009,1.5009,0,0,0,0-3A1.5009,1.5009,0,0,0,2308.6623,99.9846Z"/><path class="a" d="M2089.6732,168.9811a1.5009,1.5009,0,0,0,0-3A1.5009,1.5009,0,0,0,2089.6732,168.9811Z"/><path class="a" d="M2053.675,155.4818a1.5009,1.5009,0,0,0,0-3A1.5009,1.5009,0,0,0,2053.675,155.4818Z"/><path class="a" d="M2020.6767,177.9806a1.5009,1.5009,0,0,0,0-3A1.5009,1.5009,0,0,0,2020.6767,177.9806Z"/><path class="a" d="M1878.1839,89.4851a1.5009,1.5009,0,0,0,0-3A1.5009,1.5009,0,0,0,1878.1839,89.4851Z"/><path class="a" d="M1792.688,186.98a1.5009,1.5009,0,0,0,0-3A1.5009,1.5009,0,0,0,1792.688,186.98Z"/><path class="a" d="M2079.1737,428.4681a1.5009,1.5009,0,0,0,0-3A1.5009,1.5009,0,0,0,2079.1737,428.4681Z"/><path class="a" d="M2200.6676,488.4651a1.5009,1.5009,0,0,0,0-3A1.5009,1.5009,0,0,0,2200.6676,488.4651Z"/><path class="a" d="M2361.16,492.9649a1.5009,1.5009,0,0,0,0-3A1.5009,1.5009,0,0,0,2361.16,492.9649Z"/><path class="a" d="M2184.1685,647.4572a1.5009,1.5009,0,0,0,0-3A1.5009,1.5009,0,0,0,2184.1685,647.4572Z"/><path class="a" d="M2157.17,696.9547a1.5009,1.5009,0,0,0,0-3A1.5009,1.5009,0,0,0,2157.17,696.9547Z"/><path class="a" d="M2196.1679,738.9526a1.5009,1.5009,0,0,0,0-3A1.5009,1.5009,0,0,0,2196.1679,738.9526Z"/><path class="a" d="M2074.8268,781.6667a1.5009,1.5009,0,0,0,0-3A1.5009,1.5009,0,0,0,2074.8268,781.6667Z"/><path class="a" d="M2055.175,675.9557a1.5009,1.5009,0,0,0,0-3A1.5009,1.5009,0,0,0,2055.175,675.9557Z"/><path class="a" d="M1910,827a1.5009,1.5009,0,0,0,0-3A1.5009,1.5009,0,0,0,1910,827Z"/><path class="a" d="M1755.19,540.9625a1.5009,1.5009,0,0,0,0-3A1.5009,1.5009,0,0,0,1755.19,540.9625Z"/><path class="a" d="M1866.1844,407.4692a1.5009,1.5009,0,0,0,0-3A1.5009,1.5009,0,0,0,1866.1844,407.4692Z"/><path class="a" d="M1603.7928,214.56a1.5009,1.5009,0,0,0,0-3A1.5009,1.5009,0,0,0,1603.7928,214.56Z"/><path class="a" d="M1563.2,48.9871a1.5009,1.5009,0,0,0,0-3A1.5009,1.5009,0,0,0,1563.2,48.9871Z"/><path class="a" d="M1296.2129,233.4779a1.5009,1.5009,0,0,0,0-3A1.5009,1.5009,0,0,0,1296.2129,233.4779Z"/><path class="a" d="M1219.7167,294.9748a1.5009,1.5009,0,0,0,0-3A1.5009,1.5009,0,0,0,1219.7167,294.9748Z"/><path class="a" d="M1009.7272,63.9864a1.5009,1.5009,0,0,0,0-3A1.5009,1.5009,0,0,0,1009.7272,63.9864Z"/><path class="a" d="M949.73,113.4839a1.5009,1.5009,0,0,0,0-3A1.5009,1.5009,0,0,0,949.73,113.4839Z"/><path class="a" d="M1326.2115,384.97a1.5009,1.5009,0,0,0,0-3A1.5009,1.5009,0,0,0,1326.2115,384.97Z"/><path class="a" d="M1225.7163,561.9615a1.5009,1.5009,0,0,0,0-3A1.5009,1.5009,0,0,0,1225.7163,561.9615Z"/><path class="a" d="M891.2332,483.9654a1.5009,1.5009,0,0,0,0-3A1.5009,1.5009,0,0,0,891.2332,483.9654Z"/><path class="a" d="M2647.6453,344.4723a1.5009,1.5009,0,0,0,0-3A1.5009,1.5009,0,0,0,2647.6453,344.4723Z"/><path class="a" d="M2808.1373,165.9813a1.5009,1.5009,0,0,0,0-3A1.5009,1.5009,0,0,0,2808.1373,165.9813Z"/><path class="a" d="M561.25,221.4785a1.5009,1.5009,0,0,0,0-3A1.5009,1.5009,0,0,0,561.25,221.4785Z"/><path class="a" d="M565.7493,24.9883a1.5009,1.5009,0,0,0,0-3A1.5009,1.5009,0,0,0,565.7493,24.9883Z"/><path class="a" d="M757.74,284.4753a1.5009,1.5009,0,0,0,0-3A1.5009,1.5009,0,0,0,757.74,284.4753Z"/><path class="a" d="M774.2391,605.4593a1.5009,1.5009,0,0,0,0-3A1.5009,1.5009,0,0,0,774.2391,605.4593Z"/><path class="a" d="M687.2434,552.9619a1.5009,1.5009,0,0,0,0-3A1.5009,1.5009,0,0,0,687.2434,552.9619Z"/><path class="a" d="M174.2688,129.9831a1.5009,1.5009,0,0,0,0-3A1.5009,1.5009,0,0,0,174.2688,129.9831Z"/><path class="a" d="M480.2537,465.9662a1.5009,1.5009,0,0,0,0-3A1.5009,1.5009,0,0,0,480.2537,465.9662Z"/><path class="a" d="M37.7757,18.9886a1.5009,1.5009,0,0,0,0-3A1.5009,1.5009,0,0,0,37.7757,18.9886Z"/><path class="a" d="M1593.7928,645.2145a1.4892,1.4892,0,0,0,0-2.9766,1.4892,1.4892,0,0,0,0,2.9766Z"/><path class="a" d="M1569.1261,627.2145a1.4892,1.4892,0,0,0,0-2.9766,1.4892,1.4892,0,0,0,0,2.9766Z"/><path class="a" d="M1359.9893,545.6468c-.01.2548-.02.51-.0309.7645-.0194.452-.0327.9045-.0613,1.356q-.0441.6956-.1138,1.3895c-.0443.4459-.0951.8916-.1575,1.3353a21.3173,21.3173,0,0,1-.8442,3.7379,13.6745,13.6745,0,0,1-1.2481,2.7646,10.6114,10.6114,0,0,1-4.02,3.8686,14.4407,14.4407,0,0,1-2.6755,1.1341,20.5176,20.5176,0,0,1-2.2935.5736c-.4773.0921-.9565.1721-1.4381.2369q-.5682.0765-1.1389.1327-.6576.0652-1.3167.1131c-.3648.0262-.73.0419-1.0959.0575-.3613.0155-.7229.0252-1.0964.0378a.2089.2089,0,0,0,.1012.0237c.0747.0035.15.005.2243.0079.5027.0192,1.0056.0331,1.5079.06.4025.0213.8044.0559,1.2062.0888.29.0238.58.05.8686.0833.3507.0408.7005.09,1.05.1371.4488.0609.8945.14,1.3384.2286a18.1642,18.1642,0,0,1,3.5358,1.0568,12.0573,12.0573,0,0,1,2.5452,1.445,10.442,10.442,0,0,1,2.727,3.048,13.55,13.55,0,0,1,1.1938,2.6407,19.3683,19.3683,0,0,1,.6016,2.2645c.1168.5683.2123,1.14.29,1.7147q.0974.7152.1607,1.4344c.0563.627.1,1.2546.1251,1.8836q.0254.6413.05,1.2825a.3863.3863,0,0,0,.01.0987c.0031-.1387.005-.2774.01-.4161.018-.5468.0307-1.0938.0575-1.64q.0358-.7332.0984-1.465c.0375-.4425.0881-.8839.1385-1.3252.079-.6908.19-1.3767.33-2.0581a16.7917,16.7917,0,0,1,.998-3.2894,11.1071,11.1071,0,0,1,1.3253-2.3124,9.8494,9.8494,0,0,1,2.8863-2.5634,13.2152,13.2152,0,0,1,2.5-1.1307,19.38,19.38,0,0,1,2.332-.6221q.7446-.1528,1.497-.261c.3536-.0507.7084-.0942,1.0634-.1336q.5762-.0639,1.1538-.1134c.2856-.0248.572-.0423.8584-.0581q.6351-.035,1.2705-.0622c.2534-.0107.5071-.013.7606-.0206a.686.686,0,0,0,.1849-.0288c-.046-.0016-.0919-.0033-.1379-.0046-.3907-.0114-.7815-.0185-1.1719-.0351-.3737-.0159-.7472-.04-1.12-.0635-.27-.0169-.5393-.0353-.8084-.0589-.2938-.0258-.5873-.0568-.8806-.0885-.2189-.0236-.4377-.0493-.6558-.0788-.3087-.0417-.6175-.0835-.925-.133q-.695-.1119-1.3823-.2643a16.9936,16.9936,0,0,1-3.2873-1.059,11.2836,11.2836,0,0,1-2.3631-1.4121,9.8676,9.8676,0,0,1-2.4056-2.7592,12.89,12.89,0,0,1-1.1411-2.556,18.9261,18.9261,0,0,1-.58-2.2445q-.1582-.7992-.2642-1.6065c-.052-.4-.0934-.8006-.1354-1.2014-.0583-.5565-.0954-1.1146-.1265-1.6732q-.0561-1.0106-.073-2.0224c-.0014-.08-.0046-.1592-.0069-.2387Z"/><path class="a" d="M1342.26,532.571c-.0058.1456-.0114.2912-.0176.4368-.0111.2583-.0187.5169-.035.7749q-.0252.3975-.0651.794c-.0253.2548-.0543.5094-.09.763a12.1727,12.1727,0,0,1-.4824,2.136,7.8145,7.8145,0,0,1-.7132,1.58,6.0634,6.0634,0,0,1-2.2973,2.2106,8.2462,8.2462,0,0,1-1.5289.6481,11.72,11.72,0,0,1-1.3106.3278c-.2727.0526-.5466.0983-.8218.1354q-.3246.0436-.6508.0758-.3756.0374-.7524.0646c-.2084.015-.4174.0239-.6262.0329-.2065.0088-.4131.0144-.6265.0216a.12.12,0,0,0,.0578.0135c.0427.002.0855.0029.1282.0045.2872.011.5746.0189.8617.0341.23.0122.46.0319.6892.0507.1656.0136.3313.0284.4963.0476.2.0234.4.0512.6.0784.2565.0348.5112.08.7648.1306a10.3852,10.3852,0,0,1,2.02.6039,6.891,6.891,0,0,1,1.4544.8257,5.9664,5.9664,0,0,1,1.5582,1.7417,7.7421,7.7421,0,0,1,.6822,1.509,11.0626,11.0626,0,0,1,.3438,1.294c.0668.3247.1213.6515.166.98q.0557.4087.0918.82c.0322.3582.0573.7169.0715,1.0763q.0146.3664.0283.7329a.22.22,0,0,0,.0057.0563c.0018-.0792.0029-.1585.0055-.2377.01-.3124.0176-.625.0328-.9373q.0205-.4189.0563-.8371c.0214-.2529.05-.5051.0792-.7573.0451-.3947.1088-.7866.1883-1.176a9.5922,9.5922,0,0,1,.57-1.88,6.3446,6.3446,0,0,1,.7573-1.3214,5.6276,5.6276,0,0,1,1.6493-1.4647,7.545,7.545,0,0,1,1.4286-.6461,11.0484,11.0484,0,0,1,1.3326-.3555q.4255-.0874.8554-.1492c.2021-.0289.4048-.0538.6077-.0763q.3291-.0366.6593-.0648c.1632-.0142.3269-.0242.49-.0332q.3628-.02.726-.0355c.1448-.0062.29-.0075.4346-.0119a.3916.3916,0,0,0,.1057-.0164l-.0788-.0027c-.2232-.0064-.4466-.01-.67-.02-.2135-.009-.4269-.0229-.64-.0363-.154-.01-.3081-.02-.4619-.0336-.1679-.0148-.3356-.0325-.5032-.0506-.1251-.0135-.25-.0282-.3747-.045-.1764-.0239-.3529-.0478-.5286-.076q-.3972-.064-.79-.1511a9.7082,9.7082,0,0,1-1.8785-.6051,6.45,6.45,0,0,1-1.35-.8069,5.6383,5.6383,0,0,1-1.3746-1.5767,7.3668,7.3668,0,0,1-.6521-1.4606,10.8232,10.8232,0,0,1-.3312-1.2825q-.09-.4568-.151-.9181c-.03-.2283-.0534-.4574-.0774-.6865-.0333-.318-.0545-.6369-.0722-.9561q-.0321-.5775-.0418-1.1557c-.0008-.0454-.0026-.0909-.0039-.1364Z"/><path class="a" d="M1343.2434,573.352c-.0044.1093-.0085.2185-.0132.3277-.0083.1937-.014.3876-.0263.5811q-.0189.2982-.0487.5955c-.0191.1911-.0408.3821-.0675.5723a9.139,9.139,0,0,1-.3619,1.602,5.8613,5.8613,0,0,1-.5348,1.1848,4.547,4.547,0,0,1-1.7231,1.6579,6.1814,6.1814,0,0,1-1.1466.4861,8.7936,8.7936,0,0,1-.983.2458c-.2045.0395-.41.0738-.6163.1016q-.2434.0327-.4881.0568-.2817.028-.5643.0485c-.1563.0112-.313.0179-.47.0247-.1548.0066-.31.0107-.47.0162a.0905.0905,0,0,0,.0433.01c.0321.0015.0641.0021.0962.0034.2154.0082.431.0141.6462.0255.1725.0092.3447.024.5169.0381.1243.01.2485.0213.3723.0357.15.0175.3.0384.45.0587.1924.0262.3834.06.5736.098a7.7938,7.7938,0,0,1,1.5154.4529,5.1688,5.1688,0,0,1,1.0908.6193,4.4752,4.4752,0,0,1,1.1687,1.3063,5.8081,5.8081,0,0,1,.5116,1.1317,8.3056,8.3056,0,0,1,.2578.9705c.05.2436.091.4887.1245.7349q.0418.3064.0689.6147c.0241.2687.043.5377.0536.8073q.011.2748.0212.55a.1689.1689,0,0,0,.0043.0423c.0014-.0594.0022-.1189.0041-.1783.0078-.2343.0132-.4688.0247-.7029q.0153-.3143.0422-.6279c.016-.19.0377-.3788.0593-.5679.0339-.2961.0816-.59.1413-.8821a7.2,7.2,0,0,1,.4277-1.41,4.7588,4.7588,0,0,1,.568-.9911,4.222,4.222,0,0,1,1.2369-1.0985,5.6605,5.6605,0,0,1,1.0715-.4846,8.2777,8.2777,0,0,1,.9995-.2666q.3191-.0655.6415-.1119c.1516-.0217.3036-.04.4558-.0572q.2469-.0274.4945-.0486c.1224-.0107.2451-.0182.3678-.025q.2723-.0149.5446-.0266c.1085-.0046.2173-.0056.3259-.0089a.2955.2955,0,0,0,.0793-.0123l-.0591-.002c-.1675-.0048-.335-.0079-.5023-.015-.16-.0068-.32-.0172-.48-.0272-.1156-.0073-.2311-.0151-.3464-.0253-.126-.011-.2517-.0243-.3774-.0379-.0939-.01-.1876-.0211-.2811-.0338-.1323-.0179-.2647-.0358-.3964-.057q-.2979-.0478-.5925-.1132a7.283,7.283,0,0,1-1.4088-.4539,4.8309,4.8309,0,0,1-1.0127-.6052,4.2261,4.2261,0,0,1-1.031-1.1825,5.5242,5.5242,0,0,1-.4891-1.0954,8.12,8.12,0,0,1-.2484-.9619q-.0678-.3426-.1132-.6886c-.0223-.1712-.04-.3431-.0581-.5148-.0249-.2385-.0409-.4777-.0542-.7171q-.024-.4332-.0313-.8668c-.0006-.0341-.0019-.0682-.0029-.1023Z"/><path class="a" d="M1597.1879,114.6044c-.01.2548-.02.51-.0308.7644-.0194.4521-.0327.9045-.0613,1.356q-.0441.6956-.1138,1.3895c-.0443.446-.0951.8916-.1575,1.3354a21.3193,21.3193,0,0,1-.8442,3.7379,13.6737,13.6737,0,0,1-1.2481,2.7645,10.6107,10.6107,0,0,1-4.02,3.8686,14.441,14.441,0,0,1-2.6755,1.1342,20.5172,20.5172,0,0,1-2.2935.5735c-.4773.0921-.9565.1722-1.4382.237q-.568.0765-1.1389.1326-.6575.0654-1.3166.1132c-.3648.0261-.73.0418-1.0959.0575-.3613.0155-.7229.0251-1.0964.0378a.2112.2112,0,0,0,.1012.0237c.0747.0034.15.005.2243.0078.5027.0192,1.0056.0331,1.5079.06.4025.0213.8044.0558,1.2062.0888.29.0237.58.05.8686.0832.3507.0409.7.09,1.05.1372.4488.0609.8945.14,1.3384.2286a18.1709,18.1709,0,0,1,3.5358,1.0567,12.0685,12.0685,0,0,1,2.5452,1.445,10.4446,10.4446,0,0,1,2.727,3.048,13.56,13.56,0,0,1,1.1938,2.6408,19.3667,19.3667,0,0,1,.6016,2.2644c.1168.5683.2123,1.14.2905,1.7147q.0973.7152.1607,1.4344c.0563.627.1,1.2547.1251,1.8836q.0252.6413.05,1.2825a.3859.3859,0,0,0,.01.0987c.0031-.1387.005-.2774.01-.416.018-.5468.0307-1.0939.0575-1.64q.0358-.7332.0984-1.465c.0375-.4424.0881-.8839.1385-1.3252.079-.6907.19-1.3766.3295-2.058a16.7977,16.7977,0,0,1,.9981-3.29,11.1052,11.1052,0,0,1,1.3253-2.3124,9.8476,9.8476,0,0,1,2.8863-2.5633,13.2026,13.2026,0,0,1,2.5-1.1307,19.3621,19.3621,0,0,1,2.332-.6222q.7446-.1527,1.497-.2609c.3536-.0507.7083-.0942,1.0634-.1336q.5762-.0639,1.1538-.1134c.2856-.0248.572-.0424.8584-.0581q.6349-.0351,1.27-.0622c.2534-.0107.5071-.0131.7606-.0207a.6821.6821,0,0,0,.1849-.0288c-.046-.0015-.0919-.0033-.1379-.0046-.3907-.0113-.7815-.0184-1.1719-.035-.3737-.0159-.7472-.04-1.12-.0635-.27-.0169-.5393-.0353-.8084-.0589-.2938-.0258-.5873-.0568-.8806-.0885-.2189-.0237-.4377-.0494-.6558-.0789-.3087-.0417-.6175-.0835-.925-.133q-.6949-.1119-1.3823-.2643a16.9867,16.9867,0,0,1-3.2873-1.059,11.2793,11.2793,0,0,1-2.3631-1.4121,9.8662,9.8662,0,0,1-2.4056-2.7592,12.8866,12.8866,0,0,1-1.1411-2.5559,18.9311,18.9311,0,0,1-.58-2.2445q-.1583-.7992-.2642-1.6066c-.052-.4-.0934-.8006-.1354-1.2014-.0583-.5565-.0955-1.1146-.1265-1.6732q-.0561-1.0105-.0731-2.0224c-.0013-.08-.0045-.1591-.0068-.2387Z"/><path class="a" d="M1580.4421,142.31c-.0044.1092-.0085.2184-.0132.3276-.0083.1938-.014.3877-.0263.5812q-.0189.2981-.0488.5955c-.019.1911-.0407.3821-.0675.5723a9.1267,9.1267,0,0,1-.3618,1.6019,5.8588,5.8588,0,0,1-.5348,1.1848,4.548,4.548,0,0,1-1.7231,1.658,6.1877,6.1877,0,0,1-1.1466.486,8.794,8.794,0,0,1-.983.2459c-.2045.0394-.41.0737-.6163.1015q-.2434.0329-.4881.0569-.2819.0279-.5643.0485c-.1563.0112-.313.0179-.47.0246-.1548.0066-.31.0108-.47.0162a.0907.0907,0,0,0,.0433.01c.0321.0014.0641.0021.0962.0033.2154.0083.4309.0142.6462.0256.1725.0091.3447.0239.5169.038.1243.01.2485.0213.3723.0357.15.0175.3.0384.45.0588.1924.0261.3834.06.5736.098a7.78,7.78,0,0,1,1.5154.4529,5.1728,5.1728,0,0,1,1.0908.6192,4.4791,4.4791,0,0,1,1.1687,1.3063,5.809,5.809,0,0,1,.5116,1.1318,8.3,8.3,0,0,1,.2578.97c.05.2435.091.4886.1245.7348.0279.2044.05.4093.0689.6148.0241.2687.043.5377.0536.8072q.011.2748.0212.55a.17.17,0,0,0,.0043.0423c.0014-.0595.0022-.1189.0041-.1783.0078-.2344.0132-.4688.0247-.703q.0153-.3143.0422-.6279c.016-.19.0377-.3788.0593-.5679.0339-.296.0816-.59.1412-.882a7.2055,7.2055,0,0,1,.4278-1.41,4.7606,4.7606,0,0,1,.568-.991,4.22,4.22,0,0,1,1.2369-1.0986,5.6605,5.6605,0,0,1,1.0715-.4846,8.3183,8.3183,0,0,1,.9994-.2666q.3192-.0656.6416-.1119c.1516-.0217.3036-.04.4558-.0572q.2469-.0275.4944-.0486c.1225-.0106.2452-.0182.3679-.0249q.2722-.015.5446-.0267c.1085-.0045.2173-.0056.3259-.0088a.2955.2955,0,0,0,.0793-.0123l-.0592-.002c-.1674-.0049-.3349-.0079-.5022-.015-.16-.0069-.32-.0172-.48-.0273-.1156-.0072-.2311-.0151-.3464-.0252-.126-.0111-.2518-.0244-.3775-.0379-.0938-.01-.1875-.0212-.281-.0338-.1323-.0179-.2647-.0358-.3965-.057q-.2977-.048-.5924-.1133a7.283,7.283,0,0,1-1.4088-.4539,4.8347,4.8347,0,0,1-1.0127-.6051,4.2275,4.2275,0,0,1-1.031-1.1825,5.5276,5.5276,0,0,1-.4891-1.0955,8.12,8.12,0,0,1-.2484-.9619q-.0678-.3424-.1132-.6885c-.0223-.1713-.04-.3431-.0581-.5149-.025-.2385-.0409-.4777-.0542-.7171q-.024-.4331-.0313-.8667c-.0006-.0341-.0019-.0682-.0029-.1023Z"/></svg>