<svg xmlns="http://www.w3.org/2000/svg" width="3000" height="880" viewBox="0 0 3000 880"><defs><style>.a,.b{fill:#fff;}.a{opacity:0.5;}</style></defs><title>hero-bg-swirls-new</title><path class="a" d="M2460,476.0886c195.0327-79.749,355.7912-161.36,390.2894-323.3518,39.3652-184.8454-151.7589-287.1176-151.7589-287.1176S1756.5776,0,1696.5806,0c6,105.8823,33.27,234.4877,157.4921,275.0987C2010.0649,326.0961,2052.77,175.93,2234.2611,159.43c85.9792-7.8163,164.4115,51.367,158.95,130.4935-10.4571,151.4924-263.1519,235.6623-566.1367,226.6627S1518.09,252.6,1344.0982,177.6036s-302.9848-34.4983-379.481-56.9972S865.6222,0,865.6222,0H0S97,373,305,419c212.6776,47.0345,235.2049-152.6577,341.6331-145.4012,65.9967,4.5,77.58,80.9717,169.5911,97.2631,143.8932,25.4777,242.2021-66.5519,386.8811-64.2648,147.79,2.3363,210.72,125.365,388.4806,223.4888C1779.0765,633.5808,2264.9673,555.8377,2460,476.0886Z"/><path class="a" d="M1407.0951,789.573C1485.0912,744.5752,1506,502,1353.8221,473,1233.9694,450.16,1090.3808,584.1225,932,559,787,536,783,426,682,419c-100.1639-6.9421-211.5894,66.4392-227.3573,160.8478C433.6438,705.5772,610,822,789,838S1329.099,834.5707,1407.0951,789.573Z"/><path class="a" d="M2199,869s-26-49-73-53-256,1-235-129,199.5271-7.5277,354-28c83-11,74.9759-85.8946,170.9759-83.8946S2579,696,2579,696s-167.94,96.27-210.94,119.27c-67-31-185.06-139.6028-227.56-97.5195-19.5,24.5833-.0833,48.8333,41.1667,55.9167,57.7144,9.91,114.8261,21.93,132.3333,60.3333C2331.2006,875.7452,2199,869,2199,869Z"/><path class="b" d="M1331.9635,758.0745c81.1313-29.9985,102.38-130.32,21.3845-170.9914-58.3969-29.3237-184.8764-4.5-265.8723,29.9985S885.7894,668.36,812.9894,647.08c-97.4951-28.4986-85.4957-113.9943-172.4914-113.9943-61.4969,0-100.8971,41.9007-100.495,112.4944.4367,76.654,104.9948,136.4931,202.49,160.4919S1250.8321,788.073,1331.9635,758.0745Z"/><path class="b" d="M1218,275s-68.0346-54.9517-145-48c-103.3333,9.3333-136,74.8478-221,62.9239S724.4305,198.6378,653,197c-126.3609-2.8973-187.3454,144.4367-335.3454,122.4367s-239-275-100-401S591.6338-145.44,651-107C825,5.6667,787,179.6667,935.6667,191.6667,1020.8893,198.5456,1023,169.6667,1105,188,1156.5386,199.5229,1195,226,1218,275Z"/><path class="b" d="M1797.6667-103.6667c10.6666,58.6667-37.3334,214.6667,60.6666,256s143.487-51.1827,313.7235-81.2244c101.9949-17.9991,261.2334,12.4,292.4854,107.9946,25.4987,77.9961,25.4987,188.9905-158.992,307.4846,265.4867-94.4953,432.5838-196.6129,431.9784-359.982-.4663-125.825-138.3218-242.9382-182.9909-241.4879C2451.8711-111.5485,1797.6667-103.6667,1797.6667-103.6667Z"/></svg>