<?xml version="1.0" encoding="utf-8"?>
<!-- Generator: Adobe Illustrator 22.0.1, SVG Export Plug-In . SVG Version: 6.00 Build 0)  -->
<svg version="1.1" id="Layer_2" xmlns="http://www.w3.org/2000/svg" xmlns:xlink="http://www.w3.org/1999/xlink" x="0px" y="0px"
	 viewBox="0 0 677 766.2" style="enable-background:new 0 0 677 766.2;" xml:space="preserve">
<style type="text/css">
	.st0{display:none;}
	.st1{display:inline;}
	.st2{fill:#0D73B8;}
	.st3{fill:#30A8DC;}
	.st4{fill:#FDFEFE;}
	.st5{fill:#EAEDEF;}
	.st6{display:inline;fill:#181818;}
	.st7{fill:#E5A328;}
	.st8{fill:#F1BE27;}
	.st9{fill:#181818;}
	.st10{fill:#FEFEFD;}
	.st11{fill:#ECECED;}
	.st12{fill:#E55228;}
	.st13{fill:#F1672E;}
	.st14{display:inline;fill:#0A0C0E;}
	.st15{fill:#FDFDFD;}
</style>
<g class="st0">
	<g class="st1">
		<polygon class="st2" points="-328.2,615.1 -136.4,669.1 56.9,615.1 100,133.7 -371.4,133.7 		"/>
		<polygon class="st3" points="-136.4,172.9 -136.4,629.2 19.7,584.4 56.9,172.9 		"/>
	</g>
	<g class="st1">
		<polygon class="st4" points="12.2,228.4 -14.5,529 -135.7,562.8 -256.7,529 -264.8,436.4 -205.1,436.4 -200.9,483.1 -135.7,501 
			-69.8,482.6 -63.1,406.9 -200.8,406.9 -206.8,347 -58.3,347 -52.1,287.4 -278.1,287.4 -284,228.4 		"/>
		<polygon class="st5" points="-284,228.4 -135.9,228.4 -135.9,287.4 -278.1,287.4 		"/>
		<polygon class="st5" points="-135.7,347 -206.6,347 -200.6,406.9 -135.7,406.9 		"/>
		<polygon class="st5" points="-136.3,501 -201.4,483.1 -205.7,436.4 -265.3,436.4 -257.3,529 -136.3,562.8 		"/>
	</g>
	<g>
		<polygon class="st6" points="-271.2,3.3 -271.2,93.8 -198.6,93.8 -198.6,67.4 -240.6,67.4 -240.6,29.3 -198.6,29.3 -198.6,3.3 		
			"/>
		<polygon class="st6" points="-183.5,93.8 -99.3,93.8 -99.3,71.7 -139.9,28.2 -99.3,28.2 -99.3,3.3 -183.5,3.3 -183.5,23.9 
			-144.8,67.6 -183.5,67.6 		"/>
		<polygon class="st6" points="-84.5,93.8 -0.3,93.8 -0.3,71.7 -40.9,28.2 -0.3,28.2 -0.3,3.3 -84.5,3.3 -84.5,23.9 -45.8,67.6 
			-84.5,67.6 		"/>
	</g>
</g>
<g class="st0">
	<g class="st1">
		<polygon class="st7" points="615.6,614.6 807.4,668.6 1000.6,614.6 1043.8,133.3 572.3,133.3 		"/>
		<polygon class="st8" points="807.3,172.5 807.3,628.7 963.4,584 1000.6,172.5 		"/>
	</g>
	<g class="st1">
		<polygon class="st9" points="809.4,93 893.6,93 893.6,70.9 853,27.4 893.6,27.4 893.6,2.5 809.4,2.5 809.4,23.1 848.1,66.8 
			809.4,66.8 		"/>
		<polygon class="st9" points="795.1,2.5 795.1,93 722.3,93 722.3,62.7 763.4,62.7 763.4,2.5 		"/>
	</g>
	<g class="st1">
		<polygon class="st10" points="807.3,258.7 879.3,258.7 885.2,322.5 944.7,322.5 933.6,195.3 807.3,195.5 		"/>
		<polygon class="st10" points="807.3,566.2 928.5,532.2 944.6,350.8 807.3,350.8 807.3,411 880.1,411 871.4,487 807.3,505.3 		"/>
		<polygon class="st11" points="807.3,505.3 741.2,486 737.5,439.7 677.4,439.7 685.9,532.6 807.3,566.2 		"/>
		<polygon class="st11" points="743.2,350.8 751.6,258.7 807.3,258.7 807.3,195.5 696.8,195.3 678.1,411 807.3,411 807.3,350.8 		
			"/>
	</g>
</g>
<g>
	<polygon class="st12" points="63.7,685 335.1,761.4 608.6,685 669.6,3.8 2.5,3.8 	"/>
	<polygon class="st13" points="335,59.3 335,704.9 556,641.6 608.6,59.3 	"/>
	<g class="st0">
		<polygon class="st14" points="64.2,-179.7 64.2,-52.4 107.8,-52.4 107.8,-95 144.6,-95 144.6,-52.5 188.8,-52.5 188.8,-179.7 
			145.1,-179.7 145.1,-138.6 107.1,-138.6 107.1,-179.7 		"/>
		<polygon class="st14" points="206.5,-179.7 206.5,-136.8 244.1,-136.8 244.1,-52.4 287.1,-52.4 287.1,-137.1 324.5,-137.1 
			324.5,-179.7 		"/>
		<polygon class="st14" points="341.9,-179.7 341.9,-52.4 384.4,-52.4 384.4,-112.3 412.6,-69.6 442.1,-113.1 442.1,-52.5 
			485.7,-52.5 485.7,-179.7 441.1,-179.7 413.8,-137.2 387.1,-179.7 		"/>
		<polygon class="st14" points="506.1,-179.7 506.1,-52.4 608.8,-52.4 608.8,-94.3 549.4,-94.3 549.4,-179.7 		"/>
	</g>
	<g>
		<polygon class="st15" points="544.8,143.4 126.3,143.4 149.8,398 437.3,398 426.7,503.7 335,529.2 243.5,503.7 236.1,437.8 
			152.6,437.8 164,566.2 335,616.8 506.8,569.3 531.1,312.6 227.2,312.6 219.4,226.7 536.5,226.7 		"/>
		<polygon class="st11" points="335,529.2 243.8,503.6 236.4,437.8 152.9,437.8 164.3,566.1 335,616.8 		"/>
		<polygon class="st11" points="335,143.4 125.8,143.4 149.3,398 334.2,398 334.2,312.6 226.7,312.6 218.9,226.7 335.1,226.7 		"/>
	</g>
</g>
</svg>
