<svg xmlns="http://www.w3.org/2000/svg" width="29.3118in" height="29.3117in" viewBox="0 0 2110.4523 2110.4403"><defs><style>.a{fill:#fff;}</style></defs><title>linkedin-logo</title><path class="a" d="M1054.9335,2110.4425C465.976,2109.3976.0023,1631.4143,0,1055.0852-.0022,477.9951,467.6-2.0009,1059.0186.0085,1646.5267,2.0052,2111.2592,480.48,2110.4513,1056.6651,2109.6439,1632.41,1643.6805,2109.7084,1054.9335,2110.4425Zm70.295-1158.2187c-.2115-4.3869-.3824-6.2739-.3815-8.1607.0126-27.6619.1017-55.3239.0546-82.9856-.0223-13.0366-4.1053-17.2578-17.09-18.1449-1.66-.1135-3.331-.0892-4.997-.0895q-112.4788-.0186-224.9581-.0119a76.8726,76.8726,0,0,0-10.97.44c-9.273,1.3437-12.8162,4.8069-14.2219,14.0031a74.9885,74.9885,0,0,0-.5853,11.9561c.3619,40.32,1.1532,80.6388,1.1363,120.9576q-.1083,257.4417-.6322,514.8834c-.0757,42.9917-.6,85.9823-.8568,128.974-.12,20.1681,3.5188,23.7406,23.8707,23.7426q113.4809.0107,226.9619-.0082a84.1362,84.1362,0,0,0,8.99-.1971c9.0008-.9718,13.0947-5.2447,13.2992-14.3035.1879-8.3254-.1587-16.6615-.158-24.9928q.0178-205.9654.1465-411.9307a278.0218,278.0218,0,0,1,1.8607-32.87c5.9972-49.8132,30.5136-88.1713,73.0945-114.5252,31.512-19.5028,65.8941-25.3064,101.7377-15.7381,49.81,13.2966,79.9684,47.0008,94.01,95.7217,7.7063,26.7382,10.0725,54.2855,10.0734,82.0358q.0066,205.9658-.1927,411.9311c-.0549,23.7872,9.2417,25.0835,25.343,25.0258,74.6531-.2676,149.3074-.1178,223.9616-.1259,2.9985,0,6.0173.1189,8.9919-.1732,9.0174-.8855,13.9419-5.6,14.9444-14.5615a107.9458,107.9458,0,0,0,.2557-11.9863q-.0313-206.4657-.0171-412.9311c.0362-36.35-1.1682-72.5529-5.8052-108.6687-4.43-34.5043-11.68-68.2382-24.4438-100.6267-28.9277-73.4081-77.6523-128.3512-151.2172-159.1849-55.237-23.1519-113.0944-29.2581-172.3989-23.5586a252,252,0,0,0-106.3863,34.7543c-33.7349,20.1484-61.0039,47.1759-83.72,79.0259-2.6,3.645-5.5339,7.0515-9.7,12.3237ZM433.5252,1249.99q0,191.9714.0074,383.9428c.0023,20.3513,3.522,23.8555,23.7166,23.86q111.9831.023,223.966.0354c21.9859.0047,25.6662-3.5761,25.6588-25.3225q-.0282-84.4874-.11-168.9747.0263-296.4557.0972-592.9116c.0006-3.6659.1156-7.3409-.0957-10.9959-.6376-11.0279-4.8783-15.4834-15.9817-16.57a119.7585,119.7585,0,0,0-11.9877-.2133c-46.3256.1395-92.6511.3842-138.9769.42-28.6616.0223-57.3235-.3833-85.9851-.3667-15.9392.0091-20.1823,4.4383-20.304,20.1539-.0258,3.3325-.0084,6.6655-.0084,9.9984Q433.5213,1061.5178,433.5252,1249.99Zm137.15-512.95c13.4922-1.7922,27.162-2.7368,40.4464-5.52C676.0744,717.909,719.2029,669.53,724.3338,603.8471c4.613-59.05-26.13-112.35-82.1727-137.2243-36.6494-16.2667-74.8649-18.3992-113.481-9.5538-79.1817,18.1362-113.0553,80.62-111.4075,141.1415,1.1908,43.7286,19.1422,79.0942,53.2617,106.0839,29.2112,23.107,63.3522,31.4591,100.1411,32.7448Z" transform="translate(0 -0.0022)"/></svg>