<svg width="431" height="191" viewBox="0 0 431 191" fill="none" xmlns="http://www.w3.org/2000/svg">
<path d="M170.962 178.192C177.971 190.088 193.297 194.048 205.192 187.038C217.088 180.029 221.048 164.703 214.038 152.808L170.962 178.192ZM131.538 12.8077C124.529 0.912328 109.203 -3.04823 97.3077 3.96154C85.4123 10.9713 81.4518 26.2969 88.4615 38.1923L131.538 12.8077ZM3.96154 152.808C-3.04823 164.703 0.912328 180.029 12.8077 187.038C24.7031 194.048 40.0287 190.088 47.0385 178.192L3.96154 152.808ZM129.538 38.1923C136.548 26.2969 132.588 10.9713 120.692 3.96154C108.797 -3.04823 93.4713 0.912328 86.4615 12.8077L129.538 38.1923ZM274.962 178.192C281.971 190.088 297.297 194.048 309.192 187.038C321.088 180.029 325.048 164.703 318.038 152.808L274.962 178.192ZM235.538 12.8077C228.529 0.912328 213.203 -3.04823 201.308 3.96154C189.412 10.9713 185.452 26.2969 192.462 38.1923L235.538 12.8077ZM383.962 178.192C390.971 190.088 406.297 194.048 418.192 187.038C430.088 180.029 434.048 164.703 427.038 152.808L383.962 178.192ZM344.538 12.8077C337.529 0.912328 322.203 -3.04823 310.308 3.96154C298.412 10.9713 294.452 26.2969 301.462 38.1923L344.538 12.8077ZM214.038 152.808L131.538 12.8077L88.4615 38.1923L170.962 178.192L214.038 152.808ZM47.0385 178.192L129.538 38.1923L86.4615 12.8077L3.96154 152.808L47.0385 178.192ZM318.038 152.808L235.538 12.8077L192.462 38.1923L274.962 178.192L318.038 152.808ZM427.038 152.808L344.538 12.8077L301.462 38.1923L383.962 178.192L427.038 152.808Z" fill="white"/>
</svg>
