<svg id="afa9d2be-87dd-4965-8b38-101762436c10" data-name="Layer 1" xmlns="http://www.w3.org/2000/svg" viewBox="0 0 1280.09 784.14"><defs><style>.a09da329-959d-4179-81f8-1cf7bfdca6c5{fill:#333;}.\38 a0c48ee-8f19-4ab9-929e-a5128462101c{fill:#7fc634;}.\37 4fe3ba3-25f4-4d8c-9801-b64f18d53505{fill:#fefefe;}.\33 298264c-f8f6-4553-a627-d252e24af0bc{fill:#699f64;}</style></defs><title>node-logo</title><path class="a09da329-959d-4179-81f8-1cf7bfdca6c5" d="M1025.93,609c0,57.65-.08,115.31.09,173,0,8.42-3,14-10.43,18.19Q956.67,833.75,898.08,868c-6.61,3.84-12.57,3.88-19.18,0q-59.52-34.63-119.21-68.94c-5.73-3.3-8.67-8-8.66-14.61q0-69.74,0-139.47c0-6.91,3.29-11.59,9.09-14.93q44.32-25.5,88.61-51.07c9.66-5.57,19.44-10.93,28.89-16.83,7.51-4.69,14.41-4.66,21.87.09,8,5.09,16.35,9.58,24.56,14.33,6.92,4,10.19,2.12,10.2-5.93q0-90.24,0-180.46a34.64,34.64,0,0,1,.18-5.49c.89-5.55,5.69-8.17,10.75-5.71,4.48,2.18,8.79,4.71,13.14,7.14,19,10.6,38,21.35,57.11,31.75,7.42,4,10.63,9.64,10.6,18.11C1025.85,493.65,1025.93,551.31,1025.93,609ZM934,714.73c0-7.33-.14-14.66.06-22a6.8,6.8,0,0,0-3.91-6.81q-19.3-10.95-38.48-22.16a6.15,6.15,0,0,0-6.93,0q-19.4,11.31-38.91,22.41a6.32,6.32,0,0,0-3.54,6.05q.11,22.5,0,45a6.15,6.15,0,0,0,3.55,6q19.54,11.05,38.9,22.42a5.92,5.92,0,0,0,6.87,0q19.35-11.37,38.91-22.4c2.74-1.55,3.58-3.5,3.52-6.46C933.88,729.4,934,722.07,934,714.73Z" transform="translate(-80.92 -378.07)"/><path class="8a0c48ee-8f19-4ab9-929e-a5128462101c" d="M690,713.52c0,22.65-.12,45.31.08,68,.06,7.12-2.73,12-8.83,15.47-20.83,11.9-41.57,23.94-62.35,35.93-18.8,10.84-37.63,21.63-56.37,32.57-6.2,3.61-12,3.73-18.3.08q-59.1-34.35-118.35-68.4c-6.14-3.53-9-8.37-9-15.4q.06-69-.12-137.93c0-6.91,2.79-11.73,8.66-15.12,39.42-22.75,78.93-45.34,118.13-68.47,9.81-5.79,17.25-1.08,24.91,3.28,26.59,15.1,53,30.52,79.46,45.82,10.65,6.16,21.2,12.47,32,18.4,7.19,4,10.32,9.58,10.22,17.84C689.84,668.21,690,690.86,690,713.52Z" transform="translate(-80.92 -378.07)"/><path class="a09da329-959d-4179-81f8-1cf7bfdca6c5" d="M81,734.07c0-30.49.11-61-.08-91.49,0-7.68,3-12.88,9.57-16.66q59.33-34,118.5-68.19c6.42-3.71,12.35-3.68,18.78,0q59.16,34.22,118.5,68.17c6.63,3.8,9.57,9.13,9.55,16.73q-.31,92.24-.41,184.48c0,9.89-5.18,12.72-13.86,7.73-22.65-13-45.26-26.06-68-38.92-6.67-3.77-9.59-9.07-9.55-16.68.15-27.83-.09-55.67.15-83.49.07-7.93-3-13.25-9.87-17-8.89-4.88-17.67-10-26.36-15.21-6.53-3.92-12.73-3.87-19.25,0-8.84,5.31-17.8,10.41-26.81,15.43-6.48,3.6-9.38,8.81-9.34,16.29.17,27.66-.06,55.33.15,83,.07,8.39-3,14-10.48,18.19-22.66,12.63-45.09,25.69-67.6,38.59-8,4.56-13.41,1.53-13.42-7.57q-.06-46.74,0-93.49Z" transform="translate(-80.92 -378.07)"/><path class="a09da329-959d-4179-81f8-1cf7bfdca6c5" d="M1087,712.51c0-22.83.11-45.66-.06-68.49-.06-7.29,2.9-12.29,9.14-15.88q59.46-34.23,118.81-68.63c6.41-3.72,12.39-3.8,18.8-.06q59,34.45,118.21,68.7c6.22,3.6,9.27,8.65,9.13,15.91-.19,10.33-.08,20.66,0,31,0,6.61-2.79,11.42-8.52,14.74q-35.17,20.38-70.29,40.89c-7.73,4.49-13.1,1.4-13.14-7.5,0-10.17-.16-20.33,0-30.5.1-4.55-1.66-7.49-5.55-9.7q-17.37-9.83-34.57-20c-3.82-2.25-7.27-2.46-11.19-.14-11.59,6.86-23.28,13.56-35,20.21a9.74,9.74,0,0,0-5.4,9.33q.14,20.25,0,40.5c0,4.47,1.88,7.29,5.83,9.54q58.93,33.63,117.72,67.53c2.15,1.23,4.47,2.29,5.94,4.42,2.88,4.16,1.18,8.55-4.48,11.7l-60.17,33.45c-3.63,2-7.25,4.07-10.89,6.1a15,15,0,0,1-15.67-.09q-60.47-34.49-120.91-69c-5.38-3.08-7.8-7.86-7.78-14.09C1087,759.17,1087,735.84,1087,712.51Z" transform="translate(-80.92 -378.07)"/><path class="8a0c48ee-8f19-4ab9-929e-a5128462101c" d="M573.87,1004.22c0-21.33.23-42.67-.09-64-.17-11.38,4.5-19.42,14.19-25q55.38-31.92,110.69-64c10.21-5.93,20-5.79,30.17.15q55,32,110.27,63.72c9.93,5.7,14.59,14,14.56,25.39q-.15,64,0,128c0,11.16-4.53,19.37-14.34,25q-56.32,32.3-112.47,64.88c-8.69,5-17.4,5.2-26.07.14-12.64-7.4-25.23-14.9-37.83-22.38-1.24-.74-3-1.3-3-3,0-1.93,2-2,3.31-2.51a75.79,75.79,0,0,0,14.05-6.4c2.48-1.52,4.53-1.11,6.91.34,8.39,5.1,17,9.9,25.3,15.1,3,1.87,5.34,1.69,8.26,0q55.08-31.92,110.29-63.64c3.49-2,4.85-4.3,4.84-8.32q-.2-63.24,0-126.49c0-4-1.27-6.35-4.78-8.37q-55-31.56-109.85-63.43c-3-1.77-5.6-2.15-8.79-.3Q654,901.25,598.36,933.23c-2.83,1.62-3.78,3.69-3.77,6.88q.12,64.25,0,128.49c0,3.18.94,5.18,3.85,6.8,9.31,5.17,18.46,10.63,27.66,16a31.2,31.2,0,0,0,10.69,4c10.55,1.74,18.46-4.47,19-15.2.24-5.16.06-10.33.06-15.5V953.18c0-7.33.06-7.45,7.12-7.38,16.44.15,14-2.12,14.07,13.93.1,40.16,0,80.33,0,120.49,0,6.75-.85,13.3-3.75,19.44-6.21,13.14-21.09,19.73-37.76,16.89a65.38,65.38,0,0,1-20.91-7.88c-9.16-5.11-18.2-10.42-27.31-15.61s-13.53-12.84-13.48-23.34C574,1047.88,573.87,1026.05,573.87,1004.22Z" transform="translate(-80.92 -378.07)"/><path class="8a0c48ee-8f19-4ab9-929e-a5128462101c" d="M748.82,1070.18c-13.76,0-27.3-1.35-39.82-7.66-13-6.56-19.74-17.41-20.83-31.82-.41-5.4.68-6.52,6.06-6.58,3.66,0,7.33,0,11,0,2.76,0,4.39,1.28,4.74,4.06,1.56,12.49,9.4,18.54,21.14,20.41,12.77,2,25.55,2.21,38.21-.66,6.6-1.49,12.19-4.58,14.15-11.82s-.22-12.06-7.07-14.94C769,1018,761,1017,753.09,1016c-12.19-1.58-24.54-2.18-36.38-5.92-16.2-5.11-24-14.05-24.61-28.28-.7-16,7.06-28.57,22.31-34.26,21.58-8,43.49-7.69,64.88.62,14.46,5.61,21.14,17.5,22.8,32.54.42,3.83-.84,5.79-4.89,5.43a9.45,9.45,0,0,0-2,0c-8.52,1.08-15.12.17-17.47-10.41-1.48-6.69-8-10.1-14.66-11.44a88.24,88.24,0,0,0-33.74-.27,21,21,0,0,0-9.53,4.12c-4.21,3.38-5.34,7.91-4.6,13,.64,4.47,4.16,6.25,7.91,7.39,9.59,2.89,19.52,4,29.39,5.49,10.69,1.6,21.43,2.92,31.75,6.36,12.52,4.17,21.28,11.72,22.51,25.66,1.28,14.59-3.47,26.63-16.2,34.64S763.48,1070.24,748.82,1070.18Z" transform="translate(-80.92 -378.07)"/><path class="74fe3ba3-25f4-4d8c-9801-b64f18d53505" d="M934,714.73c0,7.34-.1,14.67,0,22,.06,3-.78,4.91-3.52,6.46q-19.56,11-38.91,22.4a5.92,5.92,0,0,1-6.87,0q-19.35-11.37-38.9-22.42a6.15,6.15,0,0,1-3.55-6q.09-22.5,0-45a6.32,6.32,0,0,1,3.54-6.05Q865.3,675,884.72,663.73a6.15,6.15,0,0,1,6.93,0q19.17,11.21,38.48,22.16a6.8,6.8,0,0,1,3.91,6.81C933.84,700.07,934,707.4,934,714.73Z" transform="translate(-80.92 -378.07)"/><path class="74fe3ba3-25f4-4d8c-9801-b64f18d53505" d="M885.22,930.4c0,2.16-.33,4.39.09,6.46s-2,5.75,2.17,5.89c4.71.17,1.76-3.91,2.62-5.94.06-.14,0-.33,0-.5,0-1.62-.35-3.49,2.27-3.45,2.19,0,4.47-.26,4.76,2.92.16,1.82.55,3.61.81,5.42.34,2.31,2.13,1.65,3.5,1.62,1.82,0,1.5-1.4,1.28-2.54-.52-2.59-.6-5.43-1.79-7.67-1-1.83-1.28-2.43.24-4.23,3.12-3.68,1.57-9-2.81-10-4-1-8.73-1.67-12.2.14-2.53,1.33-.57,5.84-.93,8.91A24.68,24.68,0,0,0,885.22,930.4Z" transform="translate(-80.92 -378.07)"/><path class="3298264c-f8f6-4553-a627-d252e24af0bc" d="M892.85,928.82c2.94.12,4.82-1,4.78-3.91,0-2.6-2-2.92-4.21-3-2.53-.16-3.61.61-3.44,3.3C890.13,927.3,890,929.32,892.85,928.82Z" transform="translate(-80.92 -378.07)"/><path class="74fe3ba3-25f4-4d8c-9801-b64f18d53505" d="M892.85,928.82c-2.9.5-2.72-1.52-2.87-3.66-.17-2.69.91-3.46,3.44-3.3,2.18.13,4.16.45,4.21,3C897.67,927.83,895.79,928.94,892.85,928.82Z" transform="translate(-80.92 -378.07)"/><path class="8a0c48ee-8f19-4ab9-929e-a5128462101c" d="M1197.15,698.91V724.7a7.46,7.46,0,0,0,4,6.63l19.37,9.93a7.44,7.44,0,0,0,6.78,0l19.49-9.95a7.43,7.43,0,0,0,4.07-6.63V700a7.48,7.48,0,0,0-3.64-6.41l-19.58-11.65a7.46,7.46,0,0,0-7.4-.13L1201,692.38A7.45,7.45,0,0,0,1197.15,698.91Z" transform="translate(-80.92 -378.07)"/></svg>