<svg xmlns="http://www.w3.org/2000/svg" xmlns:xlink="http://www.w3.org/1999/xlink" width="20.0044in" height="20.0264in" viewBox="0 0 1440.3184 1441.903"><defs><style>.a{fill:url(#a);}.b{fill:#d36011;opacity:0.3;}.c{fill:#dd6a14;}.d{fill:url(#b);}.e{fill:url(#c);}</style><radialGradient id="a" cx="720" cy="720" fx="486.0033712358699" fy="468.02131234377276" r="908.0672" gradientTransform="translate(395.5661 -244.9518) rotate(26.4108)" gradientUnits="userSpaceOnUse"><stop offset="0" stop-color="#fbb03b"/><stop offset="1" stop-color="#f7931e"/></radialGradient><radialGradient id="b" cx="389.4702" cy="496.7872" fx="793.921902446154" fy="-45.11383051966345" r="676.1937" gradientTransform="translate(395.4404 -245.1094) rotate(26.4108)" gradientUnits="userSpaceOnUse"><stop offset="0" stop-color="#fff" stop-opacity="0.3"/><stop offset="0.1144" stop-color="#fff9f3" stop-opacity="0.3379"/><stop offset="0.3032" stop-color="#fde9d2" stop-opacity="0.4406"/><stop offset="0.5431" stop-color="#fbcf9c" stop-opacity="0.608"/><stop offset="0.8217" stop-color="#f9ac52" stop-opacity="0.8375"/><stop offset="1" stop-color="#f7931e"/></radialGradient><linearGradient id="c" x1="772.3292" y1="225.5223" x2="402.3644" y2="205.1162" gradientTransform="translate(-256.704 125.2138)" gradientUnits="userSpaceOnUse"><stop offset="0" stop-color="#fff" stop-opacity="0.5"/><stop offset="1" stop-color="#fbb03b" stop-opacity="0.3"/></linearGradient></defs><title>orange-planet</title><circle class="a" cx="720.1592" cy="720.1592" r="720"/><path class="b" d="M1377.85,427.2811c-45.6285,132.8706-113.41,259.0522-204.6945,365.21-201.5768,237.6745-514.0033,369.4473-825.492,309.1844-88.8962-16.42-175.429-28.7306-262.6034-42.1567a716.7056,716.7056,0,0,0,314.7147,305.3345c356.1421,176.8742,788.237,31.5489,965.1111-324.5931C1464.1745,840.3391,1461.92,616.4887,1377.85,427.2811Z" transform="translate(0.1256 0.1576)"/><path class="c" d="M156.9184,1168.9387C271.11,1250.72,549.8775,1496.5425,972.8245,1312.878c460.4059-199.931,466.7428-621.98,466.7428-621.98s32.9078,494.178-447.0111,695.5333C539.6773,1576.4415,188.2923,1220.0673,156.9184,1168.9387Z" transform="translate(0.1256 0.1576)"/><path class="d" d="M548.9464,754.8924c143.8163-77.4914,310.94-143.4072,342.48-316.6129,22.8967-141.1768-10.9707-292.3845-117.44-392.4788A627.6922,627.6922,0,0,0,720.9337-.1048C456.0083-.2323,201.01,146.3823,75.1815,399.7427-73.6252,699.37,5.646,1052.738,246.6234,1262.6749,263.982,1059.5642,353.753,861.3028,548.9464,754.8924Z" transform="translate(0.1256 0.1576)"/><ellipse class="e" cx="330.6429" cy="340.533" rx="185.4124" ry="126.0353" transform="translate(-141.5077 388.0464) rotate(-51.5702)"/></svg>