<svg xmlns="http://www.w3.org/2000/svg" xmlns:xlink="http://www.w3.org/1999/xlink" width="11.4606in" height="2.4212in" viewBox="0 0 825.1648 174.324"><defs><style>.a{opacity:0.6;fill:url(#a);}.b,.c{fill:#fff;}.b{opacity:0.7;}.c{opacity:0.8;}</style><radialGradient id="a" cx="762.2692" cy="785.8212" r="474.2358" gradientTransform="translate(0 616.1618) scale(1 0.2159)" gradientUnits="userSpaceOnUse"><stop offset="0" stop-color="#fff"/><stop offset="0.3726" stop-color="#fdfdfe"/><stop offset="0.5069" stop-color="#f8f6f8"/><stop offset="0.6026" stop-color="#eeebf0"/><stop offset="0.68" stop-color="#dfdae3"/><stop offset="0.7463" stop-color="#ccc4d2"/><stop offset="0.805" stop-color="#b5a8be"/><stop offset="0.8581" stop-color="#9a88a5"/><stop offset="0.9069" stop-color="#7a6289"/><stop offset="0.9523" stop-color="#553768"/><stop offset="0.9926" stop-color="#2e0946"/><stop offset="1" stop-color="#26003f"/></radialGradient></defs><title>planet-ring</title><path class="a" d="M967.25,711.0684a195.292,195.292,0,0,1,7.8458,45.9186c54.7513,7.3316,89.3242,17.2939,89.3242,28.511,0,22.3576-134.6437,40.482-300.735,40.482S462.95,807.8556,462.95,785.498c0-9.7932,27.4659-19.0779,70.46-26.0792a218.1656,218.1656,0,0,1,7.7956-46.3288C426.2087,728.5287,349.79,755.6971,349.79,786.578c0,48.0463,184.6733,86.9956,412.4794,86.9956s412.4793-38.9493,412.4793-86.9956C1174.7485,754.2679,1091.2338,726.0723,967.25,711.0684Z" transform="translate(-349.7898 -711.0684)"/><path class="b" d="M1174.7485,786.578c.4637,1.7072,0,9.831,0,11.8187,0,48.0464-184.6732,86.9957-412.4793,86.9957S349.79,846.4431,349.79,798.3967V786.578c.71,56.047,234.5435,86.9956,412.4794,86.9956C939.9247,873.5736,1171.5,843.3333,1174.7485,786.578Z" transform="translate(-349.7898 -711.0684)"/><path class="c" d="M465.5224,790.8112s.3034-.274.9261-.7632c.2929-.23.6566-.5079,1.0925-.8272,6.1088-4.4745,26.4172-17.1023,65.459-21.0541.1876-4.3393.41-8.7479.41-8.7479s-86.5319,12.62-67.8875,31.3924" transform="translate(-349.7898 -711.0684)"/><path class="c" d="M1055.4073,795.23c43.6573-23.5919-80.3113-38.2428-80.3113-38.2428s.4457,5.8414.4457,8.3463C975.5417,765.3333,1061.4167,776.1492,1055.4073,795.23Z" transform="translate(-349.7898 -711.0684)"/></svg>