<svg xmlns="http://www.w3.org/2000/svg" width="19.7126in" height="17.5351in" viewBox="0 0 1419.305 1262.5274"><defs><style>.a{fill:#00bdff;}</style></defs><title>react-logo</title><path class="a" d="M1133.324,485.1576c6.2559,1.9025,11.9328,3.6034,17.5942,5.3548,43.3291,13.4043,85.4936,29.7115,125.7709,50.6792,27.6436,14.3908,54.015,30.7736,78.2263,50.4919,15.2286,12.4026,29.3307,25.9408,41.5665,41.35,11.9012,14.9879,21.6432,31.1957,27.8861,49.386a114.543,114.543,0,0,1,6.0223,48.7644,130.1769,130.1769,0,0,1-12.9648,44.5275c-8.7276,17.9458-20.4264,33.8-33.9535,48.362-19.1915,20.66-41.15,37.9921-64.6532,53.435-28.14,18.49-57.9292,33.8963-88.7788,47.3072a821.8767,821.8767,0,0,1-88.0071,32.2174c-1.6458.5021-3.2728,1.0665-4.9017,1.6221-.1659.0567-.2842.2523-.7343.6728.2371,1.4335.3991,3.1094.799,4.7265a756.0194,756.0194,0,0,1,14.453,75.1334c2.35,16.529,4.0206,33.1371,5.17,49.8066a562.48,562.48,0,0,1,.9322,57.56c-1.1291,33.7078-5.6649,66.8966-16.1377,99.096a208.4151,208.4151,0,0,1-20.7344,45.4495,144.24,144.24,0,0,1-23.4512,29.04c-16.462,15.6-35.9183,25.3226-58.0928,29.807-17.49,3.537-35.0408,3.6336-52.697,1.48-26.7057-3.2575-52.0333-11.2942-76.6492-21.8253-29.7514-12.7283-57.5682-28.9347-84.239-47.1683-34.7962-23.7887-66.9548-50.8047-97.4791-79.8143-1.3647-1.297-2.7965-2.5233-4.3908-3.9567-1.6306,1.4761-3.0638,2.718-4.436,4.024a764.3146,764.3146,0,0,1-80.4844,67.0176c-28.101,20.2151-57.5024,38.2509-88.94,52.8552a349.7417,349.7417,0,0,1-64.3427,23.0569c-19.4911,4.7625-39.2174,7.3562-59.3053,6.576-20.3983-.7921-39.8633-5.26-57.9952-14.9557-14.6326-7.8248-26.7251-18.6021-37.0235-31.4849-13.4732-16.8543-22.6981-35.96-29.48-56.3142a302.5438,302.5438,0,0,1-12.9625-60.0887,449.2994,449.2994,0,0,1-2.8869-67.829q1.017-31.3749,5.0351-62.5343A845.0941,845.0941,0,0,1,308.24,967.3979c.3947-1.6267.5456-3.3127.8482-5.2109-2.1138-.6844-3.8992-1.3036-5.7087-1.8423a759.0685,759.0685,0,0,1-111.1867-42.3205C161.65,903.42,132.4146,886.6107,105.2472,866.33c-21.316-15.913-40.9291-33.63-57.4968-54.545C35.6348,796.49,25.6122,779.9836,19.036,761.5235a120.83,120.83,0,0,1-7.4206-42.3c.2105-16.9384,4.1526-33.0561,10.9162-48.5278,7.8437-17.9427,18.8344-33.8323,31.7781-48.42a304.3406,304.3406,0,0,1,46.4858-42.0245c26.1263-19.423,54.2512-35.47,83.59-49.4645C223.09,512.3253,263.3065,497.9106,304.43,485.92c1.4729-.4295,2.9433-.8715,4.3954-1.3652.3288-.1117.5759-.4636,1.05-.8659a26.4459,26.4459,0,0,0-.4153-3.2107c-6.1319-24.7824-11.2321-49.7742-15.1221-75.0059q-3.3773-21.9056-5.4568-43.9792-2.5692-26.9746-2.6566-54.0458a416.5751,416.5751,0,0,1,5.4637-71.6861c3.8535-22.5826,9.7307-44.6007,19.47-65.4445,8.534-18.2635,19.5155-34.7853,34.5966-48.3774,16.41-14.79,35.67-23.7182,57.2726-27.7283,18.68-3.4676,37.3944-3.1239,56.1563-.411,28.5406,4.1269,55.5038,13.3154,81.6642,25.1007,31.7836,14.3186,61.4539,32.2907,89.8663,52.4016a807.5066,807.5066,0,0,1,86.6323,71.3161c1.3871,1.3049,2.8144,2.5669,4.5052,4.1057,1.5585-1.37,3.0176-2.5625,4.3766-3.86A833.6412,833.6412,0,0,1,798.8357,180.75c30.5288-23.096,62.5544-43.7935,97.1471-60.3527a340.5445,340.5445,0,0,1,62.4663-23.1755c20.9739-5.3778,42.2367-8.0485,63.87-6.4056,35.5416,2.6991,64.7092,17.7139,86.9512,45.787a173.5069,173.5069,0,0,1,24.2462,42.3211c8.6414,21.0619,13.9518,43.014,17.3834,65.4755,4.6286,30.2974,5.4658,60.7765,4.2263,91.3211a660.0206,660.0206,0,0,1-6.1717,65.894q-5.66,39.9252-15.0415,79.1229C1133.6073,482.011,1133.5579,483.3461,1133.324,485.1576ZM851.3852,945.55c47.7917-72.0351,91.0352-146.6467,128.6981-224.08a10.9551,10.9551,0,0,0-.3977-1.5477q-1.0946-2.3461-2.2467-4.6655-40.5562-81.1526-88.4179-158.2226c-11.563-18.566-23.7567-36.7385-35.5652-55.1531-1.8075-2.8185-3.88-4.2841-7.368-4.4465-11.5008-.5352-22.9773-1.6529-34.48-2.063-26.47-.9435-52.9462-1.8751-79.428-2.3071-33.5977-.5481-67.175.7188-100.7342,2.2548-11.8845.5439-23.7493,1.5068-35.6292,2.1684-2.5071.14-4.4752.8048-5.6824,3.1327a20.0059,20.0059,0,0,1-1.2933,1.9037A1729.5392,1729.5392,0,0,0,464.7812,717.7894c-.6594,1.3612-1.2125,2.7737-1.6837,3.86a10.2107,10.2107,0,0,0,.3769,1.5115q1.2106,2.61,2.4764,5.1949A1727.3065,1727.3065,0,0,0,589.3919,941.3294c.6467.9522,1.3305,1.8807,1.9454,2.8529a4.8228,4.8228,0,0,0,4.3254,2.3421q5.18.106,10.3545.4571c25.0954,1.6861,50.2294,2.5222,75.3681,2.9526,38.5817.6605,77.1668.5261,115.7284-1.1225,15.3394-.6557,30.6669-1.5953,45.9974-2.45C845.7837,946.213,848.4442,945.8444,851.3852,945.55ZM325.65,903.3133c.6976-1.9938,1.3664-3.7483,1.9289-5.5363q14.8548-47.2124,33.0021-93.2588c10.3279-26.2376,21.259-52.223,33.1482-77.7927,1.6144-3.4721,1.9868-6.4831-.1171-9.6949a3.788,3.788,0,0,1-.26-.513c-25.0367-55.0455-47.1612-111.2137-65.1632-168.9727-.4462-1.4316-1.0819-2.8041-1.7636-4.5481-1.8439.4338-3.5152.7221-5.1209,1.2215-12.81,3.9841-25.6933,7.7561-38.3926,12.0685-35.4689,12.0446-69.9052,26.5066-102.6506,44.8092-19.6326,10.9733-38.4251,23.2035-55.7487,37.6013-12.287,10.2118-23.6721,21.3113-33.2769,34.139A108.2394,108.2394,0,0,0,76.51,698.779a58.604,58.604,0,0,0-3.89,27.6621,70.0387,70.0387,0,0,0,6.2366,21.4559,126.2517,126.2517,0,0,0,16.0867,25.8322,220.4974,220.4974,0,0,0,31.409,31.9893c22.0994,18.6466,46.3673,34.0347,71.8889,47.4982,39.1477,20.6515,80.222,36.5067,122.6291,49.0128C322.3065,902.6532,323.7955,902.8979,325.65,903.3133Zm355.3321,252.0125c-14.5408-16.6447-28.9264-32.61-42.7345-49.0591q-20.7219-24.6852-40.4754-50.1792c-13.1692-16.9448-25.7955-34.3118-38.6709-51.5087-6.9812-.5817-13.873-1.0254-20.7345-1.7537-16.021-1.7-32.0516-3.3475-48.0335-5.37-17.6912-2.2388-35.3727-4.6175-52.9853-7.3979-21.3979-3.3781-42.7079-7.2979-63.8638-12.0076-1.6073-.3579-3.3057-1.0737-5.0967-.1738a8.3466,8.3466,0,0,0-.6864,1.5014c-7.0417,29.0977-12.9184,58.41-16.5937,88.1477a562.09,562.09,0,0,0-4.5439,63.6893c-.23,24.4275,1.1955,48.7058,5.9478,72.7176,3.0263,15.2911,7.3247,30.1861,14.0667,44.2936a96.2947,96.2947,0,0,0,16.1445,24.3793,55.9372,55.9372,0,0,0,27.27,16.3066c13.2211,3.491,26.6082,3.3768,40.0053,1.7681,16.6361-1.998,32.6867-6.4837,48.3959-12.2444,26.2256-9.6175,50.8278-22.4883,74.4478-37.2885,38.1982-23.9348,73.0553-52.13,105.6408-83.2C679.2975,1157.1694,680.04,1156.3171,680.9824,1155.3258Zm85.6814-.7888c.6272,2.1051,2.382,3.11,3.739,4.41a751.6565,751.6565,0,0,0,60.9926,52.6478c26.349,20.3007,53.9425,38.6785,83.7491,53.5787,21.3442,10.67,43.3755,19.4923,66.8766,24.1729,13.6116,2.7112,27.2957,3.9456,41.1835,1.94,14.8689-2.1475,27.3055-8.5533,37.1746-19.9262a101.2272,101.2272,0,0,0,12.8976-19.0148c7.8864-14.8557,12.9854-30.7063,16.5637-47.0728,6.682-30.5623,8.4827-61.5357,7.4724-92.7154a602.9191,602.9191,0,0,0-6.2089-68.1815q-4.94-33.6159-12.9443-66.6205a25.358,25.358,0,0,0-1.1269-3.0249,11.7492,11.7492,0,0,0-2.0116.014c-14.8306,3.072-29.6333,6.2843-44.4893,9.2275-24.6522,4.884-49.4807,8.7528-74.3923,12.0106-18.0665,2.3627-36.2042,4.1819-54.3139,6.2107-4.3847.4912-8.78.8994-13.1779,1.256a6.7071,6.7071,0,0,0-5.6534,3.3205c-1.708,2.773-3.6886,5.3789-5.5649,8.0475-33.5906,47.7744-69.3558,93.8261-108.6113,137.1135C768.0506,1152.7769,767.3591,1153.6923,766.6638,1154.537Zm-208.18-714.7264c4.492-6.2114,8.6266-11.9768,12.813-17.7042q6.2844-8.5975,12.6587-17.13,6.3891-8.52,12.8988-16.95,6.5034-8.4337,13.1154-16.7837,6.6222-8.341,13.373-16.58,6.74-8.2459,13.5892-16.4028,6.8641-8.1436,13.8679-16.1693c4.6634-5.3546,9.4275-10.6212,14.0933-15.9737,4.6191-5.299,9.7476-10.1618,14.1842-15.977-1.6933-1.7118-3.1115-3.2469-4.6346-4.67-18.9436-17.6986-38.5941-34.57-59.2029-50.3067-25.3565-19.362-51.8363-36.9958-80.1859-51.7176-20.3017-10.5425-41.2508-19.5049-63.4284-25.3353-16.7915-4.4143-33.7877-7.0039-51.2367-5.2338-17.4991,1.7753-31.8643,9.0978-42.5632,23.3207-7.5825,10.08-12.9746,21.2577-17.1355,33.0756-7.3806,20.962-10.83,42.7135-12.6449,64.7589a394.0029,394.0029,0,0,0-1.093,44.8737,629.0847,629.0847,0,0,0,6.538,72.1832c3.6541,24.6858,8.6168,49.1016,14.4444,73.3524.3469,1.4433.9416,2.827,1.5888,4.7325,31.2756-7.0022,62.5287-12.8658,93.965-17.7034C494.9591,446.628,526.57,442.8682,558.4839,439.8106ZM764.6211,290.393c21.78,23.5773,42.4455,47.7719,62.2992,72.6572,19.9772,25.04,39.0454,50.7658,57.4321,76.7637,9.5909,1.0464,18.7447,2.0229,27.8929,3.05,8.9607,1.0056,17.9278,1.9688,26.87,3.1225,9.13,1.1779,18.2377,2.5331,27.3466,3.8693,8.9192,1.3084,17.8427,2.5985,26.7364,4.0662,9.0815,1.4987,18.1412,3.1391,27.188,4.8363,8.8573,1.6615,17.6807,3.5036,26.53,5.21,8.9868,1.7324,17.8519,4.086,27.0777,5.6851.4215-1.4159.79-2.4823,1.0561-3.5737a742.387,742.387,0,0,0,14.6721-78.5879,587.7931,587.7931,0,0,0,5.063-63.0946c.6693-28.2831-.6419-56.4084-6.1439-84.2285-3.0233-15.2875-7.3018-30.2-13.8993-44.37-4.5609-9.7962-10.1326-18.9288-17.6141-26.8294-9.6646-10.206-21.6084-15.5346-35.4286-17.3154-12.5479-1.6169-24.8974-.4042-37.207,1.8776-15.5275,2.8783-30.4317,7.8332-45.0042,13.83-26.0072,10.7021-50.3183,24.5383-73.68,40.0966-35.2543,23.4786-67.5925,50.5613-98.232,79.73C766.6283,288.0893,765.7954,289.1123,764.6211,290.393Zm354.9832,609.8563c1.711-.4061,2.8327-.6073,3.9146-.9385,44.1119-13.5049,86.9707-30.1,127.6469-52.022,20.8111-11.2158,40.7984-23.7325,59.3658-38.4256,14.346-11.3525,27.67-23.7485,38.9014-38.2687a115.8136,115.8136,0,0,0,15.1436-25.0619,66.9738,66.9738,0,0,0,5.2573-18.77c1.2518-10.7933-.8587-20.9976-5.1989-30.8382a114.8058,114.8058,0,0,0-15.4015-24.9011c-9.7068-12.25-20.9879-22.9156-33.095-32.7373-20.5017-16.6313-42.8326-30.45-66.1728-42.6643-41.2775-21.6-84.7076-37.7737-129.3206-50.9207-1.22-.36-2.4978-.5252-3.91-.8143-.6284,1.7773-1.1612,3.2-1.6363,4.6422-2.9413,8.9254-5.7973,17.88-8.8146,26.7792-16.1532,47.6441-35.1915,94.131-56.1476,139.8489-2.7981,6.1045-3.0314,4.5227.0826,11.1681,25.8266,55.115,49.0217,111.2825,67.6225,169.2851C1118.3025,897.0481,1118.9118,898.4383,1119.6043,900.2493Zm-59.5775,15.1429c-3.1794-16.5487-39.9831-112.5389-47.0419-122.8817-.3183.1951-.7846.3123-.9341.5962q-38.447,73.0905-82.3188,143.0584a2.5381,2.5381,0,0,0-.225,1.087c-.0148.1638.1116.34.1739.5112C949.479,937.1842,1044.294,921.1516,1060.0268,915.3922ZM430.4832,794.5486c-9.35,17.5127-44.133,113.1363-45.0576,123.9972,24.8206,5.5852,49.8928,10.0495,75.0946,13.73,17.6328,2.5754,35.35,4.573,53.0313,6.8147a.7472.7472,0,0,0,.511-.2386,4.109,4.109,0,0,0,.4053-.9087c-29.6366-46.07-57.14-93.685-82.6721-142.44C431.6443,795.2148,431.2172,795.07,430.4832,794.5486Zm208.9344,215.9441a23.2411,23.2411,0,0,0,1.3187,2.1391q3.6531,4.8114,7.3706,9.5736c22.5892,29.1042,46.184,57.3631,71.1143,84.4962,1.3912,1.514,2.5173,3.3909,4.7316,4.2282,1.1044-1.1555,2.201-2.2139,3.1977-3.3594,8.8125-10.1273,17.7249-20.1709,26.3824-30.4294,17.4458-20.6723,34.0711-41.9981,50.1414-63.7552.85-1.15,2.3074-2.1177,1.8-4.3405-54.766,2.6573-109.5572,2.3781-164.3491.4666a3.1429,3.1429,0,0,0-1.1076.2423C639.8741,1009.8047,639.7893,1010.0218,639.4176,1010.4927Zm-.2365-577.0066c1.0855,1.1841,2.4942.6127,3.7361.5727,9.2063-.2965,18.4072-.8268,27.6151-.9887,39.53-.6953,79.0593-1.05,118.5755.71,4.2172.1879,8.44.2639,12.661.3426.8681.0161,1.9606.342,2.3493-.93-10.3645-16.6865-71.9686-90.7588-82.2912-98.9522C709.0194,345.403,644.6415,422.7021,639.1811,433.4861Zm373.6289,215.85c3.652-7.737,6.7618-15.7234,9.9909-23.6483,3.2556-7.99,6.3833-16.0332,9.4776-24.0875,3.0254-7.875,6.0149-15.7656,8.8779-23.7007,2.928-8.1149,5.7189-16.28,8.5042-24.4456,2.7656-8.1074,5.6062-16.1952,7.9317-24.7229a31.1563,31.1563,0,0,0-3.558-1.2334c-13.3241-2.7737-26.616-5.7264-39.9968-8.1958-17.155-3.166-34.3637-6.0551-51.5871-8.8285-10.0307-1.6151-20.1339-2.7813-30.2092-4.1132-.8588-.1134-1.9227-.5209-2.4524.65,0,.2394-.0716.4656.01.5958,28.6551,45.6737,55.8078,92.2169,80.9983,139.8965a9.5244,9.5244,0,0,0,.6114.975,1.7133,1.7133,0,0,0,.4.4025A8.9637,8.9637,0,0,0,1012.81,649.3359ZM430.3317,649.21c.7266-.4617,1.1834-.5852,1.331-.8693,25.0394-48.1707,52.2792-95.0723,81.2414-140.9822a.8756.8756,0,0,0,.0343-.5418,2.6411,2.6411,0,0,0-.1852-.5133c-16.734.2887-114.483,17.0315-126.5582,21.8675C387.9241,540.3069,420.1871,628.85,430.3317,649.21Z" transform="translate(-11.6069 -90.3349)"/><path class="a" d="M720.89,847.19A126.7427,126.7427,0,0,1,594.5515,719.47c.5821-71.163,58.88-125.9847,127.0808-125.7648,69.9163.2254,127.1262,57.6524,126.3387,128.2355A126.9093,126.9093,0,0,1,720.89,847.19Z" transform="translate(-11.6069 -90.3349)"/></svg>