<svg xmlns="http://www.w3.org/2000/svg" width="1415.1873" height="941.1589" viewBox="0 0 1415.1873 941.1589"><defs><style>.a{fill:#0d73b8;}.b{fill:#30a8dc;}.c{fill:#fdfefe;}.d{fill:#eaedef;}.e{fill:#181818;}.f{fill:#e5a328;}.g{fill:#f1be27;}.h{fill:#fefefd;}.i{fill:#ececed;}.j{fill:#e55228;}.k{fill:#f1672e;}.l{fill:#0a0c0e;}.m{fill:#fdfdfd;}</style></defs><title>test</title><polygon class="a" points="43.249 794.798 235.041 848.825 428.334 794.798 471.447 313.463 0 313.463 43.249 794.798"/><polygon class="b" points="234.979 352.662 234.979 808.919 391.106 764.167 428.334 352.662 234.979 352.662"/><polygon class="c" points="383.647 408.181 356.958 708.752 235.724 742.582 114.708 708.752 106.636 616.106 166.299 616.106 170.572 662.856 235.724 680.7 301.603 662.387 308.356 586.657 170.618 586.657 164.632 526.744 313.157 526.744 319.356 467.103 93.317 467.103 87.407 408.181 383.647 408.181"/><polygon class="d" points="87.407 408.181 235.527 408.181 235.527 467.103 93.317 467.103 87.407 408.181"/><polygon class="d" points="235.724 526.744 164.828 526.744 170.815 586.657 235.724 586.657 235.724 526.744"/><polygon class="d" points="235.175 680.7 170.024 662.856 165.751 616.106 106.087 616.106 114.159 708.752 235.175 742.582 235.175 680.7"/><polygon class="e" points="100.206 183.014 100.206 273.547 172.862 273.547 172.862 247.169 130.791 247.169 130.791 209.044 172.862 209.044 172.862 183.011 100.206 183.014"/><polygon class="e" points="187.935 273.547 272.129 273.547 272.129 251.419 231.541 207.919 272.129 207.919 272.129 183.011 187.935 183.011 187.935 203.652 226.628 247.326 187.935 247.326 187.935 273.547"/><polygon class="e" points="286.91 273.544 371.104 273.544 371.104 251.416 330.516 207.916 371.104 207.916 371.104 183.009 286.91 183.009 286.91 203.649 325.602 247.323 286.91 247.323 286.91 273.544"/><polygon class="f" points="986.989 794.343 1178.781 848.37 1372.074 794.343 1415.187 313.007 943.74 313.007 986.989 794.343"/><polygon class="g" points="1178.719 352.207 1178.719 808.463 1334.847 763.711 1372.074 352.207 1178.719 352.207"/><polygon class="e" points="1180.84 272.738 1265.034 272.738 1265.034 250.609 1224.446 207.109 1265.034 207.109 1265.034 182.202 1180.84 182.202 1180.84 202.842 1219.532 246.516 1180.84 246.516 1180.84 272.738"/><polygon class="e" points="1166.518 182.209 1166.518 272.731 1093.723 272.731 1093.723 242.419 1134.874 242.419 1134.874 182.209 1166.518 182.209"/><polygon class="h" points="1178.719 438.486 1250.731 438.487 1256.672 502.24 1316.128 502.24 1305.005 375.044 1178.719 375.275 1178.719 438.486"/><polygon class="h" points="1178.719 745.916 1299.958 711.919 1315.997 530.528 1178.719 530.528 1178.748 590.713 1251.547 590.713 1242.78 666.746 1178.719 685.013 1178.719 745.916"/><polygon class="i" points="1178.719 685.013 1112.622 665.758 1108.883 619.442 1048.863 619.442 1057.364 712.299 1178.719 745.916 1178.719 685.013"/><polygon class="i" points="1114.609 530.528 1122.989 438.486 1178.719 438.486 1178.719 375.275 1068.208 375.044 1049.521 590.713 1178.748 590.713 1178.719 530.528 1114.609 530.528"/><polygon class="j" points="435.132 864.706 706.536 941.159 980.064 864.706 1041.073 183.57 373.931 183.57 435.132 864.706"/><polygon class="k" points="706.448 239.04 706.448 884.688 927.384 821.359 980.064 239.04 706.448 239.04"/><polygon class="l" points="435.665 0 435.665 127.338 479.208 127.338 479.208 84.752 516.036 84.752 516.036 127.278 560.255 127.278 560.255 0.044 516.541 0.044 516.541 41.101 478.541 41.101 478.541 0 435.665 0"/><polygon class="l" points="577.934 0 577.934 42.919 615.541 42.919 615.541 127.338 658.541 127.338 658.541 42.669 695.895 42.669 695.895 0 577.934 0"/><polygon class="l" points="713.342 0 713.342 127.338 755.791 127.338 755.791 67.419 784.041 110.169 813.541 66.669 813.541 127.278 857.152 127.278 857.152 0.044 812.541 0.044 785.247 42.501 758.541 0 713.342 0"/><polygon class="l" points="877.5 0.044 877.5 127.338 980.208 127.338 980.208 85.419 920.831 85.419 920.831 0.044 877.5 0.044"/><polygon class="m" points="916.197 323.137 497.769 323.137 521.215 577.752 808.767 577.752 798.112 683.448 706.448 708.952 614.948 683.448 607.541 617.578 524.049 617.578 535.455 745.916 706.448 796.57 878.208 749.085 902.515 492.314 598.634 492.314 590.791 406.435 907.902 406.435 916.197 323.137"/><polygon class="i" points="706.448 708.952 615.227 683.371 607.82 617.501 524.328 617.501 535.734 745.839 706.448 796.57 706.448 708.952"/><polygon class="i" points="706.448 323.152 497.264 323.152 520.71 577.767 705.63 577.767 705.63 492.329 598.129 492.329 590.286 406.45 706.478 406.45 706.448 323.152"/></svg>