<svg width="735" height="669" viewBox="0 0 735 669" fill="none" xmlns="http://www.w3.org/2000/svg">
<path d="M576.175 637.5C553.775 641.9 515.675 665.5 469.675 668.5C423.675 671.5 400.675 654 344.675 649.5C288.675 645 140.175 670 104.175 598.5C68.1753 527 128.675 495.5 133.175 433C137.675 370.5 15.1753 391.5 2.67528 351C-9.82472 310.5 25.1753 260.5 31.6753 247.5C38.1753 234.5 34.1753 220.5 40.6753 207C47.1753 193.5 71.1753 186 84.1753 170C97.1753 154 80.6753 86.5 104.175 66C127.675 45.5 187.175 49.5 206.175 44C225.175 38.5 262.951 0 308.175 0C360.675 0 398.421 37.5593 425.175 44C452.175 50.5 543.675 34.4149 586.175 52.5C617.9 66 626.175 98.5 642.175 120C658.175 141.5 702.675 162 712.675 198C720.175 225 703.675 253 702.675 288.5C701.675 324 734.675 369 734.675 402.5C734.675 428.5 712.675 439.5 702.675 458.5C692.675 477.5 713.27 525 696.675 563.5C680.08 602 604.175 632 576.175 637.5Z" fill="#D7C0F4"/>
<g opacity="0.5">
<path d="M187.657 446.571C202.153 478.026 208.152 520.855 204.511 542.074C171.877 520.066 161.538 508.962 140.838 478.719C120.137 448.477 116.874 393.636 127.13 371C148.029 382.876 173.161 415.115 187.657 446.571Z" fill="#550F8C"/>
<path d="M134.658 531.461C112.861 513.948 75.5569 471.117 67.3506 446C101.992 453.301 139.736 474.064 166.016 497.978C187.04 517.11 224.331 562.055 232.649 586.638C205.764 580.971 156.455 548.974 134.658 531.461Z" fill="#470878"/>
<path d="M163.02 544.269C142.224 539.71 107.87 539.417 90.5992 542.194C99.5069 554.918 133.854 568.675 154.558 572.12C169.443 574.596 193.798 567.263 207.341 562.094C208.955 561.478 209 559.298 207.411 558.622C196.793 554.108 177.741 547.496 163.02 544.269Z" fill="#470878"/>
<path d="M166.999 581.999C152.199 582.399 110.999 579.999 93.4994 577.499C108.499 571.999 142.399 565.699 157.999 566.499C173.599 567.299 201.499 573.999 211.999 577.499C202.999 578.666 181.799 581.599 166.999 581.999Z" fill="#550F8C"/>
</g>
<g opacity="0.5">
<path d="M577.5 509.5C613.6 478.485 645.5 428.5 653 400C599.5 409 580.2 417 537 443C493.8 469 458.5 535.5 458.5 569.5C491.5 566.5 541.4 540.515 577.5 509.5Z" fill="#470878"/>
<path d="M585.5 536C609.1 524.4 652 493 664.5 472C631 472 592 483.5 563 500C539.8 513.2 496.5 546.5 484 567C510 567 561.9 547.6 585.5 536Z" fill="#550F8C"/>
<path d="M547.5 560C568.5 556.5 600.5 544 615.5 535C602.5 526.5 565.5 526.5 545 531C530.261 534.236 510.379 550.098 499.728 559.932C498.46 561.104 499.228 563.145 500.955 563.181C512.489 563.423 532.634 562.478 547.5 560Z" fill="#470878"/>
<path d="M541.5 574C556.3 574.4 597.5 572 615 569.5C600 564 566.1 557.7 550.5 558.5C534.9 559.3 507 566 496.5 569.5C505.5 570.667 526.7 573.6 541.5 574Z" fill="#550F8C"/>
</g>
<path d="M183.5 571V491H530V571C530 579 530 583.5 525 590C520.054 596.43 511.5 598 504 598H210C205 598 196 597 189.5 589.5C183 582 183.833 574.833 183.5 571Z" fill="#B898E0"/>
<path d="M549 496H164C162.895 496 162 495.104 162 494V481C162 479.895 162.895 479 164 479H549C550.105 479 551 479.895 551 481V494C551 495.104 550.105 496 549 496Z" fill="#C7A8ED"/>
<path d="M232.702 439.256C232.239 429.498 230.216 417.81 226.55 413C222.947 422.166 221.775 429.724 222.212 439.715C222.664 450.055 225.626 460.586 229.433 465.877C231.577 459.325 233.165 449.014 232.702 439.256Z" fill="#C7A8ED"/>
<path d="M228.567 451.034C226.644 441.457 222.888 430.205 218.541 426C216.356 435.603 216.333 443.252 218.265 453.063C220.265 463.218 224.776 473.185 229.334 477.844C230.47 471.044 230.491 460.612 228.567 451.034Z" fill="#C7A8ED"/>
<path d="M227.706 458.346C222.74 449.933 215.493 440.542 210.005 438C211.099 447.788 213.592 455.019 218.643 463.649C223.871 472.582 228.163 474.598 234 477.5C232.837 470.705 232.672 466.758 227.706 458.346Z" fill="#C2A4E7"/>
<path d="M235.909 451.916C238.275 442.438 239.703 430.662 237.578 425C231.488 432.74 228.19 439.641 225.731 449.334C223.186 459.366 222.991 470.304 225.112 476.467C229.053 470.81 233.542 461.394 235.909 451.916Z" fill="#C2A4E7"/>
<path d="M235.368 462.199C240.448 453.855 245.317 443.038 244.974 437C236.855 442.576 231.653 448.183 226.42 456.704C221.004 465.524 218.809 470.985 219 477.5C224.446 473.272 230.287 470.543 235.368 462.199Z" fill="#C7A8ED"/>
<path d="M212.269 458.248C212.124 456.499 213.504 455 215.259 455H237.741C239.496 455 240.876 456.499 240.731 458.248L239.157 477.248C239.028 478.803 237.728 480 236.167 480H216.833C215.272 480 213.972 478.803 213.843 477.248L212.269 458.248Z" fill="#550F8C"/>
<path d="M212 456H241" stroke="#8F64B6" stroke-width="4" stroke-linecap="round"/>
<path d="M357.591 364.5C357.591 367.183 351.039 369 348.656 369H388.865C385.44 369 376.355 367.578 376.355 364V349.5H357.591V364.5Z" fill="#F9B583"/>
<path d="M364.74 361.5C361.165 359.5 358.485 354.167 357.591 351.5H376.355V364C374.419 363.833 367.42 363 364.74 361.5Z" fill="#DD8F56"/>
<path d="M351.783 348C355.358 350.8 362.953 355 366.527 355C370.101 355 378.321 350.8 382.61 348C387.971 344.5 389.312 338 390.205 334C398.694 328.5 398.247 322 397.8 319C397.443 316.6 394.524 315.667 393.333 315.5C393.333 304 392.439 277.5 367.42 277.5C342.735 277.5 339.87 304.667 340.614 319C339.721 318 338.827 316 337.04 317C335.253 318 335.076 322.205 336.147 325C337.487 328.5 341.508 332.5 343.742 334C343.742 338.5 346.678 344 351.783 348Z" fill="#F9B583"/>
<path d="M378.209 276.133C376.06 275.556 373.818 275.361 371.616 275L364.906 275C362.522 275.26 360.133 275.472 357.757 275.793C355.12 276.149 352.473 276.49 349.874 277.054C347.986 277.507 346.019 277.433 344.167 276.84C342.541 276.302 340.959 275.619 339.357 275H338.583C336.985 275.68 336.576 277.052 336.865 278.638C337.176 280.13 337.569 281.601 338.042 283.046C338.279 283.837 338.631 284.592 338.928 285.356C336.515 286.461 336.033 287.697 337.202 290.087C337.809 291.328 338.572 292.478 339.473 293.504C339.74 293.783 339.948 294.117 340.084 294.485C340.22 294.853 340.282 295.246 340.264 295.641C340.244 302.762 340.282 309.884 340.229 317.006C340.219 318.353 340.74 319.259 341.718 320.224C341.799 319.618 341.844 319.18 341.918 318.747C342.521 315.206 343.117 311.663 343.754 308.128C343.828 307.645 344.04 307.198 344.362 306.843C345.728 305.539 346.46 303.88 346.87 302.061C347.243 300.406 347.483 298.717 347.791 296.987C349.396 297.148 351.009 297.347 352.627 297.465C360.462 298.038 368.272 297.569 376.071 296.789C379.228 296.473 382.288 298.75 382.921 301.95C383.646 305.609 385.738 308.178 388.873 309.801C389.709 310.234 389.945 310.733 389.971 311.638C390.055 314.521 390.22 317.401 390.365 320.281C390.394 320.525 390.444 320.766 390.514 321C391.349 319.952 391.967 318.645 392.971 318.031C394.925 316.837 395.289 314.976 395.592 312.97C395.639 312.659 395.706 312.351 395.748 312.039C396.744 304.607 395.781 297.227 394.226 292C392.671 286.773 388.865 282.5 388.865 282.5C387.59 281.11 384.887 279.379 383.414 278.356C381.879 277.289 380.016 276.619 378.209 276.133Z" fill="#550F8C"/>
<path d="M333.59 279.5C330.709 285.583 339.273 291.5 340.22 300L373.846 289.5C380.95 294 396.106 307 396.106 304.5C396.106 301.459 397.526 287.152 389.949 279.5C379.056 268.5 355.849 277 347.798 275.5C341.167 274.265 336.431 273.5 333.59 279.5Z" fill="#550F8C"/>
<path d="M319.854 469.802L320.042 469.731C321.108 469.327 321.637 468.12 321.203 467.067L303.078 423.115C302.552 421.839 300.918 421.462 299.887 422.379C294.415 427.247 285.5 435.409 285.5 440.5C285.5 456.5 285 466 294 472.5C300.449 477.158 312.995 472.402 319.854 469.802Z" fill="#FFA800"/>
<path d="M311.171 379.724C314.416 372.584 321.535 368 329.378 368H405.918C415.973 368 424.464 375.465 425.753 385.438L433.765 447.46C435.417 460.25 424.713 471.237 411.885 469.918L304.174 458.845C290.574 457.447 282.355 443.12 288.012 430.674L311.171 379.724Z" fill="#FFA800"/>
<path d="M300.979 468C311.929 468 314 475.174 314 479H289C289 475.174 291.083 468 300.979 468Z" fill="white"/>
<path d="M296 466.167V472" stroke="#C68E65" stroke-width="4" stroke-linecap="round"/>
<path d="M297 465V470.833" stroke="#F9B583" stroke-width="4" stroke-linecap="round"/>
<path d="M301 466.167V472" stroke="#C68E65" stroke-width="4" stroke-linecap="round"/>
<path d="M302 465V470.833" stroke="#F9B583" stroke-width="4" stroke-linecap="round"/>
<path d="M306 467.167V473" stroke="#C68E65" stroke-width="4" stroke-linecap="round"/>
<path d="M307 466V471.833" stroke="#F9B583" stroke-width="4" stroke-linecap="round"/>
<path d="M291 469.167V475" stroke="#C68E65" stroke-width="4" stroke-linecap="round"/>
<path d="M292 468V473.833" stroke="#F9B583" stroke-width="4" stroke-linecap="round"/>
<path d="M308 477L313.833 477" stroke="#C68E65" stroke-width="4" stroke-linecap="round"/>
<path d="M309 476L314.833 476" stroke="#F9B583" stroke-width="4" stroke-linecap="round"/>
<rect x="317" y="406" width="103" height="73" rx="5" fill="white"/>
<circle cx="368.5" cy="439.5" r="7.5" fill="#C5C5C5"/>
<rect x="316" y="472" width="105" height="7" fill="#C5C5C5"/>
<path d="M550 381V387" stroke="white" stroke-width="4" stroke-linecap="round"/>
<path d="M550 395V401" stroke="white" stroke-width="4" stroke-linecap="round"/>
<path d="M550 409V415" stroke="white" stroke-width="4" stroke-linecap="round"/>
<path d="M550 423V429" stroke="white" stroke-width="4" stroke-linecap="round"/>
<path d="M550 437L556 437" stroke="white" stroke-width="4" stroke-linecap="round"/>
<path d="M548 533L554 533" stroke="white" stroke-width="4" stroke-linecap="round"/>
<path d="M534 533L540 533" stroke="white" stroke-width="4" stroke-linecap="round"/>
<path d="M552 533C584.585 533 605 514.906 605 484.749C605 454.592 584.585 437 552 437" stroke="white" stroke-width="4" stroke-linecap="round" stroke-dasharray="5 8"/>
<path d="M475 376V252C475 245 474.187 238.5 468.5 231.5C462.812 224.5 455 222 449 222H374.5C360 222 346.5 213.6 346.5 196C346.5 178.4 360 168.5 374.5 168.5H496" stroke="#9668C0" stroke-width="4" stroke-linecap="round" stroke-dasharray="5 8"/>
<path d="M297.5 451.5V411.5C297.5 401 295.5 378.5 283.5 367C271.001 355.022 256.5 350.5 238.5 350.5H126.5C116.5 350.5 103 351.5 95 343.5C87 335.5 88.5 322.5 88.5 315.5V110C88.5 105.5 88.1 93.7 94.5 88.5C100.9 83.3 108 83 113 83H268.5" stroke="white" stroke-width="4" stroke-linecap="round" stroke-dasharray="5 8"/>
<rect x="507" y="277" width="156" height="106" rx="5" fill="#550F8C"/>
<rect x="519" y="264" width="156" height="106" rx="5" fill="white"/>
<path d="M540 286H559" stroke="#D7C0F4" stroke-width="8" stroke-linecap="round"/>
<path d="M540 301H605" stroke="#D7C0F4" stroke-width="8" stroke-linecap="round"/>
<path d="M540 316H577" stroke="#D7C0F4" stroke-width="8" stroke-linecap="round"/>
<path d="M540 331H609" stroke="#D7C0F4" stroke-width="8" stroke-linecap="round"/>
<path d="M540 346H596" stroke="#D7C0F4" stroke-width="8" stroke-linecap="round"/>
<path d="M635 346H655" stroke="#D7C0F4" stroke-width="8" stroke-linecap="round"/>
<path d="M641 331H655" stroke="#D7C0F4" stroke-width="8" stroke-linecap="round"/>
<path d="M629 316H654" stroke="#D7C0F4" stroke-width="8" stroke-linecap="round"/>
<path d="M645 301H655" stroke="#D7C0F4" stroke-width="8" stroke-linecap="round"/>
<path d="M607 286H655" stroke="#D7C0F4" stroke-width="8" stroke-linecap="round"/>
<rect x="57" y="238.16" width="213.571" height="82.8403" rx="5" fill="#550F8C"/>
<rect x="68" y="232" width="212" height="78" rx="5" fill="#9668C0"/>
<path d="M88 254H119" stroke="#550F8C" stroke-width="8" stroke-linecap="round"/>
<path d="M138 254H172" stroke="#550F8C" stroke-width="8" stroke-linecap="round"/>
<path d="M201 254H234" stroke="#550F8C" stroke-width="8" stroke-linecap="round"/>
<path d="M233 271H263" stroke="#550F8C" stroke-width="8" stroke-linecap="round"/>
<path d="M174 288H223" stroke="#550F8C" stroke-width="8" stroke-linecap="round"/>
<path d="M160 271H218" stroke="#550F8C" stroke-width="8" stroke-linecap="round"/>
<path d="M88 271H107" stroke="#550F8C" stroke-width="8" stroke-linecap="round"/>
<path d="M88 288H148" stroke="#550F8C" stroke-width="8" stroke-linecap="round"/>
<rect x="57" y="137.16" width="213.571" height="82.8403" rx="5" fill="#550F8C"/>
<rect x="68" y="131" width="212" height="78" rx="5" fill="#9668C0"/>
<path d="M88 154H148" stroke="#550F8C" stroke-width="8" stroke-linecap="round"/>
<path d="M88 172H106" stroke="#550F8C" stroke-width="8" stroke-linecap="round"/>
<path d="M160 172H219" stroke="#550F8C" stroke-width="8" stroke-linecap="round"/>
<path d="M221 189H263" stroke="#550F8C" stroke-width="8" stroke-linecap="round"/>
<path d="M252 172H263" stroke="#550F8C" stroke-width="8" stroke-linecap="round"/>
<path d="M175 154H202" stroke="#550F8C" stroke-width="8" stroke-linecap="round"/>
<path d="M88 189H119" stroke="#550F8C" stroke-width="8" stroke-linecap="round"/>
<path d="M138 189H171" stroke="#550F8C" stroke-width="8" stroke-linecap="round"/>
<rect x="501" y="110" width="78" height="105" rx="5" fill="#550F8C"/>
<path d="M516 128H564" stroke="#9668C0" stroke-width="8" stroke-linecap="round"/>
<path d="M516 141H532" stroke="#9668C0" stroke-width="8" stroke-linecap="round"/>
<path d="M516 154H539" stroke="#9668C0" stroke-width="8" stroke-linecap="round"/>
<path d="M515 167H543" stroke="#9668C0" stroke-width="8" stroke-linecap="round"/>
<path d="M515 180H519" stroke="#9668C0" stroke-width="8" stroke-linecap="round"/>
<path d="M560 167H564" stroke="#9668C0" stroke-width="8" stroke-linecap="round"/>
<path d="M562 193H564" stroke="#9668C0" stroke-width="8" stroke-linecap="round"/>
<path d="M558 154H564" stroke="#9668C0" stroke-width="8" stroke-linecap="round"/>
<path d="M534 180H564" stroke="#9668C0" stroke-width="8" stroke-linecap="round"/>
<path d="M561 141H565" stroke="#9668C0" stroke-width="8" stroke-linecap="round"/>
<path d="M515 193H539" stroke="#9668C0" stroke-width="8" stroke-linecap="round"/>
<path fill-rule="evenodd" clip-rule="evenodd" d="M278 59C278 54.5817 281.582 51 286 51H314C318.418 51 322 54.5817 322 59V107C322 111.418 318.418 115 314 115H286C281.582 115 278 111.418 278 107V59ZM304 107C304 109.209 302.209 111 300 111C297.791 111 296 109.209 296 107C296 104.791 297.791 103 300 103C302.209 103 304 104.791 304 107ZM314 59H286V99H314V59Z" fill="#8F64B6"/>
<path fill-rule="evenodd" clip-rule="evenodd" d="M601 142C596.582 142 593 145.582 593 150V184C593 188.418 596.582 192 601 192H642C646.418 192 650 188.418 650 184V150C650 145.582 646.418 142 642 142H601ZM618 157C620.209 157 622 155.209 622 153C622 150.791 620.209 149 618 149C615.791 149 614 150.791 614 153C614 155.209 615.791 157 618 157ZM633 153C633 155.209 631.209 157 629 157C626.791 157 625 155.209 625 153C625 150.791 626.791 149 629 149C631.209 149 633 150.791 633 153ZM640 157C642.209 157 644 155.209 644 153C644 150.791 642.209 149 640 149C637.791 149 636 150.791 636 153C636 155.209 637.791 157 640 157Z" fill="#8F64B6"/>
</svg>
