<svg width="2500" height="2200" viewBox="0 0 2500 2200" fill="none" xmlns="http://www.w3.org/2000/svg">
<path d="M215.922 311.073C47.3247 452.533 233.877 791.059 244.422 921.428C205.757 1115.22 -48.7081 1216.61 10.5451 1420.97C69.7982 1625.33 611.111 1586.58 723.089 1660.57C835.068 1734.56 855.533 2174.28 1171.38 2198.94C1487.23 2223.61 1533.43 1808.34 1652.94 1741.39C1772.45 1674.45 2141.02 1818.91 2221.37 1716.73C2301.71 1614.55 2020.63 1486.41 2101.48 1370.13C2182.32 1253.86 2520.14 1216.9 2499.05 984.348C2477.96 751.798 2070.72 836.865 1989.88 752.301C1909.03 667.737 1815.76 82.7254 1505.31 9.34838C1171.38 -69.5778 1013.33 389.597 820.003 428.355C626.677 467.113 470.633 97.3618 215.922 311.073Z" fill="url(#paint0_linear)"/>
<path d="M1280.59 1173.03V787.966L1870.61 461.792L1890.7 1308.94L1280.59 1173.03Z" fill="#30006D"/>
<path d="M1886.18 1230.13L1287.62 1046.4V1809.27L1899.74 1603.4L1886.18 1230.13Z" fill="#30006D"/>
<path d="M1897.1 309.06L1826.8 261.745L1088.15 763.59V1850.33L1311.6 1758.72V803.859L1854.92 509.396L1897.1 309.06Z" fill="#B3B3B3"/>
<path d="M1178.03 771.644V1810.57H1194.6V780.704L1848.9 413.758V392.617L1178.03 771.644Z" fill="#DFDFDF"/>
<path d="M1125.31 1254.86C1137.86 1278.52 1156.44 1353.02 1210.17 1360.07C1263.9 1367.11 1311.6 1465.27 1311.6 1465.27L1311.6 803.859L1865.47 503.859L1874.51 342.785L1897.11 309.06L1826.8 261.745L1827.81 342.785L1118.78 738.422C1116.77 833.389 1115.26 1235.94 1125.31 1254.86Z" fill="#30006D" fill-opacity="0.5"/>
<path d="M1074.59 689.597L1826.8 261.745L1836.85 350.839L1074.59 774.161V689.597Z" fill="#DFDFDF"/>
<path d="M2239.07 1286.58L1873 1553.35L1918.2 1580.54L2284.76 1315.27L2255.13 77.0134L2209.94 65.9396L2239.07 1286.58Z" fill="#898C8C"/>
<path d="M2058.8 1359.56L2044.74 842.617L2177.8 745.973V764.597L2063.82 851.174L2068.84 1353.02L2058.8 1359.56Z" fill="#898C8C"/>
<path d="M2039.71 231.543L2047.75 819.463L2065.32 807.382L2058.8 239.094L2168.26 159.564L2167.76 138.423L2039.71 231.543Z" fill="#898C8C"/>
<path d="M1907.65 345.805L1915.18 909.563L1896.6 922.147L1890.58 340.268L2012.6 251.174V271.309L1907.65 345.805Z" fill="#898C8C"/>
<path d="M1903.13 1468.29L1896.6 950.335L2023.14 856.711V880.369L1915.18 958.892L1918.2 1457.72L1903.13 1468.29Z" fill="#898C8C"/>
<path fill-rule="evenodd" clip-rule="evenodd" d="M1873 1553.35L2239.07 1286.58L2209.94 64.4295L1843.38 334.228L1873 1553.35ZM2041.72 231.04L2047.75 819.463L2179.81 726.342L2167.76 138.423L2041.72 231.04ZM1898.11 920.134L1891.08 341.778L2012.1 252.684L2024.15 834.06L1898.11 920.134ZM2046.74 844.127L2059.3 1360.07L2189.35 1259.4L2177.8 747.483L2046.74 844.127ZM1897.1 951.342L1903.63 1466.78L2037.71 1369.63L2022.64 857.718L1897.1 951.342Z" fill="#D1D1D1"/>
<path d="M723.089 828.02L705.514 1333.89L724.094 1331.37L736.647 843.12L885.784 819.463V801.845L723.089 828.02Z" fill="#898C8C"/>
<path d="M705.514 1343.46L690.952 1854.36H708.025L724.094 1357.55L873.231 1331.37V1317.78L705.514 1343.46Z" fill="#898C8C"/>
<path d="M890.806 1313.25L873.231 1832.72H895.325L907.377 1331.37L1059.02 1307.21V1288.09L890.806 1313.25Z" fill="#898C8C"/>
<path d="M675.385 1912.25L661.828 1899.66L1105.72 1848.32L1110.24 726.342L1130.83 743.456L1126.31 1868.96L675.385 1912.25Z" fill="#898C8C"/>
<path d="M906.372 797.315L890.806 1300.67L907.377 1297.15L923.445 814.429L1059.02 793.791V774.664L906.372 797.315Z" fill="#898C8C"/>
<path fill-rule="evenodd" clip-rule="evenodd" d="M661.828 1899.66L1110.24 1856.37V726.342L697.982 799.328L661.828 1899.66ZM893.819 1297.15L910.389 799.328L1057.02 777.684V1273.99L893.819 1297.15ZM893.819 1315.27L878.754 1829.7L1057.02 1811.07V1290.6L893.819 1315.27ZM708.025 1346.48L693.463 1851.34L862.183 1831.21L870.72 1320.3L708.025 1346.48ZM723.089 829.026L708.025 1330.87L870.72 1301.68L884.278 803.859L723.089 829.026Z" fill="#D1D1D1"/>
<path d="M1993.01 1648.49L1938.78 1607.21L1020.86 1934.9L1081.12 1967.11L1993.01 1648.49Z" fill="#898C8C"/>
<path d="M1938.78 1532.72V1607.21L1020.86 1934.9V1853.35L1938.78 1532.72Z" fill="#DFDFDF"/>
<path d="M1938.78 1532.72V1607.21L1993.01 1648.49V1575.5L1938.78 1532.72Z" fill="#656565"/>
<path d="M1434.13 1513.09C1446.18 1504.23 1459.74 1474.16 1465.26 1459.73H1479.32L1540.58 1529.7L1547.11 1584.06L1577 1659.46L1451.46 1703.25C1449.79 1687.98 1447.89 1662.38 1448.69 1657.55C1449.69 1651.51 1459.74 1639.93 1470.28 1631.88C1478.72 1625.44 1483.84 1602.52 1485.35 1593.12L1459.74 1604.19V1584.06C1462.58 1581.54 1469.38 1575.7 1473.8 1572.48C1478.22 1569.26 1479.49 1556.71 1480.83 1550.33C1477.48 1554.19 1474.4 1562.72 1460.74 1571.98C1447.08 1581.24 1426.43 1576.34 1420.07 1572.48L1413.04 1576.51C1409.02 1571.98 1400.28 1561.91 1397.47 1557.88C1394.66 1553.86 1390.27 1541.44 1388.43 1535.74C1398.64 1531.88 1422.08 1521.95 1434.13 1513.09Z" fill="white"/>
<path d="M1424.08 1594.13C1422.58 1590.1 1432.12 1575 1432.12 1575L1439.65 1576.51L1434.63 1603.69C1434.63 1603.69 1425.59 1598.15 1424.08 1594.13Z" fill="white"/>
<path d="M1343.5 1741L1386.68 1725.9C1381.33 1720.7 1376.38 1712.53 1359.81 1717.45C1343.24 1722.37 1343.67 1734.46 1343.5 1741Z" fill="white"/>
<path d="M1459.74 1604.19V1594.63C1464.26 1594.13 1474.66 1590.2 1480.32 1587.58C1489.36 1583.4 1498.57 1578.02 1504.43 1575C1500.58 1579.19 1490.97 1590.2 1483.34 1594.63C1475.7 1599.06 1464.42 1602.85 1459.74 1604.19Z" fill="#FBE1C9"/>
<path d="M1412.53 1682.72C1417.36 1678.69 1444.5 1654.36 1454.71 1646.98C1454.71 1646.98 1450.5 1663.93 1450.5 1674C1450.5 1684.07 1452.5 1703 1452.5 1703L1411.03 1717.1L1386.5 1726C1384.49 1723.99 1381.51 1721.51 1379.5 1720C1377.63 1718.59 1372.51 1716.5 1370 1716C1380.88 1707.11 1407.71 1686.74 1412.53 1682.72Z" fill="#FBE1C9"/>
<path d="M1504.43 1650.5L1469.42 1697.04L1487 1691L1504.43 1650.5Z" fill="#FBE1C9"/>
<path d="M1554.14 1622.82C1550.12 1612.75 1546.11 1577.18 1544.1 1559.9C1549.62 1571.81 1562.58 1600.37 1570.21 1619.29C1575.15 1631.56 1576.28 1647.3 1577.02 1659.49L1571.5 1661.5C1565.27 1648.1 1557.01 1630 1554.14 1622.82Z" fill="#CE8210"/>
<path d="M1469.78 1522.15C1485.85 1555.17 1523.51 1546.14 1541.59 1538.25C1544.6 1532.38 1554.34 1520.74 1559.16 1515.1C1563.98 1509.46 1572.55 1501.34 1576.23 1497.99L1570.21 1449.66H1500.41V1459.73H1474.3C1466.26 1466.61 1453.71 1489.13 1469.78 1522.15Z" fill="#CE8210"/>
<path d="M1449.69 1492.95C1440.38 1509.14 1438.65 1512.08 1422.08 1520.64V1496.48L1393.96 1517.11V1449.66H1441.66L1450.2 1459.73H1465.26C1462.75 1466.27 1457.23 1479.86 1449.69 1492.95Z" fill="#CE8210"/>
<path d="M1546.61 1507.05L1541.59 1538.25C1545.27 1532.55 1556.33 1517.94 1560.67 1513.59C1564.68 1509.56 1572.38 1501.51 1576.23 1497.99L1570.21 1449.66C1565.02 1459.06 1557.15 1476.34 1548.62 1489.43C1540.08 1502.52 1523.01 1518.79 1512.96 1527.68C1510.96 1520.8 1506.02 1507.22 1504.43 1496.48C1502.42 1482.88 1500.58 1468.62 1500.41 1459.73H1496.39C1496.23 1468.12 1496.14 1483.89 1497.9 1497.99C1499.41 1510.07 1503.59 1529.36 1506.94 1542.78C1512.96 1538.09 1525.82 1527.99 1529.03 1525.17C1532.25 1522.35 1542.59 1511.91 1546.61 1507.05Z" fill="#AC6B0C"/>
<path d="M1441.16 1481.88C1437.29 1487.42 1427.6 1498.99 1422.08 1504.53V1496.48C1426.59 1491.44 1433.85 1481.88 1438.14 1476.34C1442.05 1471.31 1447.18 1463.93 1450.2 1459.73H1456.22C1452.71 1465.94 1445.02 1476.34 1441.16 1481.88Z" fill="#AC6B0C"/>
<path d="M1449.19 1574.5C1453.21 1573.4 1458.73 1571.98 1460.74 1569.97C1460.41 1577.18 1459.74 1593.12 1460.24 1599.16C1460.74 1605.2 1460.24 1626.34 1450.7 1627.35C1436 1628.9 1427.6 1602.68 1428.1 1596.64C1428.5 1591.81 1432.79 1580.54 1434.63 1576.01C1437.14 1576.01 1444.67 1575.73 1449.19 1574.5Z" fill="#FFAA2B"/>
<path d="M1477.81 1568.46C1471.29 1576.99 1464.76 1580.37 1459.74 1584.06L1460.74 1569.97C1464.26 1567.45 1470.02 1562.13 1472.29 1559.39C1474.8 1556.37 1478.99 1550.67 1482.33 1546.81C1481.66 1551.17 1482.06 1562.9 1477.81 1568.46Z" fill="#542016"/>
<path d="M1416.55 1559.92C1427.4 1559.92 1433.12 1543.47 1434.63 1535.25C1429.94 1534.41 1419.46 1532.84 1415.05 1533.24C1410.63 1533.64 1401.15 1536.43 1396.97 1537.77C1398.98 1545.15 1405.71 1559.92 1416.55 1559.92Z" fill="#542016"/>
<path d="M1492.38 1495.99C1492.78 1501.63 1489.87 1509.56 1484.84 1509.56C1479.82 1509.56 1477.31 1504.04 1477.31 1497C1477.31 1489.95 1482.33 1486.43 1483.84 1486.43C1484.84 1483.91 1481.83 1481.39 1478.82 1478.88C1485.85 1478.37 1491.87 1488.94 1492.38 1495.99Z" fill="#542016"/>
<path d="M1443.17 1488.44C1446.18 1492.45 1446.35 1497.31 1446.18 1498.99C1446.18 1498.99 1444.82 1502.14 1442.66 1505.03C1440.5 1507.92 1439.65 1508.56 1439.65 1508.56C1436.14 1505.03 1435.74 1500.68 1436.14 1497.48C1436.64 1493.46 1439.48 1490.96 1441.16 1489.95C1441.16 1489.95 1440.65 1487.92 1440.15 1486.91C1439.65 1485.91 1437.64 1482.9 1437.64 1482.9C1438.14 1483.07 1440.07 1484.32 1443.17 1488.44Z" fill="#542016"/>
<path d="M1485.35 1493.46C1485.35 1494.85 1484.22 1495.97 1482.84 1495.97C1481.45 1495.97 1480.32 1494.85 1480.32 1493.46C1480.32 1492.07 1481.45 1490.94 1482.84 1490.94C1484.22 1490.94 1485.35 1492.07 1485.35 1493.46Z" fill="white"/>
<ellipse cx="1440.65" cy="1495.47" rx="2.51073" ry="2.51678" fill="white"/>
<path d="M1443.17 1575.5C1446.68 1575 1449.19 1574.5 1449.19 1574.5C1448.35 1577.01 1447.25 1582.28 1446.68 1584.56C1446.18 1586.58 1444.67 1594.63 1444.67 1599.66C1443.67 1597.15 1442.16 1589.19 1442.16 1585.57C1442.16 1581.95 1442.66 1577.01 1443.17 1575.5Z" fill="#A86D10"/>
<path d="M1708.3 1613.76L1666.12 1475.33L1868.98 1389.79L1875.01 1555.37L1708.3 1613.76Z" fill="#550F8C"/>
<path d="M1561.84 1361.53L1666.12 1475.33L1868.99 1389.26L1863.96 1171.31C1845.55 1130 1807.42 1086.53 1792.25 1077.75C1759.36 1058.68 1715.02 1086.33 1676.26 1092.34C1663.41 1103.08 1643.43 1120.3 1622.87 1123.9C1602.31 1127.51 1596.14 1115.11 1584.36 1108.45C1564.02 1099.01 1463.55 1127.12 1458.41 1189.59C1453.27 1252.05 1561.84 1361.53 1561.84 1361.53Z" fill="#FFA800"/>
<path d="M1303.24 1132.41L1492.55 1118.96L1486.17 1255.41C1486.17 1255.41 1236.18 1249.33 1209.84 1210.57C1183.5 1171.81 1196.61 925.167 1196.61 925.167L1251.35 931.711L1303.24 1132.41Z" fill="#FFA800"/>
<path d="M1408.02 971.476L1447.18 969.966L1542.09 1107.38C1542.09 1107.38 1585.27 1159.33 1592.81 1161.74C1600.34 1164.16 1668.63 1139.6 1668.63 1139.6L1738.43 1111.41L1783.75 1163.6L1829.07 1215.79C1829.07 1215.79 1587.78 1277.52 1549.12 1260.4C1510.45 1243.29 1408.02 971.476 1408.02 971.476Z" fill="#FFA800"/>
<path d="M1738.43 1111.41L1668.63 1139.6C1668.63 1139.6 1600.34 1164.16 1592.81 1161.74C1585.27 1159.33 1545.1 1111.41 1545.1 1111.41M1466.26 1121.48C1466.26 1121.48 1523.51 1243.79 1549.12 1260.4C1574.73 1277.01 1829.07 1215.79 1829.07 1215.79" stroke="#DF8600" stroke-width="5"/>
<path d="M1663.97 1043.2L1679.39 1094.08C1678.32 1102.23 1669.24 1121.38 1641.48 1132.72C1613.73 1144.05 1592.66 1121.98 1585.59 1109.53L1588.81 1076.05C1572.32 1074.11 1537.8 1067.29 1531.63 1055.44C1523.92 1040.63 1522.64 1004.56 1531.63 951.115C1540.62 897.665 1606.79 851.943 1647.27 857.095C1687.74 862.247 1717.29 916.34 1714.08 954.979C1711.51 985.889 1679.6 1026.67 1663.97 1043.2Z" fill="#F9B583"/>
<path d="M1720.85 892.449C1735.29 927.018 1709.81 980.536 1696.75 999.664C1698.76 992.617 1700.26 972.482 1686.71 969.462C1673.15 966.442 1659.79 994.031 1656.58 1003.69L1642.52 997.65L1648.45 979.244C1649.09 969.585 1634.95 943.182 1631.1 936.742C1627.25 930.302 1636.24 918.711 1634.95 912.271C1633.93 907.119 1625.1 904.543 1620.82 903.899L1578.18 888.304C1576.25 888.304 1570.85 889.334 1564.69 893.456C1555.69 889.592 1527.67 837.57 1550.8 823.403C1573.92 809.235 1593.2 824.047 1604.76 829.843C1616.32 835.638 1643.95 836.282 1661.29 840.79C1678.64 845.298 1709.29 864.758 1720.85 892.449Z" fill="#550F8C"/>
<path d="M1545.57 968.18L1559.29 936.319L683.963 560.644L625.85 725.162L1545.57 968.18Z" fill="#F5F5F5"/>
<path d="M1073.5 783.544C1080.26 759.847 1077.03 732.611 1065.56 722.516L1045.77 712.512C1053.37 706.635 1023.61 685.556 1075.52 703.894C1094.56 710.62 1106.07 752.804 1095.34 790.501C1084.61 828.198 1056.33 859.274 1031.65 854.287C980.701 843.994 1009.03 836.315 1006.89 825.869L1030.55 832.519C1044.06 835.495 1065.52 811.559 1073.5 783.544Z" fill="#858585"/>
<path d="M1073.5 783.544C1080.26 759.847 1077.03 732.611 1065.56 722.516L1045.77 712.512C1053.37 706.635 1023.61 685.556 1075.52 703.894C1094.56 710.62 1106.07 752.804 1095.34 790.501C1084.61 828.198 1056.33 859.274 1031.65 854.287C980.701 843.994 1009.03 836.315 1006.89 825.869L1030.55 832.519C1044.06 835.495 1065.52 811.559 1073.5 783.544Z" fill="black"/>
<path d="M1052.47 777.392C1059.23 753.695 1056 726.458 1044.53 716.364L1024.74 706.359C1032.34 700.482 1040.7 693.275 1054.49 697.742C1073.7 703.964 1085.04 746.651 1074.31 784.348C1063.59 822.046 1035.3 853.122 1010.62 848.135C999.695 845.928 987.999 830.163 985.863 819.716L1009.53 826.367C1023.03 829.343 1044.49 805.407 1052.47 777.392Z" fill="#858585"/>
<path d="M1052.47 777.392C1059.23 753.695 1056 726.458 1044.53 716.364L1024.74 706.359C1032.34 700.482 1040.7 693.275 1054.49 697.742C1073.7 703.964 1085.04 746.651 1074.31 784.348C1063.59 822.046 1035.3 853.122 1010.62 848.135C999.695 845.928 987.999 830.163 985.863 819.716L1009.53 826.367C1023.03 829.343 1044.49 805.407 1052.47 777.392Z" fill="#535353"/>
<path d="M1335.83 875.421C1340.09 860.489 1338.05 843.327 1330.83 836.966L1318.36 830.662C1323.15 826.959 1304.39 813.677 1337.11 825.233C1349.1 829.47 1356.35 856.051 1349.59 879.805C1342.83 903.559 1325.01 923.14 1309.46 919.998C1277.36 913.512 1295.21 908.673 1293.86 902.091L1308.77 906.282C1317.28 908.157 1330.8 893.074 1335.83 875.421Z" fill="#858585"/>
<path d="M1335.83 875.421C1340.09 860.489 1338.05 843.327 1330.83 836.966L1318.36 830.662C1323.15 826.959 1304.39 813.677 1337.11 825.233C1349.1 829.47 1356.35 856.051 1349.59 879.805C1342.83 903.559 1325.01 923.14 1309.46 919.998C1277.36 913.512 1295.21 908.673 1293.86 902.091L1308.77 906.282C1317.28 908.157 1330.8 893.074 1335.83 875.421Z" fill="black"/>
<path d="M1322.58 871.545C1326.84 856.613 1324.8 839.45 1317.58 833.09L1305.11 826.786C1309.9 823.082 1315.16 818.541 1323.85 821.356C1335.96 825.277 1343.1 852.174 1336.34 875.928C1329.58 899.682 1311.76 919.263 1296.21 916.121C1289.32 914.73 1281.95 904.797 1280.61 898.214L1295.52 902.405C1304.03 904.28 1317.55 889.197 1322.58 871.545Z" fill="#858585"/>
<path d="M1322.58 871.545C1326.84 856.613 1324.8 839.45 1317.58 833.09L1305.11 826.786C1309.9 823.082 1315.16 818.541 1323.85 821.356C1335.96 825.277 1343.1 852.174 1336.34 875.928C1329.58 899.682 1311.76 919.263 1296.21 916.121C1289.32 914.73 1281.95 904.797 1280.61 898.214L1295.52 902.405C1304.03 904.28 1317.55 889.197 1322.58 871.545Z" fill="#535353"/>
<path d="M1557.65 952.95C1559.72 945.68 1558.73 937.324 1555.21 934.227L1549.14 931.158C1551.47 929.355 1542.34 922.888 1558.27 928.514C1564.11 930.577 1567.64 943.519 1564.35 955.084C1561.06 966.649 1552.38 976.183 1544.81 974.653C1529.18 971.495 1537.87 969.14 1537.21 965.935L1544.47 967.975C1548.61 968.888 1555.2 961.545 1557.65 952.95Z" fill="#858585"/>
<path d="M1557.65 952.95C1559.72 945.68 1558.73 937.324 1555.21 934.227L1549.14 931.158C1551.47 929.355 1542.34 922.888 1558.27 928.514C1564.11 930.577 1567.64 943.519 1564.35 955.084C1561.06 966.649 1552.38 976.183 1544.81 974.653C1529.18 971.495 1537.87 969.14 1537.21 965.935L1544.47 967.975C1548.61 968.888 1555.2 961.545 1557.65 952.95Z" fill="black"/>
<path d="M1551.2 951.062C1553.27 943.792 1552.28 935.436 1548.76 932.339L1542.69 929.27C1545.02 927.467 1547.59 925.256 1551.82 926.626C1557.71 928.535 1561.19 941.631 1557.9 953.197C1554.61 964.762 1545.93 974.296 1538.36 972.766C1535 972.089 1531.42 967.252 1530.76 964.047L1538.02 966.088C1542.16 967.001 1548.75 959.657 1551.2 951.062Z" fill="#858585"/>
<path d="M1551.2 951.062C1553.27 943.792 1552.28 935.436 1548.76 932.339L1542.69 929.27C1545.02 927.467 1547.59 925.256 1551.82 926.626C1557.71 928.535 1561.19 941.631 1557.9 953.197C1554.61 964.762 1545.93 974.296 1538.36 972.766C1535 972.089 1531.42 967.252 1530.76 964.047L1538.02 966.088C1542.16 967.001 1548.75 959.657 1551.2 951.062Z" fill="#535353"/>
<path d="M766.544 677.397C746.684 735.613 702.666 766.334 659.382 757.774C519.373 730.083 692.033 661.511 688.503 652.257C708.363 594.042 620.828 498.055 734.883 551.771C765.795 566.329 786.403 619.182 766.544 677.397Z" fill="#383838"/>
<path d="M766.544 677.397C746.684 735.613 702.666 766.334 659.382 757.774C519.373 730.083 692.033 661.511 688.503 652.257C708.363 594.042 620.828 498.055 734.883 551.771C765.795 566.329 786.403 619.182 766.544 677.397Z" fill="black"/>
<ellipse rx="84.7843" ry="111.373" transform="matrix(0.945968 0.324259 -0.322865 0.946445 663.088 643.172)" fill="#535353"/>
<ellipse rx="84.7843" ry="111.373" transform="matrix(0.945968 0.324259 -0.322865 0.946445 663.088 643.172)" fill="#535353"/>
<ellipse rx="63.1435" ry="82.9458" transform="matrix(0.945968 0.324259 -0.322865 0.946445 662.636 643.283)" fill="#535353"/>
<ellipse rx="63.1435" ry="82.9458" transform="matrix(0.945968 0.324259 -0.322865 0.946445 662.636 643.283)" fill="black"/>
<path d="M655.828 724.151C678.293 723.676 709.31 704.086 723.35 660.138C737.39 616.189 718.221 579.573 700.694 570.816C671.223 567.512 637.969 589.141 626.153 623.777C611.363 667.133 622.839 712.843 655.828 724.151Z" fill="#F3EDFF"/>
<path d="M1197.54 874.944L1232.07 885.359L1248.1 879.046C1254.08 876.435 1259.67 873.577 1260.68 871.661C1260.68 871.661 1260.42 853.077 1266.41 853.887C1272.39 854.697 1276.34 870.706 1274.54 875.123C1272.73 879.541 1260.72 893.357 1260.72 893.357L1251.27 921.473L1252 934.5L1196.5 926L1198.11 911.307C1198.11 911.307 1165.19 891.921 1160.77 886.576C1156.35 881.231 1148.09 862.003 1148.09 862.003L1197.54 874.944Z" fill="#F9B583"/>
<path d="M1444.61 950.231L1449.23 973L1408.5 973L1401 950.5L1371.65 927.623C1371.65 927.623 1352.02 920.237 1352.75 916.755C1353.49 913.274 1369.63 912.855 1374.1 913.663C1378.58 914.471 1389.56 923.288 1394.57 923.628C1399.58 923.968 1423.22 894.293 1423.22 894.293C1423.22 894.293 1389.88 866.301 1391.29 860.343C1392.7 854.384 1428.13 866.374 1435.97 869.429C1443.82 872.483 1461.37 888.305 1463.8 897.047C1466.23 905.788 1444.61 950.231 1444.61 950.231Z" fill="#F9B583"/>
<path fill-rule="evenodd" clip-rule="evenodd" d="M309.35 331.88C309.343 333.483 309.222 336.682 309.093 338.668C309.003 340.059 308.848 341.883 308.725 343.024C308.704 343.213 308.675 343.482 308.66 343.622C308.312 346.828 307.734 350.128 307.008 353.046C306.824 353.787 306.757 354.034 306.501 354.931C304.946 360.371 302.568 364.996 299.488 368.571C298.855 369.307 297.837 370.361 297.139 371.004C292.49 375.288 286.172 378.196 277.965 379.831C274.885 380.444 271.198 380.929 267.705 381.179C267.506 381.193 267.186 381.216 266.994 381.23C265.035 381.37 261.471 381.51 259.889 381.511C259.406 381.511 259.117 381.52 259.107 381.536C259.097 381.553 259.35 381.562 259.848 381.562C260.58 381.562 262.368 381.61 263.676 381.664C267.68 381.831 271.388 382.178 274.83 382.709C275.291 382.78 275.661 382.843 276.581 383.003C277.363 383.14 278.733 383.422 279.678 383.64C284.48 384.75 288.635 386.349 292.093 388.416C295.847 390.661 298.962 393.564 301.371 397.064C304.493 401.599 306.612 407.192 307.898 414.292C308.144 415.651 308.403 417.383 308.572 418.801C308.608 419.102 308.648 419.44 308.661 419.552C308.771 420.454 308.906 421.937 309.043 423.729C309.189 425.644 309.342 429.382 309.35 431.205C309.352 431.683 309.361 431.938 309.374 431.867C309.385 431.804 309.395 431.386 309.396 430.938C309.401 428.957 309.541 425.275 309.703 422.889C309.786 421.655 309.936 419.886 310.032 419.004C310.16 417.826 310.192 417.539 310.237 417.183C310.783 412.817 311.524 409.224 312.55 405.976C312.634 405.71 312.714 405.452 312.728 405.403C312.797 405.163 313.266 403.857 313.495 403.265C314.152 401.574 315.002 399.803 315.865 398.33C318.075 394.56 320.925 391.53 324.511 389.14C329.059 386.11 334.814 384.065 342.214 382.851C343.744 382.6 345.107 382.419 347.138 382.198C347.987 382.105 349.629 381.963 350.957 381.868C353.124 381.712 356.933 381.562 358.744 381.562C359.276 381.562 359.546 381.553 359.536 381.536C359.526 381.52 359.224 381.511 358.716 381.51C356.737 381.51 353.287 381.371 350.539 381.18C349.129 381.083 347.142 380.897 345.754 380.734C340.075 380.065 335.283 378.97 331.189 377.406C327.808 376.114 324.852 374.456 322.367 372.455C321.194 371.511 320.043 370.409 319.031 369.261C317.829 367.898 316.661 366.256 315.686 364.559C314.225 362.014 312.968 358.896 312.052 355.54C310.833 351.08 310.056 345.907 309.665 339.649C309.523 337.385 309.4 333.931 309.396 332.147C309.395 331.692 309.385 331.274 309.374 331.218C309.361 331.154 309.352 331.404 309.35 331.88Z" fill="white"/>
<path fill-rule="evenodd" clip-rule="evenodd" d="M1224.26 432.551C1224.25 434.155 1224.13 437.353 1224 439.339C1223.91 440.73 1223.76 442.554 1223.63 443.695C1223.61 443.884 1223.58 444.153 1223.57 444.293C1223.22 447.499 1222.64 450.8 1221.92 453.718C1221.73 454.458 1221.67 454.705 1221.41 455.602C1219.85 461.042 1217.48 465.667 1214.4 469.242C1213.76 469.978 1212.75 471.032 1212.05 471.675C1207.4 475.959 1201.08 478.867 1192.87 480.502C1189.79 481.116 1186.11 481.6 1182.61 481.85C1182.41 481.864 1182.09 481.887 1181.9 481.901C1179.94 482.041 1176.38 482.181 1174.8 482.182C1174.31 482.182 1174.03 482.191 1174.02 482.207C1174.01 482.224 1174.26 482.233 1174.76 482.233C1175.49 482.233 1177.28 482.281 1178.58 482.335C1182.59 482.502 1186.3 482.85 1189.74 483.38C1190.2 483.452 1190.57 483.514 1191.49 483.674C1192.27 483.811 1193.64 484.093 1194.59 484.311C1199.39 485.421 1203.54 487.02 1207 489.087C1210.76 491.332 1213.87 494.235 1216.28 497.735C1219.4 502.27 1221.52 507.863 1222.81 514.963C1223.05 516.322 1223.31 518.054 1223.48 519.472C1223.52 519.773 1223.56 520.111 1223.57 520.223C1223.68 521.125 1223.81 522.608 1223.95 524.4C1224.1 526.316 1224.25 530.053 1224.26 531.876C1224.26 532.354 1224.27 532.609 1224.28 532.538C1224.29 532.475 1224.3 532.057 1224.3 531.609C1224.31 529.628 1224.45 525.946 1224.61 523.56C1224.7 522.326 1224.84 520.557 1224.94 519.675C1225.07 518.497 1225.1 518.21 1225.15 517.854C1225.69 513.489 1226.43 509.895 1227.46 506.647C1227.54 506.381 1227.62 506.123 1227.64 506.074C1227.71 505.834 1228.17 504.528 1228.4 503.937C1229.06 502.245 1229.91 500.474 1230.77 499.001C1232.98 495.231 1235.83 492.201 1239.42 489.811C1243.97 486.781 1249.72 484.736 1257.12 483.522C1258.65 483.271 1260.02 483.09 1262.05 482.869C1262.9 482.776 1264.54 482.634 1265.87 482.539C1268.03 482.383 1271.84 482.233 1273.65 482.233C1274.18 482.233 1274.45 482.224 1274.44 482.207C1274.43 482.191 1274.13 482.182 1273.62 482.181C1271.65 482.181 1268.2 482.042 1265.45 481.851C1264.04 481.754 1262.05 481.568 1260.66 481.405C1254.98 480.736 1250.19 479.641 1246.1 478.077C1242.72 476.786 1239.76 475.127 1237.28 473.126C1236.1 472.182 1234.95 471.08 1233.94 469.932C1232.74 468.569 1231.57 466.928 1230.6 465.231C1229.13 462.685 1227.88 459.567 1226.96 456.211C1225.74 451.751 1224.97 446.578 1224.57 440.32C1224.43 438.056 1224.31 434.602 1224.31 432.818C1224.3 432.363 1224.29 431.945 1224.28 431.889C1224.27 431.825 1224.26 432.075 1224.26 432.551Z" fill="white"/>
<path fill-rule="evenodd" clip-rule="evenodd" d="M1432.15 162.752C1432.14 164.356 1432.02 167.555 1431.89 169.541C1431.8 170.931 1431.65 172.756 1431.52 173.896C1431.5 174.085 1431.47 174.355 1431.46 174.495C1431.11 177.701 1430.53 181.001 1429.8 183.919C1429.62 184.66 1429.55 184.906 1429.3 185.804C1427.74 191.243 1425.37 195.869 1422.29 199.444C1421.65 200.179 1420.63 201.233 1419.94 201.876C1415.29 206.16 1408.97 209.069 1400.76 210.704C1397.68 211.317 1394 211.802 1390.5 212.052C1390.3 212.066 1389.98 212.089 1389.79 212.102C1387.83 212.242 1384.27 212.383 1382.69 212.383C1382.2 212.383 1381.91 212.393 1381.9 212.409C1381.89 212.425 1382.15 212.434 1382.64 212.434C1383.38 212.434 1385.17 212.482 1386.47 212.537C1390.48 212.704 1394.18 213.051 1397.63 213.582C1398.09 213.653 1398.46 213.715 1399.38 213.876C1400.16 214.013 1401.53 214.294 1402.47 214.513C1407.28 215.623 1411.43 217.221 1414.89 219.289C1418.64 221.533 1421.76 224.436 1424.17 227.936C1427.29 232.472 1429.41 238.065 1430.7 245.165C1430.94 246.524 1431.2 248.255 1431.37 249.673C1431.4 249.974 1431.44 250.312 1431.46 250.425C1431.57 251.327 1431.7 252.81 1431.84 254.602C1431.99 256.517 1432.14 260.254 1432.15 262.078C1432.15 262.556 1432.16 262.81 1432.17 262.74C1432.18 262.677 1432.19 262.259 1432.19 261.81C1432.2 259.829 1432.34 256.147 1432.5 253.761C1432.58 252.527 1432.73 250.759 1432.83 249.877C1432.96 248.699 1432.99 248.411 1433.03 248.056C1433.58 243.69 1434.32 240.096 1435.35 236.848C1435.43 236.582 1435.51 236.324 1435.52 236.276C1435.59 236.036 1436.06 234.729 1436.29 234.138C1436.95 232.446 1437.8 230.676 1438.66 229.203C1440.87 225.433 1443.72 222.403 1447.31 220.013C1451.86 216.982 1457.61 214.938 1465.01 213.724C1466.54 213.473 1467.9 213.292 1469.93 213.07C1470.78 212.978 1472.43 212.836 1473.75 212.74C1475.92 212.585 1479.73 212.435 1481.54 212.434C1482.07 212.434 1482.34 212.425 1482.33 212.409C1482.32 212.393 1482.02 212.383 1481.51 212.383C1479.53 212.382 1476.08 212.243 1473.34 212.053C1471.93 211.955 1469.94 211.77 1468.55 211.607C1462.87 210.937 1458.08 209.842 1453.99 208.279C1450.6 206.987 1447.65 205.328 1445.16 203.327C1443.99 202.384 1442.84 201.282 1441.83 200.134C1440.63 198.77 1439.46 197.129 1438.48 195.432C1437.02 192.887 1435.76 189.769 1434.85 186.413C1433.63 181.952 1432.85 176.78 1432.46 170.521C1432.32 168.258 1432.2 164.804 1432.19 163.02C1432.19 162.565 1432.18 162.146 1432.17 162.09C1432.16 162.027 1432.15 162.276 1432.15 162.752Z" fill="white"/>
<path fill-rule="evenodd" clip-rule="evenodd" d="M2366.14 917.786C2366.13 919.389 2366.01 922.588 2365.88 924.574C2365.79 925.964 2365.64 927.789 2365.51 928.929C2365.49 929.118 2365.46 929.388 2365.45 929.528C2365.1 932.734 2364.52 936.034 2363.79 938.952C2363.61 939.693 2363.54 939.94 2363.29 940.837C2361.73 946.276 2359.36 950.902 2356.28 954.477C2355.64 955.213 2354.62 956.266 2353.93 956.909C2349.28 961.193 2342.96 964.102 2334.75 965.737C2331.67 966.35 2327.99 966.835 2324.49 967.085C2324.29 967.099 2323.97 967.122 2323.78 967.136C2321.82 967.275 2318.26 967.416 2316.68 967.416C2316.19 967.416 2315.9 967.426 2315.89 967.442C2315.88 967.459 2316.14 967.467 2316.64 967.467C2317.37 967.467 2319.16 967.515 2320.46 967.57C2324.47 967.737 2328.17 968.084 2331.62 968.615C2332.08 968.686 2332.45 968.748 2333.37 968.909C2334.15 969.046 2335.52 969.327 2336.46 969.546C2341.27 970.656 2345.42 972.255 2348.88 974.322C2352.63 976.566 2355.75 979.47 2358.16 982.969C2361.28 987.505 2363.4 993.098 2364.69 1000.2C2364.93 1001.56 2365.19 1003.29 2365.36 1004.71C2365.39 1005.01 2365.43 1005.35 2365.45 1005.46C2365.56 1006.36 2365.69 1007.84 2365.83 1009.63C2365.98 1011.55 2366.13 1015.29 2366.14 1017.11C2366.14 1017.59 2366.15 1017.84 2366.16 1017.77C2366.17 1017.71 2366.18 1017.29 2366.18 1016.84C2366.19 1014.86 2366.33 1011.18 2366.49 1008.79C2366.57 1007.56 2366.72 1005.79 2366.82 1004.91C2366.95 1003.73 2366.98 1003.44 2367.02 1003.09C2367.57 998.723 2368.31 995.129 2369.34 991.881C2369.42 991.615 2369.5 991.358 2369.52 991.309C2369.58 991.069 2370.05 989.762 2370.28 989.171C2370.94 987.479 2371.79 985.709 2372.65 984.236C2374.86 980.466 2377.71 977.436 2381.3 975.046C2385.85 972.015 2391.6 969.971 2399 968.757C2400.53 968.506 2401.89 968.325 2403.92 968.104C2404.77 968.011 2406.42 967.869 2407.74 967.773C2409.91 967.618 2413.72 967.468 2415.53 967.467C2416.06 967.467 2416.33 967.459 2416.32 967.442C2416.31 967.426 2416.01 967.416 2415.5 967.416C2413.52 967.416 2410.07 967.276 2407.33 967.086C2405.92 966.989 2403.93 966.803 2402.54 966.64C2396.86 965.97 2392.07 964.876 2387.98 963.312C2384.59 962.02 2381.64 960.361 2379.15 958.361C2377.98 957.417 2376.83 956.315 2375.82 955.167C2374.62 953.804 2373.45 952.162 2372.47 950.465C2371.01 947.92 2369.76 944.802 2368.84 941.446C2367.62 936.985 2366.84 931.813 2366.45 925.554C2366.31 923.291 2366.19 919.837 2366.18 918.053C2366.18 917.598 2366.17 917.179 2366.16 917.123C2366.15 917.06 2366.14 917.309 2366.14 917.786Z" fill="white"/>
<path fill-rule="evenodd" clip-rule="evenodd" d="M412.778 510.738C412.774 511.54 412.714 513.14 412.649 514.132C412.604 514.828 412.527 515.74 412.465 516.31C412.455 516.405 412.44 516.539 412.433 516.609C412.259 518.213 411.969 519.863 411.607 521.322C411.514 521.692 411.481 521.815 411.353 522.264C410.576 524.984 409.387 527.296 407.847 529.084C407.53 529.452 407.021 529.979 406.672 530.3C404.348 532.442 401.189 533.897 397.085 534.714C395.545 535.021 393.702 535.263 391.955 535.388C391.856 535.395 391.696 535.407 391.6 535.413C390.62 535.483 388.838 535.554 388.047 535.554C387.806 535.554 387.661 535.558 387.656 535.566C387.651 535.575 387.778 535.579 388.027 535.579C388.392 535.579 389.287 535.603 389.941 535.63C391.943 535.714 393.797 535.888 395.518 536.153C395.748 536.189 395.933 536.22 396.393 536.3C396.784 536.368 397.469 536.509 397.942 536.618C400.343 537.174 402.42 537.973 404.149 539.006C406.026 540.129 407.584 541.58 408.788 543.33C410.349 545.598 411.409 548.395 412.052 551.944C412.175 552.624 412.304 553.49 412.389 554.199C412.406 554.349 412.427 554.518 412.433 554.574C412.488 555.025 412.556 555.767 412.624 556.663C412.697 557.621 412.774 559.489 412.778 560.401C412.779 560.64 412.783 560.767 412.789 560.732C412.795 560.701 412.8 560.491 412.801 560.267C412.803 559.277 412.873 557.436 412.954 556.243C412.996 555.626 413.071 554.742 413.119 554.301C413.183 553.711 413.199 553.568 413.221 553.39C413.494 551.207 413.865 549.41 414.378 547.786C414.42 547.653 414.46 547.524 414.467 547.5C414.501 547.38 414.736 546.727 414.85 546.431C415.179 545.585 415.604 544.7 416.035 543.964C417.14 542.079 418.565 540.564 420.358 539.369C422.632 537.853 425.51 536.831 429.21 536.224C429.975 536.098 430.656 536.008 431.672 535.897C432.096 535.851 432.917 535.78 433.581 535.732C434.665 535.654 436.569 535.58 437.475 535.579C437.741 535.579 437.876 535.575 437.871 535.566C437.866 535.558 437.715 535.554 437.461 535.554C436.471 535.553 434.746 535.484 433.372 535.389C432.667 535.34 431.674 535.247 430.98 535.165C428.14 534.831 425.744 534.283 423.697 533.501C422.007 532.856 420.529 532.026 419.286 531.026C418.7 530.554 418.124 530.003 417.618 529.429C417.017 528.747 416.433 527.927 415.946 527.078C415.215 525.805 414.587 524.246 414.128 522.569C413.519 520.338 413.131 517.752 412.935 514.623C412.864 513.491 412.803 511.764 412.801 510.872C412.8 510.644 412.795 510.435 412.79 510.407C412.783 510.375 412.778 510.5 412.778 510.738Z" fill="white"/>
<path fill-rule="evenodd" clip-rule="evenodd" d="M586.52 407.047C586.517 407.849 586.456 409.448 586.391 410.441C586.346 411.136 586.269 412.049 586.207 412.619C586.197 412.714 586.182 412.848 586.175 412.918C586.001 414.521 585.712 416.171 585.349 417.63C585.257 418.001 585.224 418.124 585.095 418.573C584.318 421.292 583.129 423.605 581.589 425.393C581.272 425.761 580.763 426.288 580.415 426.609C578.09 428.751 574.931 430.205 570.827 431.023C569.288 431.329 567.444 431.572 565.697 431.697C565.598 431.704 565.438 431.715 565.342 431.722C564.363 431.792 562.58 431.862 561.79 431.862C561.548 431.862 561.404 431.867 561.399 431.875C561.393 431.884 561.52 431.888 561.769 431.888C562.135 431.888 563.029 431.912 563.683 431.939C565.685 432.023 567.539 432.196 569.26 432.462C569.491 432.497 569.675 432.528 570.136 432.609C570.527 432.677 571.212 432.818 571.684 432.927C574.085 433.482 576.162 434.282 577.891 435.315C579.768 436.438 581.326 437.889 582.531 439.639C584.092 441.907 585.151 444.703 585.794 448.253C585.917 448.933 586.047 449.798 586.131 450.507C586.149 450.658 586.169 450.827 586.176 450.883C586.23 451.334 586.298 452.076 586.366 452.972C586.439 453.929 586.516 455.798 586.52 456.71C586.521 456.949 586.525 457.076 586.532 457.041C586.537 457.009 586.542 456.8 586.543 456.576C586.545 455.586 586.616 453.745 586.696 452.552C586.738 451.934 586.813 451.05 586.861 450.609C586.925 450.02 586.941 449.877 586.963 449.699C587.236 447.516 587.607 445.719 588.12 444.095C588.162 443.962 588.202 443.833 588.209 443.809C588.243 443.689 588.478 443.036 588.593 442.74C588.921 441.894 589.346 441.009 589.778 440.272C590.882 438.387 592.308 436.872 594.101 435.677C596.374 434.162 599.252 433.14 602.952 432.533C603.717 432.407 604.398 432.317 605.414 432.206C605.839 432.16 606.66 432.089 607.324 432.041C608.407 431.963 610.311 431.888 611.217 431.888C611.483 431.888 611.618 431.884 611.613 431.875C611.608 431.867 611.457 431.862 611.203 431.862C610.213 431.862 608.488 431.793 607.114 431.697C606.409 431.649 605.416 431.556 604.722 431.474C601.883 431.14 599.486 430.592 597.439 429.81C595.749 429.164 594.271 428.335 593.028 427.335C592.442 426.863 591.867 426.312 591.361 425.738C590.759 425.056 590.175 424.235 589.688 423.387C588.957 422.114 588.329 420.555 587.871 418.877C587.262 416.647 586.873 414.061 586.677 410.931C586.607 409.8 586.545 408.073 586.543 407.181C586.543 406.953 586.538 406.744 586.532 406.716C586.525 406.684 586.521 406.809 586.52 407.047Z" fill="white"/>
<path fill-rule="evenodd" clip-rule="evenodd" d="M995.266 533.893C995.263 534.694 995.202 536.294 995.138 537.287C995.093 537.982 995.015 538.894 994.954 539.464C994.943 539.559 994.929 539.694 994.921 539.764C994.747 541.367 994.458 543.017 994.095 544.476C994.003 544.846 993.97 544.97 993.842 545.418C993.064 548.138 991.875 550.451 990.336 552.238C990.019 552.606 989.51 553.133 989.161 553.455C986.836 555.596 983.677 557.051 979.574 557.868C978.034 558.175 976.19 558.417 974.444 558.542C974.344 558.549 974.184 558.561 974.088 558.568C973.109 558.638 971.327 558.708 970.536 558.708C970.294 558.708 970.15 558.713 970.145 558.721C970.14 558.729 970.266 558.734 970.515 558.734C970.881 558.734 971.776 558.757 972.429 558.785C974.431 558.868 976.285 559.042 978.006 559.307C978.237 559.343 978.422 559.374 978.882 559.454C979.273 559.523 979.958 559.664 980.43 559.773C982.831 560.328 984.909 561.127 986.638 562.161C988.515 563.283 990.072 564.735 991.277 566.485C992.838 568.752 993.897 571.549 994.54 575.099C994.664 575.778 994.793 576.644 994.877 577.353C994.895 577.504 994.915 577.673 994.922 577.729C994.977 578.18 995.044 578.921 995.113 579.817C995.186 580.775 995.262 582.643 995.266 583.555C995.267 583.794 995.272 583.922 995.278 583.886C995.284 583.855 995.289 583.646 995.289 583.422C995.292 582.431 995.362 580.59 995.443 579.397C995.484 578.78 995.559 577.896 995.607 577.455C995.671 576.866 995.687 576.722 995.71 576.544C995.983 574.361 996.354 572.565 996.866 570.941C996.908 570.808 996.948 570.679 996.955 570.654C996.99 570.534 997.224 569.881 997.339 569.585C997.667 568.74 998.092 567.854 998.524 567.118C999.629 565.233 1001.05 563.718 1002.85 562.523C1005.12 561.008 1008 559.985 1011.7 559.378C1012.46 559.253 1013.14 559.162 1014.16 559.052C1014.58 559.005 1015.41 558.934 1016.07 558.887C1017.15 558.809 1019.06 558.734 1019.96 558.734C1020.23 558.734 1020.36 558.729 1020.36 558.721C1020.35 558.713 1020.2 558.708 1019.95 558.708C1018.96 558.708 1017.23 558.638 1015.86 558.543C1015.16 558.494 1014.16 558.401 1013.47 558.32C1010.63 557.985 1008.23 557.438 1006.19 556.656C1004.5 556.01 1003.02 555.181 1001.77 554.18C1001.19 553.708 1000.61 553.157 1000.11 552.583C999.506 551.902 998.922 551.081 998.435 550.232C997.704 548.96 997.075 547.401 996.617 545.723C996.008 543.492 995.62 540.906 995.424 537.777C995.353 536.645 995.291 534.918 995.289 534.026C995.289 533.799 995.284 533.59 995.278 533.562C995.272 533.53 995.267 533.654 995.266 533.893Z" fill="white"/>
<path fill-rule="evenodd" clip-rule="evenodd" d="M1187.09 236.913C1187.08 237.715 1187.02 239.314 1186.96 240.307C1186.91 241.002 1186.83 241.915 1186.77 242.485C1186.76 242.579 1186.75 242.714 1186.74 242.784C1186.57 244.387 1186.28 246.037 1185.91 247.496C1185.82 247.867 1185.79 247.99 1185.66 248.439C1184.88 251.158 1183.69 253.471 1182.15 255.259C1181.84 255.627 1181.33 256.153 1180.98 256.475C1178.66 258.617 1175.5 260.071 1171.39 260.889C1169.85 261.195 1168.01 261.438 1166.26 261.563C1166.16 261.57 1166 261.581 1165.91 261.588C1164.93 261.658 1163.15 261.728 1162.36 261.728C1162.11 261.728 1161.97 261.733 1161.96 261.741C1161.96 261.75 1162.09 261.754 1162.33 261.754C1162.7 261.754 1163.59 261.778 1164.25 261.805C1166.25 261.889 1168.1 262.062 1169.83 262.328C1170.06 262.363 1170.24 262.394 1170.7 262.475C1171.09 262.543 1171.78 262.684 1172.25 262.793C1174.65 263.348 1176.73 264.148 1178.46 265.181C1180.33 266.303 1181.89 267.755 1183.1 269.505C1184.66 271.773 1185.72 274.569 1186.36 278.119C1186.48 278.799 1186.61 279.664 1186.7 280.373C1186.71 280.524 1186.73 280.693 1186.74 280.749C1186.8 281.2 1186.86 281.942 1186.93 282.838C1187.01 283.795 1187.08 285.664 1187.09 286.576C1187.09 286.815 1187.09 286.942 1187.1 286.907C1187.1 286.875 1187.11 286.666 1187.11 286.442C1187.11 285.451 1187.18 283.61 1187.26 282.417C1187.3 281.8 1187.38 280.916 1187.43 280.475C1187.49 279.886 1187.51 279.743 1187.53 279.565C1187.8 277.382 1188.17 275.585 1188.69 273.961C1188.73 273.828 1188.77 273.699 1188.77 273.675C1188.81 273.555 1189.04 272.901 1189.16 272.606C1189.49 271.76 1189.91 270.875 1190.34 270.138C1191.45 268.253 1192.87 266.738 1194.67 265.543C1196.94 264.028 1199.82 263.006 1203.52 262.399C1204.28 262.273 1204.96 262.183 1205.98 262.072C1206.4 262.026 1207.23 261.955 1207.89 261.907C1208.97 261.829 1210.88 261.754 1211.78 261.754C1212.05 261.754 1212.18 261.75 1212.18 261.741C1212.17 261.733 1212.02 261.728 1211.77 261.728C1210.78 261.728 1209.05 261.658 1207.68 261.563C1206.98 261.515 1205.98 261.422 1205.29 261.34C1202.45 261.006 1200.05 260.458 1198.01 259.676C1196.31 259.03 1194.84 258.201 1193.59 257.201C1193.01 256.729 1192.43 256.178 1191.93 255.604C1191.33 254.922 1190.74 254.101 1190.25 253.253C1189.52 251.98 1188.89 250.421 1188.44 248.743C1187.83 246.513 1187.44 243.927 1187.24 240.797C1187.17 239.666 1187.11 237.939 1187.11 237.047C1187.11 236.819 1187.1 236.61 1187.1 236.582C1187.09 236.55 1187.09 236.675 1187.09 236.913Z" fill="white"/>
<path fill-rule="evenodd" clip-rule="evenodd" d="M1620.94 262.081C1620.94 262.883 1620.88 264.482 1620.81 265.475C1620.77 266.17 1620.69 267.082 1620.63 267.653C1620.62 267.747 1620.6 267.882 1620.59 267.952C1620.42 269.555 1620.13 271.205 1619.77 272.664C1619.68 273.034 1619.64 273.158 1619.51 273.607C1618.74 276.326 1617.55 278.639 1616.01 280.426C1615.69 280.794 1615.18 281.321 1614.83 281.643C1612.51 283.785 1609.35 285.239 1605.25 286.056C1603.71 286.363 1601.86 286.605 1600.12 286.73C1600.02 286.738 1599.86 286.749 1599.76 286.756C1598.78 286.826 1597 286.896 1596.21 286.896C1595.97 286.896 1595.82 286.901 1595.82 286.909C1595.81 286.917 1595.94 286.922 1596.19 286.922C1596.55 286.922 1597.45 286.946 1598.1 286.973C1600.1 287.056 1601.96 287.23 1603.68 287.496C1603.91 287.531 1604.09 287.562 1604.55 287.643C1604.95 287.711 1605.63 287.852 1606.1 287.961C1608.5 288.516 1610.58 289.315 1612.31 290.349C1614.19 291.471 1615.75 292.923 1616.95 294.673C1618.51 296.94 1619.57 299.737 1620.21 303.287C1620.34 303.966 1620.47 304.832 1620.55 305.541C1620.57 305.692 1620.59 305.861 1620.59 305.917C1620.65 306.368 1620.72 307.11 1620.79 308.005C1620.86 308.963 1620.94 310.832 1620.94 311.743C1620.94 311.982 1620.94 312.11 1620.95 312.075C1620.96 312.043 1620.96 311.834 1620.96 311.61C1620.96 310.619 1621.03 308.778 1621.12 307.585C1621.16 306.968 1621.23 306.084 1621.28 305.643C1621.34 305.054 1621.36 304.91 1621.38 304.732C1621.66 302.55 1622.03 300.753 1622.54 299.129C1622.58 298.996 1622.62 298.867 1622.63 298.842C1622.66 298.722 1622.9 298.069 1623.01 297.774C1623.34 296.928 1623.77 296.042 1624.2 295.306C1625.3 293.421 1626.73 291.906 1628.52 290.711C1630.79 289.196 1633.67 288.173 1637.37 287.566C1638.14 287.441 1638.82 287.351 1639.83 287.24C1640.26 287.193 1641.08 287.123 1641.74 287.075C1642.83 286.997 1644.73 286.922 1645.64 286.922C1645.9 286.922 1646.04 286.917 1646.03 286.909C1646.03 286.901 1645.88 286.896 1645.62 286.896C1644.63 286.896 1642.91 286.826 1641.53 286.731C1640.83 286.682 1639.84 286.59 1639.14 286.508C1636.3 286.173 1633.91 285.626 1631.86 284.844C1630.17 284.198 1628.69 283.369 1627.45 282.368C1626.86 281.896 1626.29 281.345 1625.78 280.772C1625.18 280.09 1624.59 279.269 1624.11 278.421C1623.38 277.148 1622.75 275.589 1622.29 273.911C1621.68 271.681 1621.29 269.094 1621.1 265.965C1621.03 264.833 1620.96 263.106 1620.96 262.215C1620.96 261.987 1620.96 261.778 1620.95 261.75C1620.94 261.718 1620.94 261.843 1620.94 262.081Z" fill="white"/>
<path fill-rule="evenodd" clip-rule="evenodd" d="M1963.4 969.798C1963.4 970.6 1963.34 972.2 1963.27 973.193C1963.23 973.888 1963.15 974.8 1963.09 975.37C1963.08 975.465 1963.06 975.6 1963.06 975.67C1962.88 977.273 1962.59 978.923 1962.23 980.382C1962.14 980.752 1962.11 980.875 1961.98 981.324C1961.2 984.044 1960.01 986.357 1958.47 988.144C1958.15 988.512 1957.65 989.039 1957.3 989.36C1954.97 991.502 1951.81 992.957 1947.71 993.774C1946.17 994.081 1944.33 994.323 1942.58 994.448C1942.48 994.455 1942.32 994.467 1942.22 994.473C1941.24 994.543 1939.46 994.614 1938.67 994.614C1938.43 994.614 1938.29 994.619 1938.28 994.627C1938.28 994.635 1938.4 994.639 1938.65 994.639C1939.02 994.639 1939.91 994.663 1940.57 994.691C1942.57 994.774 1944.42 994.948 1946.14 995.213C1946.37 995.249 1946.56 995.28 1947.02 995.36C1947.41 995.429 1948.09 995.569 1948.57 995.679C1950.97 996.234 1953.04 997.033 1954.77 998.067C1956.65 999.189 1958.21 1000.64 1959.41 1002.39C1960.97 1004.66 1962.03 1007.45 1962.68 1011C1962.8 1011.68 1962.93 1012.55 1963.01 1013.26C1963.03 1013.41 1963.05 1013.58 1963.06 1013.63C1963.11 1014.09 1963.18 1014.83 1963.25 1015.72C1963.32 1016.68 1963.4 1018.55 1963.4 1019.46C1963.4 1019.7 1963.41 1019.83 1963.41 1019.79C1963.42 1019.76 1963.42 1019.55 1963.43 1019.33C1963.43 1018.34 1963.5 1016.5 1963.58 1015.3C1963.62 1014.69 1963.7 1013.8 1963.74 1013.36C1963.81 1012.77 1963.82 1012.63 1963.85 1012.45C1964.12 1010.27 1964.49 1008.47 1965 1006.85C1965.04 1006.71 1965.08 1006.58 1965.09 1006.56C1965.13 1006.44 1965.36 1005.79 1965.47 1005.49C1965.8 1004.65 1966.23 1003.76 1966.66 1003.02C1967.76 1001.14 1969.19 999.624 1970.98 998.429C1973.26 996.913 1976.13 995.891 1979.83 995.284C1980.6 995.159 1981.28 995.068 1982.3 994.957C1982.72 994.911 1983.54 994.84 1984.21 994.792C1985.29 994.715 1987.19 994.64 1988.1 994.639C1988.37 994.639 1988.5 994.635 1988.5 994.627C1988.49 994.619 1988.34 994.614 1988.09 994.614C1987.1 994.613 1985.37 994.544 1984 994.449C1983.29 994.4 1982.3 994.307 1981.6 994.226C1978.76 993.891 1976.37 993.343 1974.32 992.562C1972.63 991.916 1971.15 991.086 1969.91 990.086C1969.32 989.614 1968.75 989.063 1968.24 988.489C1967.64 987.807 1967.06 986.987 1966.57 986.138C1965.84 984.866 1965.21 983.307 1964.75 981.629C1964.14 979.398 1963.76 976.812 1963.56 973.683C1963.49 972.551 1963.43 970.824 1963.43 969.932C1963.42 969.705 1963.42 969.495 1963.41 969.467C1963.41 969.436 1963.4 969.56 1963.4 969.798Z" fill="white"/>
<path fill-rule="evenodd" clip-rule="evenodd" d="M2118.06 1180.2C2118.06 1181 2118 1182.6 2117.93 1183.6C2117.89 1184.29 2117.81 1185.2 2117.75 1185.77C2117.74 1185.87 2117.73 1186 2117.72 1186.07C2117.54 1187.68 2117.25 1189.33 2116.89 1190.78C2116.8 1191.15 2116.77 1191.28 2116.64 1191.73C2115.86 1194.45 2114.67 1196.76 2113.13 1198.55C2112.82 1198.91 2112.31 1199.44 2111.96 1199.76C2109.63 1201.9 2106.47 1203.36 2102.37 1204.18C2100.83 1204.48 2098.99 1204.73 2097.24 1204.85C2097.14 1204.86 2096.98 1204.87 2096.89 1204.88C2095.91 1204.95 2094.12 1205.02 2093.33 1205.02C2093.09 1205.02 2092.95 1205.02 2092.94 1205.03C2092.94 1205.04 2093.06 1205.04 2093.31 1205.04C2093.68 1205.04 2094.57 1205.07 2095.23 1205.09C2097.23 1205.18 2099.08 1205.35 2100.8 1205.62C2101.03 1205.65 2101.22 1205.68 2101.68 1205.76C2102.07 1205.83 2102.75 1205.97 2103.23 1206.08C2105.63 1206.64 2107.71 1207.44 2109.43 1208.47C2111.31 1209.59 2112.87 1211.04 2114.07 1212.79C2115.63 1215.06 2116.69 1217.86 2117.34 1221.41C2117.46 1222.09 2117.59 1222.95 2117.67 1223.66C2117.69 1223.81 2117.71 1223.98 2117.72 1224.04C2117.77 1224.49 2117.84 1225.23 2117.91 1226.13C2117.98 1227.08 2118.06 1228.95 2118.06 1229.86C2118.06 1230.1 2118.07 1230.23 2118.07 1230.19C2118.08 1230.16 2118.09 1229.95 2118.09 1229.73C2118.09 1228.74 2118.16 1226.9 2118.24 1225.71C2118.28 1225.09 2118.36 1224.2 2118.4 1223.76C2118.47 1223.17 2118.48 1223.03 2118.51 1222.85C2118.78 1220.67 2119.15 1218.87 2119.66 1217.25C2119.71 1217.12 2119.75 1216.99 2119.75 1216.96C2119.79 1216.84 2120.02 1216.19 2120.14 1215.89C2120.46 1215.05 2120.89 1214.16 2121.32 1213.43C2122.43 1211.54 2123.85 1210.03 2125.64 1208.83C2127.92 1207.32 2130.8 1206.29 2134.5 1205.69C2135.26 1205.56 2135.94 1205.47 2136.96 1205.36C2137.38 1205.31 2138.2 1205.24 2138.87 1205.19C2139.95 1205.12 2141.85 1205.04 2142.76 1205.04C2143.03 1205.04 2143.16 1205.04 2143.16 1205.03C2143.15 1205.02 2143 1205.02 2142.75 1205.02C2141.76 1205.02 2140.03 1204.95 2138.66 1204.85C2137.95 1204.8 2136.96 1204.71 2136.27 1204.63C2133.43 1204.29 2131.03 1203.75 2128.98 1202.96C2127.29 1202.32 2125.81 1201.49 2124.57 1200.49C2123.99 1200.02 2123.41 1199.47 2122.9 1198.89C2122.3 1198.21 2121.72 1197.39 2121.23 1196.54C2120.5 1195.27 2119.87 1193.71 2119.41 1192.03C2118.8 1189.8 2118.42 1187.21 2118.22 1184.09C2118.15 1182.95 2118.09 1181.23 2118.09 1180.33C2118.09 1180.11 2118.08 1179.9 2118.08 1179.87C2118.07 1179.84 2118.06 1179.96 2118.06 1180.2Z" fill="white"/>
<path fill-rule="evenodd" clip-rule="evenodd" d="M598.585 170.806C598.579 172.41 598.458 175.609 598.329 177.594C598.238 178.985 598.084 180.809 597.96 181.95C597.94 182.139 597.911 182.408 597.895 182.548C597.548 185.755 596.969 189.055 596.243 191.973C596.059 192.713 595.993 192.96 595.736 193.858C594.182 199.297 591.804 203.922 588.724 207.497C588.09 208.233 587.073 209.287 586.375 209.93C581.726 214.214 575.407 217.123 567.2 218.757C564.121 219.371 560.434 219.855 556.94 220.105C556.742 220.12 556.422 220.142 556.23 220.156C554.271 220.296 550.706 220.437 549.125 220.437C548.641 220.437 548.353 220.446 548.343 220.462C548.333 220.479 548.586 220.488 549.084 220.488C549.815 220.488 551.604 220.536 552.911 220.59C556.915 220.757 560.624 221.105 564.066 221.636C564.527 221.707 564.897 221.769 565.817 221.93C566.599 222.066 567.969 222.348 568.913 222.566C573.715 223.677 577.87 225.275 581.328 227.342C585.083 229.587 588.198 232.49 590.607 235.99C593.729 240.525 595.848 246.118 597.134 253.218C597.38 254.577 597.639 256.309 597.807 257.727C597.843 258.028 597.884 258.366 597.897 258.478C598.006 259.38 598.142 260.864 598.278 262.656C598.424 264.571 598.578 268.308 598.586 270.131C598.588 270.609 598.597 270.864 598.609 270.794C598.62 270.731 598.63 270.312 598.632 269.864C598.637 267.883 598.777 264.201 598.939 261.815C599.022 260.581 599.172 258.813 599.268 257.931C599.396 256.752 599.428 256.465 599.472 256.109C600.018 251.744 600.76 248.15 601.785 244.902C601.869 244.636 601.95 244.378 601.964 244.329C602.033 244.089 602.501 242.783 602.731 242.192C603.388 240.5 604.238 238.729 605.101 237.257C607.31 233.486 610.161 230.457 613.747 228.067C618.295 225.036 624.05 222.991 631.45 221.777C632.98 221.526 634.342 221.346 636.373 221.124C637.223 221.031 638.865 220.89 640.193 220.794C642.359 220.638 646.169 220.489 647.98 220.488C648.511 220.488 648.782 220.479 648.771 220.462C648.762 220.446 648.46 220.437 647.951 220.437C645.973 220.436 642.522 220.297 639.774 220.107C638.364 220.009 636.377 219.824 634.99 219.66C629.311 218.991 624.519 217.896 620.425 216.332C617.044 215.041 614.088 213.382 611.602 211.381C610.43 210.437 609.279 209.335 608.267 208.188C607.064 206.824 605.897 205.183 604.922 203.486C603.46 200.94 602.204 197.822 601.287 194.466C600.069 190.006 599.292 184.833 598.901 178.575C598.759 176.311 598.635 172.857 598.632 171.074C598.631 170.618 598.621 170.2 598.609 170.144C598.596 170.08 598.587 170.33 598.585 170.806Z" fill="#DED5F6"/>
<path fill-rule="evenodd" clip-rule="evenodd" d="M128.577 193.96C128.571 195.564 128.45 198.763 128.321 200.749C128.23 202.139 128.076 203.964 127.952 205.104C127.932 205.293 127.903 205.563 127.887 205.703C127.54 208.909 126.961 212.209 126.235 215.127C126.051 215.868 125.985 216.114 125.728 217.012C124.174 222.451 121.796 227.077 118.716 230.652C118.082 231.388 117.065 232.441 116.367 233.084C111.718 237.368 105.399 240.277 97.1923 241.912C94.1132 242.525 90.4259 243.01 86.9324 243.26C86.7335 243.274 86.4137 243.297 86.2218 243.31C84.263 243.45 80.6984 243.591 79.1169 243.591C78.6335 243.591 78.3449 243.601 78.335 243.617C78.3246 243.633 78.578 243.642 79.0758 243.642C79.8073 243.642 81.5962 243.69 82.9034 243.745C86.9073 243.912 90.6156 244.259 94.0578 244.79C94.5188 244.861 94.8887 244.923 95.8091 245.084C96.5908 245.221 97.9611 245.502 98.9054 245.721C103.707 246.831 107.862 248.429 111.32 250.497C115.075 252.741 118.19 255.644 120.599 259.144C123.721 263.68 125.84 269.273 127.126 276.373C127.372 277.732 127.631 279.463 127.799 280.881C127.835 281.182 127.876 281.521 127.889 281.633C127.998 282.535 128.134 284.018 128.27 285.81C128.416 287.725 128.57 291.462 128.578 293.286C128.58 293.764 128.589 294.018 128.601 293.948C128.612 293.885 128.623 293.467 128.624 293.018C128.629 291.037 128.769 287.355 128.931 284.969C129.014 283.735 129.164 281.967 129.26 281.085C129.388 279.907 129.42 279.619 129.464 279.264C130.01 274.898 130.752 271.304 131.777 268.056C131.861 267.79 131.942 267.532 131.956 267.484C132.025 267.244 132.493 265.937 132.723 265.346C133.38 263.654 134.23 261.884 135.093 260.411C137.302 256.641 140.153 253.611 143.739 251.221C148.287 248.19 154.042 246.146 161.442 244.932C162.972 244.681 164.334 244.5 166.365 244.278C167.215 244.186 168.857 244.044 170.185 243.948C172.351 243.793 176.161 243.643 177.972 243.642C178.503 243.642 178.774 243.633 178.763 243.617C178.754 243.601 178.452 243.591 177.943 243.591C175.965 243.59 172.514 243.451 169.766 243.261C168.356 243.163 166.369 242.978 164.982 242.815C159.303 242.145 154.511 241.05 150.417 239.487C147.036 238.195 144.08 236.536 141.594 234.536C140.422 233.592 139.271 232.49 138.259 231.342C137.056 229.978 135.889 228.337 134.914 226.64C133.452 224.095 132.196 220.977 131.279 217.621C130.061 213.16 129.284 207.988 128.893 201.729C128.751 199.466 128.627 196.012 128.624 194.228C128.623 193.773 128.613 193.354 128.601 193.298C128.588 193.235 128.579 193.484 128.577 193.96Z" fill="#DED5F6"/>
<path fill-rule="evenodd" clip-rule="evenodd" d="M50.2427 840.269C50.2363 841.872 50.1154 845.071 49.9861 847.057C49.8956 848.447 49.7412 850.272 49.6176 851.412C49.5971 851.602 49.5679 851.871 49.5527 852.011C49.2051 855.217 48.6266 858.517 47.9008 861.435C47.7165 862.176 47.6502 862.423 47.3937 863.32C45.8392 868.759 43.4613 873.385 40.3815 876.96C39.7478 877.696 38.7301 878.75 38.0322 879.393C33.3832 883.676 27.0647 886.585 18.8576 888.22C15.7785 888.833 12.0912 889.318 8.59776 889.568C8.39886 889.582 8.07907 889.605 7.88712 889.619C5.92838 889.759 2.36379 889.899 0.782235 889.899C0.298848 889.899 0.0102019 889.909 0.000303679 889.925C-0.010026 889.942 0.243291 889.95 0.74117 889.951C1.47259 889.951 3.2615 889.998 4.56869 890.053C8.57264 890.22 12.281 890.567 15.7232 891.098C16.1842 891.169 16.554 891.231 17.4744 891.392C18.2561 891.529 19.6264 891.811 20.5708 892.029C25.3727 893.139 29.5278 894.738 32.9856 896.805C36.7401 899.05 39.8551 901.953 42.2642 905.452C45.3864 909.988 47.5053 915.581 48.7914 922.681C49.0375 924.04 49.2961 925.771 49.4647 927.189C49.5006 927.491 49.5409 927.829 49.5545 927.941C49.6636 928.843 49.799 930.326 49.9357 932.118C50.0818 934.033 50.2354 937.77 50.243 939.594C50.245 940.072 50.2541 940.327 50.2666 940.256C50.2778 940.193 50.2878 939.775 50.289 939.327C50.294 937.346 50.4344 933.664 50.5959 931.278C50.6794 930.043 50.8292 928.275 50.925 927.393C51.0529 926.215 51.0852 925.928 51.1297 925.572C51.6758 921.206 52.4175 917.613 53.4428 914.365C53.5268 914.099 53.607 913.841 53.621 913.792C53.6899 913.552 54.1588 912.246 54.3883 911.654C55.0449 909.963 55.8951 908.192 56.7583 906.719C58.9677 902.949 61.8183 899.919 65.4044 897.529C69.952 894.499 75.7072 892.454 83.107 891.24C84.6375 890.989 85.9996 890.808 88.0307 890.587C88.8802 890.494 90.5223 890.352 91.8504 890.257C94.0167 890.101 97.826 889.951 99.6371 889.951C100.169 889.951 100.439 889.942 100.429 889.925C100.419 889.909 100.117 889.899 99.6088 889.899C97.6301 889.899 94.1797 889.76 91.4316 889.569C90.0217 889.472 88.0348 889.286 86.6475 889.123C80.9683 888.454 76.1761 887.359 72.082 885.795C68.7009 884.503 65.7453 882.845 63.2598 880.844C62.0873 879.9 60.9362 878.798 59.9241 877.65C58.7215 876.287 57.554 874.645 56.5795 872.948C55.1178 870.403 53.8612 867.285 52.9446 863.929C51.7262 859.468 50.9495 854.296 50.558 848.037C50.4164 845.774 50.2927 842.32 50.2893 840.536C50.2885 840.081 50.2783 839.663 50.2667 839.606C50.2537 839.543 50.2446 839.792 50.2427 840.269Z" fill="#DED5F6"/>
<path fill-rule="evenodd" clip-rule="evenodd" d="M1049.51 0.672009C1049.51 2.2756 1049.38 5.47451 1049.26 7.4601C1049.16 8.85068 1049.01 10.6752 1048.89 11.8157C1048.87 12.0048 1048.84 12.2742 1048.82 12.4143C1048.47 15.6205 1047.9 18.9207 1047.17 21.8386C1046.99 22.5792 1046.92 22.826 1046.66 23.7235C1045.11 29.1627 1042.73 33.7883 1039.65 37.3634C1039.02 38.0991 1038 39.1528 1037.3 39.7959C1032.65 44.0797 1026.33 46.9885 1018.13 48.6233C1015.05 49.2366 1011.36 49.7211 1007.87 49.9712C1007.67 49.9855 1007.35 50.0083 1007.16 50.022C1005.2 50.1618 1001.63 50.3026 1000.05 50.3027C999.568 50.3028 999.279 50.3122 999.269 50.3283C999.259 50.345 999.512 50.3537 1000.01 50.3538C1000.74 50.3538 1002.53 50.4017 1003.84 50.4562C1007.84 50.6231 1011.55 50.9706 1014.99 51.5015C1015.45 51.5726 1015.82 51.6347 1016.74 51.7955C1017.53 51.9321 1018.9 52.2138 1019.84 52.4322C1024.64 53.5425 1028.8 55.141 1032.25 57.2083C1036.01 59.4529 1039.12 62.356 1041.53 65.8557C1044.66 70.3913 1046.77 75.9843 1048.06 83.0843C1048.31 84.4432 1048.57 86.1747 1048.73 87.5927C1048.77 87.8939 1048.81 88.232 1048.82 88.3441C1048.93 89.2463 1049.07 90.7295 1049.2 92.5214C1049.35 94.4366 1049.5 98.1737 1049.51 99.9972C1049.51 100.475 1049.52 100.73 1049.54 100.659C1049.55 100.596 1049.56 100.178 1049.56 99.7298C1049.56 97.7489 1049.7 94.0669 1049.87 91.6809C1049.95 90.4467 1050.1 88.6785 1050.19 87.7965C1050.32 86.6183 1050.35 86.331 1050.4 85.9753C1050.94 81.6096 1051.69 78.0158 1052.71 74.7679C1052.8 74.5018 1052.88 74.244 1052.89 74.1951C1052.96 73.9552 1053.43 72.6489 1053.66 72.0577C1054.31 70.3658 1055.16 68.5953 1056.03 67.1224C1058.24 63.3523 1061.09 60.3224 1064.67 57.9325C1069.22 54.9018 1074.98 52.8572 1082.38 51.6433C1083.91 51.3923 1085.27 51.2115 1087.3 50.99C1088.15 50.8974 1089.79 50.7555 1091.12 50.6599C1093.29 50.5041 1097.1 50.3544 1098.91 50.354C1099.44 50.3538 1099.71 50.345 1099.7 50.3283C1099.69 50.3122 1099.39 50.3027 1098.88 50.3025C1096.9 50.302 1093.45 50.1628 1090.7 49.9726C1089.29 49.875 1087.3 49.6896 1085.92 49.5261C1080.24 48.857 1075.45 47.762 1071.35 46.1982C1067.97 44.9066 1065.01 43.2479 1062.53 41.2471C1061.36 40.3031 1060.21 39.2011 1059.19 38.0536C1057.99 36.69 1056.82 35.0487 1055.85 33.3516C1054.39 30.8063 1053.13 27.6882 1052.21 24.3324C1051 19.8717 1050.22 14.6993 1049.83 8.44075C1049.69 6.17714 1049.56 2.72326 1049.56 0.939457C1049.56 0.484158 1049.55 0.0657924 1049.54 0.00975558C1049.52 -0.0537443 1049.51 0.195696 1049.51 0.672009Z" fill="#DED5F6"/>
<path fill-rule="evenodd" clip-rule="evenodd" d="M360.054 101.041C360.05 101.923 359.984 103.682 359.913 104.774C359.863 105.539 359.778 106.542 359.71 107.17C359.699 107.274 359.683 107.422 359.674 107.499C359.483 109.262 359.165 111.077 358.766 112.682C358.664 113.09 358.628 113.225 358.487 113.719C357.632 116.711 356.324 119.255 354.63 121.221C354.281 121.626 353.722 122.205 353.338 122.559C350.781 124.915 347.306 126.515 342.792 127.414C341.098 127.751 339.07 128.018 337.149 128.155C337.04 128.163 336.864 128.176 336.758 128.183C335.681 128.26 333.72 128.337 332.85 128.338C332.585 128.338 332.426 128.343 332.42 128.352C332.415 128.361 332.554 128.366 332.828 128.366C333.23 128.366 334.214 128.392 334.933 128.422C337.135 128.514 339.175 128.705 341.068 128.997C341.321 129.036 341.525 129.07 342.031 129.159C342.461 129.234 343.215 129.389 343.734 129.509C346.375 130.119 348.66 130.999 350.562 132.136C352.627 133.37 354.34 134.967 355.666 136.892C357.383 139.386 358.548 142.462 359.255 146.367C359.391 147.115 359.533 148.067 359.626 148.847C359.646 149.013 359.668 149.199 359.675 149.26C359.735 149.757 359.81 150.572 359.885 151.558C359.965 152.611 360.05 154.667 360.054 155.67C360.055 155.932 360.06 156.073 360.067 156.034C360.073 155.999 360.079 155.769 360.079 155.522C360.082 154.433 360.159 152.408 360.248 151.096C360.294 150.417 360.376 149.444 360.429 148.959C360.499 148.311 360.517 148.153 360.542 147.957C360.842 145.556 361.25 143.58 361.814 141.793C361.86 141.647 361.904 141.505 361.912 141.478C361.95 141.346 362.208 140.628 362.334 140.303C362.695 139.372 363.162 138.399 363.637 137.588C364.852 135.515 366.42 133.848 368.393 132.534C370.894 130.867 374.059 129.743 378.129 129.075C378.971 128.937 379.72 128.837 380.837 128.716C381.304 128.665 382.207 128.587 382.938 128.534C384.129 128.448 386.224 128.366 387.221 128.366C387.513 128.366 387.662 128.361 387.656 128.352C387.651 128.343 387.485 128.338 387.205 128.337C386.117 128.337 384.219 128.261 382.708 128.156C381.932 128.102 380.839 128 380.076 127.91C376.953 127.542 374.317 126.94 372.065 126.08C370.206 125.37 368.58 124.457 367.213 123.357C366.568 122.838 365.935 122.232 365.378 121.601C364.717 120.851 364.075 119.948 363.539 119.014C362.735 117.615 362.044 115.9 361.54 114.054C360.87 111.601 360.442 108.756 360.227 105.313C360.149 104.069 360.081 102.169 360.079 101.188C360.079 100.937 360.073 100.707 360.067 100.676C360.06 100.642 360.055 100.779 360.054 101.041Z" fill="#DED5F6"/>
<path fill-rule="evenodd" clip-rule="evenodd" d="M100.947 708.087C100.943 708.969 100.877 710.729 100.806 711.821C100.756 712.586 100.671 713.589 100.603 714.216C100.592 714.32 100.576 714.468 100.567 714.545C100.376 716.309 100.058 718.124 99.6586 719.729C99.5573 720.136 99.5208 720.272 99.3797 720.766C98.5248 723.757 97.2169 726.301 95.5231 728.268C95.1745 728.672 94.6147 729.252 94.2309 729.605C91.674 731.961 88.1988 733.561 83.6849 734.46C81.9914 734.798 79.9634 735.064 78.042 735.202C77.9326 735.21 77.7567 735.222 77.6511 735.23C76.5738 735.307 74.6133 735.384 73.7434 735.384C73.4776 735.384 73.3188 735.389 73.3134 735.398C73.3077 735.407 73.447 735.412 73.7209 735.412C74.1231 735.412 75.107 735.439 75.826 735.469C78.0282 735.56 80.0677 735.751 81.961 736.043C82.2145 736.083 82.4179 736.117 82.9241 736.205C83.3541 736.28 84.1078 736.435 84.6271 736.555C87.2682 737.166 89.5535 738.045 91.4553 739.182C93.5203 740.417 95.2335 742.013 96.5585 743.938C98.2757 746.433 99.4411 749.509 100.148 753.414C100.284 754.161 100.426 755.114 100.519 755.894C100.539 756.059 100.561 756.245 100.568 756.307C100.628 756.803 100.703 757.619 100.778 758.604C100.858 759.658 100.943 761.713 100.947 762.716C100.948 762.979 100.953 763.119 100.96 763.08C100.966 763.046 100.972 762.816 100.972 762.569C100.975 761.48 101.052 759.454 101.141 758.142C101.187 757.463 101.269 756.491 101.322 756.006C101.392 755.358 101.41 755.2 101.435 755.004C101.735 752.603 102.143 750.626 102.707 748.84C102.753 748.694 102.797 748.552 102.805 748.525C102.843 748.393 103.101 747.675 103.227 747.349C103.588 746.419 104.056 745.445 104.53 744.635C105.745 742.561 107.313 740.895 109.286 739.581C111.787 737.914 114.952 736.789 119.022 736.121C119.864 735.983 120.613 735.884 121.73 735.762C122.197 735.711 123.101 735.633 123.831 735.581C125.022 735.495 127.118 735.413 128.114 735.412C128.406 735.412 128.555 735.407 128.549 735.398C128.544 735.389 128.378 735.384 128.098 735.384C127.01 735.384 125.112 735.307 123.601 735.203C122.825 735.149 121.732 735.047 120.969 734.957C117.846 734.589 115.21 733.987 112.958 733.127C111.099 732.416 109.473 731.504 108.106 730.404C107.461 729.884 106.828 729.278 106.271 728.647C105.61 727.897 104.968 726.994 104.432 726.061C103.628 724.661 102.937 722.946 102.433 721.1C101.763 718.647 101.335 715.802 101.12 712.36C101.042 711.115 100.974 709.215 100.972 708.234C100.972 707.984 100.966 707.754 100.96 707.723C100.953 707.688 100.948 707.825 100.947 708.087Z" fill="#DED5F6"/>
<path fill-rule="evenodd" clip-rule="evenodd" d="M913.418 215.806C913.414 216.688 913.348 218.447 913.277 219.539C913.227 220.304 913.142 221.307 913.074 221.935C913.063 222.039 913.047 222.187 913.038 222.264C912.847 224.027 912.529 225.842 912.13 227.447C912.028 227.855 911.992 227.99 911.851 228.484C910.996 231.476 909.688 234.02 907.994 235.986C907.646 236.391 907.086 236.97 906.702 237.324C904.145 239.68 900.67 241.28 896.156 242.179C894.462 242.516 892.434 242.783 890.513 242.92C890.404 242.928 890.228 242.941 890.122 242.948C889.045 243.025 887.084 243.103 886.215 243.103C885.949 243.103 885.79 243.108 885.784 243.117C885.779 243.126 885.918 243.131 886.192 243.131C886.594 243.131 887.578 243.157 888.297 243.187C890.499 243.279 892.539 243.47 894.432 243.762C894.686 243.801 894.889 243.835 895.395 243.924C895.825 243.999 896.579 244.154 897.098 244.274C899.739 244.884 902.025 245.764 903.926 246.901C905.991 248.135 907.705 249.732 909.03 251.657C910.747 254.151 911.912 257.227 912.62 261.132C912.755 261.88 912.897 262.832 912.99 263.612C913.01 263.778 913.032 263.964 913.039 264.025C913.099 264.522 913.174 265.337 913.249 266.323C913.329 267.376 913.414 269.432 913.418 270.435C913.419 270.697 913.424 270.838 913.431 270.799C913.437 270.764 913.443 270.534 913.443 270.287C913.446 269.198 913.523 267.173 913.612 265.861C913.658 265.182 913.74 264.209 913.793 263.724C913.863 263.076 913.881 262.918 913.906 262.723C914.206 260.321 914.614 258.345 915.178 256.558C915.224 256.412 915.268 256.27 915.276 256.243C915.314 256.111 915.572 255.393 915.698 255.068C916.059 254.137 916.527 253.164 917.001 252.353C918.217 250.28 919.784 248.613 921.757 247.299C924.258 245.632 927.423 244.508 931.493 243.84C932.335 243.702 933.084 243.602 934.201 243.481C934.668 243.43 935.572 243.352 936.302 243.299C937.493 243.213 939.589 243.131 940.585 243.131C940.877 243.131 941.026 243.126 941.02 243.117C941.015 243.108 940.849 243.103 940.569 243.102C939.481 243.102 937.583 243.026 936.072 242.921C935.296 242.867 934.203 242.765 933.44 242.675C930.317 242.307 927.681 241.705 925.429 240.845C923.57 240.135 921.944 239.222 920.577 238.122C919.932 237.603 919.299 236.997 918.743 236.366C918.081 235.616 917.439 234.713 916.903 233.78C916.099 232.38 915.408 230.665 914.904 228.819C914.234 226.366 913.807 223.521 913.591 220.079C913.513 218.834 913.445 216.934 913.443 215.953C913.443 215.702 913.437 215.472 913.431 215.441C913.424 215.407 913.419 215.544 913.418 215.806Z" fill="#DED5F6"/>
<path fill-rule="evenodd" clip-rule="evenodd" d="M1966.92 527.886C1966.92 528.768 1966.85 530.527 1966.78 531.619C1966.73 532.384 1966.64 533.388 1966.57 534.015C1966.56 534.119 1966.55 534.267 1966.54 534.344C1966.35 536.108 1966.03 537.923 1965.63 539.528C1965.53 539.935 1965.49 540.071 1965.35 540.564C1964.5 543.556 1963.19 546.1 1961.5 548.066C1961.15 548.471 1960.59 549.05 1960.2 549.404C1957.65 551.76 1954.17 553.36 1949.66 554.259C1947.96 554.597 1945.94 554.863 1944.01 555.001C1943.9 555.008 1943.73 555.021 1943.62 555.029C1942.55 555.105 1940.59 555.183 1939.72 555.183C1939.45 555.183 1939.29 555.188 1939.29 555.197C1939.28 555.206 1939.42 555.211 1939.69 555.211C1940.1 555.211 1941.08 555.237 1941.8 555.267C1944 555.359 1946.04 555.55 1947.93 555.842C1948.19 555.881 1948.39 555.916 1948.9 556.004C1949.33 556.079 1950.08 556.234 1950.6 556.354C1953.24 556.965 1955.53 557.844 1957.43 558.981C1959.49 560.216 1961.21 561.812 1962.53 563.737C1964.25 566.232 1965.41 569.308 1966.12 573.213C1966.26 573.96 1966.4 574.913 1966.49 575.692C1966.51 575.858 1966.53 576.044 1966.54 576.106C1966.6 576.602 1966.67 577.418 1966.75 578.403C1966.83 579.457 1966.91 581.512 1966.92 582.515C1966.92 582.778 1966.92 582.918 1966.93 582.879C1966.94 582.844 1966.94 582.614 1966.94 582.368C1966.95 581.278 1967.02 579.253 1967.11 577.941C1967.16 577.262 1967.24 576.29 1967.29 575.804C1967.36 575.156 1967.38 574.998 1967.41 574.803C1967.71 572.402 1968.11 570.425 1968.68 568.639C1968.72 568.492 1968.77 568.351 1968.78 568.324C1968.81 568.192 1969.07 567.473 1969.2 567.148C1969.56 566.218 1970.03 565.244 1970.5 564.434C1971.72 562.36 1973.29 560.694 1975.26 559.379C1977.76 557.712 1980.92 556.588 1984.99 555.92C1985.84 555.782 1986.58 555.683 1987.7 555.561C1988.17 555.51 1989.07 555.432 1989.8 555.379C1990.99 555.294 1993.09 555.211 1994.09 555.211C1994.38 555.211 1994.53 555.206 1994.52 555.197C1994.52 555.188 1994.35 555.183 1994.07 555.183C1992.98 555.183 1991.08 555.106 1989.57 555.001C1988.8 554.948 1987.7 554.846 1986.94 554.756C1983.82 554.388 1981.18 553.786 1978.93 552.925C1977.07 552.215 1975.45 551.303 1974.08 550.202C1973.43 549.683 1972.8 549.077 1972.24 548.446C1971.58 547.696 1970.94 546.793 1970.4 545.86C1969.6 544.46 1968.91 542.745 1968.4 540.899C1967.73 538.446 1967.31 535.601 1967.09 532.159C1967.01 530.914 1966.95 529.014 1966.94 528.033C1966.94 527.783 1966.94 527.553 1966.93 527.522C1966.92 527.487 1966.92 527.624 1966.92 527.886Z" fill="#DED5F6"/>
<path fill-rule="evenodd" clip-rule="evenodd" d="M2312.39 208.759C2312.39 209.641 2312.32 211.4 2312.25 212.492C2312.2 213.257 2312.12 214.26 2312.05 214.888C2312.04 214.992 2312.02 215.14 2312.01 215.217C2311.82 216.98 2311.51 218.795 2311.11 220.4C2311.01 220.808 2310.97 220.943 2310.83 221.437C2309.97 224.429 2308.66 226.973 2306.97 228.939C2306.62 229.344 2306.06 229.923 2305.68 230.277C2303.12 232.633 2299.65 234.233 2295.13 235.132C2293.44 235.469 2291.41 235.736 2289.49 235.873C2289.38 235.881 2289.2 235.894 2289.1 235.901C2288.02 235.978 2286.06 236.056 2285.19 236.056C2284.93 236.056 2284.77 236.061 2284.76 236.07C2284.76 236.079 2284.89 236.084 2285.17 236.084C2285.57 236.084 2286.55 236.11 2287.27 236.14C2289.48 236.232 2291.52 236.423 2293.41 236.715C2293.66 236.754 2293.87 236.788 2294.37 236.877C2294.8 236.952 2295.56 237.107 2296.07 237.227C2298.72 237.838 2301 238.717 2302.9 239.854C2304.97 241.088 2306.68 242.685 2308.01 244.61C2309.72 247.104 2310.89 250.181 2311.6 254.085C2311.73 254.833 2311.87 255.785 2311.97 256.565C2311.99 256.731 2312.01 256.917 2312.02 256.978C2312.08 257.475 2312.15 258.29 2312.23 259.276C2312.31 260.329 2312.39 262.385 2312.39 263.388C2312.4 263.65 2312.4 263.791 2312.41 263.752C2312.41 263.717 2312.42 263.487 2312.42 263.241C2312.42 262.151 2312.5 260.126 2312.59 258.814C2312.63 258.135 2312.72 257.162 2312.77 256.677C2312.84 256.029 2312.86 255.871 2312.88 255.676C2313.18 253.274 2313.59 251.298 2314.15 249.511C2314.2 249.365 2314.24 249.223 2314.25 249.196C2314.29 249.064 2314.55 248.346 2314.67 248.021C2315.04 247.09 2315.5 246.117 2315.98 245.306C2317.19 243.233 2318.76 241.566 2320.73 240.252C2323.23 238.585 2326.4 237.461 2330.47 236.793C2331.31 236.655 2332.06 236.555 2333.18 236.434C2333.65 236.383 2334.55 236.305 2335.28 236.252C2336.47 236.166 2338.57 236.084 2339.56 236.084C2339.85 236.084 2340 236.079 2340 236.07C2339.99 236.061 2339.83 236.056 2339.55 236.056C2338.46 236.055 2336.56 235.979 2335.05 235.874C2334.27 235.82 2333.18 235.718 2332.42 235.628C2329.29 235.26 2326.66 234.658 2324.41 233.798C2322.55 233.088 2320.92 232.175 2319.55 231.075C2318.91 230.556 2318.28 229.95 2317.72 229.319C2317.06 228.569 2316.42 227.666 2315.88 226.733C2315.08 225.333 2314.38 223.618 2313.88 221.772C2313.21 219.319 2312.78 216.474 2312.57 213.032C2312.49 211.787 2312.42 209.887 2312.42 208.906C2312.42 208.655 2312.41 208.425 2312.41 208.394C2312.4 208.36 2312.4 208.497 2312.39 208.759Z" fill="#DED5F6"/>
<path fill-rule="evenodd" clip-rule="evenodd" d="M1821.81 65.1015C1821.8 66.7051 1821.68 69.904 1821.55 71.8896C1821.46 73.2802 1821.31 75.1047 1821.19 76.2452C1821.17 76.4343 1821.14 76.7037 1821.12 76.8438C1820.77 80.0499 1820.2 83.3502 1819.47 86.2681C1819.29 87.0087 1819.22 87.2555 1818.96 88.153C1817.41 93.5922 1815.03 98.2177 1811.95 101.793C1811.32 102.529 1810.3 103.582 1809.6 104.225C1804.95 108.509 1798.63 111.418 1790.43 113.053C1787.35 113.666 1783.66 114.151 1780.17 114.401C1779.97 114.415 1779.65 114.438 1779.46 114.452C1777.5 114.591 1773.93 114.732 1772.35 114.732C1771.87 114.732 1771.58 114.742 1771.57 114.758C1771.56 114.775 1771.81 114.783 1772.31 114.783C1773.04 114.783 1774.83 114.831 1776.14 114.886C1780.14 115.053 1783.85 115.4 1787.29 115.931C1787.75 116.002 1788.12 116.064 1789.04 116.225C1789.82 116.362 1791.2 116.643 1792.14 116.862C1796.94 117.972 1801.1 119.57 1804.55 121.638C1808.31 123.882 1811.42 126.785 1813.83 130.285C1816.95 134.821 1819.07 140.414 1820.36 147.514C1820.61 148.873 1820.86 150.604 1821.03 152.022C1821.07 152.323 1821.11 152.662 1821.12 152.774C1821.23 153.676 1821.37 155.159 1821.5 156.951C1821.65 158.866 1821.8 162.603 1821.81 164.427C1821.81 164.905 1821.82 165.159 1821.84 165.089C1821.85 165.026 1821.86 164.608 1821.86 164.159C1821.86 162.178 1822 158.496 1822.16 156.11C1822.25 154.876 1822.4 153.108 1822.49 152.226C1822.62 151.048 1822.65 150.76 1822.7 150.405C1823.24 146.039 1823.99 142.445 1825.01 139.197C1825.1 138.931 1825.18 138.674 1825.19 138.625C1825.26 138.385 1825.73 137.078 1825.96 136.487C1826.61 134.795 1827.46 133.025 1828.33 131.552C1830.54 127.782 1833.39 124.752 1836.97 122.362C1841.52 119.331 1847.28 117.287 1854.68 116.073C1856.21 115.822 1857.57 115.641 1859.6 115.42C1860.45 115.327 1862.09 115.185 1863.42 115.089C1865.59 114.934 1869.39 114.784 1871.21 114.783C1871.74 114.783 1872.01 114.775 1872 114.758C1871.99 114.742 1871.69 114.732 1871.18 114.732C1869.2 114.731 1865.75 114.592 1863 114.402C1861.59 114.304 1859.6 114.119 1858.22 113.956C1852.54 113.286 1847.74 112.191 1843.65 110.628C1840.27 109.336 1837.31 107.677 1834.83 105.677C1833.66 104.733 1832.5 103.631 1831.49 102.483C1830.29 101.119 1829.12 99.4782 1828.15 97.7811C1826.69 95.2357 1825.43 92.1177 1824.51 88.7619C1823.29 84.3012 1822.52 79.1288 1822.13 72.8702C1821.99 70.6066 1821.86 67.1528 1821.86 65.3689C1821.86 64.9136 1821.85 64.4953 1821.84 64.4392C1821.82 64.3757 1821.81 64.6252 1821.81 65.1015Z" fill="#DED5F6"/>
<path fill-rule="evenodd" clip-rule="evenodd" d="M2415.35 561.41C2415.34 563.014 2415.22 566.212 2415.09 568.198C2415 569.589 2414.85 571.413 2414.72 572.554C2414.7 572.743 2414.67 573.012 2414.66 573.152C2414.31 576.358 2413.73 579.659 2413.01 582.577C2412.82 583.317 2412.75 583.564 2412.5 584.461C2410.94 589.901 2408.57 594.526 2405.49 598.101C2404.85 598.837 2403.83 599.891 2403.14 600.534C2398.49 604.818 2392.17 607.726 2383.96 609.361C2380.88 609.975 2377.2 610.459 2373.7 610.709C2373.5 610.723 2373.18 610.746 2372.99 610.76C2371.03 610.9 2367.47 611.04 2365.89 611.041C2365.4 611.041 2365.11 611.05 2365.1 611.066C2365.09 611.083 2365.35 611.092 2365.85 611.092C2366.58 611.092 2368.37 611.14 2369.67 611.194C2373.68 611.361 2377.39 611.709 2380.83 612.239C2381.29 612.311 2381.66 612.373 2382.58 612.533C2383.36 612.67 2384.73 612.952 2385.68 613.17C2390.48 614.28 2394.63 615.879 2398.09 617.946C2401.84 620.191 2404.96 623.094 2407.37 626.594C2410.49 631.129 2412.61 636.722 2413.9 643.822C2414.14 645.181 2414.4 646.913 2414.57 648.331C2414.6 648.632 2414.65 648.97 2414.66 649.082C2414.77 649.984 2414.9 651.467 2415.04 653.259C2415.19 655.175 2415.34 658.912 2415.35 660.735C2415.35 661.213 2415.36 661.468 2415.37 661.397C2415.38 661.334 2415.39 660.916 2415.39 660.468C2415.4 658.487 2415.54 654.805 2415.7 652.419C2415.78 651.185 2415.93 649.416 2416.03 648.534C2416.16 647.356 2416.19 647.069 2416.23 646.713C2416.78 642.348 2417.52 638.754 2418.55 635.506C2418.63 635.24 2418.71 634.982 2418.73 634.933C2418.79 634.693 2419.26 633.387 2419.49 632.796C2420.15 631.104 2421 629.333 2421.86 627.86C2424.07 624.09 2426.92 621.06 2430.51 618.67C2435.06 615.64 2440.81 613.595 2448.21 612.381C2449.74 612.13 2451.1 611.949 2453.13 611.728C2453.98 611.635 2455.63 611.493 2456.95 611.398C2459.12 611.242 2462.93 611.092 2464.74 611.092C2465.27 611.092 2465.54 611.083 2465.53 611.066C2465.52 611.05 2465.22 611.041 2464.71 611.04C2462.73 611.04 2459.28 610.901 2456.54 610.71C2455.13 610.613 2453.14 610.428 2451.75 610.264C2446.07 609.595 2441.28 608.5 2437.19 606.936C2433.81 605.645 2430.85 603.986 2428.36 601.985C2427.19 601.041 2426.04 599.939 2425.03 598.791C2423.83 597.428 2422.66 595.787 2421.68 594.09C2420.22 591.544 2418.97 588.426 2418.05 585.07C2416.83 580.61 2416.05 575.437 2415.66 569.179C2415.52 566.915 2415.4 563.461 2415.39 561.677C2415.39 561.222 2415.38 560.804 2415.37 560.748C2415.36 560.684 2415.35 560.934 2415.35 561.41Z" fill="#DED5F6"/>
<defs>
<linearGradient id="paint0_linear" x1="2358.58" y1="178.188" x2="791.384" y2="2390.4" gradientUnits="userSpaceOnUse">
<stop stop-color="#9773FE" stop-opacity="0.6"/>
<stop offset="1" stop-color="#C4C4C4" stop-opacity="0"/>
</linearGradient>
</defs>
</svg>
