<svg xmlns="http://www.w3.org/2000/svg" width="14.2251in" height="14.2253in" viewBox="0 0 1024.2055 1024.2227"><defs><style>.a{fill:#23769b;}.b{fill:#fdfefe;}.c{fill:#21759b;}</style></defs><title>wordpress-logo</title><path class="a" d="M209,749V693c1.4753-.8866.9007-2.3769.9743-3.61a487.0927,487.0927,0,0,1,9.41-71.2334c20.7423-98.6835,66.0724-184.4572,137.0765-256.0417q133.1448-134.2335,321.95-151.3628c5.19-.4733,10.566.3023,15.5886-1.7521h54c.9079,1.4508,2.3972.8679,3.6251.9324a464.8236,464.8236,0,0,1,56.0478,6.3745c91.3731,16.0546,173.0684,53.4233,243.4484,113.86q159.9036,137.3121,180.1043,347.7243c.509,5.3654-.1526,10.8932,1.7744,16.109v55c-1.4244.9153-.8822,2.3934-.9536,3.634a486.7361,486.7361,0,0,1-9.3875,71.2329c-16.1989,77.86-48.088,148.7207-97.6053,210.9653-92.59,116.3886-213.0667,182.1982-361.4228,196.3892-5.5405.53-11.2358-.1455-16.6308,1.7786H694c-.9349-1.3871-2.4066-.8757-3.6521-.9432a482.0922,482.0922,0,0,1-71.7367-9.349c-75.9759-15.7294-145.4284-46.3945-206.6886-94.0453C292.5391,1035.8012,225.1292,913.9385,210.729,763.07,210.2819,758.3859,211.015,753.5051,209,749Zm511.7908,460.5459c268.4937.8882,488.1872-218.4032,488.6466-488.2216.4569-268.2681-217.4541-488.56-487.9712-488.8208-269.4369-.26-488.2612,218.5228-489.0432,487.8971C231.6433,988.9819,450.5819,1208.652,720.7908,1209.5459Z" transform="translate(-208.8885 -208.8886)"/><path class="b" d="M209,749c2.015,4.5051,1.2819,9.3859,1.729,14.07,14.4,150.8683,81.81,272.731,201.1936,365.5923,61.26,47.6508,130.7127,78.3159,206.6886,94.0453a482.0922,482.0922,0,0,0,71.7367,9.349c1.2455.0675,2.7172-.4439,3.6521.9432q-240.1262,0-480.2521.1113c-4.0527.0034-4.8627-.805-4.8593-4.8587Q209.0851,988.6264,209,749Z" transform="translate(-208.8885 -208.8886)"/><path class="b" d="M694,209c-5.0226,2.0544-10.399,1.2788-15.5886,1.7521q-188.5065,17.1935-321.95,151.3628C285.457,433.6994,240.1269,519.4731,219.3846,618.1566a487.0927,487.0927,0,0,0-9.41,71.2334c-.0736,1.2331.501,2.7234-.9743,3.61q0-239.6263-.1115-479.2527c-.0033-4.0538.8069-4.862,4.8594-4.8587Q453.8739,209.0851,694,209Z" transform="translate(-208.8885 -208.8886)"/><path class="b" d="M747,1233c5.395-1.9241,11.09-1.2487,16.6308-1.7786,148.3561-14.191,268.8326-80.0006,361.4228-196.3892,49.5173-62.2446,81.4064-133.1056,97.6053-210.9653a486.7361,486.7361,0,0,0,9.3875-71.2329c.0714-1.2406-.4708-2.7187.9536-3.634q0,239.75.094,479.5c.0026,3.7495-.8446,4.5965-4.5941,4.5941Q987.75,1232.93,747,1233Z" transform="translate(-208.8885 -208.8886)"/><path class="b" d="M1233,694c-1.927-5.2158-1.2654-10.7436-1.7744-16.109q-19.941-210.21-180.1043-347.7243c-70.38-60.4365-152.0753-97.8052-243.4484-113.86a464.8236,464.8236,0,0,0-56.0478-6.3745c-1.2279-.0645-2.7172.5184-3.6251-.9324q240.25,0,480.5-.0939c3.7495-.0026,4.5967.8445,4.5941,4.5939Q1232.93,453.75,1233,694Z" transform="translate(-208.8885 -208.8886)"/><path class="b" d="M720.7908,1209.5459c-270.2089-.8939-489.1475-220.564-488.3678-489.1453.782-269.3743,219.6063-488.1566,489.0432-487.8971,270.5171.2606,488.4281,220.5527,487.9712,488.8208C1208.978,991.1427,989.2845,1210.4341,720.7908,1209.5459Zm222.6239-110.1377a23.0049,23.0049,0,0,0,2.2311-1.0915c127.0059-79.4856,198.9993-193.5027,212.9924-342.846,6.7035-71.5447-5.4342-140.701-33.6312-206.9037a355.1887,355.1887,0,0,0-17.8674-36.6245c0,2.5055-.1238,3.8.018,5.064,4.478,39.9409,1.8378,79.44-6.8851,118.6378-6.1258,27.5277-15.9914,53.8124-25.2514,80.3562q-58.8249,168.6233-116.9117,337.5037c-5.2112,15.0725-10.187,30.2263-15.2718,45.3425-.1884.2167-.5778.5605-.5338.63C942.674,1100.0618,943.06,1099.78,943.4147,1099.4082Zm-415.5092,15.6945a5.2613,5.2613,0,0,0,.57.61c.5239-.3647.3376-.7895.0283-1.2023-.4683-1.42-.898-2.8552-1.41-4.26Q424.4372,828.8651,321.72,547.5022c-.4979-1.3634-.3776-3.3032-2.2972-3.9457-17.9207,36.8534-32.8075,95.0357-36.28,142.02-4.0039,54.17.8066,107.5015,16.5622,159.5565,32.3,106.7174,96.0961,189.61,190.1435,249.2739C502.0422,1102.1429,514.508,1109.5148,527.9055,1115.1027Zm412.31-128.1911c.6363-1.932.8566-2.5543,1.047-3.1857q31.2678-103.6559,62.46-207.3344c6.3355-21.2166,11.6916-42.7412,13.227-64.9433,2.7964-40.4367-6.4842-78.2593-24.931-114.1426-9.912-19.2812-22.15-37.166-32.718-56.0419-10.3081-18.4116-18.5641-37.4475-20.8668-58.8158-3.5711-33.1387,15.8521-67.417,46.1757-80.2635a69.7324,69.7324,0,0,1,31.8461-5.2218c-.9944-2.5092-2.8193-3.4678-4.2524-4.7242-66.9126-58.6588-144.29-94.4921-232.569-106.4821A439.0453,439.0453,0,0,0,356.74,475.8277c-.6968,1.0349-2.16,2.0073-1.4737,3.4257.5973,1.2341,2.1008.6167,3.1838.6417q41.2536.95,82.4471-1.5069c19.6237-1.1788,39.2382-2.5338,58.8708-3.5353,10.3308-.5269,17.3184,5.62,18.526,15.5666,1.22,10.0477-4.41,18.1046-14.4088,20.1369a110.8706,110.8706,0,0,1-12.3988,1.4316c-13.0363,1.1434-26.0785,2.2184-39.4909,3.3513l159.3576,474.004c1.8367-.6956,1.7063-2.2787,2.0987-3.4537q46.78-140.0908,93.52-280.1954a8.8149,8.8149,0,0,0-.0526-6.22q-33.0706-90.4316-65.979-180.9222c-1.0473-2.8842-2.6239-3.5945-5.4036-3.8235-13.9414-1.1484-27.8658-2.5036-41.7962-3.7856-6.5558-.6033-11.8585-3.2039-14.8319-9.4206-6.207-12.9774,2.834-27.28,17.1488-26.6737,14.1453.5994,28.2646,1.7919,42.4,2.6427,36.2741,2.1832,72.557,3.5081,108.9089,1.9789,26.9722-1.1347,53.8984-2.9662,80.8386-4.6094,9.5312-.5814,15.849,3.2879,18.7115,10.9514,4.5736,12.2443-2.797,23.8754-16.1014,25.1457-14.4238,1.377-28.8645,2.58-43.302,3.8111-5.9116.5041-5.9085.4445-4.0524,5.9668q70.8152,210.6817,141.63,421.3639C929.9534,956.57,934.8528,971.0282,940.215,986.9116ZM728.7879,759.6774c-.8408,2.1244-1.2445,3.0367-1.5679,3.9765q-64.4345,187.2249-128.9532,374.4206c-1.3413,3.8862-.1183,4.69,3.2146,5.6125a445.5433,445.5433,0,0,0,84.37,15.1265,438.9983,438.9983,0,0,0,170.9726-20.0592c9.3479-3.0271,9.3135-3.0387,5.9294-12.3036Q801.4077,958.5032,740.0771,790.55C736.441,780.5939,732.7971,770.6406,728.7879,759.6774Z" transform="translate(-208.8885 -208.8886)"/><path class="c" d="M940.215,986.9116c-5.3622-15.8834-10.2616-30.3419-15.1258-44.8123Q854.27,731.4189,783.46,520.7354c-1.8561-5.5223-1.8592-5.4627,4.0524-5.9668,14.4375-1.2311,28.8782-2.4341,43.302-3.8111,13.3044-1.27,20.675-12.9014,16.1014-25.1457-2.8625-7.6635-9.18-11.5328-18.7115-10.9514-26.94,1.6432-53.8664,3.4747-80.8386,4.6094-36.3519,1.5292-72.6348.2043-108.9089-1.9789-14.1356-.8508-28.2549-2.0433-42.4-2.6427-14.3148-.6065-23.3558,13.6963-17.1488,26.6737,2.9734,6.2167,8.2761,8.8173,14.8319,9.4206,13.93,1.282,27.8548,2.6372,41.7962,3.7856,2.78.229,4.3563.9393,5.4036,3.8235q32.8651,90.5062,65.979,180.9222a8.8149,8.8149,0,0,1,.0526,6.22q-46.7883,140.0883-93.52,280.1954c-.3924,1.175-.262,2.7581-2.0987,3.4537L451.995,515.3393c13.4124-1.1329,26.4546-2.2079,39.4909-3.3513a110.8706,110.8706,0,0,0,12.3988-1.4316c9.9986-2.0323,15.6288-10.0892,14.4088-20.1369-1.2076-9.9466-8.1952-16.0935-18.526-15.5666-19.6326,1.0015-39.2471,2.3565-58.8708,3.5353q-41.1914,2.4744-82.4471,1.5069c-1.083-.025-2.5865.5924-3.1838-.6417-.6867-1.4184.7769-2.3908,1.4737-3.4257A438.5768,438.5768,0,0,1,779.6333,285.7563c88.2789,11.99,165.6564,47.8233,232.569,106.4821,1.4331,1.2564,3.258,2.215,4.2524,4.7242a69.7324,69.7324,0,0,0-31.8461,5.2218c-30.3236,12.8465-49.7468,47.1248-46.1757,80.2635,2.3027,21.3683,10.5587,40.4042,20.8668,58.8158,10.5681,18.8759,22.806,36.7607,32.718,56.0419,18.4468,35.8833,27.7274,73.7059,24.931,114.1426-1.5354,22.2021-6.8915,43.7267-13.227,64.9433q-30.9783,103.7423-62.46,207.3344C941.0716,984.3573,940.8513,984.98,940.215,986.9116Z" transform="translate(-208.8885 -208.8886)"/><path class="c" d="M728.7879,759.6774c4.0092,10.9632,7.6531,20.9165,11.2892,30.8727q61.337,167.9506,122.6758,335.9006c3.3841,9.2649,3.4185,9.2765-5.9294,12.3036a438.9983,438.9983,0,0,1-170.9726,20.0592,445.5433,445.5433,0,0,1-84.37-15.1265c-3.3329-.9228-4.5559-1.7263-3.2146-5.6125Q662.8675,950.9069,727.22,763.6539C727.5434,762.7141,727.9471,761.8018,728.7879,759.6774Z" transform="translate(-208.8885 -208.8886)"/><path class="c" d="M527.9055,1115.1027c-13.3975-5.5879-25.8633-12.96-38.0571-20.6957-94.0474-59.6643-157.8431-142.5565-190.1435-249.2739-15.7556-52.055-20.5661-105.3868-16.5622-159.5565,3.4728-46.9844,18.36-105.1667,36.28-142.02,1.92.6425,1.7993,2.5823,2.2972,3.9457Q424.4624,828.8558,527.0933,1110.25c.5123,1.4045.942,2.8392,1.41,4.26Q528.1963,1114.7979,527.9055,1115.1027Z" transform="translate(-208.8885 -208.8886)"/><path class="c" d="M942.8376,1098.8466c5.0848-15.1161,10.0606-30.27,15.2718-45.3424q58.3572-168.7862,116.9117-337.5037c9.26-26.5438,19.1256-52.8285,25.2514-80.3562,8.7229-39.1982,11.3631-78.6969,6.8851-118.6378-.1418-1.2644-.018-2.5585-.018-5.064a355.1887,355.1887,0,0,1,17.8674,36.6245c28.197,66.2027,40.3347,135.359,33.6312,206.9037-13.9931,149.3433-85.9865,263.36-212.9924,342.846a23.0049,23.0049,0,0,1-2.2311,1.0915Q943.1287,1099.125,942.8376,1098.8466Z" transform="translate(-208.8885 -208.8886)"/><path class="c" d="M943.4147,1099.4082c-.3543.372-.7407.6536-1.1109.0685-.044-.0695.3454-.4133.5338-.63Q943.1286,1099.125,943.4147,1099.4082Z" transform="translate(-208.8885 -208.8886)"/><path class="c" d="M528.5036,1114.51c.3093.4128.4956.8376-.0283,1.2023a5.2613,5.2613,0,0,1-.57-.61Q528.1962,1114.7979,528.5036,1114.51Z" transform="translate(-208.8885 -208.8886)"/></svg>