<svg id="9c83fcf3-1f7e-4443-ab6c-e539c83d9ff1" data-name="Layer 1" xmlns="http://www.w3.org/2000/svg" viewBox="0 0 801.68 1201.46"><defs><style>.c8036ad4-0944-4e37-884a-a79571668cff{fill:#a259ff;}.\32 47d7a21-614c-4c32-9a48-880e37f47513{fill:#0acf83;}.\30 35aff76-58d9-4c86-af57-ac76dac25061{fill:#fff;}.\36 4d55438-d3d3-4d66-911a-0e5d74b319e7{fill:#fac4b5;}.\34 406d36a-6877-467a-b7ed-c6c6ccebb435{fill:#ff7262;}.cf8e2d6e-8540-4376-8235-11c752ecde58{fill:#f24e1e;}.\30 f8c61c4-b037-43ac-8b46-e03ad1f75766{fill:#1abcfe;}</style></defs><title>figma-logo</title><path class="c8036ad4-0944-4e37-884a-a79571668cff" d="M731.82,527.67q.06,93.23.13,186.46l0,27.53q-.06,91.05-.13,182.09c0,1.44-.11,2.88-.16,4.33H529.56c-1.78,0-3.56,0-5.33-.07a279,279,0,0,1-30.07-3.59,198,198,0,0,1-63.06-23.47,200.82,200.82,0,0,1-50.67-41.85A198.86,198.86,0,0,1,331.75,741.8c-.14-2.16-.13-4.43-1.14-6.47V720c.65-.6.52-1.42.62-2.18.91-7.49,1.37-15,2.58-22.48A200.87,200.87,0,0,1,468.47,537.51c16.42-5.5,33.33-8.43,50.53-9.9,4.56,0,9.11-.05,13.67-.05H726.38" transform="translate(-330.61 -126.85)"/><path class="247d7a21-614c-4c32-9a48-880e37f47513" d="M524.23,928c1.77,0,3.55.07,5.33.07H731.68c.05,1.1.14,2.21.14,3.32q0,97.78,0,195.56c-.06,44.69-13,85.28-39.94,121-30.85,41-71.69,66.45-121.92,76.8a153.71,153.71,0,0,1-22.12,3c-.76,0-1.58-.07-2.2.55H524.26l-10.47-.53A205.46,205.46,0,0,1,481,1322q-82.93-22.82-125.21-97.75a189.63,189.63,0,0,1-22.63-68.22c-.63-4.72-1.12-9.47-1.67-14.21a26.72,26.72,0,0,0-.36-7.26,40.11,40.11,0,0,1,0-13.21,29.45,29.45,0,0,0,.41-7.27,12,12,0,0,0,.24-1.31,198.89,198.89,0,0,1,12.86-57c23.4-61.3,78.25-108.68,142.27-122.92A219.78,219.78,0,0,1,524.23,928Z" transform="translate(-330.61 -126.85)"/><path class="035aff76-58d9-4c86-af57-ac76dac25061" d="M519,527.61c-17.2,1.47-34.11,4.4-50.53,9.9A200.25,200.25,0,0,0,333.81,695.32c-1.21,7.46-1.67,15-2.58,22.48-.1.76,0,1.58-.62,2.18V340.69l1,.05a179.26,179.26,0,0,0,6,37.12q20.44,75.39,85.95,118c28.93,18.82,60.86,28.91,95.27,31.24A4.16,4.16,0,0,1,519,527.61Z" transform="translate(-330.61 -126.85)"/><path class="64d55438-d3d3-4d66-911a-0e5d74b319e7" d="M330.61,313.31l1-.07a46.44,46.44,0,0,1-.45,9.27,27.49,27.49,0,0,0,0,9,47.24,47.24,0,0,1,.45,9.27l-1-.05Z" transform="translate(-330.61 -126.85)"/><path class="64d55438-d3d3-4d66-911a-0e5d74b319e7" d="M331.51,1141.86l-.9.14v-28l1,.16a29.5,29.5,0,0,1-.41,7.28,40.11,40.11,0,0,0,0,13.21A26.72,26.72,0,0,1,331.51,1141.86Z" transform="translate(-330.61 -126.85)"/><path class="64d55438-d3d3-4d66-911a-0e5d74b319e7" d="M513.58,1328.31a2.66,2.66,0,0,1,.21-.53l10.47.53Z" transform="translate(-330.61 -126.85)"/><path class="4406d36a-6877-467a-b7ed-c6c6ccebb435" d="M731.5,126.92c68.08,0,131.71.07,199.79.11,3,0,6,0,9,0,43.69,2.09,82.78,16.55,117,43.89,30.4,24.32,51.8,55.09,64.52,91.86a196.44,196.44,0,0,1,9,39.24,214.34,214.34,0,0,1,.9,41,184.82,184.82,0,0,1-14.12,59.76Q1089.9,468.88,1027,503.43a196.2,196.2,0,0,1-67.11,22.05c-5.16.74-10.39,1-15.59,1.54q-15,0-29.95,0a6.17,6.17,0,0,0-1.58.42H736.14c-1.44,0-2.88.12-4.32.18" transform="translate(-330.61 -126.85)"/><path class="cf8e2d6e-8540-4376-8235-11c752ecde58" d="M731.82,527.67l-5.26-.12H535c-5.33,0-10.67.13-16,.07a197.28,197.28,0,0,1-95.43-31.74q-65.4-42.56-85.95-118a179.26,179.26,0,0,1-6-37.12,47.24,47.24,0,0,0-.45-9.27,27.49,27.49,0,0,1,0-9,46.44,46.44,0,0,0,.45-9.27q6-79.38,64.34-133.6c27.93-26,60.93-42.32,98.45-49.45a210.8,210.8,0,0,1,29.1-3.34c3.34,0,6.67.06,10,.06,64.51,0,133.48,0,198,0Z" transform="translate(-330.61 -126.85)"/><path class="0f8c61c4-b037-43ac-8b46-e03ad1f75766" d="M732,741.66q0-13.75,0-27.54a4.92,4.92,0,0,0,.53-2.58c.2-4.11.77-8.18,1.33-12.26a191.41,191.41,0,0,1,18.51-60q32.76-65.24,99.48-95.13a192.91,192.91,0,0,1,56.4-15.38c2.85-.34,5.78-.16,8.56-1l27.4-.18a246.49,246.49,0,0,1,34.57,5.28,199.81,199.81,0,0,1,152.94,210.21c-3.25,42.63-18.74,80.52-46.27,113.29-25.89,30.81-58.26,51.93-96.83,63.44a191,191,0,0,1-39.26,7.33c-30.17,2.47-59.47-1.3-87.81-12.06C824.3,901,794,877.75,770.37,845.74a197.1,197.1,0,0,1-35.6-83.3,146.48,146.48,0,0,1-2.26-18.19A5.17,5.17,0,0,0,732,741.66Z" transform="translate(-330.61 -126.85)"/><path class="64d55438-d3d3-4d66-911a-0e5d74b319e7" d="M944.16,527.58l-27.39.18a19.14,19.14,0,0,1-4-.28,6.17,6.17,0,0,1,1.58-.42q15,0,29.95,0A5.73,5.73,0,0,1,944.16,527.58Z" transform="translate(-330.61 -126.85)"/></svg>