<svg xmlns="http://www.w3.org/2000/svg" width="19in" height="19in" viewBox="0 0 1368 1368"><defs><style>.a{fill:#5d5d5d;}</style></defs><title>express-logo</title><path class="a" d="M719.9231,36.0884c368.5553-5.806,679.0388,305.7091,684.0157,673.535,5.0576,373.7872-303.8864,689.7465-674.3142,694.3243C344.0539,1408.7128,42.453,1086.9346,36.1081,733.2056,29.2925,353.23,345.6213,29.8633,719.9231,36.0884Zm-39.2321,784.13c-25.5592,0-49.4219.33-73.2663-.1868-7.8771-.1706-10.8168,2.6833-12.6975,10.045-5.488,21.4828-18.0632,38.37-35.2795,52.213-31.9464,25.6876-69.16,31.2272-108.4357,29.1251-68.2469-3.6527-121.0359-45.487-136.5538-109.31-3.8032-15.6422-4.8495-32.0384-6.2051-48.1686-1.1633-13.8421-.5581-13.9274,13.5078-13.9287q176.9806-.0159,353.9607.1888c9.8548.0254,13.6321-2.3063,13.3753-12.802-1.0453-42.732-6.5344-84.7118-21.8759-124.7448-25.676-67-68.1088-119.5913-139.1261-139.73C410.3926,429.54,291.77,478.9687,242.3385,598.1145c-38.5154,92.8346-29.9626,185.3,13.6719,274.1582,25.0351,50.9819,67.726,84.3189,121.9607,100.9876,55.28,16.99,111.5688,17.8028,166.7139.1849,65.2258-20.8385,110.5876-63.2543,130.4617-130.3372C677.1977,836.1851,678.57,829.0606,680.691,820.2187Zm41.6522-365.7932c3.9225,5.5762,6.1646,8.8853,8.5279,12.1054,55.8779,76.1366,111.5865,152.3991,167.9023,228.21,6.5779,8.8549,5.7838,14.3256-.2139,22.68q-91.6522,127.66-182.5947,255.8309c-2.3944,3.3616-4.4428,6.97-7.7536,12.2041,32.7814,0,62.986-.371,93.1715.2222,9.2533.1818,14.5842-2.928,19.664-10.5594q65.6172-98.5772,131.962-196.6693c2.3986-3.5665,4.9734-7.0142,8.3652-11.78,3.3378,4.7117,5.8956,8.1661,8.2922,11.7291q66.4033,98.7178,132.63,197.5533c4.5822,6.8685,9.3208,9.8884,17.84,9.7245,29.4883-.5672,58.9944-.1969,88.4937-.2486,3.3837-.0059,6.7669-.4216,12.2426-.7869-4.3434-6.162-7.2462-10.3384-10.2074-14.4727q-93.7668-130.9137-187.7479-261.6727c-5.6029-7.7608-5.08-12.5091.4246-19.8194q83.881-111.3967,167.1032-223.29c2.2887-3.0643,4.32-6.3208,7.4306-10.899-5.2918-.3263-8.4894-.6894-11.6876-.6947-27.2867-.0453-54.5782.253-81.8575-.1992-7.9369-.1316-12.7252,2.6306-17.2412,9.0271Q1028.3657,545.7961,969.0843,628.58c-2.25,3.156-4.7821,6.11-7.9488,10.13-3.3891-4.7565-5.9656-8.2514-8.4175-11.8317-36.6861-53.57-73.5442-107.0237-109.8422-160.8558-5.9683-8.8512-12.0388-12.9364-23.18-12.5615-27.6244.93-55.301.2845-82.9564.3294C732.8352,453.7965,728.932,454.1238,722.3432,454.4255Z" transform="translate(-36 -36)"/><path class="a" d="M597.4321,669.8909H308.0179c4.8477-49.8024,22.8922-91.84,65.3787-118.8216,51.1974-32.5131,104.6339-32.2363,156.762-1.4719C571.17,573.8013,602.2215,630.7746,597.4321,669.8909Z" transform="translate(-36 -36)"/></svg>